/* XPM */
static char *result[] = {
/* columns rows colors chars-per-pixel */
"64 64 181 2 ",
"   c black",
".  c #120F0D",
"X  c #031207",
"o  c #1B1714",
"O  c #052B0F",
"+  c #063C15",
"@  c #10381B",
"#  c #2A241E",
"$  c #2E2720",
"%  c #302921",
"&  c #0B501F",
"*  c #154322",
"=  c #184726",
"-  c #194A27",
";  c #1C4D29",
":  c #0D5221",
">  c #095A27",
",  c #125625",
"<  c #1C552B",
"1  c #155A2B",
"2  c #1B5D2D",
"3  c #145827",
"4  c #085E33",
"5  c #135E30",
"6  c #1E5E31",
"7  c #215F32",
"8  c #106227",
"9  c #12682C",
"0  c #1D6D34",
"q  c #1D733F",
"w  c #1D7236",
"e  c #216133",
"r  c #226936",
"t  c #2B663B",
"y  c #256D39",
"u  c #2C683C",
"i  c #386738",
"p  c #3A6D3C",
"a  c #26733D",
"s  c #28743D",
"d  c #28793F",
"f  c #196C43",
"g  c #137342",
"h  c #2D6A41",
"j  c #266941",
"k  c #376F45",
"l  c #297B41",
"z  c #367B46",
"x  c #3B744B",
"c  c #317447",
"v  c #524D49",
"b  c #525050",
"n  c #5B5659",
"m  c #6B5542",
"M  c #6D5945",
"N  c #615F5F",
"B  c #655753",
"V  c #705E51",
"C  c #40744B",
"Z  c #4E7C4C",
"A  c #427446",
"S  c #507548",
"D  c #50794D",
"F  c #4C7758",
"G  c #4F7451",
"H  c #527D54",
"J  c #6F6248",
"K  c #6F6152",
"L  c #6B635D",
"P  c #716254",
"I  c #736C59",
"U  c #667F54",
"Y  c #7C7955",
"T  c #6D6666",
"R  c #7A6A65",
"E  c #99620C",
"W  c #8D6412",
"Q  c #9D6711",
"!  c #9E761B",
"~  c #A77519",
"^  c #A87619",
"/  c #967227",
"(  c #9F7A35",
")  c #A47324",
"_  c #AA7B32",
"`  c #FF6D00",
"'  c #FF7900",
"]  c #FF7B0C",
"[  c #8B6F58",
"{  c #816A54",
"}  c #8D745B",
"|  c #9B7C5E",
" . c #92765A",
".. c #907D60",
"X. c #9C7F61",
"o. c #2C8144",
"O. c #2D994D",
"+. c #279445",
"@. c #349E53",
"#. c #3C9D55",
"$. c #37A051",
"%. c #38A457",
"&. c #40884E",
"*. c #4B8451",
"=. c #5E8256",
"-. c #608258",
";. c #698B58",
":. c #7C8F5D",
">. c #49A25D",
",. c #5FA05B",
"<. c #5D8264",
"1. c #6A8261",
"2. c #778F67",
"3. c #7B8062",
"4. c #689264",
"5. c #789769",
"6. c #4DA865",
"7. c #5BA864",
"8. c #5AA563",
"9. c #63AA6A",
"0. c #67A363",
"q. c #78AB70",
"w. c #71AD72",
"e. c #FD821F",
"r. c #A3825F",
"t. c #858D61",
"y. c #8C8D61",
"u. c #898D6A",
"i. c #9F8564",
"p. c #859462",
"a. c #84936E",
"s. c #889568",
"d. c #829A6E",
"f. c #889565",
"g. c #989C6C",
"h. c #988473",
"j. c #849E71",
"k. c #AF9B6D",
"l. c #BB9E6B",
"z. c #A78E77",
"x. c #A38E7B",
"c. c #AF9E72",
"v. c #8CAC72",
"b. c #9EA071",
"n. c #86B278",
"m. c #AEA86C",
"M. c #BCA36F",
"N. c #BCA86F",
"B. c #A4A173",
"V. c #ABA475",
"C. c #ADAC71",
"Z. c #B7A576",
"A. c #BDA273",
"S. c #BDAF77",
"D. c #C99A6C",
"F. c #C59868",
"G. c #CA9D71",
"H. c #C49B73",
"J. c #C4A16F",
"K. c #CBA26C",
"L. c #D5A36D",
"P. c #DAA36D",
"I. c #C3A574",
"U. c #CBA474",
"Y. c #CBAA76",
"T. c #C5AA7C",
"R. c #CCAB7A",
"E. c #C4A877",
"W. c #D3A272",
"Q. c #DCA671",
"!. c #D6AC76",
"~. c #DEA975",
"^. c #D3AC7B",
"/. c #DEAB78",
"(. c #D0A378",
"). c #D7B17E",
"_. c #E6A467",
"`. c #E0AB77",
"'. c #E0AC78",
"]. c #E4B17E",
"[. c #E6B381",
/* pixels */
"P.P.P.P.P.P.P.P.P.P.P.P.P.P.P.`.`.Q.P.~.~.`./.~.P.Q.~.~.P.P.P.Q.~.~.Q.P.~.~.Q.P.P.P.P.P.L.L.P.`.`.P.P.P._.L.L._.~.~.'.Q.P.Q.~./.",
"P.P.P.P.P.P.P.P.P.P.`.P.P.P.P.Q.~.Q.Q.Q.~.~.~.~.~.Q.Q.Q.P.P.P.P._.`.P.P.~.~.P.P.P.P.P.P.P.P.P.`.`.P.L.P.L.P.L.P.Q.`.'.Q.P.~.'.'.",
"P.P.P.P.P.P.P.P.`.'.`.P.P.P.P.P.Q.Q.~.Q.P.~.~.~.~.Q.P.P.P.P.Q.P.P.P.P.P.P.P.P.P.P.P.P.L.P.`.`.P.P.P.P.P.P.P.P.P.P.~.`.Q.P.Q.`.'.",
"P.P.P.P.P.P.P.P.`.].'.P.P.P.P.P.P.Q.~.Q.Q.~.~.~./.~.P.P.P.P.P.P.Q.Q.P.P.Q.Q.P.P.P.P.P.P.P.`.P.P.P.P.P.P.P.P.P.P.P.Q.~.P.P.Q.~.~.",
"P.P.P.P.P.P.P.P.'.].'.P.P.P.P.P.P.P.Q.Q.`.Q.P.~./.~.P.P.P.P.P.P.Q.`.Q.P.~.~.Q.P.P.P.P.P.P.P.P.P.P.P.`.P.P.P.P.P.P.P.P.L.P.L.P.P.",
"P.P.P.P.P.P.P.~.`.'.`.P.P.P.P.P.P.P.Q.Q.Q.P.P.Q.~.Q.Q.Q.P.P.P.P.Q.Q.Q.Q.~.~.~.Q.P.P.Q.Q.Q.P.P.`.`.`.'.P.P.P.P.P.L.P.P.P.L.P.P.P.",
"P.P.Q.`.Q.P.~.].'.`.P.P.P.P.P.P.P.~.`.~.P.P.P.P.P.Q.~.Q.P.P.P.L.Q.P.P.P.`.'.~.~.Q.P.`.'.`.P.Q.'.'.].].P.P.P.P.P.P.P.P.P.P.Q.~.`.",
"P.P.~.~.Q.P.`.].`.P.P.P.P.P.P.P.P.~.Q.P.P.P.U.E.E.E.T.T.E.A.E.E.E.E.E.E.T.T.T.T.E.U.~.].`.P.P.].].].].P.P.P.P.P.P.P.P.P.P.Q.`.~.",
"P.P.P.Q.P.P.'.].`.`.Q.P.P.P.P.P.P.P.P.P.P.P.;.d z z z z z z z z z z z z z z z z d 4.L.~.Q.P.P.~._.].'.!.Q.P.P.Q.P._.~.~.~.Q.P.~.",
"P.P.P.P.P.Q.`.'.`.`.~.P.P.P.P.P.L.P.P.P.K.F.Z 0 0 0 w r 0 0 0 0 0 0 0 0 0 0 w r 0 *.l.D.P.Q.Q.P.Q.'.'.`.'.P.P.~./.~.`.'.`.Q.P.P.",
"P.P.P.P.Q.`.~.~._.P.P.P.P.P.P.P.P.P.P.U.H i p s a a a a a a a a s a s s s a a a s s p D I.'.'.'.].].].Q.Q.Q.Q.`.'./.'.'.`.~.~.~.",
"P.P.P.P.Q.`.Q.P.P.P.P.P.P.P.P.P.P.P.P.I.k , s d a a a a s a a a y a s a a a a a s y 2 u A.[.[.[.[.].].P.P.`.'.~.'.'.~.'.`.'.'.'.",
"P.P.P.Q.~.`.~.~.P.P.~.'.`.Q.Q.Q.Q.P.Q.U.x 3 a d a a q a a a q a a a q a a q q a s a 9 h A.'.[.[.].`.!.Q.Q.].].~.`.Q.Q.`.'.`.`.`.",
"P.P.~._.~.`.~.~.~.Q.~.].'.Q.P.Q.Q.P.P.I.x > q q f a q g q q q q q q q q q q q q q q 5 j A.'.'.[.].P._.'.'.].[.].`.Q.P.Q.`.`.~.'.",
"Q.Q.~.~.~.~.~.~.~.Q.~./.`.Q.Q.P.Q.Q.~.W._ E ^ ^ ^ ^ ^ ^ ^ ^ ^ ^ ~ ^ ^ ^ ^ ^ ^ ^ ~ ^ Q ) L.'.[.[.].Q.!.].].].].].`.~.Q.`.~.].'.'.",
"~.~.Q.~.Q.~.~.~.~.~.~.~._.Q.P.P.Q.~./.Q.] ` ' ' ' ' ' ' ' ' ' ' ' ' ' ' ' ' ' ' ' ' ` ] _.[.[.[.[.~.].].[.[.].].`.`.'.'./.~.~.'.",
"~.~.~.~.~.~.Q.Q.~.~.~.Q.Q.Q.P.P.Q.Q.~.L.( W ! ! ! ! ! ! ! ! ! ! ! ! ! ! ! ! ! ! ~ ! W / L.].].].].].].].].].].'.`.`.'.'.`.`.'.'.",
"~.~.~.~.~.~.Q.P.P.~.~.~.Q.Q.P.P.P.P.P.J.c > q g g g g g g g g g g g g g g g g g g g 4 f M.`.~.`.'.[.[.Q.'.'.~.`.`.`.'.'.`.`.`.'.",
"/./.~./.~.Q.Q.P.Q.~.~.~.Q.Q.Q.Q.P.Q.Q.J.x > q q a a q y j q a q f a a a a q y q f a 5 h M.Q.`.`.`.[.[.].'.!.'.'.`.`.'.'.`.`.`.'.",
"/././.'.Q.Q.P.P.P.P.P.P.Q.~.~.Q.Q.~.~.K.C 3 a a a a a s d a a a s s a a a a s s d a 2 h l.P.P.`.'.[.[.[.].].'.`.'.'.'.'.`.`.'.`.",
"~.~./.'.Q.P.P.P.Q.P.P.Q.~.~.~.Q.P.`.~.U.C 3 a a a a s a y s s s a a a s s a a s a s 2 u M.P.P.`.`.[.].[.[.].'.'.`.].`.`.`.'.'.'.",
"P.P.~.'.Q.P.P.P.P.P.~.'.'.'.~.Q.~.~./.I.k , a s s a a s a a a s a s a s a a s a a a 2 u M.~.~.P.P.~.`.[.].`.'.].].!._.!.`.'.'.'.",
"Q.P.~.~._.P.Q.P.P.Q.~.~.'.'.~.~.P.`./.R.H t s a a s s s a a a s a a a a a a a s a s u x A.~.`.P.Q.~.`.[.[.'.`.].].`._.!.`.'.'.'.",
"'.'.P.P.P.P.~.`.~.'.'.'.`.'.'.'.`.'././.^.R.S 2 y s a s s a a a s a s s s s s a 1 A A.U.Q.P.P.[.[.[.[.`.].`.'.Q.P.Q.!._.`.`.`.'.",
"'.'.P.P.P.P.Q.~.'./.'.'.'.'.~.'.'.~.'.'.'.'.S 0 r s s s s s s a a s s s d s d r , Z L.P.P.P.Q.[.[.[.[.`.'.'.'.Q.P.P.P.Q.'.`.`.'.",
"'.`././.~.P.~.~.'.'.'.'.'.'.'.'.'.'.'.'././.A.k.U 2 e e e 7 r a s e 7 e e e 3 -.m.N.~.L.P./.~.P.Q.'.'.`.`.'.'.~.~.`.'.`.`.`.`.`.",
"'.'././.P.P.~.`.~.'.~.'.'./././.'.`.'./.'.'.'.~.y.* - < ; - < s s < - ; < ; + u.Q.'.Q.P.Q.'.`.P.Q.`.).`.'.'.].~.~.`.`.`.'.'.`.`.",
"'.'.`.'.P.P.~.`.'.'.'.'.'.~.~.Q.P.~.`.~.P.Q.A.m.;.< 7 7 7 7 7 y s r 7 e 7 e 3 -.C.S.!.P.P.~.~./.`.`.'.P.Q.P.P.P.P.Q.~.Q.P.P.P.Q.",
"'.'.'.'.Q.P.~.`.'.'.`.`.`.`._.Q.P.~.~.~.P.P.0.$.o.a s s a s s a a s s s s s s d O.7.).P.Q.Q.!.`.'.'.`.Q.P.P.P.P.P.Q.~.Q.P.P.P.Q.",
"'.~././.~.~.~.`.~.~.~.`.`.`.~.`.~.~.Q.Q.~.~.0.$.o.y s s a s a s a a s a a a a l $.7.!.P.Q.`.`.`.`./.`.P.P.~.~.Q.~.~.~.~.~.Q.Q.`.",
"'.'.~.~.~./.'.`.~.Q.`.~.`.~.`.~.~.P.P.~.~.~.,.O.o.s s s s s a a a a a a s s a d +.7.!._.Q.`.Q.~.`.`.`.P.P.~.`.~.~.].'.'.`.`.].'.",
"'.'.'.'.~.'.`.`.~.Q.Q.~.~.`.`.`.~.~.~.Q.Q.!.v.7.o.y s s a a s a a a s s s s r z 7.n.).!.Q.Q.Q.Q.Q.Q.Q.Q.Q.~.`.~.~.~.~.`.'.'.`.`.",
"[.`.`.`.`.`.`.`.~.Q.~.`.~.Q.P.~.`.`.~.Y.w.0.^.~.s.3 r a s s s a a a a s a y : 2.).).q.9.Y.P.P.P.P.P.P.~.Q.~.`.~.~.~.~.`.`.'.'.'.",
"Q.`.`.`.`.`.`.`.~.~.~.`.~.P.P.~.`.`.`.Y.>.+.K.Q.y.2 r s s u a a a a a s s y & s.~./.>.$.M.P.P.P.P.P.P.~.~.~.~.~.~.~.`.`.`.'./.'.",
"`.[.`.`.`.`.`.`.`.`.`.`.~.P.P.~.'.`.~.R.6.@.K.Q.t.7 r a a a a a s s s a s y & a.~./.8.#.M.P.P.`.~.P.P.Q.~.~.~.~.~.~.`.`.'.'.'.'.",
"`.Q.`.`.`.`.`.`.`.`.`.`.~.P.P.~.'.'.].R.6.@.D.`.t.2 r s a a a a y s a a s y : a.~.W.8.$.N.P.P.`.`.Q.Q.~.~.~.P.~.`.~.`.`.'./.'.'.",
"`.[.Q.Q.`.`.`.`.`.`.`.`.Q.Q.P.~.'.'.'.R.U F G.Q.t.2 r a a s s l a l a s a y : a.L.Q.1.F I.P.P.`.`.`.'.~.~.P.P.~./.'.'.'.'.'.'.'.",
"`.`.Q.[.`.`.`.`.`.`.`.`.`.Q.Q.`.~.~.`.(.L n W.Q.p.r s o.o.o.l o.z l o.o.o.l > d.P.Q.R n G.P.P.~.~.`.'.~.~.P.P.~.'.'.~.'.'././.'.",
"`.`.`.`.`.`.`.`.`.`.`.`.`.`.`.`.`.Q.Q.W.T B L.`.Y @ * = = = = = = = = = = = O 3.Q./.R n G.P.P.P.Q.`.`.'.'.P.P.~.'./.~.`.'.~.~.~.",
"`.`.`.`.`.`.`.`.`.`.`.~.`.`.`.`.`.`.Q.U.N v W.`.m                             V ~.~.L b H.P.P.P.P.`.~.~.~.~.P.~.'.~.~./.'./.~./.",
"`.`.`.`.`.`.`.`.`.`.Q.Q.Q.`.`.`.`.`.'.~.z.X.W.`.M                             P ~.Q.z.h.(.P.P.P.P.Q.Q.Q.Q.Q.Q.`.'.~.P.~./.'./.'.",
"[.`.`.`.`.`.Q.[.`.`._.Q.P.`.`.`.`.`.'.'.'.`.Q.`.M                             P Q.P.Q.~.Q.P.P.P.Q.P.P.P.P.Q.Q.Q.~.Q.P.Q./.~.'.'.",
"Q.Q.`.`.[.Q.Q.[.`.`.`.`.`.`.`.`.'.'.'.'.'.`.`.`.M   . $ $ $ # # # # # # % o   P Q.~.Q.Q.P.P.P.Q.P.P.Q.Q.Q.Q.P.P.P.P.P.~.~.~.~.~.",
"Q.[.`.`.Q.[.Q.Q.`.`.`.`.`.`.`.`.'.'.'.'.'.'.'.`.M   I K.D.G.G.G.G.G.F.F.D. .  K Q.~.~.L.P.P.P.P.P.Q.Q.Q.Q.P.P.P.P.P.P.Q.~.~.~.~.",
"W.[.P.[.Q.[.P.[.`.`.`.`.`.`.`.'.`.`.`.`.'.`.'.'.M   i.~.`.`.`.~.~.~.~.~.P.r.  K W.~.Q.~.~.P.P.P.P.P.P.P.P.P.P.P.P.Q.`.Q.Q.Q.~.~.",
"~.P.[.Q.[.Q.[.P.`.`.`.`.`.`.`.'.'.`.].`.'.'.'.`.M   } ~.~.`.Q.~.~.~.~.`.Q.|   K Q.P.Q.'.~.Q.Q.P.Q.P.P.P.P.P.P.P.P.Q.`.Q.P.~.~.~.",
"~.[.Q.[.[.P.Q.Q.`.`.`.`.`.`.'.'.'.'.`.`.`.`.'.`.m   } ~.~.~.Q.P.P.Q.P.Q.Q.|   P Q.L.Q.'.`.~.~.~.Q.P.P.P.P.P.P.P.P.P.P.Q.Q.Q.`.~.",
"~.Q.Q.[.P.[.Q.[.`.`.`.`.`.`.'.'.'.'.`.`.`.`.`.`.m   } ~.~.Q.P.P.P.P.P.P.~.X.  P Q.L.Q.~.`.`.`.'.Q.P.P.P.P.P.P.P.P.P.P.Q.!.`.~.~.",
"[.~.[.Q.`.`.`.~.`.`.`.~.[.[.Q.~.`.`.`.'.'.`.`.`.m   } `.~.~.~.~.Q.Q.Q.Q.~.X.  K Q.Q.Q.Q.Q.P.P.[.`.P.P.P.P.P.P.P.P.P.P.P.P.Q.`.`.",
"Q.~.[.~.~.W.[.Q.~.[.`.`.Q.~.[.~.`.`.'.'.`.`.`.P.m   } ~.~.~.~.`.~.'./.'.'.X.  V [.Q.[.P.P.D.P.[.`.P.P.P.P.P.P.P.P.P.P.P.P.P.Q.`.",
"P.[.P.[.Q.[.Q.Q.~.Q.~.`.`.`.Q.~.`.`.`.`.`.`.`.`.m   [ ~.~.`.`.~.~./.`.~.~.X.  V W.[.Q.Q.Q.P.Q.Q.Q.P.P.P.P.P.P.P.P.P.P.P.P.Q.Q.`.",
"[.P.[.P.[.Q.[.[.`.[.`.`.`.`.Q.[.`.`.`.P.`.`.`.P.J X  .`.'.`.~.~.~.~.Q.~.`.i.X R [.Q.Q.[.Q.[.Q._.P.P.P.P.P.P.P.`.Q.P.P.`.`.Q.P.P.",
"P.[.[.P.[.Q.[.Q.Q.[.`.`.`.`.`.Q.`.`.`.`.`.`.`.~.p.9 b.Q.~.~.~.~.~.`.~.~./.V.8 d.W.Q.Q.[.Q.[.P.D.L.P._.P.P.P.P.P.`.Q.P.Q.`.Q.P.P.",
"Q.W.Q.[.[.Q.P.[.~.`.`.`.`.~.~.Q.P.`.`.`.`.`.`.`.f.w b.Q.~.~.~.~.`.'.'.~./.B.9 q.P.P.P.P.P.P.P.P.P.P.F._.L.P.P.P.`.Q.P.Q.`.P.P.P.",
"~.~.Q.Q.P.W.~.~.`.`.`.`.`.`.`.Q.P.`.`.`.`.P.`.P.:.8 g.~.~.~.~.~.`.'./.~./.c.> 2.Q.P.Q.[.[.P.P.P.P.K._.L.P._.D.P.Q.Q.P.Q.Q.P.P.P.",
"~.`.P.P.Q.[.[.Q.`.`.`.`.`.`.`.`.`.`.`.`.P.P.P.P.f.a B.~.~.~./.'.'.'./.'./.V.0 h.~.W.[.Q.Q.P.P.P.L._.L.L.P.L._.L.P.Q.`.Q.P.P.P.P.",
"W.[.P.P.Q.Q.~.`.`.`.[.P.[.Q.[.P.`.`.~.Q.P.P.P.P.U.Z.^.~.`.~.`.~.~.~.~.~.~.^.Z.(.Q.[.Q.[.Q.W._.P.D.P.P.Q.P.P.P.P.P.Q.P.P.P.P.P.P.",
"Q.Q.[.~.[.Q.[.Q.Q.[.Q.[.P.[.W.[.`.`.`.~.Q.`.~.P.P.P.`.~.~.~.~.~.~.~.'.~.Q.P.P.P.Q.Q.[.Q.[.~.Q.P.P.P.P.Q.Q._.D.P.L.P.P.P.P.P.P.P.",
"~.Q.[.W.Q.[.Q.[.~.[.P.Q.P.[.[.Q.`.`.`.`.~.~.~.~.P.Q.Q.~.Q.~.~.Q.~.~.~.~.Q.L.P.P.P.[.[.Q.~.Q.~.D.P.P.P.Q./.P.P.P.P.P.P.P.P.P.P._.",
"P.Q.Q.Q.[.Q.W.[.[.P.[.Q.[.Q.[.Q.`.`.`.~.P.P.P.P.`.`.~.~.~.~.~.~.~.~./.'.~.Q.Q.Q.P.[.Q.[.~.[.~.P.P.P.P.P.P.P.P.Q.`.P.L.P.P.L.L.Q.",
"P.P.~.~.[.Q.[.P.P.[.Q.[.W.`.`.`.`.~.`.P.P.P.Q.Q.`.`.Q.Q.~.~.~.~.~.~.'.'./.~.Q.P.Q.[.Q.Q.Q.[._.D.P._.P.P.P.P.D.P.P.P.P.P.P.P.P.P.",
"P.P.P.P.Q.Q.P.[.[.P.[.Q.`.`.[.`.`.~.P.~.`.~.~.Q.P.P.Q.P.P.Q.~.~.~.'.'.'.'./.Q.P.P.Q.Q.[.Q.P.P.P.P.D._.D.P.P._.P.P.P.P.P.P.P.P.L.",
"P.P.P.P.Q.[.P.[.P.Q.[.Q.P.[.Q.Q.~.P.P.~.`.`.`.Q.P.P.P.P.P.Q.~.~././.'.'././.Q.P.P.P.P.Q.[.P.P.P.P._.P.P.P.P.P.P.P.P.P.P.P.P.P.P.",
"P.P.P.P.Q.P.P.Q.Q.W.Q.P.[.Q.[.Q.Q.P.P.~.`.~.'.Q.P.P.P.P.Q.Q.Q.Q.Q.Q.~./.'./.Q.P.Q.Q.`.[.`.P.P.P.P.D.P.P.P.Q.Q.Q.P.P.P.P.P.P.P.P."
};
