/* XPM */
static char *result[] = {
/* columns rows colors chars-per-pixel */
"64 64 128 2 ",
"   c #DBA46E",
".  c #DAA36D",
"X  c #DAA36C",
"o  c #DBA46D",
"O  c #DAA46D",
"+  c #DAA46E",
"@  c #DCA670",
"#  c #DFAA76",
"$  c #DFAA77",
"%  c #DBA56E",
"&  c #DDA974",
"*  c #DFAB77",
"=  c #DDA873",
"-  c #DDA771",
";  c #DCA56E",
":  c #DCA570",
">  c #DEA974",
",  c #DCA671",
"<  c #D9A26B",
"1  c #E0AC77",
"2  c #DFAB75",
"3  c #D9A26C",
"4  c #D9A36C",
"5  c #E0AC78",
"6  c #DCA771",
"7  c #DDA772",
"8  c #DEA873",
"9  c #DDA773",
"0  c #DEA874",
"q  c #DEAA75",
"w  c #DEA975",
"e  c #DEA872",
"r  c #DBA56F",
"t  c #DCA56F",
"y  c #E0AB76",
"u  c #DDA872",
"i  c #E0AB78",
"p  c #E0AC79",
"a  c #E0AA75",
"s  c #E4AF7D",
"d  c #E0AB77",
"f  c #DBA46F",
"g  c #DDA874",
"h  c #DFAB76",
"j  c #DEAA74",
"k  c #E0AA76",
"l  c #E5B17F",
"z  c #E1AC78",
"x  c #DCA770",
"c  c #DBA670",
"v  c #DCA66F",
"b  c #DFA975",
"n  c #DDA671",
"m  c #DFAA75",
"M  c #E2AD7A",
"N  c #DBA570",
"B  c #DEA772",
"V  c #DDA670",
"C  c #E1AE7A",
"Z  c #E1AE79",
"A  c #E3AE7C",
"S  c #E4B07D",
"D  c #E5B27F",
"F  c #E4B17E",
"G  c #E1AB78",
"H  c #E5B180",
"J  c #DBA36D",
"K  c #DFA976",
"L  c #E5B17E",
"P  c #E1AD79",
"I  c #E5B280",
"U  c #E2AD79",
"Y  c #DAA26C",
"T  c #E2AE7A",
"R  c #DEA973",
"E  c #E1AC79",
"W  c #E1AD78",
"Q  c #DDA871",
"!  c #E3B07D",
"~  c #DEAA76",
"^  c #DFA974",
"/  c #E6B280",
"(  c #E6B381",
")  c #DDA973",
"_  c #DCA772",
"`  c #E3AF7D",
"'  c #DFAA74",
"]  c #E4B07E",
"[  c #E2AE7B",
"{  c #E2AD7B",
"}  c #E3AF7C",
"|  c #E6B380",
" . c #DFAB78",
".. c #DEA976",
"X. c #E3B07C",
"o. c #E1AD7A",
"O. c #DDA56F",
"+. c #DCA46E",
"@. c #DEAB76",
"#. c #E0AA77",
"$. c #DDA570",
"%. c #DEA773",
"&. c #DEA671",
"*. c #DFA873",
"=. c #DEA670",
"-. c #DDA66F",
";. c #DEA771",
":. c #E1AC77",
">. c #DFA874",
",. c #DCA46F",
"<. c #E1AB77",
"1. c #DCA872",
"2. c #DCA672",
"3. c #D9A06B",
"4. c #DBA36E",
"5. c #D9A16B",
"6. c #DCA470",
"7. c #DAA26D",
"8. c #DAA36E",
"9. c #DAA16C",
"0. c #DCA871",
"q. c #DBA36F",
"w. c #D9A16C",
"e. c #DAA26E",
"r. c #DDA770",
"t. c #D9A06C",
"y. c #DEAA77",
"u. c #DAA26B",
/* pixels */
"  . X X X X X X . o O + O o @ # $ @ % & * * * = % - # = ;   o @ # # :   > * , X X . . X X < + 1 2 < < < < 3 4 > 5 5 5 6 O 7 * 5 ",
"o X X X X X X X @ 8 @ . . X   9 0 - @ 7 & q * w - 7 = , o o X ; e 8 r   7 8 t X X . . X O t @ > e < < < < < < - 8 y 5 , . u i p ",
"o X X X X X X X a s d f . o o O r g w @ % & * * # = o O X X o o o o X X O   . . . X X . r h j o O < < X X X X O o > 5 , 4 7 i p ",
"o X X X X X X X k l z f . o o X o 7 = x @ 7 & w * = X X X X o % r t o X r : f . . X X . r > e X X r r X X X X X X 6 & r 3 c g > ",
"o X X X X X X X k l z   . . . X X o r = w @   - * = o o X X X r > > v   8 b n o . . . X .   o X o 2 m X X X X < < X . 4 < 4 . . ",
"o X r c O X t 7 k M b   X . . X . % @ = = r X N > 7 @ t X X X % = = t ; 0 $ 8 @   . r B V X o B 8 C Z X X X X X < < < < < . % r ",
"o X > # @ X a A d - % X X o o o % = > @ %   o   % , q 7 O X X .     o ; 0 i $ b , X u S z < r S S D F < < X X X X X X < < @ w m ",
"O X w * @ . G H d r . X X o o o ; = > t X J o X X @ q = O X X X X X o ; 8 $ $ K , X e L P < r L l I D X X X X o o o o O . 7 m * ",
"X X t @   X G H U 8 v o o X X X X   r o o X X Y X   , t X X X X X . o o v V V @ ; o t 8 - X O 8 > T T R R O 4 - > > > > R 6 r 7 ",
"X X X X . o d s E > x o o X X < < < < o   X Y Y X .   J X X X X . . o o o o o o o o o % % % % % @ W z h h r X > 5 1 1 1 1 Q O @ ",
"X X X X , 8 R > - v % O X o o X X X . 6 =   Y X o J . . J o o o o o . X o o o o o o - P P P P P M S ! @ @ u u h 1 5 5 1 1 m R j ",
"X X . o 0 d u   . X o   % o o % o X   & ~ c X o   J Y .         o o X X o o o o o o ^ I I I / ( ( l F X X 2 5 1 1 d * 1 1 1 1 1 ",
"X X @ , b 5 > - r o 7 d m v % @ @ % % & h ) _ @   J Y .         o o . X o o o o o o e A A A ` ( D m m u u T ! P 1 = 6 ' 1 1 1 1 ",
"  . = > h d # > - t k ] [ - ; 7 u v t & h h ~ 7 o J Y .         . . o o o o o o   % - i i p { ( F O o 5 5 D ( T 1 @ X u y 5 5 5 ",
", @ 8 > q # w > = - m P d V   v 6 - 7 u u u 7 : J J . . J       . . o o o o o   @ e > i E ` ] ( D u u } } I ( T 1 R - ' 1 5 5 5 ",
"w > > > > > > > > > > > u t o o t g q @ o o o J Y .   J Y .   J Y Y J         t R 1 1 i M | | | D 5 W | | | | T 1 1 1 1 1  . .5 ",
"..~ > > > > e - = > > > u t o o % - 7 t o o J J . J   J . .   . . . .       @ 8 m 1 1 i E X.X.X.X.} } X.X.X.X.P 1 1 1 1 1 1  .5 ",
"$  .w > > > V o , > > > u t       o o     . Y .             . . . . . .   t > 1 1 1 1 i i 1 1 1 W ( | 1 1 1 1 1 1 1 1 1 1 1 1 5 ",
"*  .m q R u v o @ 7 = = 7 , : f   t v r   . . .             . . . . . .   r u m m ' m d h ' m 1 W ( ( Z Z 5 1 1 1 1 1 1 1 1 1 5 ",
" . .5 5 - % o o         , # # , @ m * n                       J Y Y J           o X r q u X % 1 W ( ( ( ( o.5 1 1 E E 5 1 5 5 d ",
"~ ~ i 5 - % o o     r : 7 h # , @ m * 7 : f                   J Y Y J           o X @ q ) % v m y l D ( ( o.5 W P 5 d d 1 5 5 5 ",
"o X m d n   o o o o 7 d 5 E # , @ m 5 5 * -           J Y J O.+.J Y X X o           - 1 1 1 m X o q @.( ( o.5 F ( b r 0 d E E 5 ",
"  o b # V o   % % % u d 5 E # - , m 5 5 d 7 r f       J Y J +.+.J Y X X o           n h h h '   t h * I I o.5 S l > r 0 d z E 5 ",
"5 5   X X X = d 5 5 5 5 5 5 5 5 5 5 5 5 5 5 5 >           o X .     . X o   . X X X X X X X @ ( ( ( ( p p p p -       8 y d d 5 ",
"5 5 % X X X = d 5 5 5 5 5 5 5 5 5 5 5 5 5 5 5 >           o X .     . X o   . X X X X X X X @ ( ( ( / p p p p -       8 y d d 5 ",
"5 5  . .@ O = d 5 5 5 5 5 5 5 5 5 5 5 5 5 5 5 8 X .                         . O u 1 R X : p # X   p p p p p p q > #.E d d d d d ",
"5 5  . .@ O = d 5 5 5 5 5 5 5 5 5 5 5 5 5 5 5 8 X .                         . O u 1 R X @ p # X   p p p p p p ~ > d E i d d d d ",
"5 5 d d @ O = d 5 5 5 d d d b r % w d 8 $.t r                         t 7 R 8 > 2 1 R X % > q  .i 5 5 r r o o O O - > @   o o n ",
"5 5 d d @ O = d 5 5 d d d d > % + > d B O.+.                          t 7 > > > h 1 R X % > q p p 5 1     X X X X 6 > : . X X @ ",
"5 5  . .q g # d b %.^ d d d * j = , @ = ^ &.O.+.                        t @ @ , > 1 R X t y h ~ h p 5 X X u > > 0 # * b 0 > ^ m ",
"5 5  . . . .d d *.=.8 y d 5 5 5 m r O > * B O.t                               t R 1 R X t 1 y > q p i X X b i d d 5 p d d i z 5 ",
"5 5 d d d d d d *.$.8 d # 7 7 m h > u , @ -.O.O.O.O.O.+.                    , = m 1 h 8 u x @ t : 6 6 6 6 h d # m ~ ~ d 5 p p p ",
"5 5 d d d d d d *.$.8 d w r   > d d # r X +.O.O.O.O.O.t                   r 7 w h 1 1 y > O . . . O O R R y d m > > > * p p p p ",
"5 5 d d d d d d k b # d >     > 5 d d 0 7 V O.;.^ ^ ^ B   +.t V 8 0 0 0 8 R m h h h > - v X O , @ X X > > m # > > m m d p p 5 p ",
"5 5 d d d d d d i z i d >     w 5 d d d h B O.*.:.:.:.^ r +.O.B #.G G G d y 1 d m > 7 O O X   > = X X > > > > > > # y 5 p 5 5 p ",
"5 5 d d d d d d d i d d >     w 5 5 5 5 d e O.;.>.*.8 7 t t +.V 8 8 8 > d 5 j Q - @ @ @ r X   # # 7 7 > > 6 @ w # d 5 5 5 p p 5 ",
"5 5 d d d d d d d d d d >     w 5 5 5 5 d e O.O.$.t r ,.O.t     r r r @ # i 7 O O . t > 7 X % 5 5 d * > > r O w i p p 5 5 p p 5 ",
"d d d d d d d d d d d d b , , # d # m m m 8 B ;.O.O.t t +.+.t t t +.  t b d n X   @ 7 # 8 X   > q 5 5 m m % X w p 5  .5 5 5  .d ",
"d d d d d d d d d d d d y m m d d 8 n n ;.^ k 8 O.O.O.t +.+.t O.O.O.+.t b d n O 7 #.d z b X . % @ 5 5 1 1 % X w p * q d p * q # ",
"d d d d d d d d d d # > b # d 5 d >.;.;.B ^ a *.;.V O.O.t +.+.O.&.B - 7 > ^ - r u m # 5 w X X X   m m q q @ % q p > u # 5 * q h ",
"d d d d d d d d d d 8 r @ b d z z d k k a *.;.*.# 8 O.O.O.+.o v b #.#.K - v - u 6 t - h = X X o   @ @ r r 6 u * p _ % > 5 5 * 5 ",
"d d d d d d d d d d 8 r @ m z z z 5 z z <.>.;.^ 5 m ;.;.;.V t 7 d z d b t O @ u 6 t @ = 6 X X         % % - 7 w ~ c . = * d d i ",
"d d d d d d d d d d # > b d z z z z z z z d # d z d k a a a # #.z d 7 t o X   r 7 b 8 r   X X         u u t   r r O X 7 q m m # ",
"d d d d d d d d d d d d d z z z z z z z z 5 5 5 z z d 1 z z i i 5 d n   O X O % u # 8 r   X .         = =   X X X o   6 ) > > m ",
"d d d d d d d d d d d d d d d z z z z z z 5 5 5 z d # h d d # m # # w = r O c 1.6 c 7 b 8 o o     . . f f . X X X - > - t u q # ",
"d d d d d d d d d d d d d d d z z z z z z 5 5 d y m > q h m 8 8 > > q w @ r u q x X @ p # t t t r X X X X X X X X 7 b 6   6 j q ",
"d d d d d d d d d d d d d d d z z z z z z z z ^ @ - > > q = t ; t t t @ u & ~ h 6 X @ 5 d q q q > X X X X X X X X r t 6 1.) q q ",
"d d d d d d d d d d d d d d d z z z z z z z <.8 . t > > > _   O O O O % ) * * * 7 O , d d * d 5 h X X X X X X X X X X 6 & q q q ",
"d d d d d d d d d d d d d d d d z z z z z d y > @ - > > > = u 7 6 6 6 7 q * * # > u u 8 = 2.9 5 h X X X X X X . . Y Y   : = # # ",
"* * * * d d 5 5 z z d d d d d d d z z z z # > > > > > > > # 1 5 * * * * * * ~ ~ * 5 w   J 3.4.5 # X X X X X X     3 3.3.3.n # # ",
"* * * * d d 5 5 5 z d d d d d d d d y y y # q R 6 u > w # # h h # # # # * * * ~ * 5 # , , : , 9 2.. . X X X X @ , . 5.4.6.n 7 0 ",
"d d d d 5 5 5 5 5 5 d d d d d z d m > > > # * = X t > # z y > > > > > w # * * * * * h q h 5 m 3.5.    X X X X u q t X B k - O @ ",
"h h d d d 5 5 5 5 5 d d d d k ^ 0 b # # # d d = X   6 8 y m > w # # q # * * * * w = & q q > 7 3.3.7.7.X X X X = h @ X 7 m 6 O % ",
"q q * * * * * * d d d d d * > r r ^ z z z z :.8 X X X t R > > m d 5 * * * * * # _ . : w =   4.3.3.3.3.< < X X w 5 , . 6 j @ . X ",
"q ~ = 7 b * * * d d d d d d m 7 - # :.m 8 8 8 V X o t - j q q h 1 5 * * * * q = 7 6 u # 0   J 3.3.3.3.5.5.< X 7 0 , @ 6 6 r X X ",
"~ * 8.9.9 # d d d d d d d d d y d 5 * 6 o o o X X t 8 j h * * * 5 5 * * * * 7 f = * d 5 m   J 3.3.3.3.3.3.< < . O 0.> @ o X X X ",
"# * N q.g * * d d d d d d d i d d i * 7 t t ;   X t > w # # # # h * * # w 9 : + = 5 5 5 # - : 3.3.3.3.6.6.Y 5.< X @ 6 % X X X O ",
"# * ~ ~ * * * * d 5 d * d 5 i i d d d > 8 8 = @ X t > > > > > > > w # # : 7.. + = 5 5 5 5 * > 3.3.3.w.* * e.3.< < X O X X X X @ ",
"w w * * * * * * 5 5 * * * 5 p i d d y > = u u 6 % @ > > > > > > > w # ~ : 7.7.+ = 5 5 5 5 5 m 3.3.3.w.$ $ e.3.Y . X Y X X X X : ",
"  % ~ * 5 5 * * * * d d d d d d d d # - %   % , b w > > > > > > > w * i ~ = N + = 5 5 5 5 5 m 3.3.3.3.    w.3.7 ..f w.Y X X X O ",
"X X > ~ d 5 * * * * d d d d d d d # m r.;   % n # w = = = 8 > w w q i p  .~ , + 7 * d 5 5 * 0 3.3.3.3.< < 5.3.= $ f t.9.X X X X ",
"X X r r > d * * * d * * d 5 i d # u V = > > > B ,.f % % % , q $ * i 5 5 5 * , .   : = 5 # : r 5.5.5.5.< < < 5.+ r Y 3.9.X X X X ",
"X X X X 7 b # ~ # # # * * 5 i # ^ v % & * * d 9 Y X X O o @ w y.*  .5 5 5 * , X O   7 5 m   + < < < < < < X . . . w.5.Y Y X X X ",
"O X X X % : @ @ @ @ 8 # d i # 7 t ; % & * * * 9 X X o r - - 6 6 @ - # 5 5 * , X @ > m 1 h > u < < u.u.< < - g & &   Y < 5.Y X t "
};
