/* XPM */
static char *result[] = {
/* columns rows colors chars-per-pixel */
"64 64 12 1 ",
"  c black",
". c #101010",
"X c gray19",
"o c gray25",
"O c gray56",
"+ c gray75",
"@ c white",
"# c gray81",
"$ c gray44",
"% c #EFEFEF",
"& c #9F9F9F",
"* c #606060",
/* pixels */
"                                                                ",
"                                                                ",
"                                                                ",
"                                                                ",
"                                                                ",
"     .XooX.                                          .XooX.     ",
"     XO++OX                                          XO++OX     ",
"     o+@@#$ooX..XooooooooooooooooooooooooooooooX..Xoo$#@@+o     ",
"     o+@@%#++OXXO++++++++++++++++++++++++++++++OXXO++#%@@+o     ",
"     XO#%%#++&*$#@@@@@@@@@@@@@@@@@@@@@@@@@@@@@@#$*&++#%%#OX     ",
"     .X$##$oo*&#%@@@@@@@@@@@@@@@@@@@@@@@@@@@@@@%#&*oo$##$X.     ",
"       o++o  o+@@@@@@%#++++++++++++++++++#%@@@@@@+o  o++o       ",
"       o++o  o+@@@@@@#$oooooooooooooooooo$#@@@@@@+o  o++o       ",
"       XO&*oo$#%#++#%+o                  o+%#++#%#$oo*&OX       ",
"       .X*&++#%#$oo$#+o                  o+#$oo$#%#++&*X.       ",
"       .X$#@@%#OX  XO&*X.              .X*&OX  XO#%@@#$X.       ",
"       XO#%@@#$X.  .X*&OX              XO&*X.  .X$#@@%#OX       ",
"       o+@@@@+o      o++o              o++o      o+@@@@+o       ",
"       o+@@@@+o      o++o              o++o      o+@@@@+o       ",
"       o+@@@@#$X.    XO&*X.          .X*&OX    .X$#@@@@+o       ",
"       o+@@@@%#OX    .X*&OX          XO&*X.    XO#%@@@@+o       ",
"       o+@@%#++&*ooX.  XO&*X.      .X*&OX  .Xoo*&++#%@@+o       ",
"       o+@@#$oo*&++OX  .X*&OX      XO&*X.  XO++&*oo$#@@+o       ",
"       o+@@+o  XO++&*X.  XO&*oooooo*&OX  .X*&++OX  o+@@+o       ",
"       o+@@+o  .Xoo*&OX  .X*&++++++&*X.  XO&*ooX.  o+@@+o       ",
"       o+@@+o      XO&*X.  XO++++++OX  .X*&OX      o+@@+o       ",
"       o+@@+o      .X*&OX  .XooooooX.  XO&*X.      o+@@+o       ",
"       o+@@+o        XO&*X.          .X*&OX        o+@@+o       ",
"       o+@@+o        .X*&OX          XO&*X.        o+@@+o       ",
"       o+@@+o          o++o          o++o          o+@@+o       ",
"       o+@@+o          o++o          o++o          o+@@+o       ",
"       o+@@+o          o++o          o++o          o+@@+o       ",
"       o+@@+o          o++o          o++o          o+@@+o       ",
"       o+@@+o          o++o          o++o          o+@@+o       ",
"       o+@@+o          o++o          o++o          o+@@+o       ",
"       o+@@+o        .X*&OX          XO&*X.        o+@@+o       ",
"       o+@@+o        XO&*X.          .X*&OX        o+@@+o       ",
"       o+@@+o      .X*&OX  .XooooooX.  XO&*X.      o+@@+o       ",
"       o+@@+o      XO&*X.  XO++++++OX  .X*&OX      o+@@+o       ",
"       o+@@+o  .Xoo*&OX  .X*&++++++&*X.  XO&*ooX.  o+@@+o       ",
"       o+@@+o  XO++&*X.  XO&*oooooo*&OX  .X*&++OX  o+@@+o       ",
"       o+@@#$oo*&++OX  .X*&OX      XO&*X.  XO++&*oo$#@@+o       ",
"       o+@@%#++&*ooX.  XO&*X.      .X*&OX  .Xoo*&++#%@@+o       ",
"       o+@@@@%#OX    .X*&OX          XO&*X.    XO#%@@@@+o       ",
"       o+@@@@#$X.    XO&*X.          .X*&OX    .X$#@@@@+o       ",
"       o+@@@@+o      o++o              o++o      o+@@@@+o       ",
"       o+@@@@+o      o++o              o++o      o+@@@@+o       ",
"       XO#%@@#$X.  .X*&OX              XO&*X.  .X$#@@%#OX       ",
"       .X$#@@%#OX  XO&*X.              .X*&OX  XO#%@@#$X.       ",
"       .X*&++#%#$oo$#+o                  o+#$oo$#%#++&*X.       ",
"       XO&*oo$#%#++#%+o                  o+%#++#%#$oo*&OX       ",
"       o++o  o+@@@@@@#$oooooooooooooooooo$#@@@@@@+o  o++o       ",
"       o++o  o+@@@@@@%#++++++++++++++++++#%@@@@@@+o  o++o       ",
"     .X$##$oo*&#%@@@@@@@@@@@@@@@@@@@@@@@@@@@@@@%#&*oo$##$X.     ",
"     XO#%%#++&*$#@@@@@@@@@@@@@@@@@@@@@@@@@@@@@@#$*&++#%%#OX     ",
"     o+@@%#++OXXO++++++++++++++++++++++++++++++OXXO++#%@@+o     ",
"     o+@@#$ooX..XooooooooooooooooooooooooooooooX..Xoo$#@@+o     ",
"     XO++OX                                          XO++OX     ",
"     .XooX.                                          .XooX.     ",
"                                                                ",
"                                                                ",
"                                                                ",
"                                                                ",
"                                                                "
};
