/* XPM */
static char *result[] = {
/* columns rows colors chars-per-pixel */
"64 64 213 2 ",
"   c #2E1B2D",
".  c #361C2E",
"X  c #351F31",
"o  c #2F1E30",
"O  c #352232",
"+  c #3B2433",
"@  c #3C2936",
"#  c #3E2B3B",
"$  c #382639",
"%  c #3E313E",
"&  c #3E202F",
"*  c #7B0C1E",
"=  c #720F1C",
"-  c #76131D",
";  c #6D0E1E",
":  c #4B182B",
">  c #581929",
",  c #5B1E30",
"<  c #7C0E22",
"1  c #651625",
"2  c #791826",
"3  c #761E32",
"4  c #5B222F",
"5  c #432D3C",
"6  c #462837",
"7  c #572734",
"8  c #44313F",
"9  c #4A313F",
"0  c #5C373E",
"q  c #6C262E",
"w  c #74232C",
"e  c #652B38",
"r  c #772937",
"t  c #6C333B",
"y  c #69383D",
"u  c #713A3E",
"i  c #77353C",
"p  c #3F3040",
"a  c #423442",
"s  c #4C3442",
"d  c #443B45",
"f  c #4B3C48",
"g  c #503541",
"h  c #523B46",
"j  c #543C4A",
"k  c #5B3B47",
"l  c #483649",
"z  c #793742",
"x  c #663D47",
"c  c #454047",
"v  c #4A4249",
"b  c #55424A",
"n  c #5A434B",
"m  c #5B4352",
"M  c #5C4B59",
"N  c #6C464D",
"B  c #76464B",
"V  c #634B5A",
"C  c #644959",
"Z  c #734651",
"A  c #69515F",
"S  c #6A4F60",
"D  c #6D5363",
"F  c #625663",
"G  c #755C6E",
"H  c #795D6D",
"J  c #725667",
"K  c #755D70",
"L  c #7B5C71",
"P  c #7C6274",
"I  c #6D626F",
"U  c #800C1F",
"Y  c #820E20",
"T  c #8A1524",
"R  c #861826",
"E  c #981A26",
"W  c #9A0F26",
"Q  c #A41D26",
"!  c #AC152A",
"~  c #A41D28",
"^  c #AC1A2B",
"/  c #A51528",
"(  c #B31D2C",
")  c #81232E",
"_  c #9D2B2C",
"`  c #972329",
"'  c #8A2532",
"]  c #822C33",
"[  c #8A2C34",
"{  c #992A35",
"}  c #8C343C",
"|  c #863439",
" . c #973338",
".. c #AB232A",
"X. c #A52C2C",
"o. c #A7282C",
"O. c #B5232D",
"+. c #BA252F",
"@. c #B42B2C",
"#. c #BB2B2F",
"$. c #BB2630",
"%. c #BD2931",
"&. c #B32631",
"*. c #AD3332",
"=. c #A6383B",
"-. c #BE3232",
";. c #B73735",
":. c #A8332F",
">. c #C02C32",
",. c #C43433",
"<. c #C43C34",
"1. c #CB3C36",
"2. c #CE3E38",
"3. c #C83635",
"4. c #D03F38",
"5. c #9B433E",
"6. c #B4433E",
"7. c #CB4236",
"8. c #CE4539",
"9. c #CD4B3B",
"0. c #C5453B",
"q. c #D34339",
"w. c #D44A3B",
"e. c #DA4C3D",
"r. c #D14537",
"t. c #893941",
"y. c #943C43",
"u. c #A63B40",
"i. c #8C4445",
"p. c #894647",
"a. c #934A4A",
"s. c #944447",
"d. c #BC4A43",
"f. c #B64640",
"g. c #A24742",
"h. c #AB7E54",
"j. c #A27A5C",
"k. c #A0775A",
"l. c #85686B",
"z. c #826575",
"x. c #836778",
"c. c #85697B",
"v. c #8A6B7D",
"b. c #876776",
"n. c #916D7F",
"m. c #9B797A",
"M. c #92726B",
"N. c #A57F61",
"B. c #A47E6F",
"V. c #C54A40",
"C. c #AC8156",
"Z. c #AE845B",
"A. c #B1875E",
"S. c #B88B5D",
"D. c #A98265",
"F. c #A8826F",
"G. c #B88C61",
"H. c #BD9165",
"J. c #A88476",
"K. c #B0897D",
"L. c #BC9378",
"P. c #C89869",
"I. c #D29E6D",
"U. c #D09966",
"Y. c #C89A78",
"T. c #DAA36D",
"R. c #D5A273",
"E. c #DCA671",
"W. c #DEA975",
"Q. c #D5A57A",
"!. c #DEAB79",
"~. c #E0AB77",
"^. c #E0AC79",
"/. c #E4B17E",
"(. c #8F6F84",
"). c #926E81",
"_. c #8E7183",
"`. c #917285",
"'. c #947589",
"]. c #96788B",
"[. c #9B7A8D",
"{. c #997887",
"}. c #9E7E93",
"|. c #A07F93",
" X c #9C8092",
".X c #AB8785",
"XX c #B28D86",
"oX c #B99488",
"OX c #A28295",
"+X c #A58499",
"@X c #A9869B",
"#X c #AB899D",
"$X c #A98994",
"%X c #B99596",
"&X c #B28F9F",
"*X c #AF8CA2",
"=X c #B18EA3",
"-X c #B291A5",
";X c #B996AB",
":X c #BE9DB2",
">X c #C69D87",
",X c #C39C97",
"<X c #CDA289",
"1X c #D7A885",
"2X c #D8AD92",
"3X c #D5AD97",
"4X c #E6B381",
"5X c #E0B491",
"6X c #C19EA3",
"7X c #C8A4A6",
"8X c #C6A5B6",
"9X c #D5B3B7",
"0X c #D6B0A4",
/* pixels */
"T.T.T.T.T.T.T.T.T.T.T.T.T.T.T.~.W.E.E.W.W.W.!.E.E.W.W.E.E.T.E.E.E.W.E.T.E.W.E.T.T.T.T.T.T.T.T.~.~.T.T.T.T.T.T.T.~.~.~.E.T.E.~.~.",
"T.T.T.T.T.T.T.T.T.T.~.T.T.T.T.E.W.E.E.E.W.W.^.W.E.E.W.E.T.T.T.E.W.E.E.T.E.W.E.T.T.T.T.T.T.T.E.E.E.T.T.U.U.T.T.T.E.~.~.E.T.W.~.~.",
"T.T.T.T.T.T.T.T.~.^.^.T.T.T.T.T.E.E.W.E.E.W.W.W.W.E.E.T.T.T.T.T.E.T.T.T.T.T.T.T.T.I.T.T.T.~.~.T.T.T.T.T.T.T.T.T.T.W.~.E.T.E.~.~.",
"T.T.T.T.T.T.T.T.~./.^.T.T.T.T.T.T.E.W.E.E.E.W.W.W.E.T.T.T.T.T.T.E.T.T.T.T.E.E.T.T.T.T.T.T.~.E.T.T.E.T.T.T.T.T.T.T.E.W.T.T.E.W.~.",
"T.T.T.T.T.T.T.T.~.4X^.T.T.T.T.T.T.T.E.E.W.E.T.E.W.W.E.T.T.T.T.T.W.W.E.T.E.W.E.E.T.T.T.T.T.T.T.T.T.E.~.T.T.T.T.T.T.T.T.T.T.T.T.T.",
"T.T.T.T.T.T.T.E.~.^.~.T.T.T.T.T.T.E.E.E.E.T.T.T.W.E.E.E.T.T.T.T.T.W.E.E.W.W.E.E.T.T.T.~.T.T.T.~.E.^.^.T.T.T.T.T.T.T.T.T.T.T.T.T.",
"T.T.E.~.E.T.~./.~.~.T.T.T.T.T.T.T.E.W.E.E.T.T.T.E.E.E.E.T.T.T.T.T.T.T.T.W.^.W.W.T.T.E./.~.T.T././././.T.T.T.T.T.T.T.T.T.T.E.W.W.",
"T.T.W.W.T.T.~./.~.T.T.T.T.T.T.T.E.E.W.T.T.T.T.T.T.E.W.W.T.T.R.Q.T.2X!.E.E.^.W.W.T.T.~./.~.T.T././././.E.T.T.T.T.T.T.T.T.T.E.W.W.",
"T.T.T.E.E.T.~./.~.~.T.T.T.T.T.T.T.T.T.T.T.T.T.T.T.T.T.~.Q.%X8X8X8X8X:X7X1XE.E.E.T.T.T.~.~.I.T.~.W././.W.~.T.T.E.T.E.W.W.W.E.E.E.",
"T.T.T.T.T.T.~./.~.~.~.T.T.T.T.T.T.T.T.T.T.T.T.T.I.T.I.K.{.'.'.}.:X-X-X-X8X0XQ.T.T.T.T.T.E.E.T.T.T.~.~.W.W.T.T.W.~.W.~.~.~.E.T.E.",
"T.T.T.T.E.E.W.W.T.T.T.T.T.T.T.T.T.T.T.E.E.T.T.T.~.Y.{.).(.(.(.(.*X*X-X*X=X8X9X2XT.T.~.^.^.^.^.^.~././.T.E.E.W.~.~.~.~.~.~.W.W.W.",
"T.T.T.E.E.~.E.E.T.T.T.T.T.T.T.T.T.T.T.W.W.E.T.T.B.n.(.).(.(.(.(. X*X*X*X*X*X;X:X,XT.~./.4X4X4X4X4X/./.T.T.~.~.~.~.~.~.~.~.~.~.~.",
"T.T.T.E.W.~.W.E.T.T.E.~.~.E.T.E.E.T.E.W.W.E.Y.XXb.).).(.(.(.(.(.'.*X=X=X*X*X*X*X=X,X<X^.^./.4X4X/.W.W.W.W.^./.^.^.E.E.W.~.~.~.^.",
"T.T.E.E.~.~.~.E.E.E.~././.T.T.E.E.E.T.W.!.Y.c.P `.b.(.(.(.(.(.J f G {.#X*X=X*X#X|.].OX<X^.^.^.4X/.E.T.~.~.4X4X^.~.E.T.E.~.~.^.^.",
"E.E.E.~.W.~.W.W.E.E.W.^.~.E.T.E.E.E.W.E.L.l.G G `.(.x.(.(.L j $ O 6 h G |.=X=X}.).(.`.}.<X4X^.4X/.W.E./././.4X~.~.W.E.W.^.~.~.^.",
"W.E.~.E.W.W.E.W.W.~.W.~.E.T.E.T.T.W.W.Y.l.G K K P }.L J k s X : > : & 5 m v.).(.(.(.(.(.$X1X4X4X/.~.~./.4X4X4X/.~.~.~.^.^.~.~.^.",
"~.~.~.E.~.E.E.E.E.W.W.W.E.T.T.T.E.E.R.M.K G G K K (.A 5 # & 1 * - * 1 . @ s j v.`.(.(.(.'.%X1X^./././././././.^.^.W.^.W.^.W.^.^.",
"~.~.~.E.E.~.E.T.E.W.W.W.E.E.T.T.T.T.B.G G K G G K v.h $ 7 < U < - U * ; : O 5 A (.(.).(._.[.%X!.^.4X/.~.^.^.W.^.^.^.^.^.^.^.W.^.",
"~.~.~.~.W.E.E.T.E.E.W.E.E.E.E.E.T.P.G G K G K G G l s , W / W Y - U * * < > . 5 V (.(.(.(.(.|.<X/.4X4X^.^.^.!.!.W.W.^.^.W.^.^.^.",
"~.~.~.~.E.E.T.T.E.T.T.T.E.~.W.E.<X6Xx.G G K K J s 6 3 E / ! / / T U * U * = 1 . 5 S (.(.(.`.@X8X5X4X4X4X4X^.!.!.^.^.^.^.^.^.^.W.",
"~.W.~.~.E.E.T.T.T.E.T.E.E.~.~.R.&X;X:X(.D G D s a 3 ! ~ ! ^ ! ! Q / T U Y = Y 1 . s J ).).].=X=X7X5X4X4X4X^.^.^.~.~.~.~.~.^.^.^.",
"T.T.~.~.E.T.T.T.T.T.W.~.^.^.~.%X*X*X;X:X'.V s a 3 ! ! ( ! ! ! ! Q ! / W T - Y < 1 X h K (.@X*X*X6X0X/.4X4X/.^./.4X~.T.W.W.^.^.^.",
"E.T.W.W.T.T.T.E.T.T.E.~.^.^.Q.=X*X*X*X*X*Xf 5 e ! ! ! / ! ( ^ ! E ! ! ^ W * Y Y Y > O 8 ].=X=X=X-X8X5X4X4X^.^./.4XW.T.W.~.^.^.^.",
"~.~.T.T.T.T.W.~.^.^.^.~.^.^.,X*X*X*X*X*X}.s 6 e 3 z z z z t.^ ^ ..^ ^ { z e 7 , , > o @ b.@X*X#X-X:X9X1X^.^.^.E.T.T.T.W.~.~.~.^.",
"~.~.E.T.T.T.E.W./.^.^.^.^.Q.-X*X*X*X*X@XS a $ a # a a l d v t.( ~ ^ { j f d % $ O o o . h `.=X=X#X-X:X5X^.^.^.E.T.T.T.W.~.~.~.~.",
"~.~.~.~.E.T.E.W.W.^.^.^.^.>X=X=X*X*X*Xc.s 5 6 a 6 a s a f h ' ( ~ O.{ g f a a @ O X     O C @X=X-X-X#X7X^.^.^.W.~.~.~.~.~.~.~.~.",
"~.~.~.~.E.T.W.^.^.^.W.^.!.$X*X*X*X=X Xm 7 ' R ) ' ' ' w ' _ +.( Q ( ( o.' ) ' ' R 1 1 1 : 5 c.#X#X-X#X-X^.^.^.W.W.~.~.~.~.~.~.~.",
"~.~.~.~.E.T.W.W.^.^.^.^.!.$X@X*X*X@XH 9 ' $.O.Q ( $.( ^ ( +.( +.~ O.O.+.+.^ O.O.O.` R T 2 + m |.-X#X#X&XQ.E.T.T.T.W.W.T.T.T.T.W.",
"~.~.^.^.E.T.W.W.W.^.~.~.oX#X-X#X+X(.h e ( $.O.~ +.$.O.Q ( +.+.+.Q +.( +.+.Q +.+.O.@.E T T > 5 P +X+X X X%XE.E.I.T.E.W.T.T.T.T.T.",
"/.~.W.^.W.W.W.W.W.W.~.!.{.`.OX*XOXn 9 [ O.$...^ +.+.+.Q +.+.+.+.Q +.>.+.+.Q +.+.&.O...T T 2 . f P _._._.#XQ.W.W.W.W.~.~.W.W.W.W.",
"~.~.^.W.W.^.W./.W.E.E.Y.m.(.(.(.}.a 7 &.O.$.O.^ +.$.%.Q +.$.$.$.Q +.+.>.+...$.+.O.O.O...E R , # J (._._. X<X^.~.~.~.^.~.~.~./.W.",
"~.~.^.^.^.W.^.W.E.E.~.L.`._.).(.].s ] %.$.$.@...%.$.%.Q %.$.%.$./ >.>.#.#.Q +.$.$.O.@.#.` T 2 $ V (.(._.J.<X~.~.W.W.~.~.^.^.~.~.",
"^.^.~.~.~.~.~.~.~.E.W.K._.).(.(.L s { $.>.,.#...>.%.%.Q >.$.>.>.Q >.#.>.>.Q %.>.%...@.+.~ T 2 @ m v.`._._.XX!.W.W.W.W.~.^.^.!.^.",
"!.^.~.~.~.~.~.~.~.W.W..X(.(.(.(.S a t } } } t.} y.y.y.t.y.u.+.>.^ >.>.;.y.t.y.y.y.t.t.y.r q q + j v.(.(.n. XW.W.W.~.W.~.^.^.^.^.",
"~.^.~.~.~.~.~.~.~.~.^.m.(.(.(.(.C s # $ a a % % a l d d c v y.$...>.=.n c d d f p p % 8 $     O h z.).(._._.W.W.W.W.~.^.^.^.^.^.",
"^.~.~.~.~.~.^.W.~.~.W.m.x.(.c.c.h 5 5 $ # 5 8 8 a p d d v v t.>...,. .b c d d a 8 8 % % O o   X s G x.v.c.m.E.W.W.~.~.~.^.^.^.!.",
"^.~.~.~.~.~.~.^.Q..X]._._.'.].].m 5 e [ [ [ ] ] | r } ] } =.>.,...3.3.*.} r [ [ [ ] ] [ w 1 > @ f x.x.].}. XOX$X<X^./.~.!.^.^.^.",
"~.~.~.~.~.~.~.~.>XP G G K G K P D a | 3.,.,.>.@.,.@.3.@.3.;.;.3...3.;.;.-.@.,.,.-.-.#.,.X.` w + j K K G P P P P oXW.W.!.~.^.!.~.",
"~.~.~.~.~.~.^.W.L.K G G K G G G S s | ,.,.,.,.#.<.@.3.@.*.s f i...y.f l  .@.,.<.,.-.>.,.X.` w 5 j G G K K G G G XXW.W.W./.^.W.W.",
"~.~.~.~.~.~.~.!.L.K G G G G K K C a | 3.,.<.,.#.3.,.,.@.t.v I k #.x F M y @.3.3.,.,.,.,._ ` w + j K K G K K K G J.W.W.W.W.W.W.~.",
"~.~.~.~.~.~.~.~.L.H G K G K K K j s i 1.1.3.,.%.3.1.3.*.k 8 % n ;.x 8 % k _ 3.3.1.<.<.1.X.` w + f G K K G G K G J.W.T.W.!.^.!.^.",
"~.~.~.~.~.~.~.~.W.F.M.l.P K K G s 5 i 3.1.1.-.,.1.1.1.@.N ;.=.Z ;.Z 5.=.p. .1.2.1.1.1.1.X.` q + 8 G P c.P l.l.M.W.T.T.W.!.!.W.^.",
"~.~.~.~.~.~.~.~.~.~.~.XX`.`.].}.F 5 i 2.q.1.<.,.4.1.8.-.| Z Z | ;. .B B z ;.4.1.7.1.1.2.X._ q @ V ;X;X;X;X7XT.E.T.T.T.E.W.W.W.W.",
"~.~.~.~.~.~.~.~.~.~.~.K.(.(.).).D s u 1.1.1.<.,.4.7.7.-.7.*.*.1.7.1.;.;.<.,.4.1.2.1.1.2.:._ q @ D #X*X*X#X7XT.T.T.T.T.E.W.W.W.W.",
"~.~.~.~.~.~.~.~.~.~.~.XX(.(.(.(.A 9 u q.q.4.3.<.q.q.q.<.4.q.4.1.0.7.q.q.q.,.q.q.1.1.1.1.:.X.q @ V *X*X*X&X%XE.T.T.E.W.E.E.W.W.W.",
"~.~.~.~.~.~.~.~.~.~.~.K.(.(.v.v.C 9 y q.7.q.1.,.q.q.q.<.4.q.4.4.<.q.q.q.q.<.q.q.q.<.1.q.X._ q @ C +X#X@X$X%XT.T.T.W.W.E.T.E.W.W.",
"~.~.~.~.~.~.~.~.1X7X6X;X*X=X-X-XL 5 0 6.6.6.6.6.d.6.d.6.V.V.r.w.<.q.w.w.d.6.d.d.d.6.6.d. .[ 4 @ S +XOX|.OX$X%X%XY.E.T.E.W.W.W.W.",
"~.~.~.~.~.~.~.~.<X=X=X*X=X=X-X-X+X9 9 9 0 g 9 g h h b b b N d.r.7.r.9.B n b j b h s g 9 + . + 5 J `.(.)._._._._.oXT.T.E.W.W.W.W.",
"~.~.~.~.~.~.~.~.>X=X*X=X*X*X*X*X X9 8 @ # 5 # % 8 p d d d v i.e.7.w.5.v c d d a p % % # o   o 5 D (.(._.(.(.(.(..XT.T.T.E.~.~.~.",
"W.W.W.~.^.~.^.~.>X*X*X*X*X*X*X*X`.5 9 t e t t t u u u y B i.9.r.8.e.e.5.B y z y y t t t 4 4 & @ V (.(.(.(.(.(.(.J.T.I.T.T.E.~.E.",
"!.~.~.!.~.~.1X3X,X#X$X#X+X+X#X*Xc.8 0 0.w.w.7.<.w.9.w.-.e.e.V.w.9.r.e.e.9.-.w.w.w.7.7.9.:.{ 7 $ M c._._.c._.`.`.oX>X>XT.T.T.T.~.",
"~.~.~.~./.Q.[.}.[.].`.+X'.P P (._.9 k 9.e.e.8.<.e.e.e.7.e.e.e.V.9.e.e.e.e.7.e.e.e.7.9.w.:._ 7 6 V P P P (.}.`.'.].}.OXT.~.~.T.T.",
"~.!.~.~.~.Q.).)._.(._.].P K K K G 9 h p.a.i.i.p.a.a.a.i.a.a.a.p.a.a.a.a.a.t.s.i.i.i.i.i.r e 6 a V G G G K )._._.(.(.).E.~.T.T.T.",
"W.W.~.~.~.W.).).(.(.)._.P I G K D D v.n.n.n.v._.n.n. XOXOXOX+X+X$X$X+X+X@X|.(.).`.n.n.n.n.b.z.x M G G G J (._._.(.(.(.E.~.T.T.T.",
"W.W.W.~.W.Q.{.`.].].].'.c.c.K H P c.c.c.v.n.v._._.`.$XOX XOX}.}.}. X X X|.@X|.[.[.[.[.{.[.[.[.[.).)._.`.P _._._._.(.v.E.~.T.T.T.",
"!.~.I.I.E.G.N.B.D.N.D.D.D.D.N.D.N.D.C.j.j.j.k.C.k.j.D.D.D.D.D.D.D.D.D.D.D.D.N.N.N.D.D.N.N.N.j.j.j.j.N.N.k.k.k.k.j.k.G.T.T.T.T.T.",
"W.!.W.T.W.H.A.A.G.D.A.A.A.A.A.A.A.A.A.Z.C.C.C.Z.C.C.Z.A.A.A.Z.A.A.G.A.A.Z.Z.C.C.A.A.A.G.h.A.h.h.h.h.h.h.h.h.h.h.C.Z.S.T.T.T.T.T.",
"~.W.W.W.W.W.R.H.A.A.A.A.A.A.Z.G.A.A.A.A.Z.A.Z.C.C.C.Z.Z.Z.A.C.A.Z.Z.A.A.C.C.C.C.A.D.A.A.A.D.Z.h.h.h.h.h.S.h.h.h.S.P.T.T.T.T.T.T.",
"W.W.!.!.W.!.!.~.~.R.P.P.H.G.G.D.A.A.A.Z.Z.Z.Z.Z.C.C.A.Z.Z.A.Z.Z.Z.Z.D.A.C.C.C.Z.h.G.h.S.A.A.A.h.h.h.S.P.P.P.U.T.T.T.T.T.T.T.T.T.",
"T.T.W.W.^.^.W.^.~.~.^.~.^.~.W.W.R.I.U.P.S.S.S.S.G.S.Z.Z.A.C.A.Z.Z.Z.A.A.A.C.A.A.G.G.P.P.P.I.I.U.I.I.T.T.T.U.T.T.W.T.T.I.T.T.T.T.",
"T.T.W.W.~.^.W.W.W.~.~.^.~.~.~.~.^.W.W.E.T.T.E.E.W.W.E.W.W.E.W.W.W.W.~.!.W.!.W.T.E.~.~.~.~.~.E.U.T.T.U.T.T.T.T.T.E.T.T.I.T.T.T.T.",
"T.T.E.T.W.~.!.~.^.^.W.W.~.^.^.~.W.E.E.E.W.W.W.E.E.E.T.T.E.E.W.W.W.^.^.^.^.W.E.T.T.E.~.~.~.E.T.T.T.T.T.T.T.I.T.T.T.T.T.T.T.T.T.T.",
"T.T.T.T.W.W.W.W.W.W.~.~.!.^.^.W.W.E.T.W.W.^.W.W.T.T.T.T.T.E.W.W.!.^.^.^.^.!.E.T.T.T.E.~.~.T.T.T.T.T.T.T.T.T.T.T.T.T.T.T.T.T.T.T.",
"T.T.T.T.T.E.E.E.E.E.E.~.~.^.W.E.E.T.T.W.^.W.W.E.T.T.T.E.E.E.E.E.E.W.W.^.^.W.T.T.E.E.~.~.~.~.T.T.T.T.U.T.T.T.~.E.~.T.T.U.T.T.T.T."
};
