/* XPM */
static char *result[] = {
/* columns rows colors chars-per-pixel */
"64 64 232 2 ",
"   c #19181A",
".  c #38373A",
"X  c #460406",
"o  c #490506",
"O  c #450309",
"+  c #4C0609",
"@  c #4C090B",
"#  c #510D09",
"$  c #5C150C",
"%  c #59130A",
"&  c #490B12",
"*  c #4D1114",
"=  c #4F171D",
"-  c #551E1A",
";  c #541616",
":  c #4E1009",
">  c #61190A",
",  c #691E09",
"<  c #641B08",
"1  c #50241A",
"2  c #6B220C",
"3  c #66210C",
"4  c #76290A",
"5  c #782B0B",
"6  c #7E360B",
"7  c #7F380B",
"8  c #77300F",
"9  c #652113",
"0  c #682818",
"q  c #783212",
"w  c #4D1A22",
"e  c #57242B",
"r  c #58323B",
"t  c #692C23",
"y  c #6D3227",
"u  c #74382A",
"i  c #693835",
"p  c #794334",
"a  c #7A503B",
"s  c #744730",
"d  c #593A44",
"f  c #694B54",
"g  c #795659",
"h  c #6E4C4C",
"j  c #635663",
"k  c #6A616C",
"l  c #776A6C",
"z  c #6A6C7B",
"x  c #6A6A74",
"c  c #7A717C",
"v  c #6D5655",
"b  c #84340B",
"n  c #8C3A09",
"m  c #913F05",
"M  c #903E0A",
"N  c #802F0C",
"B  c #813C20",
"V  c #CC2C16",
"C  c #D41710",
"Z  c #994502",
"A  c #99440A",
"S  c #9D4909",
"D  c #96420C",
"F  c #9A5011",
"G  c #A54E09",
"H  c #A54E07",
"J  c #A8510A",
"K  c #AE5A0A",
"L  c #A75109",
"P  c #B55B05",
"I  c #B95D05",
"U  c #B15D0B",
"Y  c #B65B08",
"T  c #B35F12",
"R  c #AC5C10",
"E  c #BA6205",
"W  c #B8660D",
"Q  c #B96710",
"!  c #B56315",
"~  c #AD7116",
"^  c #864C36",
"/  c #8E533B",
"(  c #815A3D",
")  c #91573E",
"_  c #924E25",
"`  c #97602F",
"'  c #966638",
"]  c #9C7A3C",
"[  c #A8713F",
"{  c #CA6A05",
"}  c #CA6C0B",
"|  c #C46806",
" . c #C87107",
".. c #D67406",
"X. c #DD7906",
"o. c #D97608",
"O. c #C9771D",
"+. c #E57A0E",
"@. c #CA7533",
"#. c #835D42",
"$. c #875B4D",
"%. c #945B41",
"&. c #8E6946",
"*. c #8E6B48",
"=. c #886446",
"-. c #916E4C",
";. c #9A674A",
":. c #92704E",
">. c #906A5B",
",. c #A2764E",
"<. c #AA7547",
"1. c #A37C55",
"2. c #A57E59",
"3. c #AC7958",
"4. c #B17B59",
"5. c #A66E50",
"6. c #906D70",
"7. c #E86B5B",
"8. c #5CC623",
"9. c #6ECB20",
"0. c #B98216",
"q. c #B6AD1B",
"w. c #DD8B08",
"e. c #DD910C",
"r. c #D78E15",
"t. c #E68105",
"y. c #EC8602",
"u. c #E3880C",
"i. c #ED9C03",
"p. c #ED940E",
"a. c #EA980A",
"s. c #EC9D16",
"d. c #ED9C1B",
"f. c #E69F16",
"g. c #E88B17",
"h. c #DBBF15",
"j. c #F2A90D",
"k. c #F3B00D",
"l. c #EEA419",
"z. c #EBA91A",
"x. c #F3AA1B",
"c. c #F3B816",
"v. c #ECA007",
"b. c #CE8837",
"n. c #E99830",
"m. c #D9A92A",
"M. c #F3BA26",
"N. c #EFB933",
"B. c #F1BB35",
"V. c #EBB02B",
"C. c #ACD42B",
"Z. c #B0C915",
"A. c #F8C816",
"S. c #F8D019",
"D. c #F1C43B",
"F. c #F9D834",
"G. c #F5CE28",
"H. c #BB8F58",
"J. c #9F897C",
"K. c #B68260",
"L. c #CA945F",
"P. c #C48D54",
"I. c #D4A74E",
"U. c #F5B640",
"Y. c #E9B15E",
"T. c #EAA84D",
"R. c #C48F62",
"E. c #C99669",
"W. c #D19E6C",
"Q. c #CC9A70",
"!. c #DAA36D",
"~. c #D2A263",
"^. c #DCA671",
"/. c #DEA975",
"(. c #DFAB78",
"). c #D6A375",
"_. c #E9B362",
"`. c #E0AB77",
"'. c #E0AC78",
"]. c #E4B17E",
"[. c #EDB675",
"{. c #ADD75F",
"}. c #DDCC58",
"|. c #DBC34E",
" X c #F1CA42",
".X c #F1D651",
"XX c #F5E25B",
"oX c #F6E058",
"OX c #F2E553",
"+X c #F9CA79",
"@X c #EAD168",
"#X c #F7EC66",
"$X c #FAF474",
"%X c #F6F068",
"&X c #DBD263",
"*X c #6F7181",
"=X c #767786",
"-X c #DC2FA1",
";X c #897783",
":X c #E252A7",
">X c #7E8090",
",X c #62D4B6",
"<X c #3FCBC6",
"1X c #848694",
"2X c #978D95",
"3X c #97929A",
"4X c #888995",
"5X c #A19392",
"6X c #AA9F9F",
"7X c #9B9DAA",
"8X c #9697A5",
"9X c #9EA0AD",
"0X c #A5A3AC",
"qX c #A5A7B2",
"wX c #B4B5BE",
"eX c #B0A9B4",
"rX c #E6B381",
"tX c #C1B2B6",
"yX c #9DE7A1",
"uX c #F8E280",
"iX c #BBBBC5",
"pX c #D1CED0",
"aX c #EDE2D4",
"sX c #F0E5DA",
"dX c #DFDFE4",
"fX c #E6E6E8",
"gX c #EDEDF1",
"hX c #F3F3F3",
"jX c #F8F8F8",
"kX c #F8F8F7",
"lX c #EFF0EF",
"zX c #E4DAD1",
/* pixels */
"!.!.!.!.!.!.!.!.!.!.!.!.!.!.^.'.`.!.!.`.`.^.(.^.^.^.'.^.!.!.!./.`.`.`.!.`.`.!.!.!.!.!.!.!.!.!.`.`.!.!.!.~.!.!.^.[.`.`.`.!.!.`.`.",
"!.!.!.!.!.!.!.!.!.!.!.!.!.!.!.^.`.^.!.`.^.'.'.^.^.^./.^.!.!.!.!.`.!.!.!.!.`.!.!.!.!.!.!.!.!.^./.^.!.W.!.!.!.~.!.^.`.`.!.!.`.`.`.",
"!.!.!.!.!.!.!.!.`.].`.!.!.^.!.!.!.`.`.!.!.(.(.(././.!.!.!.!.!.!.!.!.!.!.!.!.!.!.W.!.!.!.!.`.`.!.!.!.!.!.!.!.!.!.!.`.`.!.W.^.`.'.",
"!.!.!.!.!.!.!.!.`.].'.!.!.!.!.!.!.^.^.^.^.^.^.(.(.^.!.!.!.!.!.!.!.!.!.!.!./.!.!.!.!.!.!.!.^.^.!.!.!.!.!.!.!.!.!.!.^.`.!.!.!.`.`.",
"!.!.!.!.!.!.!.!.`.].'.!.!.!.!.!.!.!.!.^.`.^.!.^.(./.!.!.!.!.!.!././.^.!./.`.!.!.!.!.!.!.!.!.!.W.!._.`.!.!.!.!.!.!.!.!.!.W.!.!.!.",
"!.!.!.!.!.!.!.^.`.'.'.!.!.!.!.!.!.^.^.`.^.^.!.!./.^.^.!.!.!.!.!.^./.^.!./.`././.!.!.!.`.^.!.!.`.`.'.].!.!.!.!.!.W.!.!.!.!.!.!.`.",
"!.!.^.'.^.!./.].`.`.!.!.!.!.!.!.^.^.`.^.!.!.!.!.!.^./.^.!.!.!.!.!.!.!.!.^.`.`./.^.!.`.].`.!.!.].].].].!.W.!.!.!.!.!.!.!.W.!.`.`.",
"!.!.^.'.^.!.'.].`.!.!.!.!.!.!.!.!.^.^.^.!.!.!.!.!.^././.!.!.!.!.!.!.!.!.`./.`./.^.!.^.].`.!.^.'.].].].W.!.!.!.!.!.!.!.!.!.!.`.`.",
"!.!.!.!.!.!.'.].`.`.^.!.!.!.!.!.!.!.!.!.!.!.!.!.!.!.^.!.!.!.!.!.!.!.!.!.^.^.^.^.!.^.^.`.^.W.^.`./.[.'././.!.!.^.^.^.`.`.!.^.^.`.",
"!.!.!.!.!.!.'.].`.`.^.!.!.!.!.!.!.W.!.!.!.!.!.W.!.!.!.!.!.!.!.!.!.!.!.!.!.!.!.!.!.!.!.!.!.^.!.^.!.'.'.`./.!.!./.`.[.`.`.`.^.!.!.",
"!.!.!.!.^.`.`.^.^.!.!.!.!.!.!.!.!.!.!.^.^.!.!.!.!.!.!.!.!.!.!.^.!.!.!.!.!.!.!.!.!.!.^.`.(.'.'.rX'.].].^.^./.^.(.`.`.`.`.`.`.`.^.",
"!.!.!.!.^.`./.!.!.!.!.!.!.!.!.!.!.!.^.^.p * ^ !.!.!.!.!.!.!.!.!.!.!.!.!.!.!.!.!.H.* ; W.rXrXrXrXrX].].^.~./.`.`.`.`.`.`.`.`.`.`.",
"!.!.!.^.^.'./.^.!.!.^.`.`.!.^.^./.W.y y f j f u y W.!.!.!.!.^.!.!.!.!.!.!.!.%.y i j j i t ;.rXrXrX(./././.].].`.`./.!./.`.`.`.`.",
"!.!.^.`./.'.'.^.`.!.`.].[.!.!.^.R.^ O d c =Xj r O / / / / / / / / ) / / / / 0 1 f 1Xz f w t 5.rX].!.!.(.'.].].].`.!.!./.`.`.`.'.",
"^.^.`.^.`.`.`.^.^.^.`.'.`.`.!.R.' b 3 c 8X>X*Xc 2 6 6 6 7 b 7 b b b 7 7 b 7 4 h 1X7Xz =Xi 4 _ 4.]./.^.].].rX].[.`.`.^.`.`.`.'.'.",
"`.^.^.`.^.`.^.`.^.`.^.`.^.!.!.) q g.R 6X9X4X=X5XK s.l.l.l.l.l.i.i.v.v.v.v.v. .<.qX7X*X8X<.} O.* ).`.'.].].rX].'.`.`.`.`.`.'.'.`.",
"^.'.^.(././.^.^.^.`.^.^.^.^.!.%.B [.T sXiX8X7X2XK [.+X+X+X+X+Xd.a.i.a.a.a.i. .W.fX8X9X9X<.b.W.; /.].'.].].'.].'.`.`.`.`.`.`.(.'.",
"/.'.(.^.^.`.^.!.^.`././.^.^.!.%.2 Q T sXwXpXpX5XK T W W Q Q Q I P E E E E E P W.dX9XgXeX[ Y J ; ).].].(.'.(.`.`.`.`.`.`.'.'.'.'.",
"(.(./././.`.^.!.^.^.^.`.^.`.%.- B T.T sXfXgXhXpXK Y.Y._._._._._.Y.Y.Y.T.e.w.| W.lXdXkXfXP.@.P.* u ).rX].].(.'.(.`./.(.`.'.'.'.'.",
"(.(.'.'.!.!.!.!.^.!.!.!.^.%.g e B T.T sXkXkXkXaXK N.U.B.B.U.U.U.U.B.U.N.v.i. .W.kXkXkXkXL.O.@.& f =.Q.].rX'.'.(.`.[.'.(.'.'.'./.",
"`./.`.`./.!.!.!.^.!.^.!.`.* 2Xg b t.T sXkXjXjXaXU a.i.i.i.i.i.i.v.i.i.v.i.i. .W.kXjXjXkXL.{ } ; eXe 4.rXrX(.(.'.'.'.`./.'.'.'.'.",
"!.!.`.`.^.!.!.!.!.!.^.`.`.* tX6.N +.T zXhXhXlXaXU a.i.i.i.i.i.i.i.i.i.i.i.i. .E.lXjXgXkXE.{ } ; dXi 3.rXrXrX(.].]./.!././.'.'.'.",
"!.!.`./.^.!.!.^.!.!.`.`.`.* ;Xf N +.K 5XdXpXiXaXY y.y.y.y.y.y.y.y.y.y.y.y.y. .<.wXhX9XfXL.{ } * 3Xe 3.rXrX(.(.rX].`././.`.'.'.'.",
"`.`.!.!.!.!./.`.`.`.`.'.`.% ;Xf b t.U 3X7X0XiXaXW y.y.y.y.y.y.y.y.y.y.y.y.y.{ ,.9X0X9XfXR.} } * 4Xe 3.(.(.(.(./.!.^.~./.`.`.`.'.",
"'.'.!.!.!.~./.(.'.'.'.'.'.H.h ; % 4 9 2X7X7XqX0X3 4 5 4 5 5 4 4 5 5 4 4 4 5 , g 7X7X7XwXg 2 2 & r 2.(.'.'.'.'.^.!.^.!./.`.`.`.`.",
"`.'.`.'.^.!./.(.'.(.`.'.'.(.3.y > D q 3X7X7X7X2X8 A A A A A A A A S A A Z A n $.7X7X7X7X#.n b & / ).(.'.'.'.'././.`.'.`.`.`.`.`.",
"'.'.'.'.^.!.^.(.`.`.`.`.(.(.(.%.5 o.U 3X7X8X8X5XU t.y.y.t.X.X.X.X.X.X.y.y.y.{ <.7X7X4X8X[ | I ; W.`.(.'.'.(.'././.`.'.`.`.`.`.`.",
"'.`.`.`.^.!./.(.`.`.`.`.(.(.).' 5 I U 2X7X1X=X5XK y.y.y.X.P ! ! ! K | y.y.y.| <.7X7Xz 8X[ P G 9 Q.`.(.^.^.!.!.!.!.^./.^.!.!.!.^.",
"`.'.`.`.^.!./.(.'.'.`.`.`.`.y F a.a.K l 4X>X=X5XU +.y.y.X.! hXhXiX2.| t.y.y.{ ' =X7Xz z `  .a.e.# R.'.^.!.!.!.!.!.^.^.!.!.!.!.^.",
"`.'.`.`./././.`.(././.`.`.`.y L w.Y K l *X*Xz l P I I I P T 0X. c 3.K I I I I ) z *Xz z ` P } e.# R.'.!.!.^.^.`.^.`.'.`.`.^.^.`.",
"'.'.`.`.`.(.`.`./.^./.`.`.`.u < 8 2 9 x z z z k 3 , , , , 0 8X  x g , , , < , s z z z z i 2 2 q + R.'.!.!.'.`.'.'.'.'.`.'.'.`.'.",
"'.`.`.`.`.`.`.`./.!.^.'.`.^.5.) u O O r d d d r O O O O O * 7X  z g O O O O O w d d d d = O ; / %.W.^.^.^.^.`.'.'.^.`.'.'.'.'.'.",
"`.`.`.`.`.`.`.`.`.^.^.`./.^.!./.4.o $ $ < $ $ $ 3 $ $ $ $ 9 J.1 l #.$ $ 3 $ < $ $ < $ $ < : t W.!.!.!.`./.`.`././././.`.'.'.'.(.",
"'.`.`.`.`.`.`.`.`.`./.`./.!.!./.4.# E P L L L G H L L H K ~ P Q W W U G H H L L G G L P Y n t ^.^.!.!.^./././././././.`.'.'.'.'.",
"'.'.`.`.`.`.`.`.`.`.'.`./.!.!./.4.$ +.I 3 o + + o o & @ s XXd.XX%XF.r.X o @ o @ O + @ S ..G t /.^.!.!.`././.^././.`.`.`.'.'.'.`.",
"'.`.`.`.`.`.`.`.`.`.'.'./.!.!./.4.$ y.E < O O X X O.V @.@X%Xd.8.C.S.A.m.&X&Xs X X X o S ..J y /.`.^.^.^./.^.^././.`.`.`.'.'.'.`.",
"'.'.`.`.`.`.`.`.`.`.`.`.`.!.!./.4.$ y.E > O 0 ~ 0.h.+.n.B.B.c.Z.9.C.OXOX,X|.I.H.] X O S ..J 0 '.'.'./.^./.!.!./.'.'.'.`.`.'.'.'.",
"`.`.`.`.`.`.`.`.`.`.`.`.`.^.,.3.) % y.P > 0 ~ G.{.G.D.B.T.7.A.c.C.{.%X@XyX}. XOX&X] ' R o.J 0 1.1.2.'.`.'.!.!.(.'.'.`.`.'.'.(.(.",
"`.`.`.`.`.`.`.`.`.`.`.`.`.`.-.:.a $ t.I > ~ c.m.,X{.#X#XrX:XT.d.F.%XoXd.XX.XV.D.%XXXXXQ ..J - &.-.:.'.'.'.!.!.^.'.`./.`.`.(.(.(.",
"`.`.`.`.`.`.`.`.`.`.`.^.`.`.-.:.a $ y.I > ~ c.s.p.<XyX XV.uX-Xn.l.D.oXd.d.V O.D.oXs.l.W o.G - &.*.-./././.^.^./.'./.^.(.`.(././.",
"`.`.`.`.`.`.`.`.`.`.^.`.W.`.-.:.a $ y.P z.c.N.#Xx.G.z.s.V.$X$X$XB. XXXg.C @XF.c.j.A.p.| ..L - *.*.*.^.!.!.^./.(.'./.!./.(.(.(.(.",
"`.`.`.`.`.`.`.`.`.`.`.W.^.`.:.:.a $ y.I r.c.c.n.-XM.A.F.OXG.V.9.q.D.%XoXx.%XF.F.OXA.s.E ..J - *.*.*.!.!.!.^.^.^./.!.!./.(.(.`.(.",
"`.`.`.`.`.`.`.`.`.`./.`.`.`.;.:.a $ y.I u.c.A.x.7.x.x.M.G.A.c.Z.h.M.D.B.x.B.A.G.G.A.s.| ..J - *.*.*.!././.^.!.!.^.!.!.^././././.",
"`.`.`.`.`.`.`.`.`.`.`.`.`.`.-.:.a $ y.{ u.j.k.x.p.p.p.p.p.k.k.k.k.j.p.p.p.p.j.k.k.k.p...X.L - *.*.*.!././.!.!.!.!.!.!./.^././.`.",
"`.`.`.`.`.`.`.`.`.`.`.`.`.`.-.:.a % } } } } } } { {  .} } } |  .{ } } } } } } }  .} } } } M - *.*.&.!.!.!.!.!.!.~././.^.^.^./.`.",
"`.`.`.`.`.`.`.`.`.`.`.`.`.'.:.:.a o + + + + + + X o + + + + * O & @ + o + + + o + + + o + + - *.*.&.!.!.!.!.!.!.^.^./.^.!.^././.",
"`.`.`.`.`.`.`.`.`.`.`.`.`.`.:.:.a # m m m m m b X b n D Z D 2X  k >.Z Z m m < < D m m Z m 4 - -.*.&.!.!.!.!.^.~.!.^.^./././././.",
"`.`.`.`.`.`.`.`.`.`.`.`.`.`.-.:.a # Z Z Z Z A m X D Z Z D F 7X1X3X>.A Z Z Z < , Z Z Z Z A 4 - :.:.&.!.!.!.!.!.!.!.!.~.!./.'././.",
"`.`.`.`.`.`.`.(.`.`.`.`.`.`.:.:.a : Z Z Z Z Z M o m Z Z Z Z -.;.;.` Z Z Z Z < 2 Z Z Z Z Z 4 - :.:.&.!.!.!.!.!.!.!.!.!.!.!.^.`.`.",
"/.(.`./.`.`.'.'.`.`.`.`.`.`.:.:.a : Z Z Z Z Z n X m Z Z Z Z Z Z Z Z Z Z Z Z < 2 Z Z Z Z Z 4 - :.-.&.!.!.!.!.!.!.!.!.!.!.!.!.`.`.",
"'./.(.(.`.`.'.'.'.'.`.`.`.`.-.-.a : Z Z Z Z Z n o M Z Z Z Z Z Z Z Z Z Z Z Z $ 2 Z Z Z Z Z 4 - *.*.&.!.!.!.!.!.^.!.!.!.!.!.^.^.^.",
"`.`.`.`.'.`.'.`.'.`.`.`.`.`.-.-.a : Z Z Z Z Z n o m A Z Z S Z S Z Z Z Z Z Z < 3 Z Z A Z Z 4 - &.&.&.!.!.!.!.!.^.^.^.!.^.`.^.!.^.",
"/.(.`.`.`.`.`.`.'.'.`.`.`.`.-.-.-.a : : : :   : O O o o o o o o O O X X : X X @ X @ o o o y *.&.&.&.!.!.!.!.!.^.`.!.!.^.`.^.!.!.",
"/./.`.`.(.`.(.(.`.`.`.`.`.`.-.*.*.-.a *.a a ' a ( ( ( ( ( ( ( ( #.#.=.( =.a a =.a ( =.a ( =.*.&.&.&.W.!.!.!.!.^.`.^.!.^.`.!.!.!.",
"/./.^.^.^.'.`.(.`.`.`.`.`.'.-.*.-.-.-.-.:.:.*.*.&.&.*.*.:.-.-.-.:.:.-.-.-.-.-.*.-.-.-.-.*.*.*.&.&.&.~.W.W.!.!.!.`.!.!.^.^.!.!.!.",
"(.(.!.).^.`.`.`.`.`.`.`.`.'.-.-.-.:.-.] g ] *.*.&.&.*.:.:.-.-.-.:.:.-.-.-.-.-.*.-.-.-.:.-.*.&.&.&.&.!.!.!.!.!.!.!.`.`.^.!.!.!.!.",
"/.(.^.^./.(./.`.`.`.`.`.`.`.-.-.a K.a v ] a a *.-.a K.a -.-.*.*.-.:.:.:.-.*.*.*.*.:.:.:.:.*.-.*.;.%.!.!.!.!.!.W.!.!.^.!.!.!.!.!.",
"(././././.(.`.(.`.'.`.`.`.'.2.3.K.K.H.K.H.H.K.K.H.*.K.K.K.:.K.K.1.1.1.2.1.,.,.1.3.3.2.2.2.2.3.,.5.5.!.`.^.!.!.!.!.!.!.!.!.!.!.!.",
"/./.(.(.(.(.(.(.`.'.`.`.(.'.(.(.`.`.'./.~.)././.~.~././.~.(././././././.^.!.!.!./.`.`.`.(.'.(.W.W.W.!.^.^.!.!.!.!.!.W.!.!.!.!.!.",
"^.!././.'.'.(.(.`.`.`.`.`.'.(.'.`.'././.W.).~.(.).(././././.^./././.(.'././.^.!./.`.`.`.(.(.(.W.!.W.!.!.!.!.!.!.`.!.!.!.!.!.!.!.",
"W.!.`.`.`.'.`.(.(.(.`.`.`.`.`.`.'./.`.!.!.!.!.^.(.'.(./.^./././././.'.'.(./.^.)./././.`.`.`.^.!.!.!.!.!.!.!.!.!.^.!.!.~.!.!.!.!.",
"!.!.!.!.^.`.`.`.(.`.(.`.`.`.'.`.`./.!././././.^.).~./.~.!.^./.(.(.'.(.'.(.(.!.!.!././.`.`.!.!.!.!.W.!.!.!.!.!.!.!.!.!.!.!.!.!.!.",
"!.W.!.!.^.`.(.(.(.^.`.`.(.`.(.(./.!.!./.`.(.(./.~./.^.~.^.^.^.(.(.(.(.'.(.(.^.!.!.!.!.[.`.!.!.!.!.!.!.!.!.!.!.!.!.!.!.!.!.!.!.!.",
"!.!.!.!.!.!.^.^.^.^.^./.`.`.(.^.^.!.!./.(.(.(./.^.~.^./.^.^.^.^.^.^.(.(.(./.^.!.!././.`.`.^.!.!.~.!.!.W.!.^.^.^.`.!.!.!.W.!.!.!."
};
