/* XPM */
static char *result[] = {
/* columns rows colors chars-per-pixel */
"64 64 164 2 ",
"   c #DBA46E",
".  c #DAA36D",
"X  c #DAA36C",
"o  c #DBA46D",
"O  c #DAA46D",
"+  c #DAA46E",
"@  c #DCA670",
"#  c #DFAA76",
"$  c #DFAA77",
"%  c #DBA56E",
"&  c #DDA974",
"*  c #DFAB77",
"=  c #DDA873",
"-  c #DDA771",
";  c #DCA56E",
":  c #DCA570",
">  c #DEA974",
",  c #DCA671",
"<  c #D9A26B",
"1  c #E0AC77",
"2  c #DFAB75",
"3  c #D9A26C",
"4  c #D9A36C",
"5  c #E0AC78",
"6  c #DCA771",
"7  c #DDA772",
"8  c #DEA873",
"9  c #DDA773",
"0  c #DEA874",
"q  c #DEAA75",
"w  c #DEA975",
"e  c #DEA872",
"r  c #DBA56F",
"t  c #DCA56F",
"y  c #E0AB76",
"u  c #DDA872",
"i  c #E0AB78",
"p  c #E0AC79",
"a  c #E0AA75",
"s  c #E4AF7D",
"d  c #E0AB77",
"f  c #DBA46F",
"g  c #DDA874",
"h  c #DFAB76",
"j  c #DEAA74",
"k  c #E0AA76",
"l  c #E5B17F",
"z  c #E1AC78",
"x  c #DCA770",
"c  c #DBA670",
"v  c #DCA66F",
"b  c #DFA975",
"n  c #DDA671",
"m  c #43302E",
"M  c #DFAA75",
"N  c #E2AD7A",
"B  c #DBA570",
"V  c #A98467",
"C  c #DEA772",
"Z  c #E1AE7A",
"A  c #E1AE79",
"S  c #E3AE7C",
"D  c #E2C58A",
"F  c #C9A879",
"G  c #E4B07D",
"H  c #E5B27F",
"J  c #E4B17E",
"K  c #E1AB78",
"L  c #E5B180",
"P  c #DBA36D",
"I  c #362F2E",
"U  c #E5B17E",
"Y  c #E5B280",
"T  c #E2AD79",
"R  c #DAA26C",
"E  c #5F5045",
"W  c #856254",
"Q  c #E2AE7A",
"!  c #DEA973",
"~  c #E1AC79",
"^  c #6C5F4C",
"/  c #E1AD78",
"(  c #DDA871",
")  c #E3B07D",
"_  c #658846",
"`  c #563C38",
"'  c #E1AD79",
"]  c #DFAA74",
"[  c #E4B07E",
"{  c #E2AE7B",
"}  c #E6B381",
"|  c #DDA670",
" . c #6A4C45",
".. c #DFAB78",
"X. c #DEA976",
"o. c #DEAA76",
"O. c #A87E53",
"+. c #B18457",
"@. c #B6885A",
"#. c #B38658",
"$. c #AA7F54",
"%. c #C99664",
"&. c #C0905F",
"*. c #CA9764",
"=. c #C59361",
"-. c #B58759",
";. c #CA9765",
":. c #D19C67",
">. c #BC8D5D",
",. c #63493A",
"<. c #A98261",
"1. c #906B54",
"2. c #DFA974",
"3. c #7E5C49",
"4. c #705141",
"5. c #4B693B",
"6. c #697043",
"7. c #7B854A",
"8. c #CD9C6A",
"9. c #B38558",
"0. c #C49260",
"q. c #CF9B66",
"w. c #CA9763",
"e. c #B98A5B",
"r. c #CC9A68",
"t. c #BB8C5C",
"y. c #B88A5B",
"u. c #AE8256",
"i. c #C99765",
"p. c #748448",
"a. c #758549",
"s. c #768549",
"d. c #626E41",
"f. c #5C4337",
"g. c #6A4C3F",
"h. c #795848",
"j. c #8D6853",
"k. c #A88262",
"l. c #C09D6F",
"z. c #D3B37C",
"x. c #CF9C6A",
"c. c #D09E6C",
"v. c #D09E6D",
"b. c #CD9B68",
"n. c #D59F6B",
"m. c #DDA973",
"M. c #DCA872",
"N. c #D9A06B",
"B. c #D9A16B",
"V. c #DBA36E",
"C. c #DCA470",
"Z. c #DAA26D",
"A. c #E1AC77",
"S. c #DAA36E",
"D. c #DAA16C",
"F. c #DCA871",
"G. c #DBA36F",
"H. c #D9A16C",
"J. c #DAA26E",
"K. c #DDA770",
"L. c #D9A06C",
"P. c #DCA46F",
"I. c #DEAA77",
"U. c #DAA26B",
/* pixels */
"  . X X X X X X . o O + O o @ # $ @ % & * * * = % - # = ;   o @ # # :   > * , X X . . X X < + 1 2 < < < < 3 4 > 5 5 5 6 O 7 * 5 ",
"o X X X X X X X @ 8 @ . . X   9 0 - @ 7 & q * w - 7 = , o o X ; e 8 r   7 8 t X X . . X O t @ > e < < < < < < - 8 y 5 , . u i p ",
"o X X X X X X X a s d f . o o O r g w @ % & * * # = o O X X o o o o X X O   . . . X X . r h j o O < < X X X X O o > 5 , 4 7 i p ",
"o X X X X X X X k l z f . o o X o 7 = x @ 7 & w * = X X X X o % r t o X r : f . . X X . r > e X X r r X X X X X X 6 & r 3 c g > ",
"o X X X X X X X k l z   . . . X X o r = w @   - * = o o X X X r > > v   8 b n o m m m X .   o X o 2 M X X X X < < X . 4 < 4 . . ",
"o X r c O X t 7 k N b   X . . X . % @ = = r X B > 7 @ t X X X % = = t ; 0 m m m V V V m m X o C 8 Z A X X X X X < < < < < . % r ",
"o X > # @ X a S d - % X X o o o % = > @ %   o   % , q 7 O X X .     m m m V V V D F F V V m r G G H J < < X X X X X X < < @ w M ",
"O X w * @ . K L d r . X X o o o ; = > t X P o X X @ q = O X X X I m V V V D F F F F F F D V m U l Y H X X X X o o o o O . 7 M * ",
"X X t @   X K L T 8 v o o X X X X   r o o m m R X   , t X X m m V E D F F F F F F F F D W V V m > Q Q ! ! O 4 - > > > > ! 6 r 7 ",
"X X X X . o d s ~ > x o o X X < < < < o m V V m X .   P X m V V D F ^ F F F F F F F D W F F F V m / z h h r X > 5 1 1 1 1 ( O @ ",
"X X X X , 8 ! > - v % O X o o X X X . m V D F V m P . . P m V D F F F ^ F F F F F F ^ F F F F F V m ) @ @ u u h 1 5 5 1 1 M ! j ",
"X X . o 0 d u   . X o   % o o % o X m V F F F F V m R .   m V V D F F F ^ ^ ^ ^ ^ ^ ^ F F F F F F V m X X 2 5 1 1 d * 1 1 1 1 1 ",
"X X @ , b 5 > - r o 7 d M v % @ @ m V D F F F F D V m . _ m ` V V D F F F F F F F F F ^ F F F F F F V m u Q ) ' 1 = 6 ] 1 1 1 1 ",
"  . = > h d # > - t k [ { - ; 7 m V D F F F F F D V V m _ m ` ` V V D F F F F F F F F F ^ ^ F F F F D V m H } Q 1 @ X u y 5 5 5 ",
", @ 8 > q # w > = - M ' d |   m V D F F F F F F F V F V m m ` ` V V D D F F F D W F F F F F ^ ^ ^ ^ ^ ^ E I } Q 1 ! - ] 1 5 5 5 ",
"w > > > > > > > > > > > _ t o m V D F F F F F F F F F F V m ` `  .V V D D F D W F F F F F F F F F F F F D V m Q 1 1 1 1 1 ....5 ",
"X.o.> > > > e - = > > > _ _ m V D F F F F F F F F F F F F V m ` `  .V V D D W V F F F F F F F F F F F F F D V m 1 1 1 1 1 1 ..5 ",
"$ ..w > > > | o , _ > _ _ _ m V V D F F F F F F F F F F F F V V `  .V V V W V F F F F F F F F F F F F F F D V m 1 1 1 1 1 1 1 5 ",
"* ..M q ! u v o @ 7 _ _ _ _ m V V V D F F F F F F F F F F F F F V  . .V V V D D F F F F F F F F F F F F D V V m 1 1 1 1 1 1 1 5 ",
"....5 5 - % o o     _ m _ _ m ` V V V D D F F F F F F V F F F F F V  . .V V D D F F F F F F F F F F D D V V W m 1 ~ ~ 5 1 5 5 d ",
"o.o.i 5 - % o o     m V m m m `  .V V V D D D F F F D V F F F F F F V  . .V V D D F F F F F D D D D V V V W W m ' 5 d d 1 5 5 5 ",
"o X M d n   o o o m V F V V m `  . .V V V V D D F D V W F F F F F F F V  . .V V D D D D D D D V V V V V W W W m } b r 0 d ~ ~ 5 ",
"  o b # | o   % m V D F F V V ` `  . .W V V V D D D V F F F F F F F F D V  . .V V D D V V V V V V V W W W W W m l > r 0 d z ~ 5 ",
"5 5   X X X O.+.@.@.@.@.@.@.@.@.@.@.@.@.@.@.@.@.@.@.@.@.@.@.@.@.@.@.@.@.@.@.@.@.@.@.@.@.@.@.@.@.@.@.@.@.@.@.@.@.#.$.%.8 y d d 5 ",
"5 5 % X X _ +.&.*.*.*.*.*.*.*.*.*.*.*.*.*.*.*.*.*.*.*.*.*.*.*.*.*.*.*.*.*.*.*.*.*.*.*.*.*.*.*.*.*.*.*.*.*.*.*.*.=.-.;.8 y d d 5 ",
"5 5 .._ _ _ @.*.< < < < < < < < < < < < < < < < < < < < < < < < < < < < < < < < < < < < < < < < < < < < < < < < :.>.,.d d d d d ",
"5 5 ...._ _ @.*.< < < < < < < < < < < < < < < < < < < < < < < < < < < < < < < < < < < < < < < < < < < < < < < < :.>.<.m d d d d ",
"5 5 d _ _ _ @.*.< < < < < < < < < < < < < < < < < < < < < < < < < < < < < < < < < < < < < < < < < < < < < < < < :.>.<.m   o o n ",
"5 5 _ _ _ _ @.*.< < < < < < < < < < < < < < < < < < < < < < < < < < < < < < < < < < < < < < < < < < < < < < < < :.>.<.m . X X @ ",
"5 5 .._ _ _ @.*.< < < < < < < < < < < < < < < < < < < < < < < < < < < < < < < < < < < < < < < < < < < < < < < < :.>.1.m 0 > 2.M ",
"5 5 .._ _ _ @.*.< < < < < < < < < < < < < < < < < < < < < < < < < < < < < < < < < < < < < < < < < < < < < < < < :.>.1.m d i z 5 ",
"5 5 d d _ _ @.*.< < < < < < < < < < < < < < < < < < < < < < < < < < < < < < < < < < < < < < < < < < < < < < < < :.>.3.m _ p p p ",
"5 5 d d d _ @.*.< < < < < < < < < < < < < < < < < < < < < < < < < < < < < < < < < < < < < < < < < < < < < < < < :.>.4.m _ p p p ",
"5 5 d d _ d @.*.< < < < < < < < < < < < < < < < < < < < < < < < < < < < < < < < < < < < < < < < < < < < < < < < :.>.,.5._ _ 5 p ",
"5 5 d d d d @.*.< < < < < < < < < < < < < < < < < < < < < < < < < < < < < < < < < < < < < < < < < < < < < < < < :.>.6._ _ 5 5 p ",
"5 5 d d d d @.*.< < < < < < < < < < < < < < < < < < < < < < < < < < < < < < < < < < < < < < < < < < < < < < < < :.>.7._ 5 p p 5 ",
"5 5 d d d _ @.*.< < < < < < < < < < < < < < < < < < < < < < < < < < < < < < < < < < < < < < < < < < < < < < < < :.>.7._ 5 p p 5 ",
"d d d d d _ @.*.< < < < < < < < < < < < < < < < < < < < < < < < < < < < < < < < < < < < < < < < < < < < < < < < :.>.7.5 5 5 ..d ",
"d d d d _ _ @.*.< < < < < < < < < < < < < < < < < < < < < < < < < < < < < < < < < < < < < < < < < < < < < < < < :.>.8._ p * q # ",
"d d d d _ _ 9.0.q.q.q.q.q.q.q.q.q.q.q.q.q.q.q.q.q.q.q.q.q.q.q.q.q.q.q.q.q.q.q.q.q.q.q.q.q.q.q.q.q.q.q.q.q.q.q.q.w.e.r.# 5 * q h ",
"d d d _ _ _ $.-.t.t.t.t.t.t.t.t.t.t.t.t.t.t.t.t.t.t.t.t.t.t.t.t.t.t.t.t.t.t.t.t.t.t.t.t.t.t.t.t.t.t.t.t.t.t.t.t.y.u.i.> 5 5 * 5 ",
"d d _ _ _ _ p.a.s.s.s.d.f.g.g.g.h.h.h.h.j.j.j.j.j.j.j.h.j.j.j.j.j.h.h.g.g.g.k.k.l.l.l.l.z.k.f.g.h.j.j.j.f.s.x.c.v.b.n.= * d d i ",
"d d d d _ _ _ _ _ _ _ 5.5.m ` `  . . . .W W W W W W W  .W W W W  . .` ` V W D F F F F F F V m m `  .W W m _ _ r r O X 7 q M M # ",
"d d d d _ _ _ _ _ _ _ _ 5.5.m ` `  . . .W W W W W W W W W W W W  .` V V F V W D F F F F F F V m m m  .W m 5._ _ X o   6 m.> > M ",
"d d d d _ _ _ _ _ _ 5.5.5.5.m ` `  . . .W W W W W W W W W W W  .` V F F F F V F F F F F F D V  .m 5.m  .m _ _ X X - > - t u q # ",
"d d d d d _ _ _ _ _ _ _ _ 5.5.m ` `  . . .W W W W W W W W  . .` V F F F F F F F F F F F D V V V m 5.5.m 5._ X X X 7 b 6   6 j q ",
"d d d d d _ _ _ _ _ _ _ _ _ 5.5.m ` `  . .W W W W W  . . .m V V F F F F F F F F F F F D D V V  .m _ 5.5._ _ X X X r t 6 M.m.q q ",
"d d d d _ _ _ _ _ _ _ _ _ _ _ _ 5.m ` `  . .W W  . .m m m V F F F F F F F F F D D F D V V V  . .m _ _ _ _ _ _ X X X X 6 & q q q ",
"d d d _ _ d d _ _ _ _ _ _ _ _ _ _ 5.m ` ` ` `  .m m _ m V F F F F D D D D D D D V V V V V  . . .m _ _ X X X _ _ . R R   : = # # ",
"* * * * d d 5 5 _ _ _ _ _ _ _ _ _ 5.5.m m m m m 5.5.m V D D D D D D D D V V V V V V V W W  . .` m _ X X X X X     3 N.N.N.n # # ",
"* * * * d d 5 5 5 _ _ _ _ _ _ _ _ _ 5.5.5.5.5.5.5.m `  .V V V V V V V V V V W W W W W W W  .` m 5._ _ _ X X X @ , . B.V.C.n 7 0 ",
"d d d d 5 5 5 5 5 _ d d _ _ _ _ _ _ 5._ _ 5._ 5.5.m `  . .V V V V V W W W W W W W W W W W ` m 5._ _ _ X X X X u q t X C k - O @ ",
"h h d d d 5 5 5 5 5 d d _ d _ _ _ _ _ _ _ _ _ _ 5.m ` `  . . .W W W W W W W W W W W W W ` m 5._ _ Z.Z.X X X X = h @ X 7 M 6 O % ",
"q q * * * * * * d d d d d * > _ _ 2._ _ _ _ _ _ _ 5.m `  . . .W W W W W W W W W W W  . .m 5._ _ _ _ N.< < X X w 5 , . 6 j @ . X ",
"q o.= 7 b * * * d d d d d d M _ - # A.M _ _ _ _ 5.5.5.m `  . .W W W W W W W W  . . .m m 5._ _ _ N.N.N.B.B.< X 7 0 , @ 6 6 r X X ",
"o.* S.D.9 # d d d d d d d d d y d 5 * 6 o _ _ 5.5.5.5.5.m `  . .W W W  . . . .m m m 5.5._ _ _ N.N.N.N.N.N.< < . O F.> @ o X X X ",
"# * B G.g * * d d d d d d d i d d i * 7 _ _ _ _ _ _ _ 5.5.m ` ` `  . .m m m m 5.5.5._ _ _ _ _ N.N.N.N.C.C.R B.< X @ 6 % X X X O ",
"# * o.o.* * * * d 5 d * d 5 i i d d d _ _ _ _ _ _ _ _ _ 5.5.m m m m m 5.5.5.5.5._ _ _ _ 5 * _ N.N.N.H.* * J.N.< < X O X X X X @ ",
"w w * * * * * * 5 5 * * * 5 p i d d y > = u _ _ _ _ _ _ _ 5.5.5.5.5.5.5._ _ _ 5._ _ _ 5 5 5 M N.N.N.H.$ $ J.N.R . X R X X X X : ",
"  % o.* 5 5 * * * * d d d d d d d d # - %   % _ _ _ _ _ _ 5._ _ 5._ _ _ _ _ _ _ _ 5 5 5 5 5 M N.N.N.N.    H.N.7 X.f H.R X X X O ",
"X X > o.d 5 * * * * d d d d d d d # M K.;   _ n # _ _ _ _ _ _ _ _ _ _ _ _ _ _ + 7 _ d 5 5 * 0 N.N.N.N.< < B.N.= $ f L.D.X X X X ",
"X X r r > d * * * d * * d 5 i d # u | = > > > C P.f % % % , q $ * i 5 5 5 * , .   : = 5 # : r B.B.B.B.< < < B.+ r R N.D.X X X X ",
"X X X X 7 b # o.# # # * * 5 i # 2.v % & * * d 9 R X X O o @ w I.* ..5 5 5 * , X O   7 5 M   + < < < < < < X . . . H.B.R R X X X ",
"O X X X % : @ @ @ @ 8 # d i # 7 t ; % & * * * 9 X X o r - - 6 6 @ - # 5 5 * , X @ > M 1 h > u < < U.U.< < - g & &   R < B.R X t "
};
