/* XPM */
static char *result[] = {
/* columns rows colors chars-per-pixel */
"64 64 256 2 ",
"   c #DBA46E",
".  c #DAA36D",
"X  c #DAA36C",
"o  c #DBA46D",
"O  c #DAA46D",
"+  c #DAA46E",
"@  c #DCA670",
"#  c #DFAA76",
"$  c #DFAA77",
"%  c #DBA56E",
"&  c #DDA974",
"*  c #DFAB77",
"=  c #DDA873",
"-  c #DDA771",
";  c #DCA56E",
":  c #DCA570",
">  c #DEA974",
",  c #DCA671",
"<  c #D9A26B",
"1  c #E0AC77",
"2  c #DFAB75",
"3  c #D9A26C",
"4  c #D9A36C",
"5  c #E0AC78",
"6  c #DCA771",
"7  c #DDA772",
"8  c #DEA873",
"9  c #DDA773",
"0  c #DEA874",
"q  c #DEAA75",
"w  c #DEA975",
"e  c #DEA872",
"r  c #DBA56F",
"t  c #DCA56F",
"y  c #E0AB76",
"u  c #DDA872",
"i  c #E0AB78",
"p  c #E0AC79",
"a  c #E0AA75",
"s  c #E4AF7D",
"d  c #E0AB77",
"f  c #DBA46F",
"g  c #DDA874",
"h  c #DFAB76",
"j  c #DEAA74",
"k  c #E0AA76",
"l  c #E5B17F",
"z  c #E1AC78",
"x  c #DCA770",
"c  c #DBA670",
"v  c #DCA66F",
"b  c #DFA975",
"n  c #DDA671",
"m  c #DFAA75",
"M  c #E2AD7A",
"N  c #DBA570",
"B  c #DEA772",
"V  c #DDA670",
"C  c #E1AE7A",
"Z  c #E1AE79",
"A  c #E3AE7C",
"S  c #E4B07D",
"D  c #E5B27F",
"F  c #E4B17E",
"G  c #E1AB78",
"H  c #E5B180",
"J  c #DBA36D",
"K  c #DFA976",
"L  c #E5B17E",
"P  c #E1AD79",
"I  c #E5B280",
"U  c #E2AD79",
"Y  c #DAA26C",
"T  c #E2AE7A",
"R  c #DEA973",
"E  c #E1AC79",
"W  c #CC9865",
"Q  c #B18458",
"!  c #A37A52",
"~  c #A47B52",
"^  c #B28458",
"/  c #CC9965",
"(  c #A37A51",
")  c #CD9A66",
"_  c #B28558",
"`  c #E1AD78",
"'  c #DDA871",
"]  c #604830",
"[  c #37291B",
"{  c #E3B07D",
"}  c #DEAA76",
"|  c #CD9C69",
" . c #8B6C4D",
".. c #594F45",
"X. c gray25",
"o. c #594F44",
"O. c #8A6B4C",
"+. c #D19E6D",
"@. c #E6B280",
"#. c #E6B381",
"$. c #B3895D",
"%. c #614932",
"&. c #9D9A96",
"*. c gray75",
"=. c #B4885D",
"-. c #E3AF7D",
";. c #DFAA74",
":. c #E4B07E",
">. c #E2AE7B",
",. c #CF9E6D",
"<. c #B58B60",
"1. c #8D7052",
"2. c #5A5046",
"3. c gray44",
"4. c gray81",
"5. c #EFEFEF",
"6. c #9F9F9F",
"7. c #606060",
"8. c white",
"9. c #8C6D4F",
"0. c #B68B61",
"q. c #D2A070",
"w. c #E2AD7B",
"e. c #B3885D",
"r. c #614A32",
"t. c #595045",
"y. c #9D9A97",
"u. c #624B35",
"i. c #B78C62",
"p. c #E3AF7C",
"a. c #A57C54",
"s. c #382B1E",
"d. c #A9815B",
"f. c #E6B380",
"g. c #DFAB78",
"h. c #DEA976",
"j. c #A57C53",
"k. c #A8815B",
"l. c #E3B07C",
"z. c #37291C",
"x. c gray56",
"c. c gray19",
"v. c #A8805A",
"b. c #A47C53",
"n. c #101010",
"m. c #A78058",
"M. c #D19F6F",
"N. c #B58A60",
"B. c #A57C55",
"V. c #B58A5F",
"C. c #D1A070",
"Z. c black",
"A. c #382B1D",
"S. c #A57E55",
"D. c #B28659",
"F. c #A88159",
"G. c #A8815A",
"H. c #BB9169",
"J. c #D8A879",
"K. c #E1AD7A",
"L. c #624B34",
"P. c #372A1C",
"I. c #624B33",
"U. c #B58B61",
"Y. c #A57D55",
"T. c #A57F56",
"R. c #614931",
"E. c #654E38",
"W. c #BA9067",
"Q. c #291F15",
"!. c #0E0A07",
"~. c #2A2016",
"^. c #7E6043",
"/. c #614B33",
"(. c #B48B60",
"). c #D3A171",
"_. c #7C5E3F",
"`. c #0E0B07",
"'. c #2A2017",
"]. c #7B5D3E",
"[. c #D2A170",
"{. c #B68C61",
"}. c #2B2218",
"|. c #816448",
" X c #AC8661",
".X c #B68C62",
"XX c #D2A171",
"oX c #624C35",
"OX c #0E0B08",
"+X c #3A2D20",
"@X c #E0AA77",
"#X c #7E6044",
"$X c #B2865A",
"%X c #CD9B68",
"&X c #B28559",
"*X c #B5895F",
"=X c #A67D56",
"-X c #A77F57",
";X c #291F14",
":X c #7A5B3D",
">X c #A67F57",
",X c #B4895E",
"<X c #D09D6D",
"1X c #DFA974",
"2X c #624A32",
"3X c #382A1C",
"4X c #382A1D",
"5X c #8D6F51",
"6X c #B48A60",
"7X c #D09F6F",
"8X c #614A33",
"9X c #A88059",
"0X c #7C5E40",
"qX c #7B5E3F",
"wX c #2A2015",
"eX c #B3875C",
"rX c #604931",
"tX c #D09E6D",
"yX c #7B5C3E",
"uX c #CF9D6B",
"iX c #CE9B68",
"pX c #B18558",
"aX c #CF9D6C",
"sX c #DDA973",
"dX c #604831",
"fX c #B2855A",
"gX c #60482F",
"hX c #DCA872",
"jX c #9E9A97",
"kX c #372A1D",
"lX c #8E7053",
"zX c #8C6F51",
"xX c #A57E56",
"cX c #8C6D50",
"vX c #A78059",
"bX c #36281B",
"nX c #A47A52",
"mX c #D9A06B",
"MX c #DCA672",
"NX c #D9A16B",
"BX c #DBA36E",
"VX c #DCA470",
"CX c #DAA26D",
"ZX c #E1AC77",
"AX c #DCA772",
"SX c #DAA36E",
"DX c #DAA16C",
"FX c #DCA871",
"GX c #DBA36F",
"HX c #D9A16C",
"JX c #DAA26E",
"KX c #DDA770",
"LX c #D9A06C",
"PX c #DCA46F",
"IX c #DEAA77",
"UX c #DAA26B",
/* pixels */
"  . X X X X X X . o O + O o @ # $ @ % & * * * = % - # = ;   o @ # # :   > * , X X . . X X < + 1 2 < < < < 3 4 > 5 5 5 6 O 7 * 5 ",
"o X X X X X X X @ 8 @ . . X   9 0 - @ 7 & q * w - 7 = , o o X ; e 8 r   7 8 t X X . . X O t @ > e < < < < < < - 8 y 5 , . u i p ",
"o X X X X X X X a s d f . o o O r g w @ % & * * # = o O X X o o o o X X O   . . . X X . r h j o O < < X X X X O o > 5 , 4 7 i p ",
"o X X X X X X X k l z f . o o X o 7 = x @ 7 & w * = X X X X o % r t o X r : f . . X X . r > e X X r r X X X X X X 6 & r 3 c g > ",
"o X X X X X X X k l z   . . . X X o r = w @   - * = o o X X X r > > v   8 b n o . . . X .   o X o 2 m X X X X < < X . 4 < 4 . . ",
"o X r c O X t 7 k M b   X . . X . % @ = = r X N > 7 @ t X X X % = = t ; 0 $ 8 @   . r B V X o B 8 C Z X X X X X < < < < < . % r ",
"o X > # @ X a A d - % X X o o o % = > @ %   o   % , q 7 O X X .     o ; 0 i $ b , X u S z < r S S D F < < X X X X X X < < @ w m ",
"O X w * @ . G H d r . X X o o o ; = > t X J o X X @ q = O X X X X X o ; 8 $ $ K , X e L P < r L l I D X X X X o o o o O . 7 m * ",
"X X t @   X G H U 8 v o o X X X X   r o o X X Y X   , t X X X X X . o o v V V @ ; o t 8 - X O 8 > T T R R O 4 - > > > > R 6 r 7 ",
"X X X X . o d s E > x o o X X < < < < o   X Y W Q ! ~ ^ / / Q ( ! Q ) ) _ ~ ~ _ ) o o % % % % % @ ` z h h r X > 5 1 1 1 1 ' O @ ",
"X X X X , 8 R > - v % O X o o X X X . 6 =   Y Q ] [ [ ] ^ _ ] [ [ ] Q Q ] [ [ ] _ o - P P P P P M S { @ @ u u h 1 5 5 1 1 m R j ",
"X X . o 0 d u   . X o   % o o % o X   & } | Q  ...X.X.o. . ...X.X.o.O.O.o.X.X.o. ._ +.I I I @.#.#.l F X X 2 5 1 1 d * 1 1 1 1 1 ",
"X X @ , b 5 > - r o 7 d m v % @ @ % % & h $.%...&.*.*.&.....&.*.*.&.o.o.&.*.*.&.o.] =.A A A -.#.D m m u u T { P 1 = 6 ;.1 1 1 1 ",
"  . = > h d # > - t k :.>.- ; 7 u v t ,.<.1.2.3.4.5.4.6.7.3.4.8.8.4.3.7.6.4.5.4.3...9.0.q.p w.#.F O o 5 5 D #.T 1 @ X u y 5 5 5 ",
", @ 8 > q # w > = - m P d V   v 6 - 7 e.r.t.y.4.5.4.3.7.6.4.5.8.8.5.4.6.7.3.4.5.4.y.2.u.i.-.:.#.D u u p.p.I #.T 1 R - ;.1 5 5 5 ",
"w > > > > > > > > > > > u t o o t g q a.[ X.*.8.8.*.X.X.*.8.8.8.8.8.8.*.X.X.*.8.8.*.X.s.d.f.f.f.D 5 ` f.f.f.f.T 1 1 1 1 1 g.g.5 ",
"h.} > > > > e - = > > > u t o o % - 7 j.[ X.*.8.8.*.X.X.*.8.8.8.8.8.8.*.X.X.*.8.8.*.X.s.k.l.l.l.l.p.p.l.l.l.l.P 1 1 1 1 1 1 g.5 ",
"$ g.w > > > V o , > > > u t       o o ~ z.X.*.5.4.x.c.X.*.8.8.8.8.8.8.*.X.c.x.4.5.*.X.s.v.1 1 1 ` #.f.1 1 1 1 1 1 1 1 1 1 1 1 5 ",
"* g.m q R u v o @ 7 = = 7 , : f   t v b.z.X.*.4.3.c.n.X.*.8.8.8.8.8.8.*.X.n.c.3.4.*.X.s.m.;.m 1 ` #.#.Z Z 5 1 1 1 1 1 1 1 1 1 5 ",
"g.g.5 5 - % o o         , M.N.B.a.V.C.B.z.X.*.*.X.Z.Z.c.x.4.5.8.8.5.4.x.c.Z.Z.X.*.*.X.A.S./ D.F.G.H.J.#.#.K.5 1 1 E E 5 1 5 5 d ",
"} } i 5 - % o o     r : 7 <.L.P.P.I.U.Y.z.X.*.*.X.Z.Z.n.c.3.4.8.8.4.3.c.n.Z.Z.X.*.*.X.A.T.D.R.A.s.E.W.#.#.K.5 ` P 5 d d 1 5 5 5 ",
"o X m d n   o o o o 7 d 5 i.L.Q.!.~.^.^.~.X.*.4.3.c.n.Z.Z.X.*.8.8.*.X.Z.Z.n.c.3.4.*.X.~.^.^.~.!.Q./.(.#.#.K.5 F #.b r 0 d E E 5 ",
"  o b # V o   % % % u d 5 ).N._.Q.`.'.'.`.X.*.5.4.x.c.Z.Z.X.*.8.8.*.X.Z.Z.c.x.4.5.*.X.`.~.~.`.Q.].<.C.I I K.5 S l > r 0 d z E 5 ",
"5 5   X X X = d 5 5 5 [.{.G.G.^.'.Z.Z.Z.Z.c.x.4.5.4.3.X.X.7.6.*.*.6.7.X.X.3.4.5.4.x.c.Z.Z.Z.Z.}.|. X X.XXXp p -       8 y d d 5 ",
"5 5 % X X X = d 5 5 5 {.oXs.s.'.OXZ.Z.Z.Z.n.c.3.4.5.4.*.*.6.7.X.X.7.6.*.*.4.5.4.3.c.n.Z.Z.Z.Z.OX}.+X+XoX.Xp p -       8 y d d 5 ",
"5 5 g.g.@ O = d 5 5 5 {.oX'.OXZ.Z.Z.Z.Z.Z.n.c.7.6.*.*.4.5.4.3.X.X.3.4.5.4.*.*.6.7.c.n.Z.Z.Z.Z.Z.Z.OX'.oX.Xp p q > @XE d d d d d ",
"5 5 g.g.@ O = d 5 5 5 [.{.^.'.Z.Z.Z.Z.Z.Z.c.x.6.7.X.X.3.4.5.4.*.*.4.5.4.3.X.X.7.6.x.c.Z.Z.Z.Z.Z.Z.'.#X.XXXp p } > d E i d d d d ",
"5 5 d d @ O = d 5 5 5 q.0.^.~.Z.Z.Z.Z.Z.Z.X.*.*.X.Z.Z.c.x.*.*.*.*.*.*.x.c.Z.Z.X.*.*.X.Z.Z.Z.Z.Z.Z.'.^.$X%Xo o O O - > @   o o n ",
"5 5 d d @ O = d 5 5 d 0.L.~.`.Z.Z.Z.Z.Z.Z.X.*.*.X.Z.Z.n.c.X.X.X.X.X.X.c.n.Z.Z.X.*.*.X.Z.Z.Z.Z.Z.Z.OX~.] &XX X X X 6 > : . X X @ ",
"5 5 g.g.q g # q.*X=X-X^.~.Z.Z.Z.Z.Z.Z.Z.Z.c.x.6.7.X.X.c.n.Z.Z.Z.Z.Z.Z.n.c.X.X.7.6.x.c.Z.Z.Z.Z.Z.Z.Z.Z.;X:XS.>X,X<X# * b 0 > 1Xm ",
"5 5 g.g.g.g.d 0.2X3X4X~.`.Z.Z.Z.Z.Z.Z.Z.Z.n.c.7.6.*.*.x.c.Z.Z.Z.Z.Z.Z.c.x.*.*.6.7.c.n.Z.Z.Z.Z.Z.Z.Z.Z.!.;X4Xs.L.0.5 p d d i z 5 ",
"5 5 d d d q.0.1.2.X.X.X.X.X.X.c.n.Z.Z.Z.Z.Z.Z.c.x.*.*.6.7.X.X.X.X.X.X.7.6.*.*.x.c.Z.Z.Z.Z.Z.Z.n.c.X.X.X.X.X.X.2.5X6X7Xd 5 p p p ",
"5 5 d d d 0.L.2.y.*.*.*.*.*.*.x.c.Z.Z.Z.Z.Z.Z.n.c.X.X.7.6.*.*.*.*.*.*.6.7.X.X.c.n.Z.Z.Z.Z.Z.Z.c.x.*.*.*.*.*.*.y.2.8X,X* p p p p ",
"5 5 d q.0.1.2.7.6.4.5.5.4.4.5.4.3.c.n.Z.Z.Z.Z.Z.Z.Z.Z.c.x.*.*.*.*.*.*.x.c.Z.Z.Z.Z.Z.Z.Z.Z.n.c.3.4.5.4.4.5.5.4.6.7.2.5X9Xp p 5 p ",
"5 5 d 0.L.2.y.6.7.3.4.4.3.3.4.5.4.x.c.Z.Z.Z.Z.Z.Z.Z.Z.n.c.X.X.X.X.X.X.c.n.Z.Z.Z.Z.Z.Z.Z.Z.c.x.4.5.4.3.3.4.4.3.7.6.y.2.s.p 5 5 p ",
"5 5 d 9Xs.X.*.*.X.X.*.*.X.c.x.4.5.*.X.Z.Z.Z.Z.Z.Z.Z.Z.Z.Z.Z.Z.Z.Z.Z.Z.Z.Z.Z.Z.Z.Z.Z.Z.Z.Z.X.*.5.4.x.c.X.*.*.X.X.*.*.X.Z.5 p p 5 ",
"5 5 d 9Xs.X.*.*.X.X.*.*.X.n.c.3.4.*.X.Z.Z.Z.Z.Z.Z.Z.Z.Z.Z.Z.Z.Z.Z.Z.Z.Z.Z.Z.Z.Z.Z.Z.Z.Z.Z.X.*.4.3.c.n.X.*.*.X.X.*.*.X.Z.5 p p 5 ",
"d d d 9Xs.X.*.*.X.c.x.x.c.Z.Z.c.x.x.c.Z.Z.Z.Z.Z.Z.Z.Z.Z.Z.Z.Z.Z.Z.Z.Z.Z.Z.Z.Z.Z.Z.Z.Z.Z.Z.c.x.x.c.Z.Z.c.x.x.c.X.*.*.X.Z.5 5 g.d ",
"d d d 9Xs.X.*.*.X.n.c.c.n.Z.Z.n.c.c.n.Z.Z.Z.Z.Z.Z.Z.Z.Z.Z.Z.Z.Z.Z.Z.Z.Z.Z.Z.Z.Z.Z.Z.Z.Z.Z.n.c.c.n.Z.Z.n.c.c.n.X.*.*.X.Z.p * q # ",
"d d d 0.L.2.y.x.c.`.~.~.`.Z.Z.Z.Z.Z.Z.Z.Z.Z.Z.Z.Z.Z.Z.Z.Z.Z.Z.Z.Z.Z.Z.Z.Z.Z.Z.Z.Z.Z.Z.Z.Z.Z.Z.Z.Z.Z.Z.`.~.Q.!.c.x.y.t.s.5 * q h ",
"d d d q.0.1.2.c.n.~.0X].Q.Z.Z.Z.Z.Z.Z.Z.Z.Z.Z.Z.Z.Z.Z.Z.Z.Z.Z.Z.Z.Z.Z.Z.Z.Z.Z.Z.Z.Z.Z.Z.Z.Z.Z.Z.Z.Z.Z.Q.].qXwXn.c... .>X5 5 * 5 ",
"d d d d d 0.L.s.s.L.=.$XR.~.OXZ.Z.Z.Z.n.c.c.n.n.c.c.n.Z.Z.Z.Z.Z.Z.Z.Z.Z.Z.n.c.c.n.n.c.c.n.Z.Z.Z.Z.!.Q.] D.eX%.4Xs.rXQ = * d d i ",
"d d d d d q.0.9X9X0.M.tX*X^.'.Z.Z.Z.Z.c.x.x.c.c.x.x.c.Z.Z.Z.Z.Z.Z.Z.Z.Z.Z.c.x.x.c.c.x.x.c.Z.Z.Z.Z.Q.yXe.uXiX&Xb.b.pX/ 7 q m m # ",
"d d d d d d d d d d d q.0.^.'.Z.Z.Z.Z.X.*.4.3.3.4.*.X.Z.Z.Z.Z.Z.Z.Z.Z.Z.Z.X.*.4.3.3.4.*.X.Z.Z.Z.Z.Q.yXe.aX  X X X o   6 sX> > m ",
"d d d d d d d d d d d 0.L.~.`.Z.Z.Z.Z.X.*.5.4.4.5.*.X.Z.Z.Z.Z.Z.Z.Z.Z.Z.Z.X.*.5.4.4.5.*.X.Z.Z.Z.Z.!.Q.dXfX. X X X - > - t u q # ",
"d d d d d d d d d q.0.^.~.Z.Z.Z.Z.n.c.7.6.4.5.5.4.6.7.c.n.Z.Z.Z.Z.Z.Z.n.c.7.6.4.5.5.4.6.7.c.n.Z.Z.Z.Z.;X:XQ / X X 7 b 6   6 j q ",
"d d d d d d d d d 0.L.~.`.Z.Z.Z.Z.c.x.6.7.3.4.4.3.7.6.x.c.Z.Z.Z.Z.Z.Z.c.x.6.7.3.4.4.3.7.6.x.c.Z.Z.Z.Z.!.;XgXQ X X r t 6 hXsXq q ",
"d d d d d d d d d 0.L.s.s.s.s.s.s.2.jXx.c.c.x.x.c.c.x.y.2.kXz.[ [ [ [ ..y.x.c.c.x.x.c.c.x.y.2.s.s.[ [ [ [ gXQ X X X X 6 & q q q ",
"d d d d d d d d d q.0.9X9X9X9X9XG.lX2.c.n.n.c.c.n.n.c.2.zXxXS.Y.Y.Y.Y.cX2.c.n.n.c.c.n.n.c...cXG.m.( ( ( ( Q / . . Y Y   : = # # ",
"* * * * d d 5 5 z z d d d d d d d G.s.Z.Z.Z.Z.Z.Z.Z.Z.4X>X# 1 5 * * * vXs.Z.Z.Z.Z.Z.Z.Z.Z.bXnX5 # X X X X X X     3 mXmXmXn # # ",
"* * * * d d 5 5 5 z d d d d d d d d y y y # q R 6 u > w # # h h # # # # * * * } * 5 # , , : , 9 MX. . X X X X @ , . NXBXVXn 7 0 ",
"d d d d 5 5 5 5 5 5 d d d d d z d m > > > # * = X t > # z y > > > > > w # * * * * * h q h 5 m mXNX    X X X X u q t X B k - O @ ",
"h h d d d 5 5 5 5 5 d d d d k 1X0 b # # # d d = X   6 8 y m > w # # q # * * * * w = & q q > 7 mXmXCXCXX X X X = h @ X 7 m 6 O % ",
"q q * * * * * * d d d d d * > r r 1Xz z z z ZX8 X X X t R > > m d 5 * * * * * # AX. : w =   BXmXmXmXmX< < X X w 5 , . 6 j @ . X ",
"q } = 7 b * * * d d d d d d m 7 - # ZXm 8 8 8 V X o t - j q q h 1 5 * * * * q = 7 6 u # 0   J mXmXmXmXNXNX< X 7 0 , @ 6 6 r X X ",
"} * SXDX9 # d d d d d d d d d y d 5 * 6 o o o X X t 8 j h * * * 5 5 * * * * 7 f = * d 5 m   J mXmXmXmXmXmX< < . O FX> @ o X X X ",
"# * N GXg * * d d d d d d d i d d i * 7 t t ;   X t > w # # # # h * * # w 9 : + = 5 5 5 # - : mXmXmXmXVXVXY NX< X @ 6 % X X X O ",
"# * } } * * * * d 5 d * d 5 i i d d d > 8 8 = @ X t > > > > > > > w # # : CX. + = 5 5 5 5 * > mXmXmXHX* * JXmX< < X O X X X X @ ",
"w w * * * * * * 5 5 * * * 5 p i d d y > = u u 6 % @ > > > > > > > w # } : CXCX+ = 5 5 5 5 5 m mXmXmXHX$ $ JXmXY . X Y X X X X : ",
"  % } * 5 5 * * * * d d d d d d d d # - %   % , b w > > > > > > > w * i } = N + = 5 5 5 5 5 m mXmXmXmX    HXmX7 h.f HXY X X X O ",
"X X > } d 5 * * * * d d d d d d d # m KX;   % n # w = = = 8 > w w q i p g.} , + 7 * d 5 5 * 0 mXmXmXmX< < NXmX= $ f LXDXX X X X ",
"X X r r > d * * * d * * d 5 i d # u V = > > > B PXf % % % , q $ * i 5 5 5 * , .   : = 5 # : r NXNXNXNX< < < NX+ r Y mXDXX X X X ",
"X X X X 7 b # } # # # * * 5 i # 1Xv % & * * d 9 Y X X O o @ w IX* g.5 5 5 * , X O   7 5 m   + < < < < < < X . . . HXNXY Y X X X ",
"O X X X % : @ @ @ @ 8 # d i # 7 t ; % & * * * 9 X X o r - - 6 6 @ - # 5 5 * , X @ > m 1 h > u < < UXUX< < - g & &   Y < NXY X t "
};
