/* XPM */
static char *result[] = {
/* columns rows colors chars-per-pixel */
"64 64 82 1 ",
"  c black",
". c #0C0907",
"X c #0E0E0E",
"o c #100C08",
"O c gray7",
"+ c #251C13",
"@ c #281E15",
"# c #2D2217",
"$ c #2E2318",
"% c #30251A",
"& c #37291C",
"* c #3A2C1E",
"= c gray17",
"- c #3A2D20",
"; c #3F3021",
": c #353535",
"> c #403122",
", c #5A432D",
"< c #5B4631",
"1 c #5E4934",
"2 c #544A3F",
"3 c #664D34",
"4 c #695038",
"5 c #74573A",
"6 c #775B3E",
"7 c gray25",
"8 c #494949",
"9 c #564D44",
"0 c #5E5247",
"q c #5E544B",
"w c #5B5B5B",
"e c #775C40",
"r c #646464",
"t c #686868",
"y c #777777",
"u c #846445",
"i c #876A4C",
"p c #8C6D4F",
"a c #9C754E",
"s c #896D51",
"d c #917153",
"f c #A47C54",
"g c #AC8156",
"h c #A78058",
"j c #AB825A",
"k c #B1865C",
"l c #B4895D",
"z c #B88A5D",
"x c #AC8661",
"c c #B48A61",
"v c #BA8E63",
"b c #B99068",
"n c #CB9764",
"m c #CC9965",
"M c #CE9B6A",
"N c #D09F6F",
"B c #D09F70",
"V c #D0A06F",
"C c #DAA36D",
"Z c #D2A170",
"A c #DCA671",
"S c #DEAA75",
"D c #D6A678",
"F c #DFAB78",
"G c #E0AB77",
"H c #E0AC78",
"J c #E4B17E",
"K c #888888",
"L c #979797",
"P c #989591",
"I c #9B9B9B",
"U c #A29F9C",
"Y c #A2A09D",
"T c #A4A4A4",
"R c #B6B6B6",
"E c gray75",
"W c #E6B381",
"Q c #CACACA",
"! c gray83",
"~ c gray93",
"^ c #F1F1F1",
"/ c white",
/* pixels */
"CCCCCCCCCCCCCCAHGACSGGSSAASSCCCSHSAASHACCCCCCCAHSCCCCCCASGGAAAHH",
"CCCCCCCCCAACCCCASAAASSSSASAACCCCASCCAACCCCCCCCAAACCCCmCCAGGACAHH",
"CCCCCCCCGJGCCCCCASSACSSSSSCCCCCCCCCCCCCCCCCCCSSACCCCCCCCCSGACSHH",
"CCCCCCCCGJGCCCCCCAAAAASSSACCCCCCCACCCACCCCCCCAACCCCCCCCCCAAACSAA",
"CCCCCCCCGJHCCCCCCCCASACASSCCCCCCAGACSSACCCCCCCCCCASCCCCCCCCCCCCC",
"CCCACCCAGHGCCCCCCCASACCASAAACCCCAAAASHSACCCGACCAAHHCCCCCCCCCCCCC",
"CCAHACAJGACCCCCCCSAAACCCAASACCCCCACCSHSAACAJHCCJJJJCCCCCCCCCCCSS",
"CCAHACHJGCCCCACCAASACCCCCASACCCCCCCCAGGGCCGJHCCJJJJACCCCCCCCCASS",
"CCCACCGJHGACCCCCCCCCCCCCCCACCCCCCCCCAAACACAAACCFSHHSSCCSCASSSACS",
"CCCCCCGJGGAACCCCCCCCCCCmgaagnnfaagmmgaagnCCACAACAHHGSCCSHHGGSSCC",
"CCCCASSSAACCCCCCCCCAACCg,$$,gk,#$,gk,##,gAAHHHHHHJJCCSSSSHHGHSSS",
"CCCCAGAACCCCCCCCCCCSSMhiq880iiq880iiq880igVJWWWWWJJCCSHHGHSGHHHS",
"CCAASGSAACAGSACAAACSFk<9UQQU99UQQY99YQQU2,kJJHJWJGSASJJHGAASSSHS",
"CCAASGGAAAGJHAAAAAAMksqy!~QLry!//!yrIQ~!yqikBHHWJACHHWJHGACSHHHH",
"AASSSGASAASGGACAAAFk,9I!^!twT!^//~!YwtQ^!Y0<cJJWWAAJJJJJGSASSHHH",
"SSASSSSSSSSSAACCCAFf&7E//E8>E//////E77E//E7&jWWJJHHWWJJHGGHSHHHH",
"SGSSSSAAASSASACACAAf&:E//E:7Q//////E77E//E7*jJHJJJJJJJJJSHHHSHSH",
"GGSASAACASSSACCCCACf&2E~QK:7R//////E7=KQ~E7*hGHHHWJSSHSHSHHHHHHH",
"GGSSSAACAASAAAACCCAf*7EQt=X7E//////E7X=tQE7&hSSHHWWJHSHSHHHSSHSH",
"GGHHAACACACCAHSAAHHf&7EE7  =KQ~//~QK=  7EE7&hCCHHWWJWJHSSHHHHHHH",
"GSGGACCCCCAAASFAAFFh&7EE7  X=tQ//Qt=X  7EE7&hCAHSWWWWHHHHHSHHHHH",
"CCSGACCCACASHFFMjjBh-7E!y:O  7E//E7  O:y!E2&hVjgmSSWWJHJWSCSHHHS",
"CCSSACACACFFHHFk,<ch&7E^!L:  7E//E7  :L!^E7%hc,,zSSJJHHJWSCSSHHH",
"GGCCCCSGHFSBkkBh&#ee+=KQ~!y88rIRRIr88y!~QK=+55+-lAvkVHHSCCCAHHHH",
"GGACCCSHHHHl<<ch*.++.X=tQ^!QQTw::wTQQ!^Qt=X.++.*xb1<lHHSACCSGGGG",
"JGGGSCCHHHHh&#ee+    O:rIRRQ~!y88y!~QRRIt:O    #6e+*jHHSSHHGGGGG",
"GGGGACAGHHHh*.++.    :LTw::tQ~!QQ!^Qt::wTL:    .++X*hHSSSGHGGGGG",
"GGGGCCSGHHHv4%.      7EE7  7Q~QRRQ~E7  7EE7     .X%3lACCCASACCCA",
"GGGGACAGHHGVvu#      7EE7  7QQt::tQE7  7EE7     .#evmCCCCASACCCC",
"GGGGHAGGSAGVle#      7EE7  =KK=  =KK:  7EE7      #egmASSSSSSSSSG",
"JGGGHGGGSAAl<+.      7QE7  O==X  O==X  7EE7      X+,gSSHSHHHGHHG",
"GGGGHHGGAmke#        =KLr:O          O:rIK:        +elVSSSSGHHHH",
"HGGGGGGGAk,+.        X=wTL:          :LTw=X        .+<cGGAFHHHHH",
"HGGGGGGBksq8888:O      =KIr:O      O:rIK=      O:8888qsjMGAHHSHH",
"GHGGGGGc<9UQQQQL:      X=wTL:      :LTw=X      :LQQQQI9,lFFHHHFH",
"HHGGGBjsqy!//~QIr:O      =KIr888888rIK=      O:rIQ~//!yqsfFSFFHH",
"GHGGGc19U!^//QtwTL:      X=wTQQQQQQTw=X      :LTwrQ//^!U9$FSHFHH",
"GGGGHf-7E~QQ~E77EE7        =KRRRRRRK=        :EE77E~QQ~E7 FJHHFH",
"GGGGHj-7QQtt!E77RQ7        X=::::::=X        7EE77QQrtQE7 SHHFFF",
"GGGGHf*:EE7=KK==KK=                          :KK==KK=7QE7 ASHSAF",
"GGGHHf-7EE7X==XX==X                          X==XX==O7EE7 ASHHSH",
"GGGGHc4qPK=o$$o    O::OO::O          O7:OO::O    o$%X=xPq;CASHSH",
"GGGGHBvd9=o@uu#    :LL::LL:          :LL::II:    #eu+X=2dgCASGSH",
"GGGGGHHv4>>4vj-    7E!yy!E7         .>E!yy!E7    &hx4-*3kCCASASS",
"GGGGGGGBvkcvZj-   .:E~!!^E7          7E^!!~E7    &aMzggzmASAAASS",
"GGGGGGGHGGFNke+  O:rIQ~~QYr:O      X:rIQ~~QIt:O  #5gnCCCCAGACASS",
"GGGGGGGGGGFc<+.  :ITwtQ!twTL:      :ITwtQQtwTL:  .#,gCCCCCAAAASS",
"GGGGGGGGGGFv4;;;;qPK==KK==KP0;;;*>;0PK==KK=:KP0-;;;1kCCCCCCASSGS",
"GGGGGGGGGGGBnfcczd2=XX==XX=2dggkjjjd2=XX==XX=2dfkggzmCCCCCCCCAGG",
"GGGGGGGGHHGGSHHHGg*        &hGHHHSSj&      ..&fWSCCCCCCCCCCCCAGG",
"GGGHGGGHGHGGGGHHGGSSHHSSAAFAGSGSHGFAFSAHGGFAAAAACCCCCCCCCCCCAAAA",
"GGGGHHHHHHGGGGHGGSSSASSACCFSHGASGAFFSFFFFFFAAWACCCCCCCCCGCCAGACA",
"GGGGGGGHGGGGGGGGASGGGGGACCAAHGSSGSSSFFAFSSSSWACCCCCCCCCCGACAGACC",
"AGHGGHGGGGGGGGGNASGHGHGSCCCAASSSGGSHFFFFACASACCCCNCCmCCCGACAAACC",
"AAAGGGGGGGGGGGGCAGHSSSAACCCASSSSSHHSFFSSAAASACCCMNCCCCCCGACAACCC",
"HHBCBGGGGGGGGGGGGGGACCCCCAAHGGSHHHHSFFACSFFFACCCCCCCCCCCCAGACCCC",
"GGCBBGFGGGGGGGGGGGGAAAACCASSSSHSSHSSSFCCAGWGAACCCCCACCCCCCCCCCCC",
"GGGSHSFSGGGGGGGGGGGAGAAACCSSSSSASSSSACCCAGGGWGACCCCAACmCCCCCCCCC",
"GGHGHHGFGGGGGHHGGGGSASAACASASAASSASSACCCAWGGAAGCCCCAGCCCCCCCCCCC",
"CNGHHHGGGGGGGGGGGGGACCAAGSSSSSFSSSSJSAAAAGGGGWACCnCCCCCCGCCCCCCC",
"CCGGGGGGFGGGGGGGHSGACCAASHAAASSSAFHHFSAZAGGGGGCnCCnCCCCCACmCCCCC",
"CCCCGGGGFGGGGGGGSAAAHHAACCCACASSFHHSFFACCAGGGCCCCCCCCCCCCCCCCCCC",
"NCCCAGGGFBGGGGGGSAASHSHACCCCCAFFSFHHSFACCCAGGCCCCCCCCCCCCCCCCCCC",
"CCCCCCAAAGAGGGGACACAHSSACCCAAAAAAAFHHFACAAGGGGCCCCCCCAAGACCCCCCC"
};
