/* XPM */
static char *result[] = {
/* columns rows colors chars-per-pixel */
"64 64 76 1 ",
"  c black",
". c #0D0A07",
"X c #0F0E0E",
"o c #111111",
"O c #261D14",
"+ c #281E15",
"@ c #2B2116",
"# c #2E2318",
"$ c #332619",
"% c #372A1D",
"& c #392B1D",
"* c #2D2D2D",
"= c #3D2F21",
"- c #323232",
"; c #3D3D3D",
": c #5D462F",
"> c #5D4631",
", c #5E4832",
"< c #634B34",
"1 c #634D38",
"2 c #775A3C",
"3 c #7A5D3F",
"4 c #424242",
"5 c #564D43",
"6 c #584F45",
"7 c #5C5147",
"8 c #5D5349",
"9 c #5D5D5D",
"0 c #7A5E41",
"q c #626262",
"w c #6C6C6C",
"e c #737373",
"r c #816243",
"t c #8A6C4E",
"y c #8B6F53",
"u c #8D7053",
"i c #907153",
"p c #A0774F",
"a c #A47B53",
"s c #A97F56",
"d c #A77F59",
"f c #AD8257",
"g c #A78059",
"h c #AB825A",
"j c #B28659",
"k c #B3895F",
"l c #B58A61",
"z c #BA8E64",
"x c #BC9269",
"c c #CB9764",
"v c #CD9966",
"b c #CE9B69",
"n c #D19F6F",
"m c #DAA36D",
"M c #D2A170",
"N c #DCA671",
"B c #DEAA75",
"V c #DFAB78",
"C c #E0AB77",
"Z c #E0AC78",
"A c #E4B17E",
"S c #8B8B8B",
"D c #949494",
"F c #9A9693",
"G c #9E9B97",
"H c #9D9C9C",
"J c #A19D9A",
"K c #A2A2A2",
"L c #BCBCBC",
"P c #E6B381",
"I c #C2C2C2",
"U c #CDCDCD",
"Y c #D2D2D2",
"T c #EEEEEE",
"R c #F1F1F1",
"E c white",
/* pixels */
"mmmmmmmmmmmmmmNZBNNNZZVNNNBBNmmNCBNmBBNmmmmmmmmCCmmmmmmmBZZNmNZZ",
"mmmmmmmmmNmmmmmNBNNNVNVVNNNNmmmmNBmmNBmmmmmmmmNBNmmmmvmmBCZNmNZZ",
"mmmmmmmmCACmmmmNNNNNmNZVBBmmmmmmmmmmmmmmmmmmmBBmmmmmmmmmmBZNmNZZ",
"mmmmmmmmCACmmmmmmVNNNNVNBBmmmmmmNNmmNNNmmmmmmBNmmmmmmmmmmmBmmmBB",
"mmmmmmmmZAZmmmmmmmNNBNmNVBmmmmmmBBNmNBNmmmmmmmmmmNCmmmmmmmmmmmmm",
"mmmNmmmNCZCmmmmmmNNNNNmmBNNmmmmmNNNmBCBNmmNNNmmNNCCmmmmmmbmmmmmm",
"mmNZNmNACNmmmNmmmNBNNmmmmNBNmmmmmNmNNCBBNmNAZmmAAAAmmmmmmmmmmNBB",
"mmNZNmZAZmmmmmmmNNBmmmmmmNBBmmmmmmmNBCCBNmNAZmNAAAANmmmmmmmmmBBB",
"mmNNmmZAZCNmmmmmmmmmmmmmmmNNmmmmmmmmNNNNmmNNNmmBBAABBmmNNNBNBNNN",
"mmmmmmZZZNNmmmmmmmmmmmmmmmmmmmmmmmmmmmmmmNmNNNmmmZBBBmmBCCZZCNmN",
"mmmmNBBBNNmmmmmmmmmNNNmmmmmmmmmmmmmmmmmmmmNCABZAAAANNNNBCCCZCBBB",
"mmmmBCBmmmmmmmmmmmmBBNmcfapfccfapjvcjppjvNBAPAAPAAAmmBZZCCZZCCCC",
"mmmmNCCNmmNCCNmNNmNBVBNj:$$<fj:$$:jf:$$,jmBAZAAPABBBNAAZZNNBCCCC",
"mmNNCCCNNNCAAmmBNmmBBbky6446tt7441tt8448tjbZZZAPAmmZCAPZCNmNCCZC",
"NNBBBCCNBNCZCNmNNNNNNk>6JIIJ57JIIG55HIIG1,kZZAAPANBAAPPZCBNBZCZZ",
"NBBBBCNCNCNCNNmmNBBbft7qHLLHqeYEEYeqHLLHq8ukMAAAAZZAPPPACCZZZCCZ",
"CCNCNCNNNVNCNNmmmNmj:1HK9;;9KYREETUK9;49KG5<lAAAAAAAAAAZZZCCZZCZ",
"BCCCCNNmNNCNNNNmNmmg$4IL4  *SUTEETUS*  4IL;=fCCCZPABZZBBCCCCZCZZ",
"CCCBBNmmNNNNNNNNmmNp$4IL;  o*wYEEUw*X  4IL;&gCCCAPPZZZZZCZCCZBCZ",
"CCCCNNmmmNNmNZNNNCCg$4IL;    4IEEL4    4IL;%fmmZCPPPAZZZCZZZZZZC",
"NCCCNmmmmmNNNBVNNVVg%4IL;    ;IEEL;    4IL;=gmNBBAAPPZCZABCBBZZZ",
"mmBCNmmmmmNZZZVNNNVg%4IL;    4IEEL4    4IL;=hZBmmBZPPZCAABNNZZZZ",
"mmCCBmNmmNNZZZVNNBVg%4IL;    4LEEL;    4IL;=hBVmNZCAPAZAABNBBZZZ",
"ZZmmmmNZZZZZZZVMkkng%4IUe-o  4IEEL;  o-eYL;%achxBAPZZZZBmNNBBZBZ",
"ZZmmmmNCZCZZZZZk,,lg%4ITYD*  4IEEL4  -FYRL;%gf:,xPPZZZZNmmNBCCCC",
"ZZZZNmNZZZZnkkMg%@0u8qHUTYe44qKLLHq44eYRUHq8t3@%gMkkmZZBBCCCCCCC",
"CCCCNmBCZZZk,,kg&.@6JK9wURYIIK9;;9KIIYRUw9KJ1@.%gk:,lZZBBCCCCCCC",
"CCCCNmNCZZZg%@32@  4IL;4ITUUTUe44eYTUURL;4IL;  @33+&fmmmmNBNmmmN",
"CACCNmBCCZCg%.@@.  4IL;4IUwwUTUIIYRUwwUL;4IL4  X+O.&ammmmBBNmmmN",
"CCCCBBBCBNCg%      4IL;-SS*4ITULLURL;-SS*4IL;   X..&aNBBBBBBBBBB",
"CACCBCCZBNBg%      4II;X**X4IUw;;wUL;o**X4IL;     .%fNZCBCCCCCCC",
"CCCCCCCBBvj3@      4LL;    -SS*  -SS*    4IL4      +3kmBBBBBACCC",
"CCCCCCCCCk>OX      4IL4    X**o  X**X    4IL;      XO<lBBBNZZZZZ",
"CCCCCCCCCa&        *SHq-o              o-qHS*        =hNBBBCZZVZ",
"ZZCCCCCCCd&        X*9KD-              -DK9*o        &dBBBCZZZZZ",
"ZVCCCCCCCd%o;4444-o  4IL;              4IL;  o-4444-o=aBBCZZZZVZ",
"ZZCCCCCCCd&-DIIIUD-  4IL;              4IL;  -DIUIID*&aBZZVZVZZV",
"CCCCCCCnky7eUEETUFq-o;IUe-oo--o  o--oo-eYL;o-qKUREEUe7taZZVZZZVZ",
"CCCCCCZl>5JYTEEUw9KD-4ITYD--DD-  -FD--FYRL;-FK9wYEETYJ5$ZVBZZZBV",
"CCCCCCZd&4ITUUTL4*SS**SLLHqeYUe44eYUeqHLLS*-SS*4ITUUTL; VBNBZVBB",
"CCCCCCCd&4IUwwUI;o**XX*;;9KYRRUIUYRRUK9;;*XX**X4LUwwYL; ZNmBVABB",
"CCCCCCCl16FS**SS*        *SLLLLLLLLLLS*        *SS*-SF7&BNmBVBVV",
"CCBCCCCMzi5*XX**X        X*;-;;;;;-;;*X        X**XX*1tfNmmNBBBB",
"CCCCCCCCCz<==$.    o--o                  o--o    .@==<jmmmmNBBBZ",
"CCCCCCCCCMzhhr#    -DD-                  -DD-    @3fgjcmmNNNNNBB",
"ZCCCCCCCCCCCZd&  o-qHHq-o              o;qHHq-o  =gmmmmmmNCNmNBB",
"ZCCCCCCCCCCCZh&  -DK99KD-              -DK99KD-  &ammmmmmNNNNBBB",
"CCCCCCCCCCCZZl1==7FS*-SS-              -SS**SF6==<jmmmmmmmNNNBBB",
"CCCCCCCCCCCCCMzlhi6*XX**X              X**Xo*1isjjvmmmmmmmmmmNCC",
"CZCCCCCCZCCCCCVVCf&                         .&aPBmmmmmmmmmmmmmCC",
"VVVVCCCCZZCCCCCCCCCCCBBBNNBBCBBBCBBBVVZBZZPMNNNNNmmmmmmmmmmmNNNC",
"CCCCCCCCCZCCCCCCCCmCBBZNmmBBZZBBBBBBCVBVZZNNNPNmmmmmmmmNCmmNCNmm",
"CNCCCCCCCCCCCCCNCCNCCCCNmmNCZCBBBBBBVVZZBBBBCCNmmmmmmmmmCNmNCNmm",
"NVCCCCVCCCCCCVVNmCCZCZZCmmmmNNBBCZBZVVBBNmNBNmmmbmmmmmmmCNmNNNmm",
"CVNCCCCVCCCCCCCmmCCCCmCmmmNNCBBBZZVZVVBNBNNBNmmmmmbmmmmmCmNNNmmm",
"VCmnmCCCCCCCCCCCCCCCmmmmmmNZCBBZZZVBVBNNNBCZmmmmnmmmvmmmmNNNmmmm",
"VVNmNCCCCCCCCCCCCCCNNNmmmNBBCBBBBBZBBBNmNCCPNNNmmmmmmmmmmNmmmmmm",
"VBVVVVCNZCCVCCCZCCCNCNBNmmBBBBBBBBBVNmmmCCCCCCNmmmmCmmmmmmmmmmmm",
"VNBBCVCVCZVVVZZZCCCBNNBNmNBNBBBNBBBBNmnmNCCCCCCmbmmNNmmmmmmmmmmm",
"mmVVCCVVZCCCCCCCCCCNmmmNCBBBNBBBBBBZBBNmCCCCCPNmmmmmmmmNCmmmmmmm",
"mnCCCCCVCVCVCCCCCBCNmmmNBCNBBBBBBBZZZBNmNCCCCCmcmmmmmmmNNmmmmmmm",
"mmmnVCCCVCVZCCZCCNNNCBBNmmmmmNBBBCZZZBNmmNCCCmmmvmcmmmvmmmmmmmmm",
"mmmmNCCCVVZZVZZNBNmBCBZBmmmmmNBBVVCCCCNnmmNCCmmmmmmmmmmmmmvmmmmm",
"mmmmNmmNmmNNZZZNmNmBBZBNmmmNNNNNNNCCCCCmNNCCCCmmmmmmmNNCNmmmmmmm"
};
