/* XPM */
static char *result[] = {
/* columns rows colors chars-per-pixel */
"64 64 234 2 ",
"   c #DBA46E",
".  c #DAA36D",
"X  c #DAA36C",
"o  c #DBA46D",
"O  c #DAA46D",
"+  c #DAA46E",
"@  c #DCA670",
"#  c #DFAA76",
"$  c #DFAA77",
"%  c #DBA56E",
"&  c #DDA974",
"*  c #DFAB77",
"=  c #DDA873",
"-  c #DDA771",
";  c #DCA56E",
":  c #DCA570",
">  c #DEA974",
",  c #DCA671",
"<  c #D9A26B",
"1  c #E0AC77",
"2  c #DFAB75",
"3  c #D9A26C",
"4  c #D9A36C",
"5  c #E0AC78",
"6  c #DCA771",
"7  c #DDA772",
"8  c #DEA873",
"9  c #DDA773",
"0  c #DEA874",
"q  c #DEAA75",
"w  c #DEA975",
"e  c #DEA872",
"r  c #DBA56F",
"t  c #DCA56F",
"y  c #E0AB76",
"u  c #DDA872",
"i  c #E0AB78",
"p  c #E0AC79",
"a  c #E0AA75",
"s  c #E4AF7D",
"d  c #E0AB77",
"f  c #DBA46F",
"g  c #DDA874",
"h  c #DFAB76",
"j  c #DEAA74",
"k  c #E0AA76",
"l  c #E5B17F",
"z  c #E1AC78",
"x  c #DCA770",
"c  c #DBA670",
"v  c #DCA66F",
"b  c #DFA975",
"n  c #DDA671",
"m  c #DFAA75",
"M  c #E2AD7A",
"N  c #DBA570",
"B  c #DEA772",
"V  c #DDA670",
"C  c #E1AE7A",
"Z  c #E1AE79",
"A  c #E3AE7C",
"S  c #E4B07D",
"D  c #E5B27F",
"F  c #E4B17E",
"G  c #E1AB78",
"H  c #E5B180",
"J  c #DBA36D",
"K  c #DFA976",
"L  c #E5B17E",
"P  c #E1AD79",
"I  c #E5B280",
"U  c #E2AD79",
"Y  c #DAA26C",
"T  c #E2AE7A",
"R  c #DEA973",
"E  c #E1AC79",
"W  c #E1AD78",
"Q  c #DDA871",
"!  c #E3B07D",
"~  c #DEAA76",
"^  c #DFA974",
"/  c #E6B280",
"(  c #E6B381",
")  c #DDA973",
"_  c #DCA772",
"`  c #E3AF7D",
"'  c #DFAA74",
"]  c #E4B07E",
"[  c #E2AE7B",
"{  c #E2AD7B",
"}  c #E3AF7C",
"|  c #CD9966",
" . c #B18358",
".. c #A37A52",
"X. c #A47B52",
"o. c #B28458",
"O. c #CC9865",
"+. c #CC9966",
"@. c #B28559",
"#. c #A47A52",
"$. c #A37951",
"%. c #CD9A67",
"&. c #B3865A",
"*. c #D09E6C",
"=. c #E6B380",
"-. c #DFAB78",
";. c #DEA976",
":. c #604830",
">. c #37291B",
",. c #37291C",
"<. c #B18458",
"1. c #372A1C",
"2. c #614A32",
"3. c #B58A5F",
"4. c #E3B07C",
"5. c #8A6B4D",
"6. c #594F45",
"7. c gray25",
"8. c #8B6C4D",
"9. c #594F44",
"0. c #5A5046",
"q. c #8D7052",
"w. c #B68C61",
"e. c #D2A170",
"r. c #9D9A96",
"t. c gray75",
"y. c #9D9A97",
"u. c #624B33",
"i. c #CF9C6A",
"p. c gray44",
"a. c gray81",
"s. c #EFEFEF",
"d. c #9F9F9F",
"f. c #606060",
"g. c white",
"h. c #8B6C4E",
"j. c #B48A5F",
"k. c #CF9D6B",
"l. c #E1AD7A",
"z. c #B3875D",
"x. c #614831",
"c. c #614B33",
"v. c #B3895D",
"b. c #CE9C6A",
"n. c #B3875B",
"m. c #A8815A",
"M. c #382B1E",
"N. c #A88159",
"B. c #CD9A66",
"V. c #DEAB76",
"C. c #B3875C",
"Z. c #614932",
"A. c #A78058",
"S. c #B58B60",
"D. c #7E6043",
"F. c #2A2017",
"G. c gray56",
"H. c gray19",
"J. c #291F14",
"K. c #7A5B3D",
"L. c #291F15",
"P. c #2B2218",
"I. c #816448",
"U. c #BB9169",
"Y. c #D8A879",
"T. c #624C35",
"R. c #0E0B08",
"E. c #101010",
"W. c #0E0A07",
"Q. c #654F39",
"!. c #BB9068",
"~. c black",
"^. c #7E6044",
"/. c #A8815B",
"(. c #B68C62",
"). c #D2A171",
"_. c #E0AA77",
"`. c #2A2016",
"'. c #0E0B07",
"]. c #B28558",
"[. c #B68B61",
"{. c #7B5C3E",
"}. c #CC9965",
"|. c #DEA773",
" X c #A88059",
".X c #A37A51",
"XX c #DFA873",
"oX c #DEA670",
"OX c #A88058",
"+X c #CF9B69",
"@X c #B4885D",
"#X c #7B5E3F",
"$X c #D2A070",
"%X c #B3865B",
"&X c #624B34",
"*X c #A77F58",
"=X c #382B1D",
"-X c #382A1D",
";X c #A67F57",
":X c #8D7053",
">X c #8B6D4F",
",X c #A67F58",
"<X c #2A1F15",
"1X c #A47C53",
"2X c #60482F",
"3X c #DCA872",
"4X c #9E9A97",
"5X c #372A1D",
"6X c #8E7053",
"7X c #8C6F51",
"8X c #A57E56",
"9X c #A57E55",
"0X c #A57D55",
"qX c #8C6D50",
"wX c #A78059",
"eX c #36281B",
"rX c #D9A06B",
"tX c #DCA672",
"yX c #D9A16B",
"uX c #DBA36E",
"iX c #DCA470",
"pX c #DAA26D",
"aX c #E1AC77",
"sX c #DAA36E",
"dX c #DAA16C",
"fX c #DCA871",
"gX c #DBA36F",
"hX c #D9A16C",
"jX c #DAA26E",
"kX c #DDA770",
"lX c #D9A06C",
"zX c #DCA46F",
"xX c #DEAA77",
"cX c #DAA26B",
/* pixels */
"  . X X X X X X . o O + O o @ # $ @ % & * * * = % - # = ;   o @ # # :   > * , X X . . X X < + 1 2 < < < < 3 4 > 5 5 5 6 O 7 * 5 ",
"o X X X X X X X @ 8 @ . . X   9 0 - @ 7 & q * w - 7 = , o o X ; e 8 r   7 8 t X X . . X O t @ > e < < < < < < - 8 y 5 , . u i p ",
"o X X X X X X X a s d f . o o O r g w @ % & * * # = o O X X o o o o X X O   . . . X X . r h j o O < < X X X X O o > 5 , 4 7 i p ",
"o X X X X X X X k l z f . o o X o 7 = x @ 7 & w * = X X X X o % r t o X r : f . . X X . r > e X X r r X X X X X X 6 & r 3 c g > ",
"o X X X X X X X k l z   . . . X X o r = w @   - * = o o X X X r > > v   8 b n o . . . X .   o X o 2 m X X X X < < X . 4 < 4 . . ",
"o X r c O X t 7 k M b   X . . X . % @ = = r X N > 7 @ t X X X % = = t ; 0 $ 8 @   . r B V X o B 8 C Z X X X X X < < < < < . % r ",
"o X > # @ X a A d - % X X o o o % = > @ %   o   % , q 7 O X X .     o ; 0 i $ b , X u S z < r S S D F < < X X X X X X < < @ w m ",
"O X w * @ . G H d r . X X o o o ; = > t X J o X X @ q = O X X X X X o ; 8 $ $ K , X e L P < r L l I D X X X X o o o o O . 7 m * ",
"X X t @   X G H U 8 v o o X X X X   r o o X X Y X   , t X X X X X . o o v V V @ ; o t 8 - X O 8 > T T R R O 4 - > > > > R 6 r 7 ",
"X X X X . o d s E > x o o X X < < < < o   X Y Y X .   J X X X X . . o o o o o o o o o % % % % % @ W z h h r X > 5 1 1 1 1 Q O @ ",
"X X X X , 8 R > - v % O X o o X X X . 6 =   Y X o J . . J o o o o o . X o o o o o o - P P P P P M S ! @ @ u u h 1 5 5 1 1 m R j ",
"X X . o 0 d u   . X o   % o o % o X   & ~ c X o   J Y .         o o X X o o o o o o ^ I I I / ( ( l F X X 2 5 1 1 d * 1 1 1 1 1 ",
"X X @ , b 5 > - r o 7 d m v % @ @ % % & h ) _ @   J Y .         o o . X o o o o o o e A A A ` ( D m m u u T ! P 1 = 6 ' 1 1 1 1 ",
"  . = > h d # > - t k ] [ - ; 7 u v t & h h ~ 7 o J Y .         . . o o o o o o   % - i i p { ( F O o 5 5 D ( T 1 @ X u y 5 5 5 ",
", @ 8 > q # w > = - m P d V   v 6 - 7 u u u 7 : J J . . J       . . o o o o o   @ e > i E ` ] ( D u u } } I ( T 1 R - ' 1 5 5 5 ",
"w > > > > > > > > > > > u t o o t g q @ o o o |  ...X.o.O.+.@.#.$. .| %.@.X.X.&.*.1 1 i M =.=.=.D 5 W =.=.=.=.T 1 1 1 1 1 -.-.5 ",
";.~ > > > > e - = > > > u t o o % - 7 t o o J o.:.>.,.:.<.<.:.>.>.:.<.@.:.,.1.2.3.1 1 i E 4.4.4.4.} } 4.4.4.4.P 1 1 1 1 1 1 -.5 ",
"$ -.w > > > V o , > > > u t       o o     +. .5.6.7.7.6.8.8.9.7.7.9.5.5.6.7.7.0.q.w.e.i i 1 1 1 W ( =.1 1 1 1 1 1 1 1 1 1 1 1 5 ",
"* -.m q R u v o @ 7 = = 7 , : f   t v r   <.:.9.r.t.t.r.6.6.r.t.t.r.9.9.r.t.t.y.0.u.3.d h ' m 1 W ( ( Z Z 5 1 1 1 1 1 1 1 1 1 5 ",
"-.-.5 5 - % o o         , # # , @ m * i.@.8.6.p.a.s.a.d.f.p.a.g.g.a.p.f.d.a.s.a.p.9.h.j.k.X % 1 W ( ( ( ( l.5 1 1 E E 5 1 5 5 d ",
"~ ~ i 5 - % o o     r : 7 h # , @ m * z.x.6.r.a.s.a.p.f.d.a.s.g.g.s.a.d.f.p.a.s.a.r.6.c.v.% v m y l D ( ( l.5 W P 5 d d 1 5 5 5 ",
"o X m d n   o o o o 7 d 5 E # b.n.3.e.m.M.7.t.g.g.t.7.7.t.g.g.g.g.g.g.t.7.7.t.g.g.t.7.M.N.e.3.<.B.q V.( ( l.5 F ( b r 0 d E E 5 ",
"  o b # V o   % % % u d 5 E # C.Z.u.w.m.M.7.t.g.g.t.7.7.t.g.g.g.g.g.g.t.7.7.t.g.g.t.7.M.A.S.u.:.&.h * I I l.5 S l > r 0 d z E 5 ",
"5 5   X X X = d 5 5 5 5 5 e.w.D.F.F.D.D.F.7.t.s.a.G.H.7.t.g.g.g.g.g.g.t.7.H.G.a.s.t.7.J.K.K.L.P.I.U.Y.p p p p -       8 y d d 5 ",
"5 5 % X X X = d 5 5 5 5 5 w.T.F.R.R.F.F.R.7.t.a.p.H.E.7.t.g.g.g.g.g.g.t.7.E.H.p.a.t.7.W.J.J.W.R.P.Q.!.p p p p -       8 y d d 5 ",
"5 5 -.-.@ O = d 5 e.w.m.m.D.F.~.~.~.~.~.~.7.t.a.p.H.E.H.G.a.s.g.g.s.a.G.H.E.H.p.a.t.7.~.~.~.~.~.~.F.^././.(.).q > _.E d d d d d ",
"5 5 -.-.@ O = d 5 w.T.M.M.F.R.~.~.~.~.~.~.7.t.s.a.G.H.E.H.p.a.g.g.a.p.H.E.H.G.a.s.t.7.~.~.~.~.~.~.R.F.M.M.T.(.~ > d E i d d d d ",
"5 5 d d @ O = d 5 w.T.`.'.~.~.~.~.~.~.~.~.7.t.g.g.a.p.7.7.f.d.t.t.d.f.7.7.p.a.g.g.t.7.~.~.~.~.~.~.~.~.W.L.:.].O O - > @   o o n ",
"5 5 d d @ O = d 5 e.[.D.`.~.~.~.~.~.~.~.~.7.t.g.g.s.a.t.t.d.f.7.7.f.d.t.t.a.s.g.g.t.7.~.~.~.~.~.~.~.~.L.{.<.}.X X 6 > : . X X @ ",
"5 5 -.-.q g # d b |.^  XM.~.~.~.~.~.~.~.~.H.G.a.s.g.g.g.g.a.p.7.7.p.a.g.g.g.g.s.a.G.H.~.~.~.~.~.~.~.~.>..Xu > > 0 # * b 0 > ^ m ",
"5 5 -.-.-.-.d d XXoX8 OXM.~.~.~.~.~.~.~.~.E.H.p.a.g.g.g.g.s.a.t.t.a.s.g.g.g.g.a.p.H.E.~.~.~.~.~.~.~.~.>..Xb i d d 5 p d d i z 5 ",
"5 5 d d d d d d XX+X@XD.`.E.H.7.7.H.E.~.~.~.~.H.G.t.t.a.s.g.g.g.g.g.g.s.a.t.t.G.H.~.~.~.~.E.H.7.7.H.E.L.#XS.$X# m ~ ~ d 5 p p p ",
"5 5 d d d d d d XX%X2.`.'.H.G.t.t.G.H.~.~.~.~.E.H.7.7.p.a.g.g.g.g.g.g.a.p.7.7.H.E.~.~.~.~.H.G.t.t.G.H.'.`.&X[.m > > > * p p p p ",
"5 5 d d d d d d k *XM.E.H.p.a.g.g.a.p.H.E.~.~.~.~.~.~.H.G.t.t.t.t.t.t.G.H.~.~.~.~.~.~.E.H.p.a.g.g.a.p.H.E.=X*X> > m m d p p 5 p ",
"5 5 d d d d d d i m.M.H.G.a.s.g.g.s.a.G.H.~.~.~.~.~.~.E.H.7.7.7.7.7.7.H.E.~.~.~.~.~.~.H.G.a.s.g.g.s.a.G.H.-X;X> > # y 5 p 5 5 p ",
"5 5 d d d d d $X[.:X0.p.a.g.g.s.a.a.s.t.7.~.~.~.~.~.~.~.~.~.~.~.~.~.~.~.~.~.~.~.~.~.~.7.t.s.a.a.s.g.g.a.p.6.>X,X*Xd 5 5 5 p p 5 ",
"5 5 d d d d d [.&X0.y.a.s.g.g.a.p.p.a.t.7.~.~.~.~.~.~.~.~.~.~.~.~.~.~.~.~.~.~.~.~.~.~.7.t.a.p.p.a.g.g.s.a.r.9.-XM.p p 5 5 p p 5 ",
"d d d d d d d  XM.7.t.s.a.a.s.t.7.H.G.G.H.~.~.~.~.~.~.~.~.~.~.~.~.~.~.~.~.~.~.~.~.~.~.H.G.G.H.7.t.s.a.a.s.t.7.~.~.5 -.5 5 5 -.d ",
"d d d d d d d  XM.7.t.a.p.p.a.t.7.E.H.H.E.~.~.~.~.~.~.~.~.~.~.~.~.~.~.~.~.~.~.~.~.~.~.E.H.H.E.7.t.a.p.p.a.t.7.~.~.* q d p * q # ",
"d d d d d d d  XM.H.G.G.H.H.G.G.H.~.~.~.~.~.~.~.~.~.~.~.~.~.~.~.~.~.~.~.~.~.~.~.~.~.~.~.~.~.~.H.G.G.H.H.G.G.H.~.~.> u # 5 * q h ",
"d d d d d d d  XM.E.H.H.E.E.H.H.E.~.~.~.~.~.~.~.~.~.~.~.~.~.~.~.~.~.~.~.~.~.~.~.~.~.~.~.~.~.~.E.H.H.E.E.H.H.E.~.~._ % > 5 5 * 5 ",
"d d d d d d d [.&X`.'.~.~.~.~.~.~.~.~.E.H.H.E.~.~.~.~.~.~.~.~.~.~.~.~.~.~.~.~.~.~.E.H.H.E.~.~.~.~.~.~.~.~.W.<X-XM.c . = * d d i ",
"d d d d d d d $X[.D.`.~.~.~.~.~.~.~.~.H.G.G.H.~.~.~.~.~.~.~.~.~.~.~.~.~.~.~.~.~.~.H.G.G.H.~.~.~.~.~.~.~.~.L.{.1X1XO X 7 q m m # ",
"d d d d d d d d d [.&X`.'.~.~.~.~.~.~.7.t.a.p.H.E.~.~.~.~.~.~.~.~.~.~.~.~.~.~.E.H.p.a.t.7.~.~.~.~.~.~.'.`.:.<.X X o   6 ) > > m ",
"d d d d d d d d d $X[.D.`.~.~.~.~.~.~.7.t.s.a.G.H.~.~.~.~.~.~.~.~.~.~.~.~.~.~.H.G.a.s.t.7.~.~.~.~.~.~.L.{.<.}.X X - > - t u q # ",
"d d d d d d d d d d d [.&X`.'.~.~.E.H.f.d.a.s.t.7.E.H.H.E.~.~.~.~.~.~.E.H.H.E.7.t.s.a.d.f.H.E.~.~.W.J.2X<.X X X X 7 b 6   6 j q ",
"d d d d d d d d d d d $X[.D.`.~.~.H.G.d.f.p.a.t.7.H.G.G.H.~.~.~.~.~.~.H.G.G.H.7.t.a.p.f.d.G.H.~.~.J.K.<.}.X X X X r t 6 3X) q q ",
"d d d d d d d d d d d d d [.&XM.M.0.4XG.H.H.G.G.H.H.G.y.0.5X,.>.>.>.>.6.y.G.H.H.G.G.H.H.G.y.0.M.M.2X<.X X X X X X X X 6 & q q q ",
"d d d d d d d d d d d d d $X[. Xm.6X0.H.E.E.H.H.E.E.H.0.7X8X9X0X0X0X0XqX0.H.E.E.H.H.E.E.H.6.qXm.A.<.}.X X X X . . Y Y   : = # # ",
"* * * * d d 5 5 z z d d d d d d d m.M.~.~.~.~.~.~.~.~.-X;X# 1 5 * * * wXM.~.~.~.~.~.~.~.~.eX#.5 # X X X X X X     3 rXrXrXn # # ",
"* * * * d d 5 5 5 z d d d d d d d d y y y # q R 6 u > w # # h h # # # # * * * ~ * 5 # , , : , 9 tX. . X X X X @ , . yXuXiXn 7 0 ",
"d d d d 5 5 5 5 5 5 d d d d d z d m > > > # * = X t > # z y > > > > > w # * * * * * h q h 5 m rXyX    X X X X u q t X B k - O @ ",
"h h d d d 5 5 5 5 5 d d d d k ^ 0 b # # # d d = X   6 8 y m > w # # q # * * * * w = & q q > 7 rXrXpXpXX X X X = h @ X 7 m 6 O % ",
"q q * * * * * * d d d d d * > r r ^ z z z z aX8 X X X t R > > m d 5 * * * * * # _ . : w =   uXrXrXrXrX< < X X w 5 , . 6 j @ . X ",
"q ~ = 7 b * * * d d d d d d m 7 - # aXm 8 8 8 V X o t - j q q h 1 5 * * * * q = 7 6 u # 0   J rXrXrXrXyXyX< X 7 0 , @ 6 6 r X X ",
"~ * sXdX9 # d d d d d d d d d y d 5 * 6 o o o X X t 8 j h * * * 5 5 * * * * 7 f = * d 5 m   J rXrXrXrXrXrX< < . O fX> @ o X X X ",
"# * N gXg * * d d d d d d d i d d i * 7 t t ;   X t > w # # # # h * * # w 9 : + = 5 5 5 # - : rXrXrXrXiXiXY yX< X @ 6 % X X X O ",
"# * ~ ~ * * * * d 5 d * d 5 i i d d d > 8 8 = @ X t > > > > > > > w # # : pX. + = 5 5 5 5 * > rXrXrXhX* * jXrX< < X O X X X X @ ",
"w w * * * * * * 5 5 * * * 5 p i d d y > = u u 6 % @ > > > > > > > w # ~ : pXpX+ = 5 5 5 5 5 m rXrXrXhX$ $ jXrXY . X Y X X X X : ",
"  % ~ * 5 5 * * * * d d d d d d d d # - %   % , b w > > > > > > > w * i ~ = N + = 5 5 5 5 5 m rXrXrXrX    hXrX7 ;.f hXY X X X O ",
"X X > ~ d 5 * * * * d d d d d d d # m kX;   % n # w = = = 8 > w w q i p -.~ , + 7 * d 5 5 * 0 rXrXrXrX< < yXrX= $ f lXdXX X X X ",
"X X r r > d * * * d * * d 5 i d # u V = > > > B zXf % % % , q $ * i 5 5 5 * , .   : = 5 # : r yXyXyXyX< < < yX+ r Y rXdXX X X X ",
"X X X X 7 b # ~ # # # * * 5 i # ^ v % & * * d 9 Y X X O o @ w xX* -.5 5 5 * , X O   7 5 m   + < < < < < < X . . . hXyXY Y X X X ",
"O X X X % : @ @ @ @ 8 # d i # 7 t ; % & * * * 9 X X o r - - 6 6 @ - # 5 5 * , X @ > m 1 h > u < < cXcX< < - g & &   Y < yXY X t "
};
