/* XPM */
static char *result[] = {
/* columns rows colors chars-per-pixel */
"64 64 187 2 ",
"   c #000000",
".  c #0C0C0B",
"X  c #130D00",
"o  c #091B0E",
"O  c #06160A",
"+  c #181100",
"@  c #041E12",
"#  c #191414",
"$  c #1A1816",
"%  c #1C1B19",
"&  c #2A1D00",
"*  c #211F1D",
"=  c #1F210C",
"-  c #0C2212",
";  c #072810",
":  c #132D1A",
">  c #06311C",
",  c #12331B",
"<  c #133C1E",
"1  c #313412",
"2  c #3A2700",
"3  c #153C20",
"4  c #373535",
"5  c #432D00",
"6  c #462402",
"7  c #592500",
"8  c #4A3300",
"9  c #6E3903",
"0  c #004A04",
"q  c #00520F",
"w  c #04571B",
"e  c #174323",
"r  c #194A27",
"t  c #1A4C29",
"y  c #1A4626",
"u  c #025E2B",
"i  c #0E5622",
"p  c #1D552D",
"a  c #1D592E",
"s  c #145426",
"d  c #005E30",
"f  c #1E5C31",
"g  c #224025",
"h  c #215E32",
"j  c #0E6226",
"k  c #0A6525",
"l  c #1A6024",
"z  c #136229",
"x  c #19642F",
"c  c #136E2D",
"v  c #11732D",
"b  c #1E6231",
"n  c #1C6B33",
"m  c #226435",
"M  c #276438",
"N  c #246E39",
"B  c #246837",
"V  c #31633F",
"C  c #27733D",
"Z  c #28753E",
"A  c #26783D",
"S  c #734F00",
"D  c #755000",
"F  c #664600",
"G  c #5E6518",
"H  c #55483E",
"J  c #4C3844",
"K  c #2B7D42",
"L  c #2C7440",
"P  c #3B7543",
"I  c #3E7F4D",
"U  c #3B6947",
"Y  c #464444",
"T  c #584C40",
"R  c #66594C",
"E  c #47774C",
"W  c #686360",
"Q  c #7C6F64",
"!  c #8B3A00",
"~  c #8C6000",
"^  c #9A6900",
"/  c #AB7500",
"(  c #EB7001",
")  c #FF7500",
"_  c #8D6C4D",
"`  c #947454",
"'  c #977758",
"]  c #836D6D",
"[  c #80746A",
"{  c #0A8C30",
"}  c #1C933F",
"|  c #179D3F",
" . c #0D8B32",
".. c #1E9741",
"X. c #2D8446",
"o. c #278B45",
"O. c #2E8748",
"+. c #2F8D4A",
"@. c #318E4C",
"#. c #32944E",
"$. c #34984C",
"%. c #2D974A",
"&. c #22A147",
"*. c #468458",
"=. c #5D8158",
"-. c #57875A",
";. c #6E8C5B",
":. c #568E60",
">. c #569B60",
",. c #6F8D62",
"<. c #749367",
"1. c #768C6D",
"2. c #57A664",
"3. c #68AC6C",
"4. c #64AA6A",
"5. c #70B071",
"6. c #B88500",
"7. c #B59700",
"8. c #CC8B00",
"9. c #C49500",
"0. c #E99E00",
"q. c #C8A700",
"w. c #F9AA00",
"e. c #ED8C31",
"r. c #FFC300",
"t. c #FFDE00",
"y. c #FFE200",
"u. c #FFFB00",
"i. c #9A945E",
"p. c #938654",
"a. c #AF865C",
"s. c #B1885F",
"d. c #8B986E",
"f. c #87956C",
"g. c #919869",
"h. c #8C9A72",
"j. c #819874",
"k. c #989C77",
"l. c #9B8979",
"z. c #B58C63",
"x. c #A59A65",
"c. c #A89867",
"v. c #BC9C6A",
"b. c #B89B68",
"n. c #AB8D77",
"m. c #A89479",
"M. c #B68E74",
"N. c #95A969",
"B. c #8BA978",
"V. c #9BA276",
"C. c #9DA57A",
"Z. c #91A377",
"A. c #97B379",
"S. c #8CA168",
"D. c #BFA16D",
"F. c #A4A379",
"G. c #AAAA79",
"H. c #BDAC74",
"J. c #B7A475",
"K. c #E39E5B",
"L. c #F5A054",
"P. c #C49B6B",
"I. c #C5986A",
"U. c #CA9C71",
"Y. c #C79F77",
"T. c #C2A16F",
"R. c #DAA36D",
"E. c #C3A371",
"W. c #C8A779",
"Q. c #DCA671",
"!. c #DEA975",
"~. c #DEAB78",
"^. c #D6A878",
"/. c #D2B07D",
"(. c #E0AB77",
"). c #E0AC78",
"_. c #E4B17E",
"`. c #BE9F80",
"'. c #9FAD81",
"]. c #93B480",
"[. c #A7B583",
"{. c #BBB889",
"}. c #C0AD80",
"|. c #C1B186",
" X c #C2BA8B",
".X c #D2B082",
"XX c #E6B381",
/* pixels */
"R.R.R.R.R.R.R.R.R.R.R.R.R.R.Q.(.!.Q.R.!.!.!.~.!.R.R.!.!.R.R.R.Q.!.!.Q.R.!.!.Q.R.R.R.R.R.R.R.R.!.!.R.R.R.R.R.T.Q.(.(.).!.R.!.!.~.",
"R.R.R.R.R.R.R.R.R.R.R.R.R.R.R.!.Q.!.Q.!.!.!.~.!.Q.!.!.Q.R.R.R.R.!.!.Q.R.Q.!.Q.R.R.R.R.R.R.R.R.!.!.R.R.R.R.K.R.R.!.(.).R.R.Q.(.(.",
"R.R.R.R.R.R.R.R.!._.(.R.R.R.R.R.R.!.!.Q.R.!.!.!.!.!.R.R.R.R.R.R.R.R.R.R.R.R.R.R.R.R.R.R.R.!.!.R.R.R.R.R.R.R.R.R.R.!.(.Q.R.!.).~.",
"R.R.R.R.R.R.R.R.(._.(.R.R.R.R.R.R.Q.!.R.Q.!.!.!.!.Q.R.R.R.R.R.Q.R.Q.R.R.R.R.R.R.R.R.R.R.R.!.!.R.R.R.R.R.R.R.R.R.R.Q.!.R.R.R.!.!.",
"R.R.R.R.R.R.R.R.)._.).R.R.R.R.R.R.R.R.!.!.Q.Q.Q.!.!.R.R.R.R.R.R.!.!.Q.R.!.!.Q.R.R.R.R.R.R.R.R.R.R.Q.!.R.R.R.R.R.R.R.R.R.R.R.R.R.",
"R.R.R.R.R.R.R.!.(.).(.R.R.R.R.R.R.R.Q.!.Q.R.R.Q.!.Q.Q.Q.R.R.R.R.Q.Q.Q.Q.!.(.Q.Q.R.R.R.Q.Q.R.R.!.Q.!.~.R.R.R.R.R.R.R.R.R.R.R.R.R.",
"R.R.Q.(.Q.R.!._.).Q.R.R.R.R.R.R.Q.!.!.Q.Q.R.R.R.R.Q.!.Q.R.R.R.R.R.Q.Q.R.!.!.(.(.!.R.Q._.).R.Q.)._._._.R.R.R.R.R.R.R.R.R.R.Q.Q.!.",
"R.R.!.!.Q.R.(._.).R.R.R.R.R.R.R.R.Q.!.R.R.R.}.g.V.C.C.C.V.V.V.V.V.V.V.V.C.F.C.C.C.g..X_.(.R.R._._.XX_.Q.R.R.R.R.R.R.R.R.R.Q.!.~.",
"R.R.Q.R.R.R.(._.).(.Q.R.R.R.R.R.R.R.R.R.R.R.Z.0 k v v v v v v v v v v v v v v v k 0 |.!.!.R.R.!.!._.).!.!.R.R.Q.R.R.!.Q.!.Q.Q.Q.",
"R.R.R.R.R.Q.(._.(.!.!.R.R.R.R.R.R.R.R.R.b.c.<.n h e e e e e e e e e e e e e e e m n g.g.E.Q.R.Q.R.).).!.!.R.R.!.~.~.(.(.(.Q.R.Q.",
"R.R.R.R.Q.!.Q.!.Q.R.R.R.R.R.R.R.R.R.R.R.-.j n K 3                               p Z x k Z.).).)._._._.Q.Q.Q.Q.!.~.).).).(.!.!.!.",
"R.R.R.R.!.!.!.R.R.R.R.R.R.R.R.R.R.R.R.(.-.z a a ,                               < p h j Z.XXXXXX_._._.R.R.!.).).).!.(.).(.(.(.(.",
"R.R.R.R.!.(.!.Q.!.K.Q.(.!.R.R.Q.R.R.R.(.-.j @                                       > k h.).).XX_.(.!.!.Q.)._.).(.!.Q.!.(.(.(.).",
"R.R.Q.!.!.(.(.!.!.Q.(._._.Q.R.Q.(.R.R.(.W l o                                       : l h.~.).XX_.R.R.(.(.XXXX_.(.R.R.Q.(.(.).).",
"Q.Q.!.!.!.!.!.!.!.Q.(.(.(.Q.R.Q.R.(.R.(.e.( 6                                       9 ( K.).XXXX_.!.!._._.XXXX).(.!.Q.!.).).).).",
"!.!.!.Q.!.Q.!.!.!.!.(.Q.Q.Q.Q.R.R.(.(.R.e.0.7                                       ! ) L.XXXXXX_.(.(._._.XXXX_.).(.).).).(.(.(.",
"!.!.!.!.!.!.Q.Q.!.!.!.!.Q.Q.R.R.Q.Q.Q.Q.p.G =   8 7.~                     . / 6.&   1 G x._._._._._._._._._._.).!.).!.).).).).).",
"(.(.!.!.!.Q.Q.Q.Q.!.Q.!.Q.R.R.Q.R.R.R.R.*.k @   D u.0.                    + r.y.5   > u d.(.!.(.(.XX_.!.).).!.!.).).).!.!.).!.).",
"(.(.!.!.!.Q.Q.R.Q.Q.Q.!.Q.Q.Q.R.Q.R.Q.Q.=.z -   F y.8.                    X w.r.2   : j d.(.(.(._.XXXX_.).).!.(.).).).).).).).).",
"(.!.(.).Q.Q.R.R.R.Q.R.R.Q.(.!.Q.Q.!.!.Q.=.s -   D u.0.                    + r.y.5   , j d.R.R.(.!.XXXX_._._.)._.).).).).).).).!.",
"!.!.(.(.Q.R.R.R.R.Q.R.Q.!.(.!.Q.R.(.(.Q.=.z -   8 q.^                     X 6.9.&   , j h.Q.Q.(.!.XX_.XXXX_.).).).).(.).(.).).(.",
"R.R.!.(.Q.R.R.R.R.Q.Q.).(.(.(.Q.Q.(.).).E w O                                       ; q <.!.(.R.R.!.(._._._.)._.XX(.R.Q.(.).).(.",
"Q.R.!.!.Q.R.Q.R.R.R.!.(.(.(.!.Q.Q.(.).(.<.P :                                       g P F.!.(.R.R._.!._._.).).).XX!./.!.(.).).).",
"(.(.R.R.R.R.!.(.).(.(.).).).).).(.(.).).)._.h.w B K p                       N L N i G.R.R.R.Q.XXXXXX_._.(.(.).!./.K.K.!.(.).).).",
"(.).Q.R.R.R.!.(.).).).).).).).).).).).).).).A.v X.O.m                       K X.X.v |.R.R.R.Q._.XXXXXX).).).(.Q.R.R.R.!.!.!.!.).",
"(.).(.(.Q.R.R.).!.).~.).).(.).).(.).).(.~.).~.D.g.p a p p p h o   - m p p p a f x.T.!.R.R.(.!.R.R./.).).).(.(.(.!.!.!.!._.!.(.(.",
").(.(.(.Q.R.!.(.).).).).(.).).(.(.(.).~.~.~.!.!.v.e p X.X.X.#.-   3 $.X.X.K e t Q.!.Q.R.Q.(.(.R.Q._.).).).).(.(.!.(._._.(.).(.(.",
"(.(.(.(.R.R.Q.(.!.).).).(.(.!.Q.R.!.(.!.Q.Q.W.N.<.a m C C Z K -   , O.Z C C b m S.N./.R.R.(.!.(.!.!.).R.Q.R.R.R.R.Q.Q.R.R.R.R.Q.",
").).(.(.Q.R.!.(.).).(.(.(.(.!.R.R.!.!.!.R.R.]...+.C Z C C Z X.O   : +.C C C Z C $.| {.R.R.!.!.).).!.).R.R.R.R.R.R.Q.!.Q.R.R.R.R.",
").).~.(.~.!.!.(.!.!.!.(.(.(.(.!.!.!.Q.!.(.(.A...+.N C C C C Z , o e Z C C C C C %.| {.R.Q.!.).!.!._.).R.R.!.Q.!.!.!.(.(.!.!.(.(.",
").).~.~.~.(.(.(.!.Q.Q.(.(.(.(.(.!.R.R.!.!.Q.].{ o.C C C C m a N C N a m C C C C &.{ {.K.Q.(.!.!.!.).).R.R.!.(.(.(.(.(.(.(.(.(.(.",
"(.).(.(.(.(.(.(.!.Q.!.!.!.Q.!.!.!.!.!.R.R.!.[.3.>.b C C C M m h p h m M C C C N 4.3. X/.!.Q.Q.R.Q.Q.Q.Q.Q.(.(.!.!.(.(.(.(.).).(.",
"(.(.(.(.(.(.(.(.(.R.R.(.(.R.R.Q.(.(.(.Q.5.#.W.Q.b.s m C C C K -   , O.Z Z C a a ^.(.G.$.A.!.R.R.R.R.R.!.Q.!.(.!.!.!.!.(.).).).).",
"(.(.(.(.(.(.(.(.(.(.(.(.(.R.R.(.).(.(.Q.2.} H.Q.c.m m C C C X.o   , O.C Z C x M E.(.N. .A.R.R.Q.Q.R.R.Q.!.!.(.!.!.!.!.(.).(.).).",
"(.(.(.(.(.(.(.(.(.(.(.(.(.R.R.(.).(.).(.3.%.E.~.c.h m A Z Z K -   , O.C C C b M T.!.V.} A.R.R.Q.Q.R.R.!.!.!.!.!.!.(.!.).).).).).",
"(.(.(.(.(.(.(.(.(.(.(.(.(.R.R.(.).).).).3.&.H.Q.c.b m Z C Z K -   , X.C Z C f M T.!.N.| A.R.R.!.!.Q.Q.!.!.Q.R.!.!.!.).).~.).).).",
"(.(.(.(.(.(.(.(.(.(.(.(.Q.R.R.(.).).).).1.U Y.Q.c.f m C C C X.-   , X.Z C N b M v.R.c.U m.R.R.(.~.~.~.!.!.R.R.!.(.).).).).).).).",
"(.(.(.(.(.(.(.(.(.(.(.(.(.Q.Q.(.(.Q.(.!.] T Y.(.x.N C X.X.O.#.-   3 $.X.O.X.N L v.Q.M.J m.R.R.(.~.~.).!.!.Q.R.!.(.).~.).).).~.).",
"(.(.(.(.(.(.(.(.(.(.(.(.(.Q.(.(.(.R.Q.Q.] Y U.R.i.3 e r r r p O   - p r r r < y v.!.M.J '.R.R.R.Q.).).).(.R.R.!.).~.!.!.(.(.~.~.",
"(.(.(.(.(.(.(.(.(.(.(.Q.(.(.(._.(.(.(.Q.W 4 Y.(._                               z.!.M.4 ] R.R.R.Q.!.!.!.!.Q.R.~.).!.!.~.(.(.!.!.",
"(.(.(.(.(.(.(.(.(.(.Q.R.Q.(.(.(.).(.(.(.n.] ^.(._                             . s.Q.W.Q `.R.R.R.R.Q.Q.Q.Q.Q.Q.!.).!.R.!.~.).).).",
"(.(.(.(.(.(.(.(.(.(.(.R.R.(.(.(.(.).).(.).(.R.(._                               a.R.Q.Q.Q.R.R.R.Q.R.R.R.R.Q.Q./.~.R.R.!.~.!.(.(.",
"(.(.(.(.(.(.(.(.(.(.(.(.(.(.(.(.).).(.).(.(.(.(.'       . . . . . . . . .       z.Q.Q.Q.Q.R.R.R.R.R.R.Q.Q.Q.R.R.R.R.R.Q.!.!.!.!.",
"(.(.(.(.(.(.(.(.(.(.(.(.(.(.(.(.).).).).(.(.(.(.'   H W.U.U.U.U.U.U.I.I.I.I.*   z.~.Q.Q.R.R.R.R.R.Q.Q.!.Q.R.R.K.R.R.R.!.!.!.!.!.",
"(.(.(.(.(.(.(.(.(.(.(.(.(.(.(.).).).).(.).(.).(.'   R ).(.(.(.(.!.~.!.!.R.R.*   z.Q.Q.~.Q.R.R.R.R.R.R.R.R.R.R.R.R.Q.Q.Q.R.!.!.(.",
"(.(.(.(.(.(.).(.(.(.(.(.(.(.(.).).).).).).).).(.'   H (.(.(.Q.!.!.!.!.!.Q.Q.$   z.R.Q.).(.Q.Q.Q.Q.R.R.R.R.R.R.R.R.Q.(.Q.R.Q.!.!.",
"(.(.(.(.(.(.).).(.(.(.(.(.(.(.).).).).).(.(.).(.`   H (.!.Q.Q.R.R.Q.R.!.Q.^.$   z.R.R.).).Q.~.Q.Q.R.R.R.R.R.R.R.R.Q.Q.Q.Q.Q.!.(.",
"(.(.).(.(.(.).).(.(.(.(.(.(.(.).(.).).(.(.(.(.(._ O H Q.(.Q.R.R.R.R.R.R.!.^.$   z.R.Q.Q.(.(.).).!.R.R.R.R.R.R.R.R.R.R.Q.!.(.!.!.",
"(.(.(.(.Q.XXQ.Q.!.(.(.(.XX(.(.(.(.(.).).(.(.!.!.`   H (.!.Q.Q.Q.Q.Q.Q.Q.!.~.$   ' Q.Q.Q.Q.Q.Q.Q.!.R.R.R.R.R.R.R.R.R.R.R.R.Q.Q.).",
"!.(.(.(.XXQ.XX^.Q.XX(.(.Q.!.(.(.(.(.).).).(.!.!.`   H (.!.(.).).~.!.).~.~.^.$   I.XXQ.R.R.R.R.XX!.R.R.R.R.R.R.R.R.R.R.R.R.R.Q.).",
"(.(.(.(.XXQ.Q.XX(.Q.!.(.(.(.(.(.(.(.(.(.(.(.!.!.`   H (.!.!.(.!.(.(.(.!.(.^.#   M.(.Q.Q.Q.Q.Q.Q.R.R.R.R.R.R.R.R.R.R.R.R.Q.Q.Q.(.",
"(.(.(.(.Q.XXQ.Q.(.XX(.(.(.!.Q.XX(.(.(.R.!.(.(.Q.`   H (.(.(.!.!.!.!.!.!.!.~.%   z.(.XXQ.Q.XXQ.R.R.R.R.R.R.R.R.!.Q.R.R.Q.Q.Q.Q.Q.",
"!.(.!.XXQ.!.!.XXQ.XX(.(.(.XXQ.Q.!.(.(.(.(.(.(.!.c.i ,.!.~.!.!.!.!.!.!.!.~.~.P x U.!.!.!.Q.(.Q.R.R.R.R.R.R.R.R.R.!.Q.R.Q.(.Q.Q.R.",
"(.Q.Q.XXQ.XXQ.^.!.(.(.(.(.!.Q.Q.R.!.(.(.(.(.(.(.x.c <.Q.!.!.!.!.(.).!.).).~.*.A U.R.R.!.Q.Q.R.R.R.R.I.K.R.R.R.R.~.Q.R.Q.Q.Q.R.R.",
"(.!.Q.Q.Q.Q.Q.XX(.(.(.(.(.(.!.Q.!.(.).(.(.R.(.R.x.z <.R.!.!.!.!.(.).~.).).).I n Y.R.!.(.Q.Q.R.U.R.R.R.R.R.R.R.R.!.Q.Q.Q.Q.R.R.R.",
"!.(.R.R.Q.XXXXQ.(.(.(.(.(.(.Q.XX(.(.(.Q.R.R.R.R.i.q -.!.!.~.!.).).).).!.)..Xn i v.(.(.(.Q.R.R.R.K.E.R.R.R.R.R.R.R.!.Q.Q.R.R.R.R.",
"(.(.Q.U.Q.Q.Q.XXXXQ.Q.XXQ.Q.XXQ.(.(.(.Q.R.R.R.R.W.m.}.!.!.!.(.!.!.~.(.(.!.Q.G.G.^.(.(.Q.!.Q.R.R.R.R.R.R.R.R.R.R.R.R.Q.R.R.R.R.R.",
"(.(.(.Q..XXXQ.R.!.!.Q.XXXXQ.Q.XX(.(.(.!.Q.(.!.R.R.Q.Q.!.!.!.!.Q.!.!.~.!.Q.R.Q.Q.Q.(.(.XXXX(.Q.R.R.R.R.(.(.R.I.R.R.R.R.R.R.R.R.R.",
"Q.(.Q.XXQ.Q.R.XXXXXXQ.Q.Q.XX.XQ.(.(.(.(.!.!.Q.!.R.Q.!.!.!.!.!.!.!.!.!.!.Q.R.R.R.Q.XXXX(.Q.!.Q.R.R.I.R.Q.Q.R.R.R.R.R.R.R.R.R.R.R.",
"R.R.Q.XXQ.XXXXR.Q.!.Q.XXQ.(.(.(.(.(.!.!.R.R.R.Q.(.(.!.Q.!.!.!.!.!.!.!.).!.Q.Q.R.Q.(.Q.(.!.XX!.R.R.K.R.R.R.R.R.R.!.R.R.R.R.R.R.R.",
"R.R.Q.(.XXQ.Q.XXR.XXR.XXXXQ.Q.XX(.!.(.R.R.Q.Q.Q.(.(.Q.Q.Q.Q.!.!.!.!.!.XX~.!.Q.R.XXQ.XX(.Q.XXR.R.R.R.U.K.R.R.R.R.Q.R.R.R.R.R.R.R.",
"R.R.Q.R.Q.XXXXQ.XXR.XXQ.Q.XXXXQ.!.!.R.!.(.Q.!.Q.R.R.R.Q.R.Q.!.(.~.~.~.(.(.(.Q.R.R.Q.U.(.XXR.R.R.R.R.R.R.R.R.R.R.Q.R.R.K.R.R.R.R.",
"R.R.R.R.Q.Q.XXQ.U.(.Q.XXQ.XXQ.Q.!.Q.R.!.(.!.(.Q.R.R.R.R.Q.Q.!.!.(.~.(.(.~.!.Q.R.R.R.R.XXR.R.R.R.K.U.R.R.R.R.R.R.R.R.I.R.R.R.R.R.",
"R.R.R.R.R.R.R.Q.Q.R.R.XXQ.Q.XXQ.R.Q.R.!.!.).!.Q.R.R.R.Q.Q.Q.Q.Q.Q.Q.(.(.(.~.Q.R.R.Q.Q.Q.XXQ.R.R.R.R.R.R.R.Q.^.Q.Q.R.R.R.R.R.R.R."
};
