/* XPM */
static char *result[] = {
/* columns rows colors chars-per-pixel */
"64 64 237 2 ",
"   c #DBA46E",
".  c #DAA36D",
"X  c #DAA36C",
"o  c #DBA46D",
"O  c #DAA46D",
"+  c #DAA46E",
"@  c #DCA670",
"#  c #DFAA76",
"$  c #DFAA77",
"%  c #DBA56E",
"&  c #DDA974",
"*  c #DFAB77",
"=  c #DDA873",
"-  c #DDA771",
";  c #DCA56E",
":  c #DCA570",
">  c #DEA974",
",  c #DCA671",
"<  c #D9A26B",
"1  c #E0AC77",
"2  c #DFAB75",
"3  c #D9A26C",
"4  c #D9A36C",
"5  c #E0AC78",
"6  c #DCA771",
"7  c #DDA772",
"8  c #DEA873",
"9  c #DDA773",
"0  c #DEA874",
"q  c #DEAA75",
"w  c #DEA975",
"e  c #DEA872",
"r  c #DBA56F",
"t  c #DCA56F",
"y  c #E0AB76",
"u  c #DDA872",
"i  c #E0AB78",
"p  c #E0AC79",
"a  c #E0AA75",
"s  c #E4AF7D",
"d  c #E0AB77",
"f  c #DBA46F",
"g  c #DDA874",
"h  c #DFAB76",
"j  c #DEAA74",
"k  c #E0AA76",
"l  c #E5B17F",
"z  c #E1AC78",
"x  c #DCA770",
"c  c #DBA670",
"v  c #DCA66F",
"b  c #DFA975",
"n  c #DDA671",
"m  c #DFAA75",
"M  c #E2AD7A",
"N  c #DBA570",
"B  c #DEA772",
"V  c #DDA670",
"C  c #E1AE7A",
"Z  c #E1AE79",
"A  c #E3AE7C",
"S  c #E4B07D",
"D  c #E5B27F",
"F  c #E4B17E",
"G  c #E1AB78",
"H  c #E5B180",
"J  c #DBA36D",
"K  c #DFA976",
"L  c #E5B17E",
"P  c #E1AD79",
"I  c #E5B280",
"U  c #E2AD79",
"Y  c #DAA26C",
"T  c #E2AE7A",
"R  c #DEA973",
"E  c #E1AC79",
"W  c #E1AD78",
"Q  c #DDA871",
"!  c #CC9966",
"~  c #B28458",
"^  c #A47B52",
"/  c #A37A52",
"(  c #A37A51",
")  c #B28558",
"_  c #CD9A66",
"`  c #E3B07D",
"'  c #DEAA76",
"]  c #B18458",
"[  c #604830",
"{  c #37291C",
"}  c #37291B",
"|  c #DFA974",
" . c #E6B280",
".. c #E6B381",
"X. c #DDA973",
"o. c #DCA772",
"O. c #CE9C69",
"+. c #B28559",
"@. c #A47A52",
"#. c #A37951",
"$. c #7A5B3D",
"%. c #291F15",
"&. c black",
"*. c #7B5C3D",
"=. c #E3AF7D",
"-. c #DFAA74",
";. c #E4B07E",
":. c #E2AE7B",
">. c #B3875D",
",. c #0E0A07",
"<. c #E2AD7B",
"1. c #CF9D6B",
"2. c #7B5D3F",
"3. c #B4885D",
"4. c #D09E6D",
"5. c #D5A475",
"6. c #B98F66",
"7. c #AC8661",
"8. c #AB855F",
"9. c #A57E55",
"0. c #B88E65",
"q. c #D5A474",
"w. c #2A2016",
"e. c #624C34",
"r. c #B68C61",
"t. c #BB9168",
"y. c #654F38",
"u. c #3A2D20",
"i. c #392D20",
"p. c #382B1E",
"a. c #E6B380",
"s. c #DFAB78",
"d. c #DEA976",
"f. c #101010",
"g. c gray19",
"h. c gray25",
"j. c #A88159",
"k. c #AA845D",
"l. c #392C1F",
"z. c #5B5147",
"x. c #8F7255",
"c. c #B88F65",
"v. c #D5A574",
"b. c gray56",
"n. c gray75",
"m. c #9D9A97",
"M. c #5A5046",
"N. c white",
"B. c gray81",
"V. c gray44",
"C. c #382B1D",
"Z. c #A77F58",
"A. c #A77F57",
"S. c #EFEFEF",
"D. c #8D7052",
"F. c #D2A170",
"G. c #A47C53",
"H. c #9E9A97",
"J. c #A47B53",
"K. c #A57C54",
"L. c #A47C52",
"P. c #372A1C",
"I. c #8E7154",
"U. c #D2A070",
"Y. c #A57D55",
"T. c #5B5248",
"R. c #624A33",
"E. c #B2865A",
"W. c #B68B61",
"Q. c #8C6D50",
"!. c #594F45",
"~. c #606060",
"^. c #9F9F9F",
"/. c #8C6D4F",
"(. c #B58B60",
"). c #D1A06F",
"_. c #A78058",
"`. c #382A1D",
"'. c #624C35",
"]. c #9D9A96",
"[. c #594F44",
"{. c #60482F",
"}. c #A8815A",
"|. c #A8815B",
" X c #7E6043",
".X c #2A2017",
"XX c #291F14",
"oX c #7E6044",
"OX c #0E0B07",
"+X c #A67F57",
"@X c #B4895E",
"#X c #7B5D3E",
"$X c #DEA773",
"%X c #624B34",
"&X c #A78059",
"*X c #D1A070",
"=X c #B58B61",
"-X c #A7805A",
";X c #A88059",
":X c #A77E56",
">X c #A67C54",
",X c #A67E56",
"<X c #A88058",
"1X c #2A1F15",
"2X c #A67F58",
"3X c #8C6F51",
"4X c #0E0B08",
"5X c #7D6043",
"6X c #372A1D",
"7X c #8A6B4C",
"8X c #CD9A67",
"9X c #CC9965",
"0X c #DCA872",
"qX c #D3A170",
"wX c #7D5F42",
"eX c #D9A06B",
"rX c #614932",
"tX c #D9A16B",
"yX c #DBA36E",
"uX c #DCA470",
"iX c #8D6F51",
"pX c #8E7053",
"aX c #B08257",
"sX c #CB9764",
"dX c #DAA26D",
"fX c #E1AC77",
"gX c #DAA36E",
"hX c #DAA16C",
"jX c #DCA871",
"kX c #DBA36F",
"lX c #D9A16C",
"zX c #DAA26E",
"xX c #DDA770",
"cX c #D9A06C",
"vX c #DCA46F",
"bX c #DEAA77",
"nX c #DAA26B",
/* pixels */
"  . X X X X X X . o O + O o @ # $ @ % & * * * = % - # = ;   o @ # # :   > * , X X . . X X < + 1 2 < < < < 3 4 > 5 5 5 6 O 7 * 5 ",
"o X X X X X X X @ 8 @ . . X   9 0 - @ 7 & q * w - 7 = , o o X ; e 8 r   7 8 t X X . . X O t @ > e < < < < < < - 8 y 5 , . u i p ",
"o X X X X X X X a s d f . o o O r g w @ % & * * # = o O X X o o o o X X O   . . . X X . r h j o O < < X X X X O o > 5 , 4 7 i p ",
"o X X X X X X X k l z f . o o X o 7 = x @ 7 & w * = X X X X o % r t o X r : f . . X X . r > e X X r r X X X X X X 6 & r 3 c g > ",
"o X X X X X X X k l z   . . . X X o r = w @   - * = o o X X X r > > v   8 b n o . . . X .   o X o 2 m X X X X < < X . 4 < 4 . . ",
"o X r c O X t 7 k M b   X . . X . % @ = = r X N > 7 @ t X X X % = = t ; 0 $ 8 @   . r B V X o B 8 C Z X X X X X < < < < < . % r ",
"o X > # @ X a A d - % X X o o o % = > @ %   o   % , q 7 O X X .     o ; 0 i $ b , X u S z < r S S D F < < X X X X X X < < @ w m ",
"O X w * @ . G H d r . X X o o o ; = > t X J o X X @ q = O X X X X X o ; 8 $ $ K , X e L P < r L l I D X X X X o o o o O . 7 m * ",
"X X t @   X G H U 8 v o o X X X X   r o o X X Y X   , t X X X X X . o o v V V @ ; o t 8 - X O 8 > T T R R O 4 - > > > > R 6 r 7 ",
"X X X X . o d s E > x o o X X < < < < o   X Y Y X .   J X X X X . . o o o o o o o o o % % % % % @ W z h h r X > 5 1 1 1 1 Q O @ ",
"X X X X , 8 R > - v % O X o o X X X . 6 =   Y X o J . ! ~ ^ ^ ^ ^ ^ / ( ^ ) _ o o o - P P P P P M S ` @ @ u u h 1 5 5 1 1 m R j ",
"X X . o 0 d u   . X o   % o o % o X   & ' c X o   J Y ] [ { { { } } } } } [ ) o o o | I I I  .....l F X X 2 5 1 1 d * 1 1 1 1 1 ",
"X X @ , b 5 > - r o 7 d m v % @ @ % % & h X.o.O.+.@.#.$.%.&.&.&.&.&.&.&.&.%.*.) _ o e A A A =...D m m u u T ` P 1 = 6 -.1 1 1 1 ",
"  . = > h d # > - t k ;.:.- ; 7 u v t & h h ' >.[ } } %.,.&.&.&.&.&.&.&.&.,.%.[ +.% - i i p <...F O o 5 5 D ..T 1 @ X u y 5 5 5 ",
", @ 8 > q # w > = - m P d V   v 6 - 7 u u 1.>.2.%.&.&.&.&.&.&.&.&.&.&.&.&.&.&.%.2.3.4.i E 5.6.7.8.9.9.0.q.I ..T 1 R - -.1 5 5 5 ",
"w > > > > > > > > > > > u t o o t g q @ o ) [ %.,.&.&.&.&.&.&.&.&.&.&.&.&.&.&.,.w.e.r.i M t.y.u.i.p.p.y.t.a.a.T 1 1 1 1 1 s.s.5 ",
"d.' > > > > e - = > > > u t o o % - 7 t o ^ } &.&.f.g.h.h.h.h.g.f.f.g.h.h.g.f.&.&.p.j.i E k.l.f.g.h.h.z.x.c.v.P 1 1 1 1 1 1 s.5 ",
"$ s.w > > > V o , > > > u t       o o     / } &.&.g.b.n.n.n.n.b.g.g.b.n.n.b.g.&.&.p.j.i i j.p.g.b.n.n.m.M.e.r.1 1 1 1 1 1 1 1 5 ",
"* s.m q R u v o @ 7 = = 7 , : f   t v r   / } &.&.h.n.N.N.N.N.B.V.V.B.N.N.n.h.&.&.C.Z.d h A.C.g.b.B.S.B.V.M.D.r.F.1 1 1 1 1 1 5 ",
"s.s.5 5 - % o o         , # # , @ m * n   ^ { &.&.h.n.N.N.N.N.S.B.B.S.N.N.n.h.&.&.} G.q u ( { f.g.V.B.S.B.H.M.e.r.E E 5 1 5 5 d ",
"' ' i 5 - % o o     r : 7 h # , @ m * 7 : J.{ f.g.V.B.N.N.S.B.n.n.B.S.N.N.B.V.g.f.} K.q X.L.P.&.&.g.b.B.S.B.V.M.I.r.U.d 1 5 5 5 ",
"o X m d n   o o o o 7 d 5 E # , @ m 5 5 * Y.{ g.b.B.S.N.N.B.V.h.h.V.B.N.N.S.B.b.g.{ Y.1 1 j.C.&.&.f.g.V.B.S.B.H.T.R.E.0 d E E 5 ",
"  o b # V o   % % % u d 5 E # - , m 5 F.W.Q.!.~.^.n.n.n.n.b.g.&.&.g.b.n.n.n.n.^.~.!./.(.)._.C.&.&.&.&.g.b.B.S.n.h.`.G.0 d z E 5 ",
"5 5   X X X = d 5 5 5 5 5 5 5 5 5 5 5 r.'.M.m.^.~.h.h.h.h.g.f.&.&.f.g.h.h.h.h.~.^.].[.{.] ( P.&.&.&.&.f.g.V.B.n.h.{ ^ 8 y d d 5 ",
"5 5 % X X X = d 5 5 5 5 5 5 5 5 5 5 5 }.p.h.n.B.V.g.f.&.&.f.g.h.h.g.f.&.&.f.g.V.B.n.h.} ( ( P.&.&.&.&.&.&.h.n.n.h.{ ^ 8 y d d 5 ",
"5 5 s.s.@ O = d 5 5 5 5 5 5 5 5 5 5 5 }.p.h.n.S.B.b.g.&.&.g.b.n.n.b.g.&.&.g.b.B.S.n.h.} K.|.p.&.&.&.&.&.&.h.n.n.h.p.|.d d d d d ",
"5 5 s.s.@ O = d 5 5 5 5 5 5 5 F.r.}.}. X.Xg.b.B.S.B.V.h.h.~.^.n.n.^.~.h.h.V.B.S.B.b.g.XX2.oXw.&.&.&.&.&.&.h.n.n.h.p.|.i d d d d ",
"5 5 d d @ O = d 5 5 5 d d d b E.[ `.p.w.,.f.g.V.B.S.B.n.n.^.~.h.h.~.^.n.n.B.S.B.V.g.f.,.%.w.OX&.&.&.&.&.&.h.n.n.h.P.+X@   o o n ",
"5 5 d d @ O = d 5 5 d d d U.@X#X%.&.&.&.&.&.&.g.b.B.S.S.B.^.~.h.h.~.^.B.S.S.B.b.g.&.&.&.&.&.&.&.&.&.&.&.&.h.n.n.h.P.+X: . X X @ ",
"5 5 s.s.q g # d b $X| d d W.%Xw.OX&.&.&.&.&.&.f.g.V.B.B.V.~.^.n.n.^.~.V.B.B.V.g.f.&.&.&.&.&.&.&.&.&.&.&.&.h.n.n.h.p.&Xb 0 > | m ",
"5 5 s.*X=X-X;X;X:X>X,X<X;X X.X&.&.&.&.&.&.&.&.f.g.V.B.B.V.~.^.n.n.^.~.V.B.B.V.g.f.&.&.&.&.&.&.&.&.&.&.&.&.h.n.n.h.p.|.d d i z 5 ",
"5 5 d W.%Xp.p.p.`.{ `.p.p.1X,.&.&.&.&.&.&.&.&.g.b.B.S.S.B.^.~.h.h.~.^.B.S.S.B.b.g.&.&.&.&.&.&.&.&.&.&.&.&.h.n.n.h.p.2Xd 5 p p p ",
"5 5 d ;Xp.f.g.h.h.h.h.h.h.h.h.h.h.g.f.&.&.&.&.h.n.N.N.N.N.B.V.h.h.V.B.N.N.N.N.n.h.&.&.&.&.f.g.h.h.h.h.h.h.V.B.B.V.M.3X&Xp p p p ",
"5 5 d ;Xp.g.b.n.n.n.n.n.n.n.n.n.n.b.g.&.&.&.&.h.n.N.N.N.N.S.B.n.n.B.S.N.N.N.N.n.h.&.&.&.&.g.b.n.n.n.n.n.n.B.S.S.B.m.M.p.p p 5 p ",
"5 5 d ;Xp.h.n.N.N.N.N.S.B.n.n.B.S.n.h.&.&.&.&.g.b.n.n.B.S.N.N.N.N.N.N.S.B.n.n.b.g.&.&.&.&.g.b.n.n.n.n.n.n.n.n.n.n.b.g.&.p 5 5 p ",
"5 5 d ;Xp.h.n.N.N.N.N.B.V.h.h.V.B.n.h.&.&.&.&.f.g.h.h.V.B.N.N.N.N.N.N.B.V.h.h.g.f.&.&.&.&.f.g.h.h.h.h.h.h.h.h.h.h.g.f.&.5 p p 5 ",
"5 5 d ;Xp.h.n.N.N.N.N.n.h.&.&.h.n.n.h.&.&.&.&.&.&.&.&.g.b.n.n.n.n.n.n.b.g.&.&.&.&.&.&.&.&.f.g.h.h.g.f.f.g.h.h.g.f.4X.Xp.5 p p 5 ",
"d d d ;Xp.h.n.N.N.N.N.n.h.&.&.h.n.n.h.&.&.&.&.&.&.&.&.f.g.h.h.h.h.h.h.g.f.&.&.&.&.&.&.&.&.g.b.n.n.b.g.g.b.n.n.b.g..X5X}.5 5 s.d ",
"d d d ;Xp.h.n.N.N.N.N.n.h.&.&.h.n.n.h.&.&.&.&.&.&.&.&.&.&.&.&.&.&.&.&.&.&.&.&.&.&.&.&.&.&.h.n.N.N.n.h.h.n.N.N.n.h.p.2Xd p * q # ",
"d d d ;Xp.h.n.N.N.N.N.n.h.&.&.h.n.n.h.&.&.&.&.&.&.&.&.&.&.&.&.&.&.&.&.&.&.&.&.&.&.&.&.&.&.h.n.N.N.n.h.h.n.N.N.n.h.`.9.# 5 * q h ",
"d d d ;Xp.h.n.N.N.N.N.n.h.&.&.h.n.n.h.&.&.&.&.&.&.&.&.&.&.&.&.&.&.&.&.&.&.&.&.&.&.&.&.&.&.g.b.n.n.b.g.h.n.N.N.n.h.6XL.> 5 5 * 5 ",
"d d d ;Xp.h.n.N.N.N.N.n.h.&.&.h.n.n.h.&.&.&.&.&.&.&.&.&.&.&.&.&.&.&.&.&.&.&.&.&.&.&.&.&.&.f.g.h.h.g.f.h.n.N.N.n.h.P./ = * d d i ",
"d d d W.%XM.m.B.S.N.N.n.h.f.g.~.^.b.g.&.&.&.&.&.&.&.&.&.&.&.&.&.&.&.&.&.&.&.&.&.&.&.&.&.&.&.&.&.&.f.g.V.B.S.B.].!.[ ] 7 q m m # ",
"d d d U.W.D.M.V.B.N.N.n.h.g.b.^.~.g.f.&.&.&.&.&.&.&.&.&.&.&.&.&.&.&.&.&.&.&.&.&.&.&.&.&.&.&.&.&.&.g.b.B.S.B.V.[.7X) 8X6 X.> > m ",
"d d d d d W.%XM.m.B.S.B.V.~.^.b.g.&.&.f.g.h.h.h.h.g.f.&.&.&.&.&.&.&.&.&.&.f.g.h.h.h.h.g.f.&.&.&.&.g.b.n.n.].[.{.] - > - t u q # ",
"d d d d d U.W.D.M.V.B.S.B.^.~.g.f.&.&.g.b.n.n.n.n.b.g.&.&.&.&.&.&.&.&.&.&.g.b.n.n.n.n.b.g.&.&.&.&.f.g.h.h.[.7X] 9X7 b 6   6 j q ",
"d d d d d d d W.%XM.m.n.n.b.g.&.&.f.g.~.^.n.n.n.n.^.~.g.f.&.&.&.&.&.&.f.g.~.^.n.n.n.n.^.~.g.f.&.&.,.XX} } {.] X X r t 6 0XX.q q ",
"d d d d d d d U.W.D.M.h.h.g.f.&.&.g.b.^.~.h.h.h.h.~.^.b.g.&.&.&.&.&.&.g.b.^.~.h.h.h.h.~.^.b.g.&.&.XX$.( ( ] 9XX X X X 6 & q q q ",
"d d d d d d d d d W.%Xp.p.p.p.w.4Xh.n.B.V.h.h.h.h.V.B.n.h.&.&.&.&.&.&.h.n.B.V.h.h.h.h.V.B.n.h.4Xw.{.] X X X X . . Y Y   : = # # ",
"* * * * d d 5 5 z qXW.;X;X;X;X Xw.h.n.S.B.n.n.n.n.B.S.n.h.&.&.&.&.&.&.h.n.S.B.n.n.n.n.B.S.n.h..XwX] 9XX X X X     3 eXeXeXn # # ",
"* * * * d d 5 5 5 z d d d d d W.%XM.m.n.n.n.n.n.n.n.n.m.M.p.p.p.p.p.p.M.m.n.n.n.n.n.n.n.n.].!.rX>.. . X X X X @ , . tXyXuXn 7 0 ",
"d d d d 5 5 5 5 5 5 d d d d d qXW.iXM.h.h.h.h.h.h.h.h.M.pX<X+X+X+X+X+X3XM.h.h.h.h.h.h.h.h.M.iXaXsX    X X X X u q t X B k - O @ ",
"h h d d d 5 5 5 5 5 d d d d k | 0 Z.p.&.&.&.&.&.&.&.&.`.<Xm > w # # q Z.p.&.&.&.&.&.&.&.&.`.Y.eXeXdXdXX X X X = h @ X 7 m 6 O % ",
"q q * * * * * * d d d d d * > r r | z z z z fX8 X X X t R > > m d 5 * * * * * # o.. : w =   yXeXeXeXeX< < X X w 5 , . 6 j @ . X ",
"q ' = 7 b * * * d d d d d d m 7 - # fXm 8 8 8 V X o t - j q q h 1 5 * * * * q = 7 6 u # 0   J eXeXeXeXtXtX< X 7 0 , @ 6 6 r X X ",
"' * gXhX9 # d d d d d d d d d y d 5 * 6 o o o X X t 8 j h * * * 5 5 * * * * 7 f = * d 5 m   J eXeXeXeXeXeX< < . O jX> @ o X X X ",
"# * N kXg * * d d d d d d d i d d i * 7 t t ;   X t > w # # # # h * * # w 9 : + = 5 5 5 # - : eXeXeXeXuXuXY tX< X @ 6 % X X X O ",
"# * ' ' * * * * d 5 d * d 5 i i d d d > 8 8 = @ X t > > > > > > > w # # : dX. + = 5 5 5 5 * > eXeXeXlX* * zXeX< < X O X X X X @ ",
"w w * * * * * * 5 5 * * * 5 p i d d y > = u u 6 % @ > > > > > > > w # ' : dXdX+ = 5 5 5 5 5 m eXeXeXlX$ $ zXeXY . X Y X X X X : ",
"  % ' * 5 5 * * * * d d d d d d d d # - %   % , b w > > > > > > > w * i ' = N + = 5 5 5 5 5 m eXeXeXeX    lXeX7 d.f lXY X X X O ",
"X X > ' d 5 * * * * d d d d d d d # m xX;   % n # w = = = 8 > w w q i p s.' , + 7 * d 5 5 * 0 eXeXeXeX< < tXeX= $ f cXhXX X X X ",
"X X r r > d * * * d * * d 5 i d # u V = > > > B vXf % % % , q $ * i 5 5 5 * , .   : = 5 # : r tXtXtXtX< < < tX+ r Y eXhXX X X X ",
"X X X X 7 b # ' # # # * * 5 i # | v % & * * d 9 Y X X O o @ w bX* s.5 5 5 * , X O   7 5 m   + < < < < < < X . . . lXtXY Y X X X ",
"O X X X % : @ @ @ @ 8 # d i # 7 t ; % & * * * 9 X X o r - - 6 6 @ - # 5 5 * , X @ > m 1 h > u < < nXnX< < - g & &   Y < tXY X t "
};
