/* XPM */
static char *result[] = {
/* columns rows colors chars-per-pixel */
"64 64 239 2 ",
"   c #DBA46E",
".  c #DAA36D",
"X  c #DAA36C",
"o  c #DBA46D",
"O  c #DAA46D",
"+  c #DAA46E",
"@  c #DCA670",
"#  c #DFAA76",
"$  c #DFAA77",
"%  c #DBA56E",
"&  c #DDA974",
"*  c #DFAB77",
"=  c #DDA873",
"-  c #DDA771",
";  c #DCA56E",
":  c #DCA570",
">  c #DEA974",
",  c #DCA671",
"<  c #D9A26B",
"1  c #E0AC77",
"2  c #DFAB75",
"3  c #D9A26C",
"4  c #D9A36C",
"5  c #E0AC78",
"6  c #DCA771",
"7  c #DDA772",
"8  c #DEA873",
"9  c #DDA773",
"0  c #DEA874",
"q  c #DEAA75",
"w  c #DEA975",
"e  c #DEA872",
"r  c #DBA56F",
"t  c #DCA56F",
"y  c #E0AB76",
"u  c #DDA872",
"i  c #E0AB78",
"p  c #E0AC79",
"a  c #E0AA75",
"s  c #E4AF7D",
"d  c #E0AB77",
"f  c #DBA46F",
"g  c #DDA874",
"h  c #DFAB76",
"j  c #DEAA74",
"k  c #E0AA76",
"l  c #E5B17F",
"z  c #E1AC78",
"x  c #DCA770",
"c  c #DBA670",
"v  c #DCA66F",
"b  c #DFA975",
"n  c #DDA671",
"m  c #DFAA75",
"M  c #E2AD7A",
"N  c #DBA570",
"B  c #DEA772",
"V  c #DDA670",
"C  c #E1AE7A",
"Z  c #E1AE79",
"A  c #E3AE7C",
"S  c #E4B07D",
"D  c #E5B27F",
"F  c #E4B17E",
"G  c #E1AB78",
"H  c #E5B180",
"J  c #DBA36D",
"K  c #DFA976",
"L  c #E5B17E",
"P  c #E1AD79",
"I  c #E5B280",
"U  c #E2AD79",
"Y  c #DAA26C",
"T  c #E2AE7A",
"R  c #DEA973",
"E  c #E1AC79",
"W  c #E1AD78",
"Q  c #DDA871",
"!  c #E3B07D",
"~  c #DEAA76",
"^  c #DFA974",
"/  c #E6B280",
"(  c #E6B381",
")  c #DDA973",
"_  c #DCA772",
"`  c #CD9A67",
"'  c #B28559",
"]  c #A47B52",
"[  c #A37A52",
"{  c #B18458",
"}  c #CD9A66",
"|  c #E3AF7D",
" . c #DFAA74",
".. c #E4B07E",
"X. c #E2AE7B",
"o. c #604830",
"O. c #37291C",
"+. c #37291B",
"@. c #B28558",
"#. c #E2AD7B",
"$. c #CE9B69",
"%. c #B28458",
"&. c #A47A52",
"*. c #7B5C3E",
"=. c #291F15",
"-. c black",
";. c #7B5C3D",
":. c #CE9C69",
">. c #D09D6B",
",. c #B4895E",
"<. c #A8805A",
"1. c #A8815B",
"2. c #AA835E",
"3. c #AB845E",
"4. c #BB9169",
"5. c #D7A777",
"6. c #E3AF7C",
"7. c #60472F",
"8. c #0E0A07",
"9. c #614831",
"0. c #B4895D",
"q. c #B68C61",
"w. c #624C34",
"e. c #382B1E",
"r. c #392B1F",
"t. c #3A2D20",
"y. c #654F38",
"u. c #BA9067",
"i. c #E6B380",
"p. c #DFAB78",
"a. c #DEA976",
"s. c #7B5B3D",
"d. c #2A2016",
"f. c #7D5F42",
"g. c #7E6043",
"h. c #101010",
"j. c gray19",
"k. c gray25",
"l. c #5B5147",
"z. c #8F7255",
"x. c #B88E65",
"c. c #D5A474",
"v. c #E3B07C",
"b. c #0E0B07",
"n. c gray56",
"m. c gray75",
"M. c #9D9A97",
"N. c #5A5046",
"B. c #654F39",
"V. c #BB9168",
"C. c gray81",
"Z. c #EFEFEF",
"A. c gray44",
"S. c #5B5248",
"D. c #917458",
"F. c #B78D62",
"G. c #D3A371",
"H. c #9E9B97",
"J. c #E1AD7A",
"K. c #A47B53",
"L. c white",
"P. c #B78C63",
"I. c #D2A170",
"U. c #A57D55",
"Y. c #634C36",
"T. c #382B1F",
"R. c #A8815A",
"E. c #8D7053",
"W. c #606060",
"Q. c #9F9F9F",
"!. c #624C35",
"~. c #E0AA77",
"^. c #A67E56",
"/. c #D09E6D",
"(. c #B68B61",
"). c #7C5E40",
"_. c #2A1F15",
"`. c #A37A51",
"'. c #DEA773",
"]. c #B3875C",
"[. c #614931",
"{. c #372A1D",
"}. c #A67F57",
"|. c #D2A070",
" X c #B5885D",
".X c #A67C54",
"XX c #A88058",
"oX c #A88059",
"OX c #A77F58",
"+X c #7B5D3E",
"@X c #382A1D",
"#X c #624A32",
"$X c #382B1D",
"%X c #8D7052",
"&X c #7A5B3D",
"*X c #A67F58",
"=X c #372A1C",
"-X c #A47C52",
";X c #A57E55",
":X c #624B34",
">X c #595045",
",X c #595046",
"<X c #8C6E50",
"1X c #CC9965",
"2X c #9D9A96",
"3X c #594F44",
"4X c #604831",
"5X c #B2855A",
"6X c #8A6B4C",
"7X c #60482F",
"8X c #DCA872",
"9X c #2A2017",
"0X c #7D6042",
"qX c #0E0B08",
"wX c #A78058",
"eX c #D9A06B",
"rX c #594F45",
"tX c #614932",
"yX c #B3875D",
"uX c #D9A16B",
"iX c #DBA36E",
"pX c #DCA470",
"aX c #D3A170",
"sX c #8D6F51",
"dX c #B08257",
"fX c #CB9764",
"gX c #DAA26D",
"hX c #E1AC77",
"jX c #DAA36E",
"kX c #DAA16C",
"lX c #DCA871",
"zX c #DBA36F",
"xX c #D9A16C",
"cX c #DAA26E",
"vX c #DDA770",
"bX c #D9A06C",
"nX c #DCA46F",
"mX c #DEAA77",
"MX c #DAA26B",
/* pixels */
"  . X X X X X X . o O + O o @ # $ @ % & * * * = % - # = ;   o @ # # :   > * , X X . . X X < + 1 2 < < < < 3 4 > 5 5 5 6 O 7 * 5 ",
"o X X X X X X X @ 8 @ . . X   9 0 - @ 7 & q * w - 7 = , o o X ; e 8 r   7 8 t X X . . X O t @ > e < < < < < < - 8 y 5 , . u i p ",
"o X X X X X X X a s d f . o o O r g w @ % & * * # = o O X X o o o o X X O   . . . X X . r h j o O < < X X X X O o > 5 , 4 7 i p ",
"o X X X X X X X k l z f . o o X o 7 = x @ 7 & w * = X X X X o % r t o X r : f . . X X . r > e X X r r X X X X X X 6 & r 3 c g > ",
"o X X X X X X X k l z   . . . X X o r = w @   - * = o o X X X r > > v   8 b n o . . . X .   o X o 2 m X X X X < < X . 4 < 4 . . ",
"o X r c O X t 7 k M b   X . . X . % @ = = r X N > 7 @ t X X X % = = t ; 0 $ 8 @   . r B V X o B 8 C Z X X X X X < < < < < . % r ",
"o X > # @ X a A d - % X X o o o % = > @ %   o   % , q 7 O X X .     o ; 0 i $ b , X u S z < r S S D F < < X X X X X X < < @ w m ",
"O X w * @ . G H d r . X X o o o ; = > t X J o X X @ q = O X X X X X o ; 8 $ $ K , X e L P < r L l I D X X X X o o o o O . 7 m * ",
"X X t @   X G H U 8 v o o X X X X   r o o X X Y X   , t X X X X X . o o v V V @ ; o t 8 - X O 8 > T T R R O 4 - > > > > R 6 r 7 ",
"X X X X . o d s E > x o o X X < < < < o   X Y Y X .   J X X X X . . o o o o o o o o o % % % % % @ W z h h r X > 5 1 1 1 1 Q O @ ",
"X X X X , 8 R > - v % O X o o X X X . 6 =   Y X o J . . J o o o o o . X o o o o o o - P P P P P M S ! @ @ u u h 1 5 5 1 1 m R j ",
"X X . o 0 d u   . X o   % o o % o X   & ~ c X o   J Y .         o o X X o o o o o o ^ I I I / ( ( l F X X 2 5 1 1 d * 1 1 1 1 1 ",
"X X @ , b 5 > - r o 7 d m v % @ @ % % & h ) _ @   J Y .   ` ' ] ] ] [ { } o o o o o e A A A | ( D m m u u T ! P 1 = 6  .1 1 1 1 ",
"  . = > h d # > - t k ..X.- ; 7 u v t & h h ~ 7 o J Y .   ' o.O.+.+.+.o.@.o o o   % - i i p #.( F O o 5 5 D ( T 1 @ X u y 5 5 5 ",
", @ 8 > q # w > = - m P d V   v 6 - 7 u u u 7 $.%.&.[ [ &.*.=.-.-.-.-.=.;.] ] ' :.>.,.<.1.2.3.4.5.u u 6.6.I ( T 1 R -  .1 5 5 5 ",
"w > > > > > > > > > > > u t o o t g q @ o o o %.7.+.O.+.+.=.8.-.-.-.-.8.=.O.O.9.0.q.w.e.r.t.t.y.u.5 W i.i.i.i.T 1 1 1 1 1 p.p.5 ",
"a.~ > > > > e - = > > > u t o o % - 7 t o } %.s.=.-.-.-.-.-.-.-.-.-.-.-.-.-.-.d.f.g.d.h.j.k.k.l.z.x.c.v.v.v.v.P 1 1 1 1 1 1 p.5 ",
"$ p.w > > > V o , > > > u t       o o     { 7.=.8.-.-.-.-.-.-.-.-.-.-.-.-.-.-.b.d.d.b.j.n.m.m.M.N.B.V.1 1 1 1 1 1 1 1 1 1 1 1 5 ",
"* p.m q R u v o @ 7 = = 7 , : f   t v r   [ +.-.-.h.j.k.k.k.k.j.h.-.-.h.j.j.h.-.-.-.-.j.n.C.Z.C.A.S.D.F.G.5 1 1 1 1 1 1 1 1 1 5 ",
"p.p.5 5 - % o o         , # # , @ m * n   ] O.-.-.j.n.m.m.m.m.n.j.-.-.j.n.n.j.-.-.-.-.h.j.A.C.Z.C.H.S.B.4.J.5 1 1 E E 5 1 5 5 d ",
"~ ~ i 5 - % o o     r : 7 h # , @ m * 7 : K.O.-.-.k.m.L.L.L.L.C.A.k.k.A.C.m.k.-.-.-.-.-.-.j.n.C.Z.C.A.S.D.P.I.W P 5 d d 1 5 5 5 ",
"o X m d n   o o o o 7 d 5 E # , @ m 5 5 * U.O.-.-.k.m.L.L.L.L.Z.C.m.m.C.Z.m.k.-.-.-.-.-.-.h.j.A.C.Z.C.H.S.Y.q.F ( b r 0 d E E 5 ",
"  o b # V o   % % % u d 5 E # - , m 5 5 d U.O.h.j.A.C.L.L.Z.C.m.m.C.Z.L.L.C.A.j.h.-.-.-.-.-.-.j.n.C.Z.m.k.T.R.S l > r 0 d z E 5 ",
"5 5   X X X = d 5 5 5 5 5 5 5 5 5 5 5 5 5 R.e.j.n.C.Z.L.L.C.A.k.k.A.C.L.L.Z.C.n.j.-.-.-.-.-.-.h.j.A.C.m.k.e.1.-       8 y d d 5 ",
"5 5 % X X X = d 5 5 5 5 5 5 5 5 5 5 5 I.q.E.N.W.Q.m.m.m.m.n.j.-.-.j.n.m.m.m.m.Q.W.j.h.-.-.-.-.-.-.k.m.m.k.e.1.-       8 y d d 5 ",
"5 5 p.p.@ O = d 5 5 5 5 5 5 5 5 5 5 5 q.!.N.M.Q.W.k.k.k.k.j.h.-.-.h.j.k.k.k.k.W.Q.n.j.-.-.-.-.-.-.k.m.m.k.e.1.q > ~.E d d d d d ",
"5 5 p.p.@ O = d 5 5 5 5 5 5 5 5 5 5 5 R.e.k.m.C.A.j.h.-.-.h.j.k.k.j.h.-.-.h.j.A.C.m.k.-.-.-.-.-.-.k.m.m.k.e.1.~ > d E i d d d d ",
"5 5 d d @ O = d 5 5 5 d d d b r % w d ^.O.k.m.Z.C.n.j.-.-.j.n.m.m.n.j.-.-.j.n.C.Z.m.k.-.-.-.-.-.-.k.m.m.k.+.] O O - > @   o o n ",
"5 5 d d @ O = d 5 5 d d d d > % + /.(.)._.j.n.C.Z.C.A.k.k.W.Q.m.m.Q.W.k.k.A.C.Z.C.n.j.-.-.-.-.-.-.k.m.m.k.+.`.X X 6 > : . X X @ ",
"5 5 p.p.q g # d b '.^ d d d * j = ].[.d.b.h.j.A.C.Z.C.m.m.Q.W.k.k.W.Q.m.m.C.Z.C.A.j.h.-.-.-.-.-.-.k.m.m.k.{.}.> 0 # * b 0 > ^ m ",
"5 5 p.p.p.p.d |. X.X^.XXoXR.R.R.OX+X=.-.-.-.-.j.n.C.Z.Z.C.Q.W.k.k.W.Q.C.Z.Z.C.n.j.-.-.-.-.-.-.-.-.k.m.m.k.@X<.d d 5 p d d i z 5 ",
"5 5 d d d d d (.#XO.@Xe.e.{.{.$Xe.d.b.-.-.-.-.h.j.A.C.C.A.W.Q.m.m.Q.W.A.C.C.A.j.h.-.-.-.-.-.-.-.-.k.m.m.k.e.oX# m ~ ~ d 5 p p p ",
"5 5 d d d d d oX@Xh.j.k.k.k.k.k.k.k.k.k.k.j.h.h.j.A.C.m.k.j.n.m.m.n.j.k.m.C.A.j.h.h.j.k.k.k.k.k.k.A.C.C.A.N.%XOX> > > * p p p p ",
"5 5 d d d d d oXe.j.n.m.m.m.m.m.m.m.m.m.m.n.j.j.n.C.Z.m.k.h.j.k.k.j.h.k.m.Z.C.n.j.j.n.m.m.m.m.m.m.C.Z.Z.C.M.N.@X> m m d p p 5 p ",
"5 5 d d d d d oXe.k.m.L.L.L.L.Z.C.m.m.C.Z.m.k.k.m.L.L.m.k.-.-.-.-.-.-.k.m.L.L.m.k.j.n.m.m.m.m.m.m.m.m.m.m.n.j.-.> # y 5 p 5 5 p ",
"5 5 d d d d d oXe.k.m.L.L.L.L.C.A.k.k.A.C.m.k.k.m.L.L.m.k.-.-.-.-.-.-.k.m.L.L.m.k.h.j.k.k.k.k.k.k.k.k.k.k.j.h.-.# d 5 5 5 p p 5 ",
"5 5 d d d d d oXe.k.m.L.L.L.L.m.k.-.-.k.m.m.k.k.m.L.L.m.k.-.-.-.-.-.-.k.m.L.L.m.k.h.j.k.k.j.h.h.j.k.k.j.h.8.=.@Xi p p 5 5 p p 5 ",
"d d d d d d d oXe.k.m.L.L.L.L.m.k.-.-.k.m.m.k.k.m.L.L.m.k.-.-.-.-.-.-.k.m.L.L.m.k.j.n.m.m.n.j.j.n.m.m.n.j.=.&X*Xp 5 p.5 5 5 p.d ",
"d d d d d d d oXe.k.m.L.L.L.L.m.k.-.-.k.m.m.k.j.n.C.Z.C.A.k.k.k.k.k.k.A.C.Z.C.n.j.k.m.L.L.m.k.k.m.L.L.m.k.O.`.w p * q d p * q # ",
"d d d d d d d oXe.k.m.L.L.L.L.m.k.-.-.k.m.m.k.h.j.A.C.Z.C.m.m.m.m.m.m.C.Z.C.A.j.h.k.m.L.L.m.k.k.m.L.L.m.k.=X-Xq p > u # 5 * q h ",
"d d d d d d d oXe.k.m.L.L.L.L.m.k.-.-.k.m.m.k.-.-.j.n.m.m.m.m.m.m.m.m.m.m.n.j.-.-.j.n.m.m.n.j.k.m.L.L.m.k.=X;X* p _ % > 5 5 * 5 ",
"d d d d d d d oXe.k.m.L.L.L.L.m.k.-.-.k.m.m.k.-.-.h.j.k.k.k.k.k.k.k.k.k.k.j.h.-.-.h.j.k.k.j.h.k.m.L.L.m.k.=XU.w ~ c . = * d d i ",
"d d d d d d d (.:XN.M.C.Z.L.L.m.k.h.j.W.Q.n.j.-.-.-.-.-.-.-.-.-.-.-.-.-.-.-.-.-.-.-.-.-.-.h.j.A.C.Z.C.M.>X9.' r r O X 7 q m m # ",
"d d d d d d d |.(.%XN.A.C.L.L.m.k.j.n.Q.W.j.h.-.-.-.-.-.-.-.-.-.-.-.-.-.-.-.-.-.-.-.-.-.-.j.n.C.Z.C.A.,X<X' 1XX X o   6 ) > > m ",
"d d d d d d d d d (.:XN.M.C.Z.C.A.W.Q.Q.W.j.h.-.-.-.-.-.-.-.-.-.-.-.-.-.-.-.-.-.-.h.j.j.h.j.n.m.m.2X3X4X5X. X X X - > - t u q # ",
"d d d d d d d d d |.(.%XN.A.C.Z.C.Q.W.W.Q.n.j.-.-.-.-.-.-.-.-.-.-.-.-.-.-.-.-.-.-.j.n.n.j.h.j.k.k.3X6X{ 1XX X X X 7 b 6   6 j q ",
"d d d d d d d d d d d (.:XN.M.m.m.Q.W.W.Q.n.j.-.-.-.-.-.-.-.-.-.-.-.-.-.-.-.-.-.-.j.n.Q.W.j.h.b.d.7X{ X X X X X X r t 6 8X) q q ",
"d d d d d d d d d d d |.(.%XN.k.k.W.Q.Q.W.j.h.-.-.-.-.-.-.-.-.-.-.-.-.-.-.-.-.-.-.h.j.W.Q.n.j.9X0X{ 1XX X X X X X X X 6 & q q q ",
"d d d d d d d d d d d d d (.:Xd.qXk.m.C.A.k.k.k.k.j.h.-.-.-.-.-.-.-.-.-.-.h.j.k.k.k.k.A.C.m.k.e.wXX X X X X X . . Y Y   : = # # ",
"* * * * d d 5 5 z z d d d |.(.g.d.k.m.Z.C.m.m.m.m.n.j.-.-.-.-.-.-.-.-.-.-.j.n.m.m.m.m.C.Z.m.k.e.OXX X X X X X     3 eXeXeXn # # ",
"* * * * d d 5 5 5 z d d d d d (.:XN.M.m.m.m.m.m.m.n.j.-.-.-.-.-.-.-.-.-.-.j.n.m.m.m.m.m.m.2XrXtXyX. . X X X X @ , . uXiXpXn 7 0 ",
"d d d d 5 5 5 5 5 5 d d d d d aX(.sXN.k.k.k.k.k.k.j.h.-.-.-.-.-.-.-.-.-.-.h.j.k.k.k.k.k.k.N.sXdXfX    X X X X u q t X B k - O @ ",
"h h d d d 5 5 5 5 5 d d d d k ^ 0 OXe.-.-.-.-.-.-.-.-.-.-.-.-.-.-.-.-.-.-.-.-.-.-.-.-.-.-.@XU.eXeXgXgXX X X X = h @ X 7 m 6 O % ",
"q q * * * * * * d d d d d * > r r ^ z z z z hX8 X X X t R > > m d 5 * * * * * # _ . : w =   iXeXeXeXeX< < X X w 5 , . 6 j @ . X ",
"q ~ = 7 b * * * d d d d d d m 7 - # hXm 8 8 8 V X o t - j q q h 1 5 * * * * q = 7 6 u # 0   J eXeXeXeXuXuX< X 7 0 , @ 6 6 r X X ",
"~ * jXkX9 # d d d d d d d d d y d 5 * 6 o o o X X t 8 j h * * * 5 5 * * * * 7 f = * d 5 m   J eXeXeXeXeXeX< < . O lX> @ o X X X ",
"# * N zXg * * d d d d d d d i d d i * 7 t t ;   X t > w # # # # h * * # w 9 : + = 5 5 5 # - : eXeXeXeXpXpXY uX< X @ 6 % X X X O ",
"# * ~ ~ * * * * d 5 d * d 5 i i d d d > 8 8 = @ X t > > > > > > > w # # : gX. + = 5 5 5 5 * > eXeXeXxX* * cXeX< < X O X X X X @ ",
"w w * * * * * * 5 5 * * * 5 p i d d y > = u u 6 % @ > > > > > > > w # ~ : gXgX+ = 5 5 5 5 5 m eXeXeXxX$ $ cXeXY . X Y X X X X : ",
"  % ~ * 5 5 * * * * d d d d d d d d # - %   % , b w > > > > > > > w * i ~ = N + = 5 5 5 5 5 m eXeXeXeX    xXeX7 a.f xXY X X X O ",
"X X > ~ d 5 * * * * d d d d d d d # m vX;   % n # w = = = 8 > w w q i p p.~ , + 7 * d 5 5 * 0 eXeXeXeX< < uXeX= $ f bXkXX X X X ",
"X X r r > d * * * d * * d 5 i d # u V = > > > B nXf % % % , q $ * i 5 5 5 * , .   : = 5 # : r uXuXuXuX< < < uX+ r Y eXkXX X X X ",
"X X X X 7 b # ~ # # # * * 5 i # ^ v % & * * d 9 Y X X O o @ w mX* p.5 5 5 * , X O   7 5 m   + < < < < < < X . . . xXuXY Y X X X ",
"O X X X % : @ @ @ @ 8 # d i # 7 t ; % & * * * 9 X X o r - - 6 6 @ - # 5 5 * , X @ > m 1 h > u < < MXMX< < - g & &   Y < uXY X t "
};
