/* XPM */
static char *result[] = {
/* columns rows colors chars-per-pixel */
"64 64 243 2 ",
"   c #DBA46E",
".  c #DAA36D",
"X  c #DAA36C",
"o  c #DBA46D",
"O  c #DAA46D",
"+  c #DAA46E",
"@  c #DCA670",
"#  c #DFAA76",
"$  c #DFAA77",
"%  c #DBA56E",
"&  c #DDA974",
"*  c #DFAB77",
"=  c #DDA873",
"-  c #DDA771",
";  c #DCA56E",
":  c #DCA570",
">  c #DEA974",
",  c #DCA671",
"<  c #D9A26B",
"1  c #E0AC77",
"2  c #DFAB75",
"3  c #D9A26C",
"4  c #D9A36C",
"5  c #E0AC78",
"6  c #DCA771",
"7  c #DDA772",
"8  c #DEA873",
"9  c #DDA773",
"0  c #DEA874",
"q  c #DEAA75",
"w  c #DEA975",
"e  c #DEA872",
"r  c #DBA56F",
"t  c #DCA56F",
"y  c #E0AB76",
"u  c #DDA872",
"i  c #E0AB78",
"p  c #E0AC79",
"a  c #E0AA75",
"s  c #E4AF7D",
"d  c #E0AB77",
"f  c #DBA46F",
"g  c #DDA874",
"h  c #DFAB76",
"j  c #DEAA74",
"k  c #E0AA76",
"l  c #E5B17F",
"z  c #E1AC78",
"x  c #DCA770",
"c  c #DBA670",
"v  c #DCA66F",
"b  c #DFA975",
"n  c #DDA671",
"m  c #DFAA75",
"M  c #E2AD7A",
"N  c #DBA570",
"B  c #DEA772",
"V  c #DDA670",
"C  c #E1AE7A",
"Z  c #E1AE79",
"A  c #E3AE7C",
"S  c #E4B07D",
"D  c #E5B27F",
"F  c #E4B17E",
"G  c #E1AB78",
"H  c #E5B180",
"J  c #DBA36D",
"K  c #DFA976",
"L  c #E5B17E",
"P  c #E1AD79",
"I  c #E5B280",
"U  c #E2AD79",
"Y  c #DAA26C",
"T  c #E2AE7A",
"R  c #DEA973",
"E  c #E1AC79",
"W  c #E1AD78",
"Q  c #DDA871",
"!  c #CC9966",
"~  c #B28458",
"^  c #A47B52",
"/  c #A37A52",
"(  c #A37A51",
")  c #B28558",
"_  c #CD9A66",
"`  c #E3B07D",
"'  c #DEAA76",
"]  c #B18458",
"[  c #604830",
"{  c #37291C",
"}  c #37291B",
"|  c #DFA974",
" . c #E6B280",
".. c #E6B381",
"X. c #DDA973",
"o. c #DCA772",
"O. c #CE9C69",
"+. c #B28559",
"@. c #A47A52",
"#. c #A37951",
"$. c #7A5B3D",
"%. c #291F15",
"&. c black",
"*. c #7B5C3D",
"=. c #E3AF7D",
"-. c #DFAA74",
";. c #E4B07E",
":. c #E2AE7B",
">. c #B3875D",
",. c #0E0A07",
"<. c #E2AD7B",
"1. c #CF9D6B",
"2. c #7B5D3F",
"3. c #B4885D",
"4. c #D09E6D",
"5. c #D2A070",
"6. c #B78C62",
"7. c #AA835E",
"8. c #AB845E",
"9. c #AC8661",
"0. c #AB855F",
"q. c #B3885D",
"w. c #E3AF7C",
"e. c #2A2016",
"r. c #624C34",
"t. c #B68C61",
"y. c #B68B61",
"u. c #634C36",
"i. c #3A2D20",
"p. c #392D20",
"a. c #624C35",
"s. c #B78C61",
"d. c #E6B380",
"f. c #DFAB78",
"g. c #DEA976",
"h. c #101010",
"j. c gray19",
"k. c gray25",
"l. c #382B1E",
"z. c #A88159",
"x. c #A8805A",
"c. c #5B5147",
"v. c #8F7255",
"b. c #B88F65",
"n. c #D5A574",
"m. c #E3B07C",
"M. c gray56",
"N. c gray75",
"B. c #9E9B97",
"V. c #5B5248",
"C. c white",
"Z. c gray81",
"A. c gray44",
"S. c #382B1D",
"D. c #A77F58",
"F. c #A88059",
"G. c #EFEFEF",
"H. c #5A5147",
"J. c #8E7154",
"K. c #D2A170",
"L. c #A47C53",
"P. c #A67F58",
"I. c #372A1D",
"U. c #A47B53",
"Y. c #A57C54",
"T. c #5A5047",
"R. c #8D7053",
"E. c #D3A271",
"W. c #A57D55",
"Q. c #9E9A97",
"!. c #5A5046",
"~. c #644E37",
"^. c #BB9169",
"/. c #8C6D50",
"(. c #594F45",
"). c #606060",
"_. c #9F9F9F",
"`. c #8C6D4F",
"'. c #7D6042",
"]. c #392C1F",
"[. c #AB845F",
"{. c #9D9A97",
"}. c #9D9A96",
"|. c #594F44",
" X c #291F14",
".X c #372A1C",
"XX c #A8815A",
"oX c #A67F57",
"OX c #E0AA77",
"+X c #A67E56",
"@X c #A37B52",
"#X c #CD9B67",
"$X c #B18559",
"%X c #7C5E40",
"&X c #2A1F15",
"*X c #DEA773",
"=X c #B48A5E",
"-X c #614A32",
";X c #0E0B07",
":X c #382A1D",
">X c #A67E57",
",X c #D1A070",
"<X c #A77E56",
"1X c #A67C54",
"2X c #A88058",
"3X c #7E6043",
"4X c #624B34",
"5X c #8C6F51",
"6X c #2A2017",
"7X c #7E6044",
"8X c #A8815B",
"9X c #604831",
"0X c #B2865A",
"qX c #8D7052",
"wX c #8A6B4C",
"eX c #CC9965",
"rX c #60482F",
"tX c #DCA872",
"yX c #0E0B08",
"uX c #A78058",
"iX c #D9A06B",
"pX c #614932",
"aX c #D9A16B",
"sX c #DBA36E",
"dX c #DCA470",
"fX c #D3A170",
"gX c #8D6F51",
"hX c #8E7053",
"jX c #B08257",
"kX c #CB9764",
"lX c #DAA26D",
"zX c #E1AC77",
"xX c #DAA36E",
"cX c #DAA16C",
"vX c #DCA871",
"bX c #DBA36F",
"nX c #D9A16C",
"mX c #DAA26E",
"MX c #DDA770",
"NX c #D9A06C",
"BX c #DCA46F",
"VX c #DEAA77",
"CX c #DAA26B",
/* pixels */
"  . X X X X X X . o O + O o @ # $ @ % & * * * = % - # = ;   o @ # # :   > * , X X . . X X < + 1 2 < < < < 3 4 > 5 5 5 6 O 7 * 5 ",
"o X X X X X X X @ 8 @ . . X   9 0 - @ 7 & q * w - 7 = , o o X ; e 8 r   7 8 t X X . . X O t @ > e < < < < < < - 8 y 5 , . u i p ",
"o X X X X X X X a s d f . o o O r g w @ % & * * # = o O X X o o o o X X O   . . . X X . r h j o O < < X X X X O o > 5 , 4 7 i p ",
"o X X X X X X X k l z f . o o X o 7 = x @ 7 & w * = X X X X o % r t o X r : f . . X X . r > e X X r r X X X X X X 6 & r 3 c g > ",
"o X X X X X X X k l z   . . . X X o r = w @   - * = o o X X X r > > v   8 b n o . . . X .   o X o 2 m X X X X < < X . 4 < 4 . . ",
"o X r c O X t 7 k M b   X . . X . % @ = = r X N > 7 @ t X X X % = = t ; 0 $ 8 @   . r B V X o B 8 C Z X X X X X < < < < < . % r ",
"o X > # @ X a A d - % X X o o o % = > @ %   o   % , q 7 O X X .     o ; 0 i $ b , X u S z < r S S D F < < X X X X X X < < @ w m ",
"O X w * @ . G H d r . X X o o o ; = > t X J o X X @ q = O X X X X X o ; 8 $ $ K , X e L P < r L l I D X X X X o o o o O . 7 m * ",
"X X t @   X G H U 8 v o o X X X X   r o o X X Y X   , t X X X X X . o o v V V @ ; o t 8 - X O 8 > T T R R O 4 - > > > > R 6 r 7 ",
"X X X X . o d s E > x o o X X < < < < o   X Y Y X .   J X X X X . . o o o o o o o o o % % % % % @ W z h h r X > 5 1 1 1 1 Q O @ ",
"X X X X , 8 R > - v % O X o o X X X . 6 =   Y X o J . ! ~ ^ ^ ^ ^ ^ / ( ^ ) _ o o o - P P P P P M S ` @ @ u u h 1 5 5 1 1 m R j ",
"X X . o 0 d u   . X o   % o o % o X   & ' c X o   J Y ] [ { { { } } } } } [ ) o o o | I I I  .....l F X X 2 5 1 1 d * 1 1 1 1 1 ",
"X X @ , b 5 > - r o 7 d m v % @ @ % % & h X.o.O.+.@.#.$.%.&.&.&.&.&.&.&.&.%.*.) _ o e A A A =...D m m u u T ` P 1 = 6 -.1 1 1 1 ",
"  . = > h d # > - t k ;.:.- ; 7 u v t & h h ' >.[ } } %.,.&.&.&.&.&.&.&.&.,.%.[ +.% - i i p <...F O o 5 5 D ..T 1 @ X u y 5 5 5 ",
", @ 8 > q # w > = - m P d V   v 6 - 7 u u 1.>.2.%.&.&.&.&.&.&.&.&.&.&.&.&.&.&.%.2.3.4.5.6.7.8.9.0.q.1.w.w.I ..T 1 R - -.1 5 5 5 ",
"w > > > > > > > > > > > u t o o t g q @ o ) [ %.,.&.&.&.&.&.&.&.&.&.&.&.&.&.&.,.e.r.t.y.u.i.i.i.p.a.s.d.d.d.d.T 1 1 1 1 1 f.f.5 ",
"g.' > > > > e - = > > > u t o o % - 7 t o ^ } &.&.h.j.k.k.k.k.j.h.h.j.k.k.j.h.&.&.l.z.x.l.h.j.k.k.c.v.b.n.m.m.P 1 1 1 1 1 1 f.5 ",
"$ f.w > > > V o , > > > u t       o o     / } &.&.j.M.N.N.N.N.M.j.j.M.N.N.M.j.&.&.l.z.x.l.j.M.N.N.B.V.r.t.1 1 1 1 1 1 1 1 1 1 5 ",
"* f.m q R u v o @ 7 = = 7 , : f   t v r   / } &.&.k.N.C.C.C.C.Z.A.A.Z.C.C.N.k.&.&.S.D.F.l.j.M.Z.G.Z.A.H.J.t.K.1 1 1 1 1 1 1 1 5 ",
"f.f.5 5 - % o o         , # # , @ m * n   ^ { &.&.k.N.C.C.C.C.G.Z.Z.G.C.C.N.k.&.&.} L.P.I.h.j.A.Z.G.Z.B.V.u.t.1 1 E E 5 1 5 5 d ",
"' ' i 5 - % o o     r : 7 h # , @ m * 7 : U.{ h.j.A.Z.C.C.G.Z.N.N.Z.G.C.C.Z.A.j.h.} Y.P.I.&.&.j.M.Z.G.Z.A.T.R.s.E.5 d d 1 5 5 5 ",
"o X m d n   o o o o 7 d 5 E # , @ m 5 5 * W.{ j.M.Z.G.C.C.Z.A.k.k.A.Z.C.C.G.Z.M.j.{ W.z.l.&.&.h.j.A.Z.G.Z.Q.!.~.^.b r 0 d E E 5 ",
"  o b # V o   % % % u d 5 E # - , m 5 K.y./.(.)._.N.N.N.N.M.j.&.&.j.M.N.N.N.N._.).(.`.'.e.&.&.&.&.j.M.Z.G.N.k.].[.> r 0 d z E 5 ",
"5 5   X X X = d 5 5 5 5 5 5 5 5 5 5 5 t.a.!.{._.).k.k.k.k.j.h.&.&.h.j.k.k.k.k.)._.}.|. X,.&.&.&.&.h.j.A.Z.N.k..X^     8 y d d 5 ",
"5 5 % X X X = d 5 5 5 5 5 5 5 5 5 5 5 XXl.k.N.Z.A.j.h.&.&.h.j.k.k.j.h.&.&.h.j.A.Z.N.k.&.&.&.&.&.&.&.&.k.N.N.k..X^     8 y d d 5 ",
"5 5 f.f.@ O = d 5 5 5 5 5 5 5 5 5 5 5 XXl.k.N.G.Z.M.j.&.&.j.M.N.N.M.j.&.&.j.M.Z.G.N.k.&.&.&.&.&.&.&.&.k.N.N.k.S.oXOXE d d d d d ",
"5 5 f.f.@ O = d 5 5 5 5 5 5 5 5 5 5 5 XXl.j.M.Z.G.Z.A.k.k.)._.N.N._.).k.k.A.Z.G.Z.M.j.&.&.&.&.&.&.&.&.k.N.N.k.l.oXd E i d d d d ",
"5 5 d d @ O = d 5 5 5 d d d b r % w d +X{ h.j.A.Z.G.Z.N.N._.).k.k.)._.N.N.Z.G.Z.A.j.h.&.&.&.&.&.&.&.&.k.N.N.k.} @X- > @   o o n ",
"5 5 d d @ O = d 5 5 d d d d > #X$XoXF.%X&X&.&.j.M.Z.G.G.Z._.).k.k.)._.Z.G.G.Z.M.j.&.&.&.&.&.&.&.&.&.&.k.N.N.k.} ( 6 > : . X X @ ",
"5 5 f.f.q g # d b *X| d d d * =X-X.X.Xe.;X&.&.h.j.A.Z.Z.A.)._.N.N._.).A.Z.Z.A.j.h.&.&.&.&.&.&.&.&.&.&.k.N.N.k.:X>X# * b 0 > | m ",
"5 5 f.f.f.,Xy.F.<X1X+X2XF.XXXX3Xe.&.&.&.&.&.&.h.j.A.Z.N.k.j.M.N.N.M.j.k.N.Z.A.j.h.&.&.&.&.&.&.&.&.&.&.k.N.N.k.l.F.5 p d d i z 5 ",
"5 5 d d d y.4Xl.:X{ :Xl.l.I.I.e.;X&.&.&.&.&.&.j.M.Z.G.N.k.h.j.k.k.j.h.k.N.G.Z.M.j.&.&.&.&.&.&.&.&.&.&.k.N.N.k.l.D.' ' d 5 p p p ",
"5 5 d d d F.l.h.j.k.k.k.k.k.k.k.k.k.k.j.h.&.&.k.N.C.C.Z.A.j.h.&.&.h.j.A.Z.C.C.N.k.&.&.h.j.k.k.k.k.k.k.A.Z.Z.A.!.5XoX> * p p p p ",
"5 5 d d d F.l.j.M.N.N.N.N.N.N.N.N.N.N.M.j.&.&.k.N.C.C.G.Z.M.j.&.&.j.M.Z.G.C.C.N.k.&.&.j.M.N.N.N.N.N.N.Z.G.G.Z.{.!.S.m d p p 5 p ",
"5 5 d d d F.l.k.N.C.C.C.C.G.Z.N.N.Z.G.N.k.&.&.j.M.N.N.Z.G.Z.A.k.k.A.Z.G.Z.N.N.M.j.&.&.j.M.N.N.N.N.N.N.N.N.N.N.M.j.&.y 5 p 5 5 p ",
"5 5 d d d F.l.k.N.C.C.C.C.Z.A.k.k.A.Z.N.k.&.&.h.j.k.k.A.Z.G.Z.N.N.Z.G.Z.A.k.k.j.h.&.&.h.j.k.k.k.k.k.k.k.k.k.k.j.h.&.5 5 5 p p 5 ",
"5 5 d d d F.l.k.N.C.C.C.C.N.k.&.&.k.N.N.k.&.&.&.&.&.&.j.M.N.N.N.N.N.N.M.j.&.&.&.&.&.&.h.j.k.k.j.h.h.j.k.k.j.h.;X6Xl.p 5 5 p p 5 ",
"d d d d d F.l.k.N.C.C.C.C.N.k.&.&.k.N.N.k.&.&.&.&.&.&.h.j.k.k.k.k.k.k.j.h.&.&.&.&.&.&.j.M.N.N.M.j.j.M.N.N.M.j.e.7XXXf.5 5 5 f.d ",
"d d d d d F.l.k.N.C.C.C.C.N.k.&.&.k.N.N.k.&.&.&.&.&.&.&.&.&.&.&.&.&.&.&.&.&.&.&.&.&.&.k.N.C.C.N.k.k.N.C.C.N.k.:X8X* q d p * q # ",
"d d d d d F.l.k.N.C.C.C.C.N.k.&.&.k.N.N.k.&.&.&.&.&.&.&.&.&.&.&.&.&.&.&.&.&.&.&.&.&.&.k.N.C.C.N.k.k.N.C.C.N.k.S.8X> u # 5 * q h ",
"d d d d d F.l.k.N.C.C.C.C.N.k.&.&.k.N.N.k.&.&.&.&.&.&.&.&.&.&.&.&.&.&.&.&.&.&.&.&.&.&.j.M.N.N.M.j.k.N.C.C.N.k.l.8Xo.% > 5 5 * 5 ",
"d d d d d F.l.k.N.C.C.C.C.N.k.&.&.k.N.N.k.&.&.&.&.&.&.&.&.&.&.&.&.&.&.&.&.&.&.&.&.&.&.h.j.k.k.j.h.k.N.C.C.N.k.:XP.c . = * d d i ",
"d d d d d y.4X!.{.Z.G.C.C.N.k.h.j.)._.M.j.&.&.&.&.&.&.&.&.&.&.&.&.&.&.&.&.&.&.&.&.&.&.&.&.&.&.h.j.A.Z.G.Z.}.(.9X0XO X 7 q m m # ",
"d d d d d 5.y.qX!.A.Z.C.C.N.k.j.M._.).j.h.&.&.&.&.&.&.&.&.&.&.&.&.&.&.&.&.&.&.&.&.&.&.&.&.&.&.j.M.Z.G.Z.A.(.wX] eXo   6 X.> > m ",
"d d d d d d d y.4X!.{.Z.G.Z.A.)._.M.j.h.j.k.k.k.k.j.h.&.&.&.&.&.&.&.&.&.&.h.j.k.k.k.k.j.h.&.&.j.M.N.N.}.(.[ ] X X - > - t u q # ",
"d d d d d d d 5.y.qX!.A.Z.G.Z._.).j.h.j.M.N.N.N.N.M.j.&.&.&.&.&.&.&.&.&.&.j.M.N.N.N.N.M.j.&.&.h.j.k.k.|.wX] eXX X 7 b 6   6 j q ",
"d d d d d d d d d y.4X!.{.N.N.M.j.h.j.)._.N.N.N.N._.).j.h.&.&.&.&.&.&.h.j.)._.N.N.N.N._.).j.h.;Xe.} } rX] X X X X r t 6 tXX.q q ",
"d d d d d d d d d 5.y.qX!.k.k.j.h.j.M._.).k.k.k.k.)._.M.j.&.&.&.&.&.&.j.M._.).k.k.k.k.)._.M.j.6X'.( ( ] eXX X X X X X 6 & q q q ",
"d d d d d d d d d d d y.4Xl.l.e.yXk.N.Z.A.k.k.k.k.A.Z.N.k.&.&.&.&.&.&.k.N.Z.A.k.k.k.k.A.Z.N.k.l.uXX X X X X X . . Y Y   : = # # ",
"* * * * d d 5 5 z z d 5.y.F.F.3Xe.k.N.G.Z.N.N.N.N.Z.G.N.k.&.&.&.&.&.&.k.N.G.Z.N.N.N.N.Z.G.N.k.l.D.X X X X X X     3 iXiXiXn # # ",
"* * * * d d 5 5 5 z d d d d d y.4X!.{.N.N.N.N.N.N.N.N.{.!.l.l.l.l.l.l.!.{.N.N.N.N.N.N.N.N.}.(.pX>.. . X X X X @ , . aXsXdXn 7 0 ",
"d d d d 5 5 5 5 5 5 d d d d d fXy.gX!.k.k.k.k.k.k.k.k.!.hX2XoXoXoXoXoX5X!.k.k.k.k.k.k.k.k.!.gXjXkX    X X X X u q t X B k - O @ ",
"h h d d d 5 5 5 5 5 d d d d k | 0 D.l.&.&.&.&.&.&.&.&.:X2Xm > w # # q D.l.&.&.&.&.&.&.&.&.:XW.iXiXlXlXX X X X = h @ X 7 m 6 O % ",
"q q * * * * * * d d d d d * > r r | z z z z zX8 X X X t R > > m d 5 * * * * * # o.. : w =   sXiXiXiXiX< < X X w 5 , . 6 j @ . X ",
"q ' = 7 b * * * d d d d d d m 7 - # zXm 8 8 8 V X o t - j q q h 1 5 * * * * q = 7 6 u # 0   J iXiXiXiXaXaX< X 7 0 , @ 6 6 r X X ",
"' * xXcX9 # d d d d d d d d d y d 5 * 6 o o o X X t 8 j h * * * 5 5 * * * * 7 f = * d 5 m   J iXiXiXiXiXiX< < . O vX> @ o X X X ",
"# * N bXg * * d d d d d d d i d d i * 7 t t ;   X t > w # # # # h * * # w 9 : + = 5 5 5 # - : iXiXiXiXdXdXY aX< X @ 6 % X X X O ",
"# * ' ' * * * * d 5 d * d 5 i i d d d > 8 8 = @ X t > > > > > > > w # # : lX. + = 5 5 5 5 * > iXiXiXnX* * mXiX< < X O X X X X @ ",
"w w * * * * * * 5 5 * * * 5 p i d d y > = u u 6 % @ > > > > > > > w # ' : lXlX+ = 5 5 5 5 5 m iXiXiXnX$ $ mXiXY . X Y X X X X : ",
"  % ' * 5 5 * * * * d d d d d d d d # - %   % , b w > > > > > > > w * i ' = N + = 5 5 5 5 5 m iXiXiXiX    nXiX7 g.f nXY X X X O ",
"X X > ' d 5 * * * * d d d d d d d # m MX;   % n # w = = = 8 > w w q i p f.' , + 7 * d 5 5 * 0 iXiXiXiX< < aXiX= $ f NXcXX X X X ",
"X X r r > d * * * d * * d 5 i d # u V = > > > B BXf % % % , q $ * i 5 5 5 * , .   : = 5 # : r aXaXaXaX< < < aX+ r Y iXcXX X X X ",
"X X X X 7 b # ' # # # * * 5 i # | v % & * * d 9 Y X X O o @ w VX* f.5 5 5 * , X O   7 5 m   + < < < < < < X . . . nXaXY Y X X X ",
"O X X X % : @ @ @ @ 8 # d i # 7 t ; % & * * * 9 X X o r - - 6 6 @ - # 5 5 * , X @ > m 1 h > u < < CXCX< < - g & &   Y < aXY X t "
};
