/* XPM */
static char *result[] = {
/* columns rows colors chars-per-pixel */
"64 64 240 2 ",
"   c #DBA46E",
".  c #DAA36D",
"X  c #DAA36C",
"o  c #DBA46D",
"O  c #DAA46D",
"+  c #DAA46E",
"@  c #DCA670",
"#  c #DFAA76",
"$  c #DFAA77",
"%  c #DBA56E",
"&  c #DDA974",
"*  c #DFAB77",
"=  c #DDA873",
"-  c #DDA771",
";  c #DCA56E",
":  c #DCA570",
">  c #DEA974",
",  c #DCA671",
"<  c #D9A26B",
"1  c #E0AC77",
"2  c #DFAB75",
"3  c #D9A26C",
"4  c #D9A36C",
"5  c #E0AC78",
"6  c #DCA771",
"7  c #DDA772",
"8  c #DEA873",
"9  c #DDA773",
"0  c #DEA874",
"q  c #DEAA75",
"w  c #DEA975",
"e  c #DEA872",
"r  c #DBA56F",
"t  c #DCA56F",
"y  c #E0AB76",
"u  c #DDA872",
"i  c #E0AB78",
"p  c #E0AC79",
"a  c #E0AA75",
"s  c #E4AF7D",
"d  c #E0AB77",
"f  c #DBA46F",
"g  c #DDA874",
"h  c #DFAB76",
"j  c #DEAA74",
"k  c #E0AA76",
"l  c #E5B17F",
"z  c #E1AC78",
"x  c #DCA770",
"c  c #DBA670",
"v  c #DCA66F",
"b  c #DFA975",
"n  c #DDA671",
"m  c #DFAA75",
"M  c #E2AD7A",
"N  c #DBA570",
"B  c #DEA772",
"V  c #DDA670",
"C  c #E1AE7A",
"Z  c #E1AE79",
"A  c #E3AE7C",
"S  c #E4B07D",
"D  c #E5B27F",
"F  c #E4B17E",
"G  c #E1AB78",
"H  c #E5B180",
"J  c #DBA36D",
"K  c #DFA976",
"L  c #E5B17E",
"P  c #E1AD79",
"I  c #E5B280",
"U  c #E2AD79",
"Y  c #DAA26C",
"T  c #E2AE7A",
"R  c #DEA973",
"E  c #E1AC79",
"W  c #E1AD78",
"Q  c #DDA871",
"!  c #E3B07D",
"~  c #DEAA76",
"^  c #DFA974",
"/  c #E6B280",
"(  c #E6B381",
")  c #DDA973",
"_  c #DCA772",
"`  c #E3AF7D",
"'  c #DFAA74",
"]  c #E4B07E",
"[  c #E2AE7B",
"{  c #E2AD7B",
"}  c #D2A070",
"|  c #B78C62",
" . c #AA835E",
".. c #AB845E",
"X. c #AC8661",
"o. c #AB855F",
"O. c #B3885D",
"+. c #CF9D6B",
"@. c #E3AF7C",
"#. c #B68B61",
"$. c #634C36",
"%. c #3A2D20",
"&. c #392D20",
"*. c #624C35",
"=. c #B78C61",
"-. c #E6B380",
";. c #DFAB78",
":. c #DEA976",
">. c #CD9966",
",. c #B18458",
"<. c #A47A52",
"1. c #A47B52",
"2. c #A37A52",
"3. c #A57C54",
"4. c #B4885D",
"5. c #D19F6E",
"6. c #A8805A",
"7. c #382B1E",
"8. c #101010",
"9. c gray19",
"0. c gray25",
"q. c #5B5147",
"w. c #8F7255",
"e. c #B88F65",
"r. c #D5A574",
"t. c #E3B07C",
"y. c #604830",
"u. c #37291C",
"i. c #37291B",
"p. c #382A1D",
"a. c #624C34",
"s. c #B68C61",
"d. c gray56",
"f. c gray75",
"g. c #9E9B97",
"h. c #5B5248",
"j. c #CC9966",
"k. c #7A5B3D",
"l. c #291F15",
"z. c black",
"x. c #2A2016",
"c. c #7D5F42",
"v. c #B58A5E",
"b. c #A88059",
"n. c gray81",
"m. c #EFEFEF",
"M. c gray44",
"N. c #5A5147",
"B. c #8E7154",
"V. c #D2A170",
"C. c #B28559",
"Z. c #0E0A07",
"A. c #60482F",
"S. c #B2865A",
"D. c #A67F58",
"F. c #372A1D",
"G. c #A47B53",
"H. c #5A5047",
"J. c #8D7053",
"K. c #D3A271",
"L. c #A57D55",
"P. c #A88159",
"I. c #9E9A97",
"U. c #5A5046",
"Y. c #644E37",
"T. c #BB9169",
"R. c white",
"E. c #A57C55",
"W. c #A78058",
"Q. c #392C1F",
"!. c #AB845F",
"~. c #A8815A",
"^. c #A37A51",
"/. c #372A1C",
"(. c #A67F56",
"). c #382B1D",
"_. c #A67F57",
"`. c #E0AA77",
"'. c #606060",
"]. c #9F9F9F",
"[. c #8C6F50",
"{. c #614831",
"}. c #594F45",
"|. c #9D9A96",
" X c #9D9A97",
".X c #291F14",
"XX c #A37B52",
"oX c #CD9B67",
"OX c #B18559",
"+X c #7C5E40",
"@X c #2A1F15",
"#X c #DEA773",
"$X c #B48A5E",
"%X c #614A32",
"&X c #0E0B07",
"*X c #A67E57",
"=X c #D1A070",
"-X c #A77E56",
";X c #A67C54",
":X c #A67E56",
">X c #A88058",
",X c #7E6043",
"<X c #624B34",
"1X c #A77F58",
"2X c #8C6F51",
"3X c #2A2017",
"4X c #7E6044",
"5X c #A8815B",
"6X c #604831",
"7X c #8D7052",
"8X c #8A6B4C",
"9X c #CC9965",
"0X c #594F44",
"qX c #DCA872",
"wX c #7D6042",
"eX c #0E0B08",
"rX c #D9A06B",
"tX c #614932",
"yX c #B3875D",
"uX c #D9A16B",
"iX c #DBA36E",
"pX c #DCA470",
"aX c #D3A170",
"sX c #8D6F51",
"dX c #8E7053",
"fX c #B08257",
"gX c #CB9764",
"hX c #DAA26D",
"jX c #E1AC77",
"kX c #DAA36E",
"lX c #DAA16C",
"zX c #DCA871",
"xX c #DBA36F",
"cX c #D9A16C",
"vX c #DAA26E",
"bX c #DDA770",
"nX c #D9A06C",
"mX c #DCA46F",
"MX c #DEAA77",
"NX c #DAA26B",
/* pixels */
"  . X X X X X X . o O + O o @ # $ @ % & * * * = % - # = ;   o @ # # :   > * , X X . . X X < + 1 2 < < < < 3 4 > 5 5 5 6 O 7 * 5 ",
"o X X X X X X X @ 8 @ . . X   9 0 - @ 7 & q * w - 7 = , o o X ; e 8 r   7 8 t X X . . X O t @ > e < < < < < < - 8 y 5 , . u i p ",
"o X X X X X X X a s d f . o o O r g w @ % & * * # = o O X X o o o o X X O   . . . X X . r h j o O < < X X X X O o > 5 , 4 7 i p ",
"o X X X X X X X k l z f . o o X o 7 = x @ 7 & w * = X X X X o % r t o X r : f . . X X . r > e X X r r X X X X X X 6 & r 3 c g > ",
"o X X X X X X X k l z   . . . X X o r = w @   - * = o o X X X r > > v   8 b n o . . . X .   o X o 2 m X X X X < < X . 4 < 4 . . ",
"o X r c O X t 7 k M b   X . . X . % @ = = r X N > 7 @ t X X X % = = t ; 0 $ 8 @   . r B V X o B 8 C Z X X X X X < < < < < . % r ",
"o X > # @ X a A d - % X X o o o % = > @ %   o   % , q 7 O X X .     o ; 0 i $ b , X u S z < r S S D F < < X X X X X X < < @ w m ",
"O X w * @ . G H d r . X X o o o ; = > t X J o X X @ q = O X X X X X o ; 8 $ $ K , X e L P < r L l I D X X X X o o o o O . 7 m * ",
"X X t @   X G H U 8 v o o X X X X   r o o X X Y X   , t X X X X X . o o v V V @ ; o t 8 - X O 8 > T T R R O 4 - > > > > R 6 r 7 ",
"X X X X . o d s E > x o o X X < < < < o   X Y Y X .   J X X X X . . o o o o o o o o o % % % % % @ W z h h r X > 5 1 1 1 1 Q O @ ",
"X X X X , 8 R > - v % O X o o X X X . 6 =   Y X o J . . J o o o o o . X o o o o o o - P P P P P M S ! @ @ u u h 1 5 5 1 1 m R j ",
"X X . o 0 d u   . X o   % o o % o X   & ~ c X o   J Y .         o o X X o o o o o o ^ I I I / ( ( l F X X 2 5 1 1 d * 1 1 1 1 1 ",
"X X @ , b 5 > - r o 7 d m v % @ @ % % & h ) _ @   J Y .         o o . X o o o o o o e A A A ` ( D m m u u T ! P 1 = 6 ' 1 1 1 1 ",
"  . = > h d # > - t k ] [ - ; 7 u v t & h h ~ 7 o J Y .         . . o o o o o o   % - i i p { ( F O o 5 5 D ( T 1 @ X u y 5 5 5 ",
", @ 8 > q # w > = - m P d V   v 6 - 7 u u u 7 : J J . . J       . . o o o o o   @ e > } |  ...X.o.O.+.@.@.I ( T 1 R - ' 1 5 5 5 ",
"w > > > > > > > > > > > u t o o t g q @ o o o J Y .   J Y .   J Y Y J         t R 1 1 #.$.%.%.%.&.*.=.-.-.-.-.T 1 1 1 1 1 ;.;.5 ",
":.~ > > > > e - = > > > u t o o % - 7 t o o J >.,.<.1.<.2.2.1.2.2.2.2.1.1.1.3.4.5.1 1 6.7.8.9.0.0.q.w.e.r.t.t.P 1 1 1 1 1 1 ;.5 ",
"$ ;.w > > > V o , > > > u t       o o     . Y ,.y.u.u.u.u.u.i.i.i.i.i.i.u.u.p.a.s.1 1 6.7.9.d.f.f.g.h.a.s.1 1 1 1 1 1 1 1 1 1 5 ",
"* ;.m q R u v o @ 7 = = 7 , : f   t v r   j.,.k.l.z.z.z.z.z.z.z.z.z.z.z.z.z.z.x.c.v.5.b.7.9.d.n.m.n.M.N.B.s.V.1 1 1 1 1 1 1 1 5 ",
";.;.5 5 - % o o         , # # , @ m * n   C.y.l.Z.z.z.z.z.z.z.z.z.z.z.z.z.z.z.Z.l.A.S.D.F.8.9.M.n.m.n.g.h.$.s.1 1 E E 5 1 5 5 d ",
"~ ~ i 5 - % o o     r : 7 h # , @ m * 7 : G.u.z.z.8.9.0.0.0.0.9.8.z.z.8.9.9.8.z.z.i.3.D.F.z.z.9.d.n.m.n.M.H.J.=.K.5 d d 1 5 5 5 ",
"o X m d n   o o o o 7 d 5 E # , @ m 5 5 * L.u.z.z.9.d.f.f.f.f.d.9.z.z.9.d.d.9.z.z.u.L.P.7.z.z.8.9.M.n.m.n.I.U.Y.T.b r 0 d E E 5 ",
"  o b # V o   % % % u d 5 E # - , m 5 5 d L.u.z.z.0.f.R.R.R.R.n.M.0.0.M.n.f.0.z.z.u.E.W.7.z.z.z.z.9.d.n.m.f.0.Q.!.> r 0 d z E 5 ",
"5 5   X X X = d 5 5 5 5 5 5 5 5 5 5 5 5 5 ~.7.z.z.0.f.R.R.R.R.m.n.f.f.n.m.f.0.z.z.i.^.^.i.z.z.z.z.8.9.M.n.f.0./.1.    8 y d d 5 ",
"5 5 % X X X = d 5 5 5 5 5 5 5 5 5 5 5 5 5 ~.7.8.9.M.n.R.R.m.n.f.f.n.m.R.R.n.M.9.8.i.^.^.i.z.z.z.z.z.z.0.f.f.0./.1.    8 y d d 5 ",
"5 5 ;.;.@ O = d 5 5 5 5 5 5 5 5 5 5 5 5 5 ~.7.9.d.n.m.R.R.n.M.0.0.M.n.R.R.m.n.d.9.7.(.^.u.z.z.z.z.z.z.0.f.f.0.)._.`.E d d d d d ",
"5 5 ;.;.@ O = d 5 5 5 5 5 5 5 5 5 5 5 V.s.J.U.'.].f.f.f.f.d.9.z.z.9.d.f.f.f.f.].'.U.[.k.l.z.z.z.z.z.z.0.f.f.0.7._.d E i d d d d ",
"5 5 d d @ O = d 5 5 5 d d d b r % w d 4.{.}.|.].'.0.0.0.0.9.8.z.z.8.9.0.0.0.0.'.]. XU..XZ.z.z.z.z.z.z.0.f.f.0.i.XX- > @   o o n ",
"5 5 d d @ O = d 5 5 d d d d > oXOX_.b.+X@X0.f.n.M.9.8.z.z.8.9.0.0.9.8.z.z.8.9.M.n.f.0.z.z.z.z.z.z.z.z.0.f.f.0.i.^.6 > : . X X @ ",
"5 5 ;.;.q g # d b #X^ d d d * $X%X/./.x.&X0.f.m.n.d.9.z.z.9.d.f.f.d.9.z.z.9.d.n.m.f.0.z.z.z.z.z.z.z.z.0.f.f.0.p.*X# * b 0 > ^ m ",
"5 5 ;.;.;.=X#.b.-X;X:X>Xb.~.~.,Xx.z.z.z.z.9.d.n.m.n.M.0.0.'.].f.f.].'.0.0.M.n.m.n.d.9.z.z.z.z.z.z.z.z.0.f.f.0.7.b.5 p d d i z 5 ",
"5 5 d d d #.<X7.p.u.p.7.7.F.F.x.&Xz.z.z.z.8.9.M.n.m.n.f.f.].'.0.0.'.].f.f.n.m.n.M.9.8.z.z.z.z.z.z.z.z.0.f.f.0.7.1X~ ~ d 5 p p p ",
"5 5 d d d b.7.8.9.0.0.0.0.0.0.0.0.0.0.9.8.z.z.9.d.n.m.R.R.n.M.0.0.M.n.R.R.m.n.d.9.z.z.8.9.0.0.0.0.0.0.M.n.n.M.U.2X_.> * p p p p ",
"5 5 d d d b.7.9.d.f.f.f.f.f.f.f.f.f.f.d.9.z.z.8.9.M.n.R.R.m.n.f.f.n.m.R.R.n.M.9.8.z.z.9.d.f.f.f.f.f.f.n.m.m.n. XU.).m d p p 5 p ",
"5 5 d d d b.7.0.f.R.R.R.R.m.n.f.f.n.m.f.0.z.z.8.9.M.n.R.R.m.n.f.f.n.m.R.R.n.M.9.8.z.z.9.d.f.f.f.f.f.f.f.f.f.f.d.9.z.y 5 p 5 5 p ",
"5 5 d d d b.7.0.f.R.R.R.R.n.M.0.0.M.n.f.0.z.z.9.d.n.m.R.R.n.M.0.0.M.n.R.R.m.n.d.9.z.z.8.9.0.0.0.0.0.0.0.0.0.0.9.8.z.5 5 5 p p 5 ",
"5 5 d d d b.7.0.f.R.R.R.R.f.0.z.z.0.f.f.0.z.z.9.d.n.m.R.R.n.M.0.0.M.n.R.R.m.n.d.9.z.z.8.9.0.0.9.8.8.9.0.0.9.8.&X3X7.p 5 5 p p 5 ",
"d d d d d b.7.0.f.R.R.R.R.f.0.z.z.0.f.f.0.z.z.8.9.M.n.R.R.m.n.f.f.n.m.R.R.n.M.9.8.z.z.9.d.f.f.d.9.9.d.f.f.d.9.x.4X~.;.5 5 5 ;.d ",
"d d d d d b.7.0.f.R.R.R.R.f.0.z.z.0.f.f.0.z.z.z.z.9.d.f.f.f.f.f.f.f.f.f.f.d.9.z.z.z.z.0.f.R.R.f.0.0.f.R.R.f.0.p.5X* q d p * q # ",
"d d d d d b.7.0.f.R.R.R.R.f.0.z.z.0.f.f.0.z.z.z.z.8.9.0.0.0.0.0.0.0.0.0.0.9.8.z.z.z.z.0.f.R.R.f.0.0.f.R.R.f.0.).5X> u # 5 * q h ",
"d d d d d b.7.0.f.R.R.R.R.f.0.z.z.0.f.f.0.z.z.z.z.z.z.z.z.z.z.z.z.z.z.z.z.z.z.z.z.z.z.9.d.f.f.d.9.0.f.R.R.f.0.7.5X_ % > 5 5 * 5 ",
"d d d d d b.7.0.f.R.R.R.R.f.0.z.z.0.f.f.0.z.z.z.z.z.z.z.z.z.z.z.z.z.z.z.z.z.z.z.z.z.z.8.9.0.0.9.8.0.f.R.R.f.0.p.D.c . = * d d i ",
"d d d d d #.<XU. Xn.m.R.R.f.0.8.9.'.].d.9.z.z.z.z.z.z.z.z.z.z.z.z.z.z.z.z.z.z.z.z.z.z.z.z.z.z.8.9.M.n.m.n.|.}.6XS.O X 7 q m m # ",
"d d d d d } #.7XU.M.n.R.R.f.0.9.d.].'.9.8.z.z.z.z.z.z.z.z.z.z.z.z.z.z.z.z.z.z.z.z.z.z.z.z.z.z.9.d.n.m.n.M.}.8X,.9Xo   6 ) > > m ",
"d d d d d d d #.<XU. Xn.m.n.M.'.].d.9.8.9.0.0.9.8.z.z.z.z.z.z.z.z.z.z.z.z.z.z.8.9.0.0.9.8.z.z.9.d.f.f.|.}.y.,.X X - > - t u q # ",
"d d d d d d d } #.7XU.M.n.m.n.].'.9.8.9.d.f.f.d.9.z.z.z.z.z.z.z.z.z.z.z.z.z.z.9.d.f.f.d.9.z.z.8.9.0.0.0X8X,.9XX X 7 b 6   6 j q ",
"d d d d d d d d d #.<XU. Xf.f.d.9.8.9.'.].f.f.d.9.z.z.z.z.z.z.z.z.z.z.z.z.z.z.9.d.f.f.].'.9.8.&Xx.i.i.A.,.X X X X r t 6 qX) q q ",
"d d d d d d d d d } #.7XU.0.0.9.8.9.d.].'.0.0.9.8.z.z.z.z.z.z.z.z.z.z.z.z.z.z.8.9.0.0.'.].d.9.3XwX^.^.,.9XX X X X X X 6 & q q q ",
"d d d d d d d d d d d #.<X7.7.x.eX0.f.n.M.0.0.0.0.0.0.9.8.z.z.z.z.z.z.8.9.0.0.0.0.0.0.M.n.f.0.7.W.X X X X X X . . Y Y   : = # # ",
"* * * * d d 5 5 z z d } #.b.b.,Xx.0.f.m.n.f.f.f.f.f.f.d.9.z.z.z.z.z.z.9.d.f.f.f.f.f.f.n.m.f.0.7.1XX X X X X X     3 rXrXrXn # # ",
"* * * * d d 5 5 5 z d d d d d #.<XU. Xf.f.f.f.f.f.f.f. XU.7.7.7.7.7.7.U. Xf.f.f.f.f.f.f.f.|.}.tXyX. . X X X X @ , . uXiXpXn 7 0 ",
"d d d d 5 5 5 5 5 5 d d d d d aX#.sXU.0.0.0.0.0.0.0.0.U.dX>X_._._._._.2XU.0.0.0.0.0.0.0.0.U.sXfXgX    X X X X u q t X B k - O @ ",
"h h d d d 5 5 5 5 5 d d d d k ^ 0 1X7.z.z.z.z.z.z.z.z.p.>Xm > w # # q 1X7.z.z.z.z.z.z.z.z.p.L.rXrXhXhXX X X X = h @ X 7 m 6 O % ",
"q q * * * * * * d d d d d * > r r ^ z z z z jX8 X X X t R > > m d 5 * * * * * # _ . : w =   iXrXrXrXrX< < X X w 5 , . 6 j @ . X ",
"q ~ = 7 b * * * d d d d d d m 7 - # jXm 8 8 8 V X o t - j q q h 1 5 * * * * q = 7 6 u # 0   J rXrXrXrXuXuX< X 7 0 , @ 6 6 r X X ",
"~ * kXlX9 # d d d d d d d d d y d 5 * 6 o o o X X t 8 j h * * * 5 5 * * * * 7 f = * d 5 m   J rXrXrXrXrXrX< < . O zX> @ o X X X ",
"# * N xXg * * d d d d d d d i d d i * 7 t t ;   X t > w # # # # h * * # w 9 : + = 5 5 5 # - : rXrXrXrXpXpXY uX< X @ 6 % X X X O ",
"# * ~ ~ * * * * d 5 d * d 5 i i d d d > 8 8 = @ X t > > > > > > > w # # : hX. + = 5 5 5 5 * > rXrXrXcX* * vXrX< < X O X X X X @ ",
"w w * * * * * * 5 5 * * * 5 p i d d y > = u u 6 % @ > > > > > > > w # ~ : hXhX+ = 5 5 5 5 5 m rXrXrXcX$ $ vXrXY . X Y X X X X : ",
"  % ~ * 5 5 * * * * d d d d d d d d # - %   % , b w > > > > > > > w * i ~ = N + = 5 5 5 5 5 m rXrXrXrX    cXrX7 :.f cXY X X X O ",
"X X > ~ d 5 * * * * d d d d d d d # m bX;   % n # w = = = 8 > w w q i p ;.~ , + 7 * d 5 5 * 0 rXrXrXrX< < uXrX= $ f nXlXX X X X ",
"X X r r > d * * * d * * d 5 i d # u V = > > > B mXf % % % , q $ * i 5 5 5 * , .   : = 5 # : r uXuXuXuX< < < uX+ r Y rXlXX X X X ",
"X X X X 7 b # ~ # # # * * 5 i # ^ v % & * * d 9 Y X X O o @ w MX* ;.5 5 5 * , X O   7 5 m   + < < < < < < X . . . cXuXY Y X X X ",
"O X X X % : @ @ @ @ 8 # d i # 7 t ; % & * * * 9 X X o r - - 6 6 @ - # 5 5 * , X @ > m 1 h > u < < NXNX< < - g & &   Y < uXY X t "
};
