/* XPM */
static char *result[] = {
/* columns rows colors chars-per-pixel */
"64 64 77 1 ",
"  c #000000",
". c #080604",
"X c #0E0B07",
"o c #0D0C0B",
"O c #120E0A",
"+ c #1D160F",
"@ c #101010",
"# c #191919",
"$ c #241B13",
"% c #291F15",
"& c #2A2016",
"* c #34271A",
"= c #36291D",
"- c #382A1E",
"; c #242424",
": c #2D2D2D",
"> c #313131",
", c #3E3E3E",
"< c #453424",
"1 c #4F3C29",
"2 c #57422E",
"3 c #5B442E",
"4 c #5B4530",
"5 c #60482F",
"6 c #624A33",
"7 c #76593C",
"8 c #7B5C3E",
"9 c #414141",
"0 c #4C4C4C",
"q c #505050",
"w c #5B5B5B",
"e c #7C5E41",
"r c #7E6043",
"t c gray39",
"y c DimGray",
"u c #707070",
"i c #797979",
"p c #836344",
"a c #886747",
"s c #8F6E4C",
"d c #9A744F",
"f c #987450",
"g c #A67D54",
"h c #A98159",
"j c #B2865A",
"k c #B4895E",
"l c #BA8C5E",
"z c #B68B61",
"x c #BE9165",
"c c #C29567",
"v c #C99665",
"b c #CD9A66",
"n c #CE9D6B",
"m c #D09E6D",
"M c #D1A06F",
"N c #DAA36D",
"B c #D2A170",
"V c #DCA671",
"C c #DEAA75",
"Z c #DFAB78",
"A c #E0AB77",
"S c #E0AC78",
"D c #E4B17E",
"F c #8F8F8F",
"G c gray59",
"H c gray61",
"J c #A4A4A4",
"K c #AFAFAF",
"L c #B4B4B4",
"P c #E6B381",
"I c #C1C1C1",
"U c #CFCFCF",
"Y c #D2D2D2",
"T c gray86",
"R c #EFEFEF",
"E c gray95",
"W c #FFFFFF",
/* pixels */
"NNNNNNNNNNNNNNVCANNAAAAANNAANNNVAAVNAANNNNNNNNNAANNNNNbNCAAVNVAA",
"NNNNNNNNNNVNNNNVANANAAANNAVNNNNNCVNNVCNNNNNNNNVVVNNNNNNNVCAVNCAA",
"NNNNNNNNADANNNNNNAAVmAAAAVNNNNNNNNNNNNNNNNNNNAVNNNNNNNNNNCAVNCAD",
"NNNNNNNNADANNNVNNVVNNVAAAVNNNNNNNVNNNVVNNNNNNNANNNNNNNNNNVCNNNCC",
"NNNNNNNNADANNNNNNNNVAVNVAVNNNNNNAVANCAVNNNNNNNNNNNCNNNNNNNNNNNNN",
"NNNVNNNVASANNNNNNNVAANNNAVVVNNNNVANNVAVVNNNAVNNVVADNNNNNNNNNNNNN",
"NNVAVNCDAVNNNNNNNAANNNNNNVCVNNNNNNNVCAAAVNVDANNDDDDNNNNNNNNNNVVC",
"NNVCVNCDANNNNNNNNVANNNNNNVCVNNNNNNNNVAVANNADANNDDDDNNNNNNNNNNVCC",
"NNVVNNADSANNNNNNNNNNNNNNNNANNNNNNNNNVVVVNNVAANNACDSCCNNVNNACCVVV",
"NNNNNNADACVNVNNNNmNNNNNNNNNNNNNNNNNNNNNNNNNNNNNNVSACCNNCACAAAVNV",
"NNNNVVCCCNNNNNNNNNNAVNNNNNNNNNNNNNNNNNNNVNVADDDDSDSVVCCAAAAAAACC",
"NNNNCAVNNNNNNNNNNNNNANNNNNNNNNNNNNNNNNNNNNADDDDDDDDNNCAAAAAAAAAC",
"NNNNCACVNNVACVNVNNNAAVVVNNNNNNNNNNNNNNNVNNCADDDDDCCCCSDASVVCAAAA",
"NNVCAAACCNADSVNVANAAAAAVNNNNNNNNNNNNNNNNVNVAAADDDVNASDPDAVNVAAAA",
"VVVCCCCCCVCAAVVNVVVVVVVVNNNNNNNNNNNNNVNNVVCAADDDDCCDDDPSACVCAAAA",
"CCCCVCCCCCCCCVNNVVAVNNNNNNNNNNNNNNNNNNNVCAAADDDDDSADPPPDAADAAAAA",
"VACCCCVVVCCCVNNNNCCNNNNNNNNNNNNNNNNNNNVCCASAADDDDDDDDDSSAASSSSAS",
"AACCVCVNVCCCCNNNNNNNNNNNNNNVNNNNNNNNNNCAASSAAAAAADDCASASAASAAAAS",
"AACCCCNNVCCCCVVVNVNNVNNNNVNNNNNNNNNNNVCACCCCACAADPPDSSAAAAAAAAAS",
"AAAAVVNNNNNNNCCVVCSVNNNVNVNVNNANNNNVNNNNNNVCVNNAAPPDPDAAADAAAASA",
"CCAAVNNNNVNNVZZVVCACVVNNVNNNVNVNNNNNNNNNNNVACNNCADDPPDAASSAAASSS",
"NNAAVNVNNNCSSSCVVCASCVNVNNVNNNNNNNNNNVVNNNVASSANNCADPAADPCNCASSS",
"NNCAVNNVNNCZSSZVVCSSAVVNNNNNNNNNNNNNNNNNNNVACCCNVAADDDADDCNCASSS",
"AANNNNVASSCSSSSSAAAAAAACmANNNNNNNNNNNNNNNNNNNNVPDPPDAAACNNNCAAAS",
"AANNNNVAAASASSSSSSSSZZSCNNNNNNNNNNNNNNNNNNNNNNVPPPPSSSAVVNNCCAAD",
"DAAACNCCAASSSBBBBBBBMMBnbbbnbbbbbbbNNNNNCCCNVCCNVSSSSSSCCADCCCCC",
"SSAANNCASSSSnhaerrrrrrr8888888888ehbNNNNCCCNVCCVNSSSSSACCASACCAA",
"AAAANNCASSAAxe*&&&&&%%&%%%&&%%%%%*7lVCVVCCCNNCCCSSSNNVNNNVCVVNNC",
"SSAAVNCCSSAAl6X@;:>>>>>>:>>>>>>;@o5jVCCncxkjjzzzlllVNNNNNVCVNNNV",
"ASSACVAACCCSl6X:tFFFFFFFFFFFFFFt:O5jVVVlr5555666666NNVCCCCAACCCC",
"SSSSAAAACVCCz6o0JRRRRRRRRRRRRRRJ4@5jNNNd2oooooOooo@NNCAAAAAACACC",
"SAAAAAAAVNCAz5XqKWWWWWWWWWWWWWWKqo5jVNVd<.;9qqq>#ooCVAAACCAAADAA",
"AAAAAAAAAVVAj6XqKWWWWWWWWWWWWWWKq.6jVVVh1o0FKKKi>  CCCACCCCASSZD",
"AAACAAAAAAAAj4XqKWWWWEERREEWWWWKqo5hnnMr-@yIRWWKq  CCCCCCACASSCC",
"AAAAAAAAAASAz6XqKWWWRLGFFGLRWWWKq.=6ree2%.,iJUEKq  CCVCCCCASSSDC",
"ASAAAAAAAAASj6XqKWWWTF,>>,FTWWWKq.O$&&&+X.@;wJEKq  CCVVCCAAASSZZ",
"SSAAAAAAAAAAz4OqKWWWUuo  @yYWWWKq.#;>>>>>>>>wJEKq  CVVNCZSSSSSSS",
"AAAAAAAAAAAAj6XqKWWWUu@  @uYWWWKqo,iFFFFFFFFJYEKq  ACNNCSSZSSZZZ",
"AAAAAAAAAAAAz6XqKWWWYu@  @uUWWWKqoyIRRRRRRRREEWKq  SSNNVSZCCSSCC",
"AAAAAAAAAAAVz6XqKWWWTHwqqwHTWWWKqo0FKKKKKKKKKLLi>  SCVVCSCCCSSCC",
"AAAAAAAAAAVVj6XqKWWWEYLKKLYEWWWKq.;,qqqqqqqqqqq>#  VVVVCSVNCZAZA",
"AAAAAAAAAACNj6XqKWWWWWWWWWWWWWWKq. .               NNVVCCVNCZZAS",
"AAAAAAZZAACCz6OqKWWWWWWWWWWWWWWKq                 .VVVNNVNNVCCCC",
"AAAAACZZAASAz6XqKWWWWWWWWWWWWWWKq                 .VCNNMNNNVCCCC",
"AAAZAAAAAAAAz6X9FUUUUUUUYYUYUUUF9 O&&&&&%%%&&%&&&&&NNNNNNVCVVCCC",
"AAAAAAZZAAAAz6X;0uuuuuuuuyuyuuu0;.-688er88err888e88NNNNNNVCVNVCC",
"AAAAAAZAAAZSz6X.o@@@@@@o@@@@@@@o.X4hnnMMnbnBMMMMnvbNNNNNNNNVVCCC",
"AAAAAAAAAASZz6X                  X4jVCAAVNNAACCSCNNNNNNNNNNVCCCC",
"AAAAZZAAAAAAg6O.                .O6gVVVPVVVVVVVACNNNNNNNNNNNNVAA",
"AAAAAAAAAAAAc6o                 .+6kPPVVPPVNNNNACNNNNNNNNNNNNNVA",
"AACZCCAAAACAz6X    .             o6kVPPNVPVVVVNVVNNNNNNNNNNNVVVA",
"AAZZPAAAAPZZSSSSAAAVAAAVNNCCAACCCCBPVBVPVVPVVPVNNNNNNNNVVNNVAVNN",
"ACZZZZZAAAAAAAAAACAAAAAVNNVVAACCCCCAVPNVVVPNAAVNNNNNNbNVAVNVAVNN",
"CCCZAAZZAAAAAAAmNCAAAAAANNNVAVCCAASCPVPBVVVVVNNNbNNNNNNNAVNVVVNN",
"CCCVCZACAAAAAAAAVAAAAVVVNNNVCCCASSZCPBNPVNVPVNNNNmNNNNNNANVVVNNN",
"CZNNVAAAAAAAAAAAAAAVNNNNNNAVAACCSSZZVPVNVVPVNNNNNmNNNNbNNCVVNNNN",
"AAVBCCCSAAAAAAAAAAAVVNNNNNCCCCCCCZZCCCVNVAAAAVVNNNNNNNbNNNNNNNNN",
"AAACZZZZAAAAAAAAAAAVVAAVNVVCCCCCCCCCVNNNAAADAAVNNNNCVNNNNNNNNNNN",
"CCZZCSZCAAAAAAAAAAAAVVVVNVCCCCCVCCCCVNNNVAAAAAANbNNVANNNNNNNNNNN",
"NNCCSSSCAAAAAAAAAAAVNVNVACVCCCCCCCCAAVVBAAAAAAANNNNNNNNNANNNNNNN",
"NmAAASZZZZAAAAAAAAAVNNNNCCVCVCCCCCSSSCVBVAAAAVNNNNNNNNNNNNNbNNNN",
"NmANCACSCAZAAASAAVNVAAAANVNNVVCCCSZSSCANNVAAANNNbNNNNNNNNNNNNNNN",
"NNNNVCCCACCCZSSCANmAAAAAmNNNNVCCZZSAAANNNNVAVNNNNNNNNNNNNNNNNNNN",
"NNNmNVVVVVCCAAAVVVNNAAAAmNNVVVVVVVAASAVNVVAAAANNbNNbNVAVNNNNNNNN"
};
