/* XPM */
static char *result[] = {
/* columns rows colors chars-per-pixel */
"64 64 76 1 ",
"  c #000000",
". c #080604",
"X c #0E0A07",
"o c #0D0C0B",
"O c #120D09",
"+ c #1A140D",
"@ c #111111",
"# c #1C1C1C",
"$ c #211911",
"% c #291F14",
"& c #2A2016",
"* c #372A1C",
"= c #252525",
"- c #2D2D2D",
"; c #303030",
": c #3E3E3E",
"> c #453524",
", c #4E3B27",
"< c #4A3928",
"1 c #5C4731",
"2 c #60472F",
"3 c #60482F",
"4 c #614931",
"5 c #4B4B4B",
"6 c #505050",
"7 c #5B5B5B",
"8 c #7C5E41",
"9 c #7E6043",
"0 c gray39",
"q c DimGray",
"w c #717171",
"e c #797979",
"r c #826343",
"t c #926D49",
"y c #96714B",
"u c #98724B",
"i c #9A7653",
"p c #9E7B59",
"a c #A47C53",
"s c #AA835B",
"d c #B28559",
"f c #B4895E",
"g c #BB8D5E",
"h c #B58B60",
"j c #C49261",
"k c #C99766",
"l c #CE9B67",
"z c #CF9B69",
"x c #D19C67",
"c c #D19D6B",
"v c #D6A06A",
"b c #DAA36D",
"n c #D2A070",
"m c #DCA671",
"M c #DEAA75",
"N c #DFAB78",
"B c #E0AB77",
"V c #E0AC78",
"C c #E4B17E",
"Z c #868686",
"A c #8F8F8F",
"S c gray59",
"D c gray61",
"F c #A4A4A4",
"G c #AFAFAF",
"H c gray70",
"J c gray",
"K c #E6B381",
"L c #C1C1C1",
"P c #CECECE",
"I c #D2D2D2",
"U c #DADADA",
"Y c #E4E4E4",
"T c #EFEFEF",
"R c #F3F3F3",
"E c #FFFFFF",
/* pixels */
"bbbbbbbbvbbbbbmBBbbBBBNMbMMMbbbmBMmbMBmbbbbbbbbBBbbbvbbmBBBmbBBB",
"bbbbbbbbmmmbbbbmBbmmbBMMMbMbbbbmmMbbMmbbbbbbbbbBmbbbbvvbmBBmbmBB",
"bbbbvbbbMCBbbbbmmBBmbMBMMmbbbbbbbbbbbbbbbbbbbBmbbbbbbbbbbBBmbmBB",
"bbbbbbbbBCBbbbbbbmmbbBMMNMbbbbbbbbmbMbbbbbbbbmmbbbbbbbbbbmmbbbBB",
"bbbbbbbbBCBmbbbbbbmBBmbmNMbbbbbbmBmbMmmbbbbbbbbbbmBbbbbvbbbbbbbb",
"bbbbbbbMBBMbbbbbbbmmBbbbMbmbbbbbmmmmMBmmbbmMmbbmmBBbbbbbvvbbbbbb",
"bbMMmbBVBmbbbbbbbmBmbbbbbmMmbbbbbbbbmBBBmbmCBbmCCCCbbbbbbbbbbmMM",
"bvMBmbBCBmbbbbbbbBmbbbbbbmMMbbbbbbbbMBBBbbMCBbmCCCCmbbbbbbbbbmMM",
"bbbmbbBCBMmbbbbbbbbbbbbbbbmbbbbbbbbbmmmmbbmBmbbmmCCMMbbmmmBBmmmm",
"bbbbbbBCBMmbbbbbbbbbbbbbbbbbbbbbbbbbmbbbbbbbbbmbmBMMMbbMBBBBBmmm",
"bbbbmBBmmmbbbbbbbbbcmbbbbbbbbbbmbbbbbbbbbbmBCCCCCCCbmmMMBBBBBMmM",
"bbbbmBmbbbbbbbbbbbbBBbbbbbbbbbbmmbbbbbbbbbBCCCCCCCCbbMBBBBBBBBBB",
"bbbmmBMmbbmBBmmmmbbBBBmmbbbbmbbbbbbbbbbbbbBCCBCCCMMMMBCBMMmMBBBB",
"bbmmBBBMmmBCVmbmbbmBBBBmbbbbbbmbbbmbbbbbbbmBBBCCCbbBBKKCBmbmBBBB",
"mmBmMBBBBmBBBmbmbBbBbBmmbbbbbbbbbbbbbbbbmBmBBCCCCMMCCCKBBMMMBBBC",
"MmMBMMmmBmmBmmbbbBBbbbbbbbbbbbbbbbbbbbmmBBBBCCCCCBBCKKKCBBBBBBBB",
"MMMMMMmmMMMmmbbbbMMbbbbbbbbbbbBcbbbbbbmMBBBBBCCCCCCCCCVVVVVVMVMV",
"BBMMMMmbbMMMMbbbbbbbbbbbmbbbbmbbbbbbmmmBBBBBBBBBCCCMVVVMVVMVVVVV",
"BBBMMmmbMMMMMmbbbbbbbbbbmbmbbbbbbbbbbmmBMMMMBMBBCKKBVVVVVVMVVVVV",
"BBBBmbbbbbbMbBBMMBBMbbbbbbbbmbmcbbbbbbbmbbmMmbbBBKKKCCMVVVVVVVVM",
"MMBBmmbbbbkjhhfffhhfffddddddddddddjvbbmbbbmMMbmMBCCKKCVVVMMMMVVV",
"bbMBmbbbbvs44441444444422222242434ujbbbbbmmMNMMbbBVCCVMCKMmMVVVV",
"bbBBmbbmblr*oooXOXXOXXXXXXXXXXOXX+4dbbbbbbmMNNMmbMMCKMMCCMmMMVVV",
"BBbbbbmBVn9&@-56666666666666666;#O3dbbbbbxgsyyupsasusuVMmmbMMVMV",
"VVmbbbmBBn9&&0FGGGGGGGGGGGGGGGGe;O3dbbbbblu3>>>><<<>1*VmbbmMMBBB",
"BVBBmbmBBn9&;ATEEEEEEEEEEEEEEEEG6O3dbbbbMn8& .@@@oo. .VMMMVMMBBB",
"BBBBmbMBVn9&;ATEEEEEEEEEEEEEEEEG6X3dbbbbMv8&@:qwwq:@  VMMMCMBBBB",
"VBBBmbmBVn9&-ATEEEEEEEEEEEEEEEEG6X3dMMMMNv8&-wLIPLe=  bbbmMmbbbM",
"VBBBmbMBVn9&;ATEEETUPPPPPIYREEEG6.,tdfffhs4$=eLUTTA;. bbbMMmbbbb",
"VVBBMMMBBc8&;ATEERLZwqwwweGYEEEG6.&,333411*@#:qDITA;..MMMMMMMMMM",
"VVBBBBBBMx8&;ATEERS:@@@@@#eIEEEG6 ..XXOXXX.  oo7HTA;..VVMVVBBVBB",
"VVBBBBBBMl8&;ATEETA-     @wIEEEPZ66666666666666ZPTA;ooBMMMMBVVVB",
"MKBBBBBBMc8%;ATEETA;     @qIEEEYPGGGGGGGGGGGGGGPYTA-  BMMMMMVVVV",
"NBBBBBBBBn8%;ATEETA;     @wPEEEERTREEEEEEEEEEEEEETA;  MMMMMBVVVN",
"NNBBBBBBBnr%;ATEETA;     @wPEEEUHSJTEEEEEEEEEEEEETA;  MMMBBBVNVV",
"BNBBBBBBBn8%;ATEETA;     @wPEEEJw:ZUEEEEEEEEEEEEETA;  mMMBBBVVVN",
"BBBBBBBBBn8%;ATEETF6;;;;;:ZUEEEG6o7FPPPPPIPPPPPPPLe=  bMVNVBVVNV",
"BBBBBBBBBnr%;ATEEEIFAAAAASJTEEEG6o;7wwwwwwwwwwwwwq:@  bMVVNBNVNV",
"BBBBBBBBVn8%;ATEEEETTTTTTRREEEEG6 ooo@@@@o@@@@@@@oX.  bMNNMNNNMN",
"BBBBBBBVVnr%;ATEEEEEEEEEEEEEEEEG6                     mMVMMMVNMN",
"BBNNNMBBMn8%;ATEEEEEEEEEEEEEEEEG6                    .mBVMbMNNMB",
"BBNNNNBBVn8%-ZYTTTTTTTTTTTTTTTTF5 .XX.XXXXXXXXXXXXX.XXmMNbvMNNBB",
"BBBNMNBBVn8&#6ZAAAAAAAASAAAAAAA0-.%,133144443333444444bbbbbMMMNM",
"BBBBBBBBVnr&.#-;-;;;;;--;;;;;;;=@.,tddddfhfddddddddffdbbbbbMMMMB",
"BBBBBBBBBn8&                     X4fmbbMMmmMMbbbmbbmbbbbbmBmbMMM",
"BBBBBBBBBn8&                     X4hmmMMmbmNNbbmbbbbbbbvbmMmbmMM",
"BBBBBBNNBn9&                     X4dMMMNmbmNBMMMMbvbvbbbbbmmmMMM",
"BBBBBBBMBn9&                   . X2dMMMMmbmNBNBBMbbbbbbbbbbmmMMM",
"BBBBNNMBBBBBBNNBBBBBBBBmmmBmBmmmmbbnbKKmmbKmmmmmMbbbbbbbbvbbbmBB",
"NNNNBBBBBBBBBBBBBBBBBBBmMmmBmBBVKmKKKmnKKKbbbbbKMbbbbbbbbbbbbbBB",
"MNMNMBBBKBBBBBBBBBBBBBBBmmBMBBBBmmKbmmmmbKmbmmbmmbbvbbbmbbbbbmbB",
"BBBBBKBBMBBBBBBBBBmMBBBmbmmBBBmBKmmmmKKnKbKmmKmbbbbbbbbmmmbmBmbb",
"BMNMNBBBBBBBBBBMMBMBBBBmbbmmBBmBbKnmmmKKbKbmBBmbbbbbbbbmBmbmBmbb",
"MMNMNNNNBBBBBNmmbBBBBBBMbbbmBmmBKmmKKmmmbbcKmbbbvvbbvbbBBmbmBbbb",
"MMNmMBBNBBBBBBBmmBBBBmmmbbmmmmBBbKmKmKKmKbbKmbbbvvbbbbbbBmbmmbbb",
"BBbbmMBBBBBBBBBBBBBmbbbbbbmBBBBBKmKmmKcbbbKbmbbbvvbxvvvbbmBmbbbb",
"NNmbmNNmBBBBBBBBBBBmmmbbbmMBBBNBbKKnmmbbmBBKBbmbbvbbbbbbbbbbbbbb",
"MNNmNNNKBBBNBBKBBBBMMmMmbmmmNmmBmnmKmbnbBBBBBBmvbvbBmbvbbbbbbbbb",
"mNNNNNmMBBNNNBMMBBBMmmMmbmBMmMBmmmmmmbbmmBBBBKmbvvbmBbbbbbbbbbbm",
"bbMNNMNNBNBBBBNNBBMmmbbmmMmBmMmmmKKmKmmbmKBBBBBvbvbbbbbmBbvbbbbb",
"bbmNMKmNMMMmBBBBBMMmmbbmBNmmmNmNNmNNmmmnmBBBBBbvvvvbbbvbmbbbbbvb",
"bbbmmKNNKmKKBBBBBmmmMmBmmbbmbmBBNNNNKmmbbmmBBbbbbbvbbvvbbbvbbbvb",
"bbbbmMMNmmMMMMBMmmmMBBBmbbbbbmmNNNKNNmmbbbmBBbbbbbbvbbbbbbvbbbbb",
"bbbbbbmmmmMMMKBmmmbmBBBmbbbmmmmmmmmNNKmbmmBBBBbbvvbbbmmBmbbbvbbb"
};
