/* XPM */
static char *result[] = {
/* columns rows colors chars-per-pixel */
"64 64 81 1 ",
"  c #000000",
". c #090604",
"X c #0E0B07",
"o c #0D0C0B",
"O c #120E09",
"+ c #17110B",
"@ c #18120C",
"# c #101010",
"$ c #1E1710",
"% c #1B1B1B",
"& c #241B12",
"* c #291F15",
"= c #2A2016",
"- c #34271A",
"; c #36291C",
": c #382B1D",
"> c #222222",
", c #2D2D2D",
"< c #303030",
"1 c #3E3E3E",
"2 c #453424",
"3 c #4B3826",
"4 c #5A432D",
"5 c #60482F",
"6 c #614A33",
"7 c #654F39",
"8 c #76593D",
"9 c #7B5C3E",
"0 c #4B4B4B",
"q c #505050",
"w c #5B5B5B",
"e c #7C5E41",
"r c #7E6043",
"t c gray39",
"y c DimGray",
"u c #717171",
"i c #797979",
"p c #816141",
"a c #8D6947",
"s c #8E6C4A",
"d c #97714C",
"f c #98734E",
"g c #997551",
"h c #A67D54",
"j c #B28559",
"k c #B4895E",
"l c #B98B5D",
"z c #B78C62",
"x c #BB9066",
"c c #BB9169",
"v c #C89664",
"b c #CD9A66",
"n c #C59769",
"m c #CF9C6A",
"M c #D19D6A",
"N c #D6A16D",
"B c #DAA36D",
"V c #D2A070",
"C c #DCA671",
"Z c #DEA975",
"A c #DFAB78",
"S c #E0AB77",
"D c #E0AC78",
"F c #E4B17E",
"G c #868686",
"H c #8F8F8F",
"J c gray59",
"K c gray61",
"L c #A4A4A4",
"P c #AFAFAF",
"I c #B3B3B3",
"U c gray",
"Y c #E6B380",
"T c #C1C1C1",
"R c #CECECE",
"E c #D2D2D2",
"W c gray86",
"Q c #E2E2E2",
"! c #EFEFEF",
"~ c #F3F3F3",
"^ c #FFFFFF",
/* pixels */
"BBBBBBBBBBBBBBZSSBBSSSSCBCSCBBBCSSCBSSCBBBBBBBBSSBBBBBBBSSSCBCSS",
"BBBBBBBBBBBBBBBZZCZBCZSCCSCCBBBBCCBBCCBBBBBBBBBSZBBBBBbBCSSCBSSS",
"BBBBBBBBSFSBBBBBBZCCBCSSSSBBBBBBBBBBBBBBBBBBBSZBBBBBBBBBBSSCBCSS",
"BBBBBBBBSFSBBBBBBZSBCZSSZCBBBBBBCCBBCCBBBBBBBCCBBBBBBBBBBCCBBBSS",
"BBBBBBBBSFSBBBBBBBBZSCBCSCBBBBBBZZBCCCCBBBBBBBBBBBSBBBBBBBBBBBBB",
"BBBCBBBZSSSBBBBBBBCZZBBBZCCCBBBBZZCBSSZCBBCCCBBCZSSBBBBBBBBBBBBB",
"BBCZCBZDSCBBBBBBBZCZBBBBBCZCBBBBBBBBCSSSCBCFSBCFFFFBBBBBBBBBBCZZ",
"BBZZCBSFDBBBBBBBBZSBBBBBBCZZBBBBBBBBZZSSCBCFSBBFFFFBBBBBBBBBBCZZ",
"BBBBBBSFDSCBBBBBBBCBBBBMBBCCBBBBBBBBCCCCBBCZCBBSZSFZZBBCBCZZZCCC",
"BBBBBBSFSSCBBBBBBMBBBBBBBBBBBBBBBBBBBBBBBBBBBCBBBFZZZBBZSZSSSCBC",
"BBBBCZCZCBBBBBBBBBBBCBBBBBBBMCBBBBBBBCCBBBZSFFFFFFFBCZZZSSSSSSCZ",
"BBBBZSZBBBBBBBBBBBBSSCBBCBBBBBBCBBBBBBBBBBSFFFFFFFFBBZSSSSSSSSSS",
"BBBBZSZCBBZSSCBCBBBSSBSBBBBBBBBBBBBBBBBBBBCFFSFFFZSZZFFSSCCZSSSS",
"BBZZZSSZZBSFFBCCSBBSSSSSBBBBBSBBBBBBBBBBBBZSSSFFFBBZSFFFSCBCSSFS",
"CBZZZZZZZCZSSCBCSBSCCSCBBBBBBBBBBBBBBBBBCCSSFFFFFZZFFFYSSZZZSDSS",
"ZZCZZCZZZZZZCCBBBBSBBBBBBBBBMBCBBBBBBBBZSSSSSFFFFZFFYYYFSSSSSSSS",
"SSZZZZCCZZCZZNBBCCCCBBBBBBBBBBBBBBBBBBCZSSSSDFDFFFFFFFFDDDZDDSDD",
"SSZZCZCBZZNNMbbbbbbbbbbbbmmbbbbbbbbBBCCSSSSSDSDDSFFZDDDZDZDDDZDD",
"SSZZZZBBCNksr9e899999999999999999ejlCBCZZZSSSCZDFYYFDDDDZDDDDZZD",
"SSSSCCBBBba3========**=**********-9lBCCBBBCSCBCDSYYFYDDZDDDDZDDD",
"SZSSCCBBBbe=.%,,<<<,<<<<<<<<<<<>OX4lCBBBBNvxkjjklvxxcxDDSSSSDDDD",
"BBSSCBBBBbe=%qGHHHHHHHHHHHHHHHHt,X4jBBBCBNj96666556776ZFYZBZSDDD",
"BBZZBBBCBmr=,GQ!!!!!!!!!!!!!!!!L0X5jBBBBBbe-XXX.#OOoooDFYZCZSDDD",
"SSBBBBZSANr=<H!^^^^^^^^^^^^^^^^PqX5jBCBBBv9*#<0qq0,#..DZBBBZSSZD",
"SDCBBBCSDVr=<H!^^^^^^^^^^^^^^^^PqX4jBBBBBb9=>tLPPLt>  DCBCBZSSSS",
"DSSSCBCSDVr=<H!^^^~~!!!!!~~^^^^PqX4jbbbbmn8&,GQ~^!H<  DZZSSSZSSS",
"SSSSCBCSDVr=<H!^^~RLHHHHHJU!^^^Pq.:59989e82+%qGIW!H<  DSZZSSSSSS",
"SSSSCBZSDVr=<H!^^~Lw<<<<,1HE^^^Pq O&=====*@..%,uU!H<  BBBZZCCBBC",
"SSSSCBCSDVr=<H!^^!H<     #uR^^^Uu<<,<<<,<<<<<<<uU!H<  CBBCZCBBBB",
"FSSSZZSSZMe=<H!^^!H<     ouR^^^WIHHHHHHHHHHHHHHPW!H<  ZZZZSSZZZZ",
"DDSSSSSSZme=<H!^^!H<     #uE^^^^~~~!!!!!!!!!!!!~^!H<..SSSSDSSSDD",
"DDSSSSSSZbe=<H!^^!H<     #uR^^^QTIR~^^^^^^^^^^^^^!H<..SSZZSSDSSS",
"DDSSDDSSZMe=<H!^^!H,     #uE^^^TGwKW^^^^^^^^^^^^^!H,  SZZZZSDADD",
"ZDSDDDDSSMe=<H!^^~J1#####%iE^^^Pq+yT!!!!!!!!!!!!!QG,  ZZZZZSDDDA",
"DDDZSSSSSVr=<H!^^~UGuuyuuiIQ^^^Pq.1iHHHHHHHHHHHHHGq%  ZZZSSSDADD",
"DDSSSSSSSVr=<H!^^^!WREERREQ~^^^Pq.%><<<<<<<<<<<<<,%o  CZZSSSDDDA",
"DDSSSSDSSVe*<H!^^^^^^^^^^^^^^^^Pq                     BZDADADDAD",
"ZDSSSSSSSVp*<H!^^^^^^^^^^^^^^^^Pq                     BZDDADADAD",
"SSSSSSSSDVr=<H!^^^^^^^^^^^^^^^^Pq                     BZAAZSDAZA",
"SDSSSSSSSVe=>tLPPPPPPPPPPPPPPPPi1 $:2222223332:2222222BZDZZZAAZZ",
"SSSSSSSSDVe*#,0qqqqqqqqqqqqqqqq1%.2eddddfddgfddddddddfCZDZNZZZZD",
"SSSSSSSSDVe*                     X6kCBCZCCCZCBBBBCBCBCCZZBBZZFZA",
"SSSSSSSSDVe*                     X6jBBBCCZCCCBBBBBBCZBBBZBBBZZZD",
"SSZSSSSSDVp*                     X6jBBBNZZZBBBBBBCBZZBNBBBBZZZZZ",
"SSSSSSSSSVp*                     X6kBBZCCCCZZBBBBBBBBBBBBCZCCZZZ",
"SSSSSSSSDNp*                   . X6kCCZZBBCDSBCBCBBBNBBBBCZCBCZZ",
"SZZSSSSSSSSSSSSSDDDDSSDZCCZSSSCBCCBZZZZZCBCDSZZZCBBBBBBBBBCCCZZZ",
"SSSSSSSSSSSSSSSDDDDDDSSZBBCCSBBMBBBBZZZZCBCDSDSDZBBBBBBBBBBCZZZZ",
"SSSSSSSASSSSSSSSSSSSFSSCBCSSCSBSCVBNCVYVCBCCCCCSZBBBBBBBBBBBBCSS",
"SSASSSSDDSSSSSSSSSSSSSSSSCSCSCSSACYYYYBYYYSBBBBSZBBBBBBBBBBBBBSC",
"ASAZSSSSDSSSSSSSSSSSSSSCCCCSSSSSAAYCCCCCCSSBCCBCCBBBBBBCBBBBCCCC",
"SSSSDDDSDDSSSSSSSSCSCSSCBBCSSSSCZCCCCYYCSSSSCYCBBBBBBBBCCBBCSCBC",
"ZSSSSSSSSSSSSSSASCSSSSSCBBCCSSCSASSSYBYYCCYCSSCBNBBBBBBCSCBCSCBB",
"ZZSSSSAASSSSSSSNCCSSSSSSBBBCCSSCAAAZVYBCCBBCCBBBBNbBBBBBSCBCCCBB",
"ZZZCSAZSSSSSSSZCCSSSSCSBBBBCSSSSSAZAYBBYCBCYCBBBBBMBBbBBCCBCCBBB",
"ZANNZZSSSSSSSSSSSSSCBBBBBCCSSSSSSASACYCBCCYCCBBBMBBBBBBBBCSCBBBB",
"SSNNZSAASSSSASSSSSZCBCBBBBZZZZAASSZZZCCBCSSSSCBBMBBBBBMBBCBBBBBB",
"SSSAASZSSSSSASSSSSSZCSZCBBZCZZZCZZSABBBBSSSFSSCBBBBSCBBBBBBBBBBB",
"ZZSSAZSSYSAZAAYZSSSSCZCCBCZZZZZZZZZZBNBBCSFSSSSBBBBCSBBBBBBBBBBC",
"CNSSSSSSZZAAZAZASSSCBBBCZZZZCZZAZZZACYBBCSSSSSSBBMBBBBBBCCBBBBBB",
"BBZZASASSSSSAAZSSSZCBBBBAAZCAACCBVYCYBBVCSSSSBBBBbBBBBBBBBbBBBBB",
"BBNBZAZSSSZAASSSSCCCSZSZBBBBBBAAYYCYCYCBBCCFCBBBBBMBBBBBBBBBBBBB",
"BBBBCZZZAZZASSSASBBZAASCBBBBBZBYCYYCYCCBBBCSSBBBBMBBBBBBBBBBBBBB",
"BBBBBCCCCCZZAAACCBBZZSSZBBBBBZBBBNBYBYCBCCSSSCBBBBBBBCCCCBBBBBBB"
};
