/* XPM */
static char *result[] = {
/* columns rows colors chars-per-pixel */
"64 64 67 1 ",
"  c #010000",
". c #090705",
"X c #0E0A07",
"o c #0E0C0B",
"O c #1B150E",
"+ c #101010",
"@ c #1E1710",
"# c gray11",
"$ c #2A2016",
"% c #392C1E",
"& c #222222",
"* c #2D2D2D",
"= c #313131",
"- c gray24",
"; c #443423",
": c #4E3B27",
"> c #4A3928",
", c #60472F",
"< c #60482F",
"1 c #614932",
"2 c #6B5239",
"3 c #735639",
"4 c #414141",
"5 c #4C4C4C",
"6 c #505050",
"7 c #5B5B5B",
"8 c #7C5E41",
"9 c gray39",
"0 c #707070",
"q c #797979",
"w c #926D49",
"e c #96704B",
"r c #997552",
"t c #9E7B59",
"y c #AB8055",
"u c #B28559",
"i c #B4895E",
"p c #B68B61",
"a c #B88D62",
"s c #C49261",
"d c #C79969",
"f c #C89A6B",
"g c #D39E6A",
"h c #D5A16E",
"j c #DAA36D",
"k c #DCA671",
"l c #DEAA75",
"z c #DFAB78",
"x c #E0AB77",
"c c #E0AC78",
"v c #E4B17E",
"b c #868686",
"n c #8E8E8E",
"m c gray59",
"M c #A4A4A4",
"N c #AFAFAF",
"B c #B2B2B2",
"V c gray",
"C c #E6B381",
"Z c #C0C0C0",
"A c #CFCFCF",
"S c #D2D2D2",
"D c #D9D9D9",
"F c #E4E4E4",
"G c #EEEEEE",
"H c #F4F4F4",
"J c #FFFFFF",
/* pixels */
"jjjjjjjjjjjjkjkxxjjxxxlkjkxkjjjkxxkjlxkjjjjjjjjxljjjjgjjkxxkjkxx",
"jjjjjjjjjjkjjjjkxkkkkxxxkklkjjjjkkjjkljjjjjjjjklkjjjjjjjkxxkjkxx",
"jjjjjjjjxcxjjjjjjxkkjxxxxkjjjjjjjjjjjjjjjjjjjlljjjjjjjjjjlxkjkvx",
"jjjjjjjjxvxjjjjjkkkkkkjxckjjjjjjkkjjkjjjjjjjjkkjjjjjjjjjjkkkjkll",
"jjjjjjjjxvcjjjjjjjjxxkjkzkjjjjjjklkjlxjjjjjjjjjjjkxjjjjjjjjjjjjj",
"jjjkjjjkxcxjjjjjjkkkkjjkzkkkjjjjlxjklxlkjjkkkjjkkxxjjjjjjjjjjjjj",
"jjklkjlvxkjjjjjjkkxkjjjjjkzkjjjjjjjjkxxxkjkvxjkvvvvjjjjjjjjjjkkl",
"jjkzkjxvxjjjjjjjjkkkjjjgjklkjjjjjjjjxxkxkjkvxjjvvvvkjjjjjjjjjklx",
"jjjkjjxvcxkjjjjjjjjjjjjjjjkjjjjjjjjjkkkkjjklkjjlkxvlljjkjklllkjl",
"jjjjjjxvxxkkjjjjjjjjjjjjjjjjjjjjjjjjkjjjjjjjkkjjkvlllkjkllcllljk",
"jjjjkkllkjjjjjjjjjgjkjjjjjjjjjjjjjjjjjjjjjkxvvvvvvvkkkkxlvllxlll",
"jjjjlxkkjjjjjjjjjjkxxjjjjjjjjjkjjjjjjjjjjjxvvvvvvvvjjlxxlllvxxxx",
"jjjjlxlkjjkxlkjkjjjxxkkkjjjjjjkjjjjjjkjjjjkvvvvvvllklvvxxkklxxxx",
"jjklxxllkkxvckjkxjjxxxxkjjjjjkjjjjjjjjjjjkkxxxvvvjjvxvvvxkjkxxxx",
"kklllllllklxxkjkjxjxkxkkjjjjjjkjjjjjjjjjkkxxxvvvvkkvvvvvxlllxcxc",
"llkllklllllllkjjjxxjjjjjjjjjjjjjjjjjjjkkxxxxxvvvvlvvCCvvxxxxxcxc",
"lllkllkkkxllljjjkklkjjjjjjjjjjgjjjjkjjjkxxxxcvvcvvvvvvvccccccclc",
"xxllllkjkxlkljjjjjjjjjjjjjkjkjxgjjjjjjxxxxxxxxxxxCvxcllcclcclccc",
"xxxllljjkkllkjkjjkkjjjjjjkjjjjjjjjjjkkxxlllxxlxxvCCvcclcccclcccc",
"xxxxkkjjjjjjkxxkkxxkjjjjjkjjjkjjjjjjjjjjjjjlljjxxCvvCcvllccccccl",
"xlxxkjjjjkjjjdaiiaaiuuuuuuuuuuuuyushjkjkjjklljklxvvCCvcccclllccc",
"jjlxkjjjjjlcdr21<111111<1,,,,<,1<2wsjjjjkjkxxxxjjllCCclvvlklcccc",
"jjllkjkjjjlca2O.ooXXXXoXXXXXXXoXXO<ujkjjjjkxzllhkklvCccvvljlcccc",
"xxjjjjlxccxca1.#=66666666666666=@X<ujjjsyeeeeeetyyylccclkkjllccc",
"xxjjjjkxxxcxa1o-qNNNNNNNNNNNNNNq-X<ujjjy2;;%;;>>>>>cccckjjkllclv",
"xvxxkjkxxxcca1o6BJJJJJJJJJJJJJJN6X<ujjje>..++++o...cccclllccllll",
"ccxxkjkxcxcxa1o6NJJJJJJJJJJJJJJN6X<ukjje%.=70005&.occcclllclcccc",
"xcxxkjlxcccxa1X6NJJJJJJJJJJJJJJN6X<ukklr>.7NSAAn4 ojljjjjklkjjjk",
"ccxxkjlxccxxa1X6NJJJHFSAASFHJJJN6X:wuii8%+7MSGJN6  kjjjkjklkjjjk",
"cxxxllxxlllxa1X6NJJJFNq00qNFJJJN6 $:1<1%@.=7nZHN6  kkkkkklckklll",
"ccxxxxxxlkkla1o6NJJJSq$++#qSJJJN6 .XXXoX  .o-mGB6  jjklccccccccc",
"xcxxxxxxlklli<X6NJJJA0+  +0SJJJAb666666666660BHB6  kkcclclkccccc",
"xxxxxxxxxjxxp,X6NJJJA0+  +0AJJJFANNNNNNNNNNNVDJN5  klxxlllllcccv",
"xxxxxxxxxlxxi,X6NJJJA0+  o0SJJJJHGHJJJJJJJJJJJJN6  llllllllxcczz",
"xxxxxxxxxxxxi,X6NJJJA0+  +0AJJJDBmVFJJJJJJJJJJJN6  lkllzkxxccxzz",
"xxxxxxxxxxxxi,X6NJJJA0o  +0AJJJV0-nDJJJJJJJJJJJN6  klkkkxxxxcxcx",
"xxxxxxxxxxxxi1X6NJJJDb-==-nDJJJN6o7MAAASAAAAAAAn4  lkkjlcccxcccc",
"xxxxxxxxxxxxi1X6BJJJGZmnnmZFJJJN6o=7000000000005&  lljjzcxcxxccx",
"xxxxxxxxxxxxa1X6NJJJJHGGHGHJJJJN6 .o++o++++++++X.  zxkjkczlxxzzz",
"xxxxxxxxxxxxi1X6NJJJJJJJJJJJJJJN6                  lzjjzzzkzxzll",
"xxxxxxxxxxlju1X6NJJJJJJJJJJJJJJN6                 .kkkklxljzzzzz",
"xxxxxxxxxxkki1o5MGGGGHGGGGGGGGGM5 .XXXXXXXXXXXXXoXXjjkkkzjjlzzxx",
"xxxxxxxxxxllp1o*9nnnnmnnnmnnnnn9*.$>1<111111<<<<<<<lkkjjjjjkxkxx",
"xxxxxxxxxxxxp1o+&===**===*=====&oX>wuyuuiiiuuuuuuuukkkjjjjjkkxkx",
"lxxxxxxxxxxxa1X                  X1ikjkkkkkzkjjjkjjjjjjjjklkkkxx",
"Cxxxxxxxxxxxa1X                  X1pkkkkkjkzlkkkkjjjjjjjjklkjkll",
"llxxxxxxxxczp1X                  X,ukllzkjkzxlllkjjjjjjjjkkkkkll",
"llxlxxxxxxzza1X                  X1ukzzzkjkzxzxcljjjjjgjjjjkllll",
"ClCkllllllxxxlxxxxxxcxxkkkkxxxjxkkkkzzzzxkkkxkkxxjjjjjjjjjjjjkxx",
"klClzzCllCxxCkxxxxcccxlllllkjxxxxxxzzxkzxxxjjjjxxjjjjjjjjjjjjjxx",
"Clkzzlzzlllxxxxxxxlxxxllkkllxxxxzkxzzzzkxxxjkkjkjjjjjjjjjjjjkkkk",
"kllzlCxzxCllxlkCxlllxxxkjjlxxxkxxkkzxkzzxxxxxxkjjjjjjjjkljjjxkjk",
"zzxxxxCkkCxxxCkkllxxxxxljjkkxxxkxxxzlzzzlkkxxkkjhjjjjjjjxkjkxkjj",
"llxlxxkCzxxxxllkjlxxxxxkjjjkkxxjxxxxkCzlkjkxxjjjjjgjjjjjxkjkkkjj",
"llkkllClzzxxxxlkkxxxlllkjjjkxxxxlllxxxxkkkkxkjjjhgjgjjjjkkkkkjjj",
"zzhjllklzzxxxxxxxxxkjjjjjjxkxxxxxCllxxkkkxxxkjjjggjjgjjjjkkkjjjj",
"kzkhkklkzkxxxxCkxxxkkjjjjklllxlxllCkkzkkxxxxxkjjjgjjjjgjjkjjjjjj",
"CkCkCClCxxxxxxzzxxxlkllkjkklkxklllllhhhjkxxxxxkjjjjxkjjjjjjjjjjk",
"hlCkkkxlCxxxzzCkxxxlllkkjklllllllllkkjjjxxxxxxxjgjjxkjjjjjjjjjjj",
"khhCkCxxkxxxzzzzxxlkjjjkklkllllkllClkkkkxxxxxxxjjgjjjjjjkkjjjjjj",
"jjklCzkxxxxxkxxxxllkjkkkxkklkkllkzkCzzkhxxxxxkjgjgjgjjgjjjjjjjjj",
"jjjjkxxxxxkzxxCxlkkllklkkkhkkklxxxxxxzkjjjkxxjjjjjjjjjjjjjgjjjjj",
"jjjjkkxkxzxzzxkzkkkkxxxkjjjjkkklxCxxxzkjjjkxxjjjjggjjjjjjjgjjjjj",
"jjjjkkkkkkkzxzzkkkjlxxlkjjjkkkkkkhzxxzkjjxxxxkjjjjjjjkxkkjjjgjjj"
};
