/* XPM */
static char *result[] = {
/* columns rows colors chars-per-pixel */
"64 64 213 2 ",
"   c #010100",
".  c #0B0602",
"X  c #050A06",
"o  c #060C08",
"O  c #0D0905",
"+  c #110900",
"@  c #051309",
"#  c #04190B",
"$  c #081A0E",
"%  c #051409",
"&  c #191008",
"*  c #0B1F11",
"=  c #1B1716",
"-  c #351803",
";  c #211D1A",
":  c #0B2312",
">  c #0C2917",
",  c #082617",
"<  c #102E19",
"1  c #142417",
"2  c #0C3B19",
"3  c #0A3519",
"4  c #12341C",
"5  c #14391E",
"6  c #2E2200",
"7  c #332300",
"8  c #27231D",
"9  c #173E22",
"0  c #322B24",
"q  c #312F2B",
"w  c #532000",
"e  c #483D31",
"r  c #44382D",
"t  c #1A4E28",
"y  c #174925",
"u  c #125C25",
"i  c #1C542C",
"p  c #1D5A2E",
"a  c #175828",
"s  c #1E5E32",
"d  c #095C2C",
"f  c #215D31",
"g  c #2B5633",
"h  c #334F39",
"j  c #19632E",
"k  c #086237",
"l  c #1C6B33",
"z  c #1A6236",
"x  c #1E7234",
"c  c #346F2B",
"v  c #236434",
"b  c #246D36",
"n  c #256D3A",
"m  c #2B6738",
"M  c #33673C",
"N  c #26733D",
"B  c #29743D",
"V  c #277A3E",
"C  c #297A3D",
"Z  c #33773A",
"A  c #266F2F",
"S  c #51500D",
"D  c #564D0B",
"F  c #684B00",
"G  c #7E5A02",
"H  c #745301",
"J  c #594838",
"K  c #604F3D",
"L  c #63513F",
"P  c #447B36",
"I  c #3E5744",
"U  c #086C46",
"Y  c #146D45",
"T  c #0C7345",
"R  c #0D7C4B",
"E  c #157343",
"W  c #197242",
"Q  c #2B7640",
"!  c #2A7C42",
"~  c #207844",
"^  c #3A7A44",
"/  c #367C48",
"(  c #367852",
")  c #4C4C4A",
"_  c #544E50",
"`  c #4F5950",
"'  c #5D5955",
"]  c #53414C",
"[  c #6A5642",
"{  c #685947",
"}  c #685B5A",
"|  c #785F4E",
" . c #456946",
".. c #4A764D",
"X. c #7B6652",
"o. c #7D6A55",
"O. c #6B6953",
"+. c #6F6862",
"@. c #805C00",
"#. c #8A6200",
"$. c #99640A",
"%. c #996512",
"&. c #A5690D",
"*. c #A66D1A",
"=. c #AB7617",
"-. c #A87517",
";. c #B67615",
":. c #B47B18",
">. c #D96501",
",. c #FF6E00",
"<. c #FF7900",
"1. c #FC7409",
"2. c #8B7055",
"3. c #A37E5E",
"4. c #1C9240",
"5. c #2C8345",
"6. c #278944",
"7. c #318B4B",
"8. c #348249",
"9. c #2A9649",
"0. c #31924E",
"q. c #3D815A",
"w. c #36A255",
"e. c #27A34C",
"r. c #3B8F61",
"t. c #468B52",
"y. c #4E8951",
"u. c #58935C",
"i. c #4F8D55",
"p. c #698356",
"a. c #758B5B",
"s. c #6A945F",
"d. c #539161",
"f. c #7E9A6B",
"g. c #7F9C70",
"h. c #6A9062",
"j. c #42B060",
"k. c #70A76B",
"l. c #75AD6C",
"z. c #77AD70",
"x. c #BBA512",
"c. c #BA8B38",
"v. c #C28417",
"b. c #FF8700",
"n. c #DBB00F",
"m. c #CEB112",
"M. c #CCA810",
"N. c #E5B804",
"B. c #FC9524",
"V. c #CA9337",
"C. c #E4C100",
"Z. c #FBCD01",
"A. c #FBD100",
"S. c #8C8D5D",
"D. c #958B5C",
"F. c #91935E",
"G. c #A5825F",
"H. c #85956B",
"J. c #8B9369",
"K. c #849A6C",
"L. c #8A9C6E",
"P. c #8D9267",
"I. c #8B9E71",
"U. c #839D72",
"Y. c #92906D",
"T. c #A58361",
"R. c #AB8864",
"E. c #B38C66",
"W. c #B28B65",
"Q. c #AC9D6B",
"!. c #A89A66",
"~. c #BC9E6D",
"^. c #BA956B",
"/. c #A48B77",
"(. c #B69B74",
"). c #A7927F",
"_. c #9FA16F",
"`. c #87A572",
"'. c #95A476",
"]. c #8AB479",
"[. c #ACA56E",
"{. c #B6A66F",
"}. c #A5A779",
"|. c #B4A474",
" X c #BAA678",
".X c #C9995B",
"XX c #D09D59",
"oX c #F49E4D",
"OX c #C59B6B",
"+X c #CA9B6D",
"@X c #C1966B",
"#X c #C39D77",
"$X c #D09E6B",
"%X c #C6A16D",
"&X c #D5A26E",
"*X c #DAA36D",
"=X c #C4A573",
"-X c #CDA673",
";X c #C6A97A",
":X c #C9AB77",
">X c #D4A473",
",X c #DCA671",
"<X c #D4A975",
"1X c #DEA975",
"2X c #D3A67B",
"3X c #D3AD7A",
"4X c #DEAB78",
"5X c #E0AB77",
"6X c #E0AC78",
"7X c #EBAE73",
"8X c #E4B17E",
"9X c #B0B380",
"0X c #E6B381",
/* pixels */
"*X*X*X*X*X*X*X*X*X*X*X*X*X*X,X5X5X,X,X,X6X1X4X,X,X,X6X,X*X*X*X,X1X7X,X*X1X5X,X*X*X*X*X*X*X$X*X5X5X*X*X*X*X*X*X*X5X6X6X,X*X,X5X6X",
"*X*X*X*X*X*X*X*X*X*X,X*X*X*X*X1X,X,X,X,X1X1X4X1X,X,X,X,X*X*X*X*X1X,X*X*X,X,X,X*X*X*X*X*X*X*X,X,X,X*X*X*X*X*X*X*X,X5X6X,X*X,X6X6X",
"*X*X*X*X*X*X*X*X5X8X5X*X*X*X*X*X,X,X1X,X*X1X4X4X4X,X,X*X*X*X*X*X*X*X*X*X,X*X*X*X*X*X*X*X*X5X5X*X*X*X*X*X*X*X*X*X*X1X5X,X*X1X5X5X",
"*X*X*X*X*X*X*X*X5X8X5X*X*X*X*X*X,X,X,X,X,X,X1X1X6X,X*X*X*X*X*X,X,X,X*X*X*X*X*X*X*X*X*X*X*X5X,X*X*X*X*X*X*X*X*X*X*X,X1X*X*X*X1X5X",
"*X*X*X*X*X*X*X*X5X0X7X*X*X*X*X*X*X*X,X,X1X,X*X,X4X,X*X,X*X*X*X*X1X5X,X*X,X1X,X*X*X*X*X*X*X*X*X*X*X*X5X*X*X*X*XXX*X*X*X*X*X&X*X*X",
"*X*X*X*X*X*X*X1X5X6X1X*X*X*X*X*X*X,X,X,X,X,X*X*X1X,X*X*X*X*X*X*X,X5X*X*X5X5X,X,X*X*X*X5X*X*X*X1X,X6X8X*X*X*X*X*XXX*X*X&X&X*X*X*X",
"*X*X,X1X,X*X5X6X5X,X*X*X*X*X*X*X*X,X,X,X,X*X*X*X,X*X,X1X*X*X*X*X*X*X*X*X5X5X5X5X*X*X1X8X6X*X,X8X8X8X8X*X*X*X*X*X*X*X*X*X*X,X1X1X",
"*X*X1X5X,X*X5X8X5X*X*X*X*X*X*X*X,X,X5X,X<X XK.K.`.`.`.L.L.L.L.L.L.L.L.L.L.L.`.L.L.I.=X8X5X*X*X8X8X8X8X*X*X*X*X*X*X*X*X*X*X,X5X5X",
"*X*X,X*X*X*X6X8X6X1X*X*X*X*X*X*X*X*X*X*X&XL.x C C C C C C B B n b A N b b b B b A ! !.,X,X*X*X1X6X7X6X,X,X*X*X,X5X,X5X,X1X,X,X,X",
"*X*X*X*X*X*X5X8X6X1X1X*X*X*X*X*X*X*X{.!.S. .3 2 2 2 2 2 2 2 a x x l l b l b b l j N p.D.OX>X,X*X<X6X6X6X3X*X*X7X6X6X5X5X5X1X*X,X",
"*X*X*X*X,X5X1X1X1X*X*X*X*X*X*X*X*X*XI.u.f : . X o o X X X X 9 7.8.Q B B B Q Q B Q Q c ^ Y.;X6X5X6X8X6X,X,X,X1X3X5X6X6X5X5X1X1X1X",
"*X*X*X*X,X5X,X*X*X*X*X*X*X*X*X*X*X*XK.t.u #                 : s v N B B N B B B B n u g J.;X0X0X0X8X8X*X*X7X6X6X5X5X5X5X6X5X5X1X",
"*X*X*X*X1X5X1X,X,X*X,X5X5X*X*X*X*X*XU.r.d ,                 X $ , k R T T T T T T T k k H.;X0X0X8X5X1X,X,X6X8X6X6X,X,X1X5X5X5X5X",
"*X*X,X5X5X5X1X1X,X*X5X8X7X1X,X1X1X*XL.u.p :                     % v 8.B N N n B B Q v f J.;X6X0X8X,X,X6X6X0X0X6X6X,X*X,X5X5X6X6X",
",X,X,X5X5X5X1X5X,X,X5X6X5X,X*X,X,X,X.XV.$.6                     & &.v.;.;.;.;.;.;.;.&.=..X5X0X0X8X<X,X7X8X8X0X8X6X,X,X1X5X6X6X6X",
"5X,X5X,X,X5X,X,X1X5X1X1X,X,X*X*X*X1XoXB.>.w .                 . - >.b.<.<.<.<.<.<.<.,.1.oX7X0X0X8X6X6X0X0X8X0X7X3X7X5X6X6X6X5X6X",
"1X1X1X1X1X1X*X1X,X5X1X,X,X,X*X*X,X,X+Xc.$.G F 6 .           7 F H *.:.=.-.-.=.=.=.=.%.*..X1X6X8X8X8X7X8X8X8X8X6X6X6X5X5X5X6X6X6X",
"1X5X1X1X1X1X,X*X,X,X,X5X,X,X,X*X,X*XU.t.c M.C.G +         . H N.M.P Y W N Q n N N N j v J.=X5X5X6X0X0X6X6X6X6X6X1X6X3X6X5X7X3X6X",
"5X5X1X1X5X,X*X*X,X,X,X,X,X,X,X*X*X,Xl.( b m.Z.#.+         . @.Z.n.Z U T W E E E E E k z H.=X1X5X6X0X0X6X7X3X6X6X6X6X1X7X5X5X5X5X",
"5X5X6X6X,X,X*X*X*X*X,X,X,X6X5X,X,X,XL.( c m.A.#.+         . @.Z.N.P Y N B B B B N V p m J.%X*X5X6X0X0X0X8X6X5X6X6X5X5X5X7X6X5X5X",
"1X5X5X5X,X,X*X*X,X*X*X,X,X5X5X,X*X1XI.( A x.N.G +         . H N.M.P Y n B N N N ! Q j m P.~.*X5X6X0X8X0X0X6X6X6X6X6X6X6X6X6X6X6X",
"*X*X1X5X,X*X*X*X*X*X,X6X5X5X5X,X1X5XK.q.u S F 7             6 F D M W N N N B N N N u p H.=X5X*X*X3X6X0X0X7X6X8X8X,X,X1X6X6X6X6X",
"*X*X1X1X,X,X*X,X*X,X,X5X6X6X1X,X*X5XI.i.u @                     X z 5.Q N N N N Q Q u s J.=X1X*X,X6X6X0X0X8X6X8X8X6X*X,X5X5X6X6X",
"6X5X*X*X*X*X,X5X6X6X6X6X6X6X6X6X6X5X9X'.a.h # , 4 :     * 4 > , 3 b ! Q B N B N l n p.J.{.-X1X0X0X0X8X5X3X6X6X,X*X,X*X7X5X5X3X6X",
"6X6X,X*X*X*X,X5X4X6X6X6X6X5X6X6X6X6X4X4X:XU.j V 7.p X   i 0.5.! Q ! Q Q Q Q ~ b u v |.&X*X*X,X0X0X0X8X6X6X6X6X,X*X,X,X,X5X5X5X6X",
"6X6X5X5X,X*X,X5X6X6X4X6X6X6X6X6X5X6X4X4X4X}.i.t.7.p $ @ t Q Q Q Q n n b b n n Q P p.%X*X*X4X1X*X1X6X6X4X6X6X6X1X1X1X6X1X5X5X5X5X",
"5X5X5X5X,X*X1X5X4X6X6X6X5X6X6X5X5X5X4X6X6X3X{.S.g t t y : o < s s p p p p a t ..{.-X*X*X,X4X1X*X*X6X5X6X6X6X5X1X1X6X6X5X5X5X5X5X",
"6X5X5X5X,X*X,X5X6X6X6X5X5X5X1X*X*X1X5X1X,X*X*XD.g t v t $   * i i t t i i t y O.<X6X,X*X*X1X1X4X5X4X4X*X,X,X*X*X*X,X1X,X*X*X*X,X",
"5X6X5X5X,X*X,X5X6X6X5X5X5X5X1X,X*X1X5X1X,X*X*XS.M v B v *   < n b v v j v b C s.<X5X,X*X*X1X1X5X6X5X5X,X*X*X*X*X*X,X5X*X*X*X*X,X",
"6X6X4X4X1X1X5X5X5X,X1X5X5X5X5X5X1X1X*X1X5X,X*XF.^ V 5.n :   4 ! ! B V N N 5.w.l.<X5X1X*X,X5X1X1X4X6X5X*X*X,X,X5X,X5X5X5X1X1X1X1X",
"6X6X5X5X4X4X5X5X,X,X,X5X5X5X5X5X1X*X*X1X5X,X*XF.Z N N n 4 * y B N N B B B 5.w.l.<X5X,X*X,X5X1X1X4X4X5X*X*X1X5X5X5X5X5X5X5X5X1X6X",
"6X6X5X5X5X5X5X5X1X,X1X5X1X,X,X5X1X1X1X*X,X*X,X!.Z b z f v n v f v b B n N 6.w.l.3X6X6X,X,X,X,X,X,X,X,X,X,X1X5X5X5X5X5X5X6X6X6X6X",
"0X5X5X5X5X5X5X5X5X*X5X5X5X*X*X5X5X5X5X*X*X<X:X_.B l v f f s v v v N C N N 5.9.k.:X3X1X5X1X*X*X*X*X*X*X1X1X6X5X5X1X,X1X1X6X6X6X6X",
",X5X5X5X5X5X5X5X5X,X5X5X5X*X*X*X6X5X5X1X<X9Xz.d.B b ! n < @ 9 B N N N N B n z ^ k.].;X1X*X*X*X,X,X*X*X1X,X6X5X,X1X5X1X5X6X6X4X6X",
"5X5X5X5X5X5X5X5X5X5X5X5X5X*X*X5X6X5X5X5X3Xz.4.6.n B 5.N *   < ! N N N N B v i v 9.w.[.*X*X*X*X1X,X*X*X1X1X1X6X,X1X5X5X6X6X4X6X6X",
"1X0X5X5X5X5X5X5X5X5X5X5X,X*X*X5X5X6X6X6X3X].9.6.B n 5.n :   4 ! N N N B N n p v 9.w.[.1X*X*X*X5X1X1X,X,X,X,X,X4X1X6X5X5X6X6X6X6X",
"5X5X5X5X5X5X5X5X5X5X5X5X5X*X*X5X6X6X6X6X3X].e.6.B n 5.n :   4 Q N N n Q N b f n 9.j.|.1X,X*X*X5X5X5X1X1X1X,X*X,X5X6X6X6X6X6X3X6X",
"5X5X5X5X5X5X5X5X5X5X5X5X5X*X*X5X5X1X1X1X2X'.8./ n N 5.n :   4 Q N N Q Q B b s v / d.{.6X1X*X*X1X4X5X6X1X1X*X*X6X6X6X6X6X6X6X6X6X",
"5X5X5X5X5X5X5X5X5X5X5X5X5X5X5X5X5X5X1X*X2X/.)  .! 5.7.Q >   5 7.5.! ! 5.5.N n Q _ +.#X5X5X*X*X*X,X6X6X6X6X*X*X,X6X1X5X5X6X5X5X1X",
"5X5X5X5X5X5X5X5X5X5X5X,X5X5X5X6X5X5X,X1X2X/.] I l z Q v *   < n b v v v l s t h _ } ^.5X,X*X*X*X*X1X1X1X1X,X*X4X6X,X,X1X6X6X1X6X",
"5X5X5X5X5X5X5X5X5X5X5X*X*X5X5X5X5X5X5X5X2X/.) q $ $ * $ X   X $ $ $ $ $ $ $ @ 1 ) ' E.4X,X*X*X*X*X,X,X,X,X,X,X5X6X,X*X4X6X6X1X6X",
"5X5X5X5X5X5X5X5X5X5X5X*X*X5X5X5X5X5X6X5X2X).} q o                             & ' +.^.1X,X*X*X*X,X*X*X*X,X,X,X1X4X,X*X4X4X6X6X6X",
"5X5X5X5X5X5X5X5X5X5X5X5X5X5X5X5X5X4X5X6X4X2X(.} o                             0 /.#X>X,X,X*X*X*X*X*X,X,X,X,X*X,X*X*X*X,X,X5X,X6X",
"5X5X5X5X5X5X5X5X5X5X5X5X5X5X5X5X5X7X6X6X4X4X,X2.O         . X   X o           q $X1X1X,X*X*X*X*X,X*X*X,X1X*X*X,X*X*X*X,X1X5X,X1X",
"5X5X5X5X5X4X4X4X5X5X5X5X5X6X5X6X6X5X5X7X4X6X4XR.[ e & O e L K K K [ J ;   ; J 2.&X,X,X1X1X*X*X*X*X*X*X*X*X*X*XXX*X,X1X,X,X,X1X6X",
"5X5X5X5X5X4X5X1X5X5X5X5X5X5X5X6X6X6X5X6X6X4X5X>X+XR.q ; 3.+X+XOX@X+X@XK . | +X$X,X*X,X5X1X,X,X,X,X*X*X*X*X*X*X*X*X,X1X,X*X,X1X1X",
"5X1X5X5X5X5X5X5X5X5X5X5X5X5X6X6X6X6X6X6X5X6X5X5X*X@Xq 8 R.*X,X*X*X5X*X[   2.4X4X,X*X,X5X5X1X1X1X,X*X*X*X*X*X*X*X*X*X,X,X<X1X1X1X",
",X0X5X5X1X5X5X5X5X5X5X5X5X5X6X6X6X6X6X6X6X5X5X,X*XW.0 = T.,X*X*X*X*X$XK   o.4X4X,X*X,X4X5X5X5X5X1X*X*X*X*X*X*X*X*X*X*X,X1X1X1X1X",
"1X4X,X1X5X5X5X1X1X1X5X5X5X5X5X5X5X5X6X5X5X5X5X1X*XE.0 = 3.,X1X,X,X,X+XJ   X.>X4X*X*X0X*X0X*X*X*X1X*X*X*X*X*X*X*X*X*X*X*X*X,X5X1X",
"1X0X0X1X5X5X0X1X1X0X5X5X5X5X5X5X1X8X5X8X5X5X,X1X1XE.0 8 T.1X1X6X4X1X2X[   X.1X4X0X0X*X$X$X*X*X0X1X*X*X*X*X*X*X*X*X*X*X*X*X*X5X1X",
"0X1X,X1X,X1X1X,X1X5X1X1X5X5X0X,X5X5X5X1X5X5X1X1X,XE.8 8 3.1X1X1X1X1X>X[   X.,X4X*X0X0X*X*X*X*X0X,X*X*X*X*X*X*X*X*X*X*X*X,X,X,X,X",
",X1X,X0X4X4X0X4X0X,X0X,X5X5X1X5X5X1X1X1X1X5X1X1X*XE.0 = T.5X1X1X1X1X>XJ   X.4X5X0X*X*X0X*X0X*X*X*X*X*X*X*X*X*X*X5X*X*X*X1X,X*X,X",
"4X1X4X1X1X0X1X0X1X0X5X5X0X1X5X1X5X,X5X1X5X5X5X,X*XR.8 ; 3.1X1X1X1X1X>XJ   | 2X5X*X0X*X0X0X*X*X*XXX,X*X*X*X*X*X5X5X,X*X,X5X1X*X*X",
",X4X,X0X4X,X4X,X1X5X5X5X,X1X1X*X*X1X7X1X5X5X5X5X*XE.0 8 T.1X1X5X6X6X>X{   +.4X5X*X*X*X*X7X*X*X*X*X*X$X*X*X*X*X5X5X,X*X,X1X*X*X*X",
"1X4X,X,X1X1X0X0X1X1X5X5X5X5X5X,X,X5X5X5X5X,X5X*X*X~.P M Q.1X1X1X5X4X>Xa.9 f.*X0X*X$X*X0X,X*X*X*X*X*XXX*X*X*X*X*X,X,X,X,X,X*X*X*X",
"1X5X*X*X,X1X,X1X,X0X5X5X5X5X5X5X5X5X5X,X*X*X*X*X*X{...t.|.4X4X4X6X4X>Xf.I 9X*X*X*X0X*X0X,X*X*X*X*X*X*X*X*X*XXX*X*X,X5X,X*X*X*X*X",
"0X1X*X*X,X*X0X,X1X1X1X0X,X,X1X0X5X5X1X,X*X*X*X*X*X^.^ / [.1X5X1X1X4X3Xa.l K.&X*X,X0X,X0X*X*X*X*X*X*X*X*X*X*X*X*X*X,X*X*X*X*X*X*X",
"*X,X0X>X0X0X,X,X1X0X1X,X1X0X0X,X5X5X5X1X5X5X1X,X*XQ.^ / Q.1X,X1X1X1X<Xa.l f.*X*X,X,X0X,X,X0X,X$X*X*X*X1X*X*X*X*X*X*X*X*X*X*X*X*X",
",X0X,X0X>X1X,X0X1X1X1X0X0X,X,X0X5X5X5X1X,X1X,X,X*X%XK.U.;X1X1X1X1X1X1X}.h.|.&X*X*X0X0X,X0X,X,X$X$X*X*X1X,X*X*X*X*X*X*X*X*X*X*X*X",
"*X$X*X0X,X0X>X0X1X0X1X1X,X0X,X*X5X5X5X,X*X*X*X,X1X1X>X3X,X1X1X1X1X1X1X4X3X<X,X*X*X0X,X0X,X0X0X$X*X*X*X*X*X*X*X*X,X*X*X*X*X*X*X*X",
"*X*X,X,X0X,X0X*X0X*X0X*X,X0X,X,X5X5X1X,X*X*X*X,X1X1X1X1X1X1X1X1X1X4X5X6X4X4X,X*X5X0X,X,X,X0X,X$X$X$X*X*X*X$X*X*X,X*X$X*X*X*X*X*X",
"*X*X,X*X,X,X,X0X*X0X*X0X0X,X,X0X1X,X,X1X5X1X1X,X*X*X*X*X*X,X1X1X4X5X6X5X4X1X,X*X*X,X,X0X,X,X*X*X*X*XoX$X*X*X*X*X*X*X*X*X*X*X*X*X",
"*X*X*X*X,X0X,X0X0X>X0X*X0X*X0X*X1X,X*X1X5X1X5X1X*X*X*X*X*X,X1X1X4X4X5X6X5X4X,X*X*X*X*X,X0X*X*X*X$X*X$X*X*X*X*X*X*X*X*X*X*X*X*X*X",
"*X*X*X*X*X*X*X*X*X*X,X,X>X0X0X*X,X,X*X1X1X5X1X1X*X*X*X*X,X,X,X,X,X,X4X5X5X1X,X*X*X,X5X0X5X*X*X*X*X*X*X*X*X,X,X1X,X*X*X*X$X*X*X*X"
};
