/* XPM */
static char *result[] = {
/* columns rows colors chars-per-pixel */
"64 64 218 2 ",
"   c #000000",
".  c #0A0708",
"X  c #0B090A",
"o  c #070608",
"O  c #130D0E",
"+  c #160E11",
"@  c #141113",
"#  c #191214",
"$  c #1A151A",
"%  c #1A181B",
"&  c #171418",
"*  c #0F0E10",
"=  c #22191F",
"-  c #251D25",
";  c #291E28",
":  c #262428",
">  c #2C222A",
",  c #252327",
"<  c #32232D",
"1  c #2F2B32",
"2  c #342A34",
"3  c #3C2A35",
"4  c #3D2C3B",
"5  c #362935",
"6  c #3C333D",
"7  c #37313A",
"8  c #541D24",
"9  c #4B272B",
"0  c #422D3C",
"q  c #462936",
"w  c #5A2D3A",
"e  c #562735",
"r  c #43313E",
"t  c #49323F",
"y  c #5C333C",
"u  c #782A2C",
"i  c #662B3A",
"p  c #68313B",
"a  c #75323D",
"s  c #73353B",
"d  c #6C2B2E",
"f  c #3E3440",
"g  c #3F3842",
"h  c #412E40",
"j  c #423442",
"k  c #4C3341",
"l  c #443B45",
"z  c #463D49",
"x  c #493C49",
"c  c #4A3B45",
"v  c #543B47",
"b  c #543F50",
"n  c #7B3A42",
"m  c #643B47",
"M  c #464249",
"N  c #4A464B",
"B  c #4C494E",
"V  c #534147",
"C  c #54414B",
"Z  c #5B414F",
"A  c #4E4B51",
"S  c #524D55",
"D  c #5A4954",
"F  c #555156",
"G  c #5A515B",
"H  c #75434B",
"J  c #7B4647",
"K  c #634956",
"L  c #685358",
"P  c #704B53",
"I  c #73655F",
"U  c #694F61",
"Y  c #645662",
"T  c #665864",
"R  c #6B5865",
"E  c #755C6F",
"W  c #755A68",
"Q  c #795E70",
"!  c #765C70",
"~  c #7E636B",
"^  c #796868",
"/  c #7B6273",
"(  c #97172A",
")  c #AA162A",
"_  c #AC1B2B",
"`  c #A41528",
"'  c #B11F2B",
"]  c #A61E30",
"[  c #832A2D",
"{  c #9A2B2F",
"}  c #842436",
"|  c #8B2C36",
" . c #8E2E39",
".. c #862D39",
"X. c #952635",
"o. c #85383C",
"O. c #93343B",
"+. c #99393B",
"@. c #AF222A",
"#. c #A72D2F",
"$. c #B3232D",
"%. c #B9252F",
"&. c #BA2A2F",
"*. c #A32331",
"=. c #AA2F34",
"-. c #BA2630",
";. c #BC2A31",
":. c #B32631",
">. c #A63838",
",. c #BD3232",
"<. c #B83837",
"1. c #C43434",
"2. c #C43A34",
"3. c #CB3D36",
"4. c #C43D39",
"5. c #CB3D39",
"6. c #C93636",
"7. c #9E423F",
"8. c #97413F",
"9. c #8A413F",
"0. c #AE463F",
"q. c #C3463B",
"w. c #CC4339",
"e. c #CD4136",
"r. c #D14339",
"t. c #D74A3B",
"y. c #863941",
"u. c #943A46",
"i. c #A63D44",
"p. c #884245",
"a. c #944745",
"s. c #8E5353",
"d. c #A24643",
"f. c #B34440",
"g. c #8C6C58",
"h. c #8A715D",
"j. c #967455",
"k. c #AB7E54",
"l. c #A37159",
"z. c #8C596D",
"x. c #81666C",
"c. c #816A6B",
"v. c #8B7563",
"b. c #8E7868",
"n. c #826475",
"m. c #8A6D74",
"M. c #86697A",
"N. c #896A7B",
"B. c #876877",
"V. c #94757B",
"C. c #96787E",
"Z. c #967675",
"A. c #99796C",
"S. c #A87E6D",
"D. c #C64C45",
"F. c #AC8156",
"G. c #AE845B",
"H. c #A6805C",
"J. c #B1875E",
"K. c #BA8B5D",
"L. c #B5895D",
"P. c #BA8D61",
"I. c #B58862",
"U. c #BE9165",
"Y. c #B28C7A",
"T. c #BC9275",
"R. c #A4876D",
"E. c #C89769",
"W. c #D29E6D",
"Q. c #D09966",
"!. c #C79A75",
"~. c #C99C77",
"^. c #DAA36D",
"/. c #D7A26E",
"(. c #D5A373",
"). c #DCA671",
"_. c #DEA975",
"`. c #DEAA79",
"'. c #D5A57C",
"]. c #E0AB77",
"[. c #E0AC78",
"{. c #E4B17E",
"}. c #8F6F84",
"|. c #906F84",
" X c #8E7183",
".X c #927286",
"XX c #96758A",
"oX c #9D7A8D",
"OX c #997987",
"+X c #9B7D90",
"@X c #A07B8E",
"#X c #A07D83",
"$X c #A07F94",
"%X c #AE8B87",
"&X c #BA9486",
"*X c #A38295",
"=X c #A6859A",
"-X c #AB899D",
";X c #A98898",
":X c #B59398",
">X c #AF9093",
",X c #AF8CA2",
"<X c #B08DA3",
"1X c #B391A6",
"2X c #B795AA",
"3X c #BD9EB2",
"4X c #C39B83",
"5X c #C69D88",
"6X c #C19F99",
"7X c #DBAB83",
"8X c #D3A688",
"9X c #CFA893",
"0X c #E6B380",
"qX c #CBA8A9",
"wX c #D7B1A5",
"eX c #C5A5B9",
"rX c #D2B1B5",
"tX c #CFB0C4",
/* pixels */
"^.^.^.^.^.^.^.^.^.^.^.^.^.^.).]._.).^._.`._.[._.^.).[._.).^.).).]._.).^.).[.).).^.^.^.^.^.W.^.].].^.^.^.^.^.^._.].].]._.^._._.].",
"^.^.^.^.^.^.^.^.^.^.).^.^.^.^.)._.).).)._._._._.).).).).^.^.^.^._.).^.^.).).).^.^.^.^.^.^.^.^._._.^.^.^.^.Q.Q.^._.].].).^.).].].",
"^.^.^.^.^.^.^.^.].{.].^.^.^.^.^.)._._.).^._.[._._.).^.^.^.^.^.^.^.^.^.^.^.^.^.^.^.^.^.^.^.]._.^.^.^.^.^.^.^.^.^.^._._.).^.).].{.",
"^.^.^.^.^.^.^.^.].{.].^.^.^.^.^.^.).).).).)._._._._.^.^.^.^.^.^.).).^.^.).^.^.^.^.^.^.^.^.]._.^.^.^.^.^.^.^.^.^.^.)._.^.^.).)._.",
"^.^.^.^.^.^.^.^.].{.[.^.^.^.^.^.^.^.)._._.).^.)._._.^.^.^.^.^.^.).].).^.)._.).^.^.^.^.^.^.^.^.^.^.^.].^.^.^.^.^.^.^.^.^.^.^.^.^.",
"^.^.).^.^.^.).).].[.].).^.^.^.^.^.^.).).).^.^.)._._.).).^.^.^.)._.).).^._.].).).^.^.^.).).^.^.].).].[.^.^.^.^.^.^.^.^.^.^.^.^.^.",
"^.^.).].^.^.].[.].].^.^.^.^.^.^.^._.).).).^.^.^.^.)._._.^.^.^.).^.^.^.)._.[.[._.).^._.{.].^.).{.{.{.{.^.^.^.^.^.^.^.^.^.^.)._._.",
"^.^.).].).^.].{.].^.^.^.^.^.^.^.).)._.).^.^.^.^.^.)._.).^./.8X6X8XwXwX7X)._.`._.).^.).{.].W.^.[.{.{.{.^.^.^.^.^.^.^.^.^.^.)._.].",
"^.^.).^.^.^.[.0X].].).^.^.^.^.^./.^.^.^.^.^.^.^.^.^.).^.&X$X-X1XeX2X<X2XeX7X].).^.^.^.].].^.^.]._.[.{._._.^./.).^.)._._._.).).).",
"^.^.^.^.^.^.].{.].].).).^.^.^.^./.^.^.^.^.^.^.^.^.^.!.OX}.}.}.|.;X<X,X<X<XtXwX).^.^.^.^.^.].^.^.).[._._._.^.^._.]._.].].].).^.).",
"^.^.^.^.).].].).).^.^.^.^.^.^.^.^.^.^.).).^.^.^.W.Y.}.}.}.}.|.|.+X,X,X,X<X1XeXrX`.W.].].[.[.[.[.[.{.{.^.)._._._.].].].].]._._._.",
"^.^.^.^.).].).^.^.^.^.^.^.^.^.^.^.^.^._._.).^./.Z.|.}.}.}.}.|.|.XX<X,X,X<X<X<X<X<X'.].{.0X0X0X0X0X{.{.^.^._.[.[.].].].].].].].].",
"^.^.^.^.].].).).^.^.^.]._.).^.).).).^._.`.).Y. XN.B.}.}.|.|.|.|.n.oX<X<X<X,X,X,X<X=X:X0X0X[.0X0X{._._._._.{.{.[.].).).].].].].].",
"^.^.).].].].]._.].^.].{.I L K.)._.).).).`.T.E E XXB.B.}.|.|.n.b 3 r L +X,X,X<X<XXX|.|.>X7X[.[.0X{.).W.H.F R.0X[.].).^.).].].].].",
").).).].).].].].].^.].].F C o.).).).).^.!.^ E E M.*X/ }.M.L 0 3 - < q k M.,X<XXX|.|.|.|.:X[.[.0X{.).P.y F R.0X].]._.).].].{.].].",
"_.).].).].).).^.].].].].F C ( l.^.).`.!./ E E E E  XN.b t 0 j : , , 1 r 0 b L N.|.}.}.}.oX6X0X0X{._.9.u A H.0X{.].].].].].].].].",
"_._._.)._._.).)._._._._.S C ` | ).).).n.E E E E E }./ 5 3 4 6 j f j g f 6 4 3 ~ }.}.}.}.|.$X9X[.{.H.( } S v.{.[.[.].[.].].].[.[.",
"`.[._._._._.).^.)._._.).G C ` ( I.W.A.E E E E E ! E t 2 X - 7 X o . X 3 - @ 3 v n.}.}.}.}.}.-X7X[.a.) u F v.[.].].].[.].].].].].",
"[.`.]._.].).).^.).)._._.S C ) ` a.7XW E E E E E K k 5     ; 6       . j ,   X 3 k n.}.}.}.|.+X9X~.( ) u S v.].].].`.].[.].].].[.",
"`.].].].).).^.^.^.^.^.^.F C ) ) X.2X<XE E ! E U k >       - j       . 6 ,     * 3 v }.}.}.}.<X3Xz.` ) } F v.[.].].{.].].].[.[.].",
"].].].[.).^.^.^.^.^.).).F C ) _ ] z.3X3XQ W D k j X       - f       X r ,       ; 0 b |.|.$X<X,Xu.` ) } D b.[.[.[.].].[.[.].[.[.",
"^.^.].].).^.^.^.^.^.).].F C _ ) _ u.1X1X3XU t h x 3 7 5 7 f z 4 7 7 6 x M 6 6 6 j x q Z |.<X<XXX( ` ) } S b.].{.{.].).).].[.[.[.",
"^.^.).].).^.).^.).)._.].F C _ *.] X.,X,X<XR 3 < 5 5 5 5 5 5 f 5 4 6 7 4 r 6 7 7 6 g 2 5 |.<X-Xz.] ( *.} S v.].[.{.].).).].[.[.].",
"].].^.^.^.^.].[.].].].].F N u.M j h }.<X$Xk @ $ z X       - g       . f :       > 6   > b $X,Xb h c D y.S v.[.].^.^.).).].].].[.",
"].[.^.^.^.^.)._.[.[.[.[.F C a l j h U ,XK <   # z X       ; g       X f ;       > g   o 3 Q -X0 6 j l n S v.[.).^.).^._.].].].].",
"].].].].^.^._.[.[.[.].[.F C *.y w e m M.0 o   $ x X       ; g       X f ,       > g     $ t n.e w w i | S v.[._._.].[.].].].].].",
"[.[.].].).^.).].].[.[.[.F C :._ $.' X.v -   o $ x * o o o ; l X X o * j 1 X X o > g o o o 5 p :.$._ $.| B v.`.`._.].[.].[.].].].",
"].[.].].).^._.].[.[.].].S b :.$.%.' :.0 4 h h h j 0 j j j f l j c j z l l l z M z M N B N c u :.%._ $.| S h.^./.^.)._.).^.^.^.).",
"[.[.].].).^._.].[.[.].].F V -.@.%.' 1.9 + + & - f % $ $ & > 7 & % % % 3 : % % % > 6 % % % % X.@.$.' %.| A h././.^.).).).^.^.^.^.",
"[.[.`.[._.)._.]._.)._.].F C -.$.-.$.' 8       X j         % 1         6 X       % 2         *.$.%.$.%. .B v._._.).].]._._._.].].",
"[.[.`.`.[.`.].]._.)._.].F C &.$.-.' -.u       o 1         @ =         2         X ,       O &.$.$.' 1. .A h.].].].[.[.].].].].].",
"`.[.].].[.].].].).)._.(.A V ;.$.1.-.;.}         @         X *         @           @       # &.@.%._ 1. .A v.]._.].`.`.].].[.[.].",
"[.].].].].].].].].)._.T.A C -.$.;.$.1.[                                                   + ;.$.;.$.1. .A ^ `._._._._._.[.[.[.{.",
"[.].].].].].].].].].`.%XA V ;.i.y.n i q                                                   + w i y.y.<.O.S T `._._._._.].[.[.`.`.",
"`.[.].].].].].].].].{.R.A C i.M k j h <                                                   + 4 f l l K  .A T `.)._._.`.[.[.[.].[.",
"[.[.].].].].].].].'.&X&XA C y.M j h 4 <                                                   @ 4 h j l x y.B ^ &X&X_.`.`.].[.`.[.[.",
"[.[.].].].].].].].OX/ Q A v >.y a | =.u                                                   # =.{ ..p a O.A T }.}.4X[.[.[.[.[.[.[.",
"].].].].].].].].]./ ! ! A V <. .,.;.6.[                                                   # 2.;.1.{ +.+.A G E E 4X].`.[.[.[.`._.",
"].].].].].].].[.].E ! ! A v H T H 1.1.[                                                   # 1.,.#./ x H A G E E T.[.].[.[.]._._.",
"].].].].].].].].].! ! ! A N K G c =.2.[                                                   # ,.1.p S S m A G ! E Y.`.)._.[.]._.[.",
"].].].].].].].].].A.! W A N p.3 d u.2.[                                                   + 2.2.s e x p.B F R R W.).^._._.[.[.[.",
"].].].].].].].].[._.W.T.B v +.O.+.+.e.[                                                   X 2.3.n #.n o.A ^ E.(.`.).).)._._._.[.",
"].].].].].].].].].].`.~.B V <.p s 1.3.u                                                   X 2.2.+.p o.+.B c.).^.).^.^.)._._._._.",
"].].].].].].].].].[.[.4XB C 5.2.2.3.3.u                                                   X 4.3.3.,.e.7.A ^ ^.^.^.^.^.)._._._._.",
"].].].].].].].].[.[.[.4XB V w.3.3.3.e.u                                                   . 4.2.3.2.5.+.B ^ /.^.^.)._.).)._._._.",
"].].].].].].].].`.7X9X9XB V 5.5.5.3.e.u                                                   X 4.2.e.3.r.d.B ^ 5X4X/._._.).).)._._.",
"].].].].].].].].`.2X<X,XN N w.w.r.3.f.9                                                   X a.2.5.3.r.7.B T XX*X5X).^.).)._._._.",
"].].].].].].].].`.<X,X,XB v t.w.d.m 0 >                                                   X 4 t p.0.r.d.B T  XN.&X/./.)._._._._.",
"].].].].].].].].'.<X,X,XB V D.D M 6 4 >                                                   . 3 r c x s.a.N T  X}.%X^.^.^.^.].].].",
"`.`._.].].].].[._.>X;X;XB V s.l r 3 w 9                                                   o s t 4 l S a.B Y N.M.T.^.W.W.^.].^.].",
"_.].].`.].].5X:X,X*XoX=XB V 7.M s 0.e.d                                                     q.<.9.y c 8.B T XXoX;X;X>X).^.).].].",
"].].].].[.[.OX|.|.|..X XB V r.<.t.e.t.d                                                     q.e.t.2.q.7.N Y  X}.|.}..X'.].).^.W.",
"]._.].].].].#X|. X X X XN V w.t.t.w.9.W B.N.B.B.M.N.N.oX*XoX*X+X+X+X+X+XoXXX~ B.B.B.M.B.n.n.H >.t.e.t.7.N L  X X|.}.}.'.].).^.^.",
"_._.].].].].%X.X.X.X X XN V w.w.9.U V.XXOXOX@X@X@X@X-X1X,X,X-X-X,X,X<X,X<X<X=XOX@X@X@X@X@X@X@XN.J >.t.7.N T  X X X}. X(.].^.^.^.",
"_._.).].]._.Z.V..XV.R..XN M 9.L ~ x.m.x.x.x.^ ^ x.x.Z.V.V.OXC.C.V.m.V.V.V.V.C.C.V.V.V.V.V.V.m.V.C.^ J J N G b.m.m.m.m.E.^.^.^.^.",
"`.`.^.W.).E.J.J.I.G.J.J.j.j.H.G.J.J.J.F.F.k.F.F.k.F.J.J.G.G.G.G.G.I.G.G.J.J.J.k.G.J.J.J.J.G.F.k.F.F.k.j.g.j.F.F.F.G.E.).^.^.^.^.",
"_.`.).)._.U.J.L.J.J.J.J.J.J.J.J.J.L.L.G.G.G.F.F.F.F.J.G.J.J.G.L.J.J.J.J.G.G.G.F.G.I.G.J.J.G.F.k.k.k.k.k.k.k.k.k.F.F.K.^.^.^.^.^.",
"_.`._._.`.[.W.U.J.J.J.G.J.J.J.J.J.J.J.G.G.G.G.G.F.F.G.G.G.G.G.G.G.G.J.G.G.F.F.F.G.I.J.J.J.J.G.k.k.k.k.L.L.k.k.k.K.E.^.^.^.^.^.^.",
"_._.]._.`._._.[.`.(.W.E.U.P.I.J.J.J.G.L.G.G.G.G.F.G.G.J.G.G.G.J.G.G.J.J.G.F.F.F.k.I.L.L.J.J.J.k.k.k.K.U.E.Q.Q.^.^.^.^.^.^.^.^.^.",
").^._.[.[.[.[._.[.`.`.`.[.[.[.`.(.W.Q.U.K.L.K.K.P.L.G.G.J.G.G.G.G.J.J.J.G.G.G.J.K.I.E.E.E.!.W.Q.Q.W.W.^.^.W.^.^.).^.^.^.^.^.^.^.",
"^./.).].].[._.].].].].[.`.[.[._.].].].).^.^.^.).]._.)._.)._._._._._.`.[.`.`.).^.).].].].].].^.^.^.^.^.^.^.^.^.^.].^.^.W.^.^.^.^.",
"^./.^.^._.[.[.`._.].`._._.[.`.[.].).).).]._.].).^.).^.^.).)._._._.].[.[.`.`.).^.^.).].].].^.^.^.^.^.Q.^.W.^.^.^.^.^.W.^.^.^.^.^.",
"^.^.^.^.)._._._._.]._.]._.[.`._.].^.^.).].].].)./.^.^.^.^.)._._.[.`.[.[.[._.).^.^.^.).].].^.^.^.Q.^.^.^.^.^.^.^.^.^.^.^.^.^.^.^.",
"^.^.^.^.^.).).).).)._._.[.[.].).).^.)._.].].].).^.^.^.).).).).).).)._.[.[.`.).^.).).].].].].^.^.^.^.^.^.^.).).].).^.^.Q.^.^.^.^."
};
