/* XPM */
static char *result[] = {
/* columns rows colors chars-per-pixel */
"64 64 212 2 ",
"   c #010100",
".  c #0B0602",
"X  c #050A06",
"o  c #060C08",
"O  c #0C0905",
"+  c #110900",
"@  c #120F0D",
"#  c #051309",
"$  c #04190B",
"%  c #081A0E",
"&  c #051409",
"*  c #1F1003",
"=  c #0B1F11",
"-  c #1B1717",
";  c #351803",
":  c #211D1A",
">  c #0B2312",
",  c #0C2917",
"<  c #082617",
"1  c #102E19",
"2  c #142417",
"3  c #0C3B19",
"4  c #0A3519",
"5  c #12341C",
"6  c #14391E",
"7  c #2E2200",
"8  c #332300",
"9  c #24231E",
"0  c #28221B",
"q  c #173E22",
"w  c #2E2721",
"e  c #322B24",
"r  c #33322D",
"t  c #532000",
"y  c #463B2F",
"u  c #493C30",
"i  c #1A4E28",
"p  c #174925",
"a  c #125C25",
"s  c #1C542C",
"d  c #1D5A2E",
"f  c #175828",
"g  c #1E5E32",
"h  c #095C2C",
"j  c #215D31",
"k  c #2B5733",
"l  c #334E37",
"z  c #19632E",
"x  c #086237",
"c  c #1C6B33",
"v  c #1A6236",
"b  c #1E7234",
"n  c #346F2B",
"m  c #236434",
"M  c #246D36",
"N  c #256D3A",
"B  c #2B6737",
"V  c #36693D",
"C  c #26733D",
"Z  c #29743D",
"A  c #277A3E",
"S  c #297A3D",
"D  c #33773A",
"F  c #266F2F",
"G  c #51500D",
"H  c #564D0B",
"J  c #684B00",
"K  c #7E5A02",
"L  c #745301",
"P  c #5A4839",
"I  c #604E3D",
"U  c #63513F",
"Y  c #447B36",
"T  c #3E5744",
"R  c #086C46",
"E  c #146D45",
"W  c #0C7345",
"Q  c #0D7C4B",
"!  c #157343",
"~  c #197242",
"^  c #2B7640",
"/  c #2A7C42",
"(  c #207844",
")  c #3A7A45",
"_  c #367B47",
"`  c #337E5C",
"'  c #4C4C4A",
"]  c #4F5950",
"[  c #5D5955",
"{  c #54484E",
"}  c #6C5846",
"|  c #685B5A",
" . c #765E4C",
".. c #456946",
"X. c #4E7248",
"o. c #7A6651",
"O. c #7B6951",
"+. c #6B6954",
"@. c #706962",
"#. c #805C00",
"$. c #8A6200",
"%. c #99640A",
"&. c #996512",
"*. c #A5690D",
"=. c #A66D1A",
"-. c #AB7617",
";. c #A87517",
":. c #B67615",
">. c #B47B18",
",. c #D96501",
"<. c #FF6E00",
"1. c #FF7900",
"2. c #FC7409",
"3. c #8B7055",
"4. c #A27E5E",
"5. c #1C9240",
"6. c #2C8345",
"7. c #278944",
"8. c #318B4B",
"9. c #348249",
"0. c #2A9649",
"q. c #31924E",
"w. c #3D815A",
"e. c #36A255",
"r. c #27A34C",
"t. c #3C9062",
"y. c #468B53",
"u. c #488556",
"i. c #58935D",
"p. c #4F8D55",
"a. c #698457",
"s. c #728D5C",
"d. c #798857",
"f. c #69935E",
"g. c #539161",
"h. c #7E9B69",
"j. c #6A9163",
"k. c #42B060",
"l. c #74AB6A",
"z. c #74AB6E",
"x. c #BBA512",
"c. c #BA8B39",
"v. c #C28417",
"b. c #FF8700",
"n. c #DBB00F",
"m. c #CEB112",
"M. c #CCA810",
"N. c #E5B804",
"B. c #CA9438",
"V. c #FC9525",
"C. c #E4C100",
"Z. c #FBCD01",
"A. c #FBD100",
"S. c #948D5E",
"D. c #888D5F",
"F. c #A4805C",
"G. c #878F65",
"H. c #849266",
"J. c #8B9268",
"K. c #839A6B",
"L. c #899B6D",
"P. c #899267",
"I. c #929666",
"U. c #829D73",
"Y. c #8B9E71",
"T. c #9C8A79",
"R. c #A48361",
"E. c #AA8560",
"W. c #B48E69",
"Q. c #AA9B68",
"!. c #BE9E6D",
"~. c #BA956C",
"^. c #A28B7C",
"/. c #AA9179",
"(. c #B69576",
"). c #8CA072",
"_. c #80AF74",
"`. c #93A274",
"'. c #89B278",
"]. c #ACA46F",
"[. c #A3A575",
"{. c #BDA371",
"}. c #B6A777",
"|. c #C79657",
" X c #F09A4B",
".X c #CDA05E",
"XX c #D2A05C",
"oX c #F7A24F",
"OX c #C7996B",
"+X c #C59B70",
"@X c #C3A16E",
"#X c #CFA46E",
"$X c #D4A36D",
"%X c #DAA36D",
"&X c #C4A473",
"*X c #CDA473",
"=X c #CAA973",
"-X c #C8A779",
";X c #D3A373",
":X c #DCA671",
">X c #D4A975",
",X c #DEA975",
"<X c #D3AB7A",
"1X c #DEAB78",
"2X c #D4A77A",
"3X c #E0AB77",
"4X c #E0AC78",
"5X c #E4B17E",
"6X c #E5A76B",
"7X c #B5B181",
"8X c #DFB281",
"9X c #E6B381",
/* pixels */
"%X%X%X%X%X%X%X%X%X%X%X%X%X%X:X3X3X%X%X:X3X3X4X:X:X:X1X:X:X%X%X:X,X,X:X:X,X3X:X%X%X$X%X%X%X%X%X1X:X%X%X%X%X%X%X:X3X3X4X:X%X:X4X4X",
"%X%X%X%X%X%X%X%X%X%X:X%X%X%X%X,X,X:X:X:X:X1X4X:X:X:X:X:X%X%X%X:X6X,X%X%X:X:X:X%X%X%X%X%X%X%X%X,X:X%X%X%X%X%X$X%X:X3X3X:X%X:X4X4X",
"%X%X%X%X%X%X%X%X3X5X3X%X%X%X%X%X:X,X,X:X:X:X1X4X4X:X:X%X%X%X%X%X%X%X%X%X%X%X%X%X%X%X%X%X%X1X,X%X%X%X%X%XXX%X%X%X%X3X3X:X%X,X4X4X",
"%X%X%X%X%X%X%X%X3X5X3X%X%X%X%X%X%X:X:X:X:X,X:X1X4X:X%X%X%X%X%X%X%X:X%X%X:X%X%X%X%X%X%X%X%X,X,X%X%X%X%X%X%X%X%X%X%X:X:X:X%X:X,X:X",
"%X%X%X%X%X%X%X%X3X5X4X%X%X%X%X%X%X%X%X,X,X:X%X,X,X:X%X%X%X%X%X%X,X3X:X%X:X:X:X:X%X%X%X%X%X%X%X%X%X:X,X%X%X%X%X%X%X%X%X%X%X%X%X%X",
"%X%X%X%X%X%X%X,X3X4X3X%X%X%X%X%X%X%X:X,X,X%X%X%X,X:X:X:X%X%X%X%X:X:X:X:X,X4X:X:X%X%X:X:X%X%X%X,X:X4X4X%X%X%X%X%X%X%X%X%X%X%X%X%X",
"%X%X:X,X:X%X3X4X3X:X%X%X%X%X%X%X%X3X3X:X%X%X%X%X:X:X:X:X%X%X%X%X%X%X%X%X:X4X4X3X:X%X:X5X4X%X:X5X5X5X5X%X%X%X%X%X%X%X%X$X$X:X,X,X",
"%X%X,X3X:X%X3X5X3X6X%X%X%X%X%X%X%X%X3X%X%X&X`.H.L.Y.).Y.L.L.K.L.L.Y.L.Y.).).).).).K.}.9X3X%X%X5X5X5X5X:X%X%X%X%X%X%X%X%X%X:X,X,X",
"%X%X:X%X%X%X4X5X3X,X:X%X%X%X%X%X%X%X%X%X%XQ._ c F N M N C F C F F S S S S S S S S b ).#X:X$X%X,X,X4X8X6X,X%X#X6X%X:X,X,X,X:X:X:X",
"%X%X%X%X%X%X4X5X3X,X:X%X%X%X%X%X%X%X#X!.S.a.C c c c M c c c c c M a 3 3 3 3 3 3 3 4 X.d.Q.&X%X%X6X4X4X3X4X%X%X,X3X,X3X3X4X:X%X:X",
"%X%X%X%X:X3X,X,X,X%X%X%X%X%X%X%X%X%X+XI.V n Z Z ^ ^ Z ^ ^ ^ ^ 9.8.q X X X X X o X X 2 F i.`.4X4X4X8X5X%X%X,X6X4X3X3X3X3X4X,X,X,X",
"%X%X%X%X:X3X:X%X%X%X%X%X%X%X%X%X%X%X!.H.j a Z Z Z Z Z Z Z Z Z m m >                 & a p.U.9X9X9X5X8X%X%X4X4X4X3X3X4X3X4X4X4X,X",
"%X%X%X%X3X3X:X:X:X%X:X3X3X6X%X:X%X%X+XH.x x W W W W W W W Q x , # o                 < x t.h.8X9X5X4X,X,X6X8X8X4X4X,X6X,X4X3X3X3X",
"%X%X:X,X,X3X3X,X:X%X3X5X5X%X:X:X3X:X&XP.B z Z Z Z Z Z N Z 9.m &                     > f i.).4X9X5X%X%X4X4X5X5X4X4X:X$X>X,X3X3X3X",
":X%X,X,X,X3X3X:X:X:X3X4X3X:X%X:X:X:X%X|.=.*.:.:.:.:.:.:.:.v.&.*                     ; %.B.XX5X9X8X6X6X8X5X9X9X4X4X,X6X,X4X4X4X4X",
"3X,X,X,X,X3X:X3X:X3X3X:X:X:X%X%X%X3X6X X2.<.1.1.1.1.1.1.1.b.,.; .                 . t ,.V.oX9X9X5X4X4X8X9X9X9X4X4X,X,X4X4X4X4X4X",
"3X:X:X:X4X:X:X:X,X,X,X,X:X:X%X%X:X:X%X|.=.&.-.-.-.-.-.-.-.>.=.L J 8           . 8 J #.%.c..X5X5X8X5X5X5X5X5X5X3X3X3X4X4X4X,X4X4X",
"3X4X4X:X:X4X:X:X:X,X,X:X:X:X%X:X:X%X@XD.c z C C C N C C ( E Y M.N.L .         + #.C.x.n u.Y.,X3X4X9X5X,X3X3X,X3X3X3X4X4X,X4X4X4X",
",X1X:X4X,X:X:X%X:X:X,X,X:X:X:X%X%X:X@XH.v x ! ! ! ! ! ~ E R D n.Z.K .         + $.A.M.M ` h.,X4X5X9X9X4X5X3X3X3X3X3X3X4X4X,X,X4X",
"4X4X4X4X:X%X:X%X%X%X%X%X:X,X,X:X:X,X=XP.B z Z S Z Z Z Z C R Y N.A.#..         + $.A.m.n ` U.%X1X3X9X9X9X9X4X4X4X3X4X4X3X4X4X4X4X",
",X,X4X3X:X%X%X%X%X:X%X:X:X4X,X:X:X1X-XP.B z C C C C Z Z C E D M.N.L .         + K N.x.n u.Y.:X1X3X5X5X9X9X5X4X4X4X4X3X3X,X4X4X4X",
"%X%X,X3X:X:X%X%X%X%X,X3X4X4X,X:X:X1X&XG.s a C ^ C C C C A ^ B H J 8             8 J G a 8.h.:X%X%X3X3X9X9X4X4X8X9X>X6X,X4X4X4X4X",
"%X%X,X,X6X%X:X%X%X%X,X,X4X4X,X:X:X:X&XP.j h S ^ C C C C C 6.v X                     # a p.L.,X:X%X3X3X9X9X4X4X8X5X3X6X>X4X4X4X4X",
"4X4X%X%X%X%X,X3X4X4X4X4X4X4X4X4X1X1X8X}.I.s.N c C C ^ C C ^ N 4 < , 5 =     > 5 < $ l a.`.}.:X9X9X9X9X4X4X4X4X6X#X6X>X6X4X,X4X4X",
"4X4X%X%X%X%X,X4X4X4X4X4X4X4X4X4X4X4X1X1X2X}.m a C ^ ^ ^ ^ ^ A ^ ^ 6.q.d   X s 8.F c l.@X%X%X:X5X9X5X5X4X4X4X4X:X%X6X$X4X4X4X4X4X",
"4X4X4X4X:X%X:X,X4X4X4X4X3X4X4X4X4X4X4X1X1X&Xa...Z N N C N N N ^ ^ ^ ^ p o % d 8.y.p.].$X%X4X,X%X:X4X5X4X4X4X4X,X>X4X4X4X4X,X4X,X",
"4X4X4X4X:X%X:X4X4X4X4X4X4X4X3X3X4X4X4X4X4X1X=X!.X.i s s d s d d g 1 # > q i i m D.=X=X%X:X4X,X%X%X4X4X4X4X4X4X,X,X4X4X4X4X>X,X4X",
"4X4X4X,X:X%X:X4X4X4X4X,X3X3X,X:X:X:X4X:X:X%X:X$X+.p i s s s i s d =   % s m i k S.,X,X%X%X,X1X4X4X4X4X%X:X%X%X%X%X6X>X6X6X6X$X6X",
"4X4X,X4X:X%X:X4X4X4X3X3X3X3X,X%X%X,X,X:X:X%X%X#Xf.A F m m m m M N ,   = m Z m V S.:X:X%X:X,X,X1X4X4X1X%X%X%X%X%X%X:X,X%X#X%X%X%X",
"4X,X1X1X,X,X,X4X,X:X,X3X3X3X3X,X:X:X:X:X3X3X%X$Xl.e.7.C C A C Z / 5   > Z 6.C _ I.>X,X%X%X,X,X,X1X4X4X%X%X:X,X,X,X,X4X,X,X,X,X,X",
"4X4X4X4X1X4X,X4X,X:X,X3X3X3X4X3X1X%X%X,X3X3X%X;Xl.e.7.C C C C C Z p = 5 N S C D I.,X:X$X:X4X,X,X,X4X4X%X%X,X4X4X,X4X4X4X3X4X3X3X",
"4X4X,X4X,X4X4X,X,X%X:X3X3X:X:X3X3X,X,X:X%X%X%X%Xl.e.7.C C C C m j m N m j j N Z ].3X,X,X,X:X:X:X:X:X:X:X,X,X3X,X,X,X4X3X4X4X4X4X",
":X:X9X:X:X9X:X:X:X:X:X3X3X:X%X:X:X4X1X:X%X:X*X&Xl.0.6.C C C C m m j j j m m c Z `.<X5X4X,X%X%X%X%X%X%X,X,X,X3X,X,X,X,X,X5X3X3X5X",
"9X9X:X9X:X:X9X9X9X:X3X3X,X%X%X3X4X4X,X:X:X&X'.z.) v N A C C C A Z 6 # 1 N ^ N Z i.z.7X<X%X%X%X:X:X%X$X,X:X,X,X,X,X,X,X3X3X3X4X4X",
":X9X:X:X9X:X9X:X:X9X3X3X,X%X%X3X4X4X4X4X1X].e.7.d s m / C C C ^ 6.5   = C 6.Z N 7.5._.=X%X%X%X,X,X%X%X,X,X,X,X,X,X,X4X4X4X4X4X4X",
"9X:X9X:X:X9X:X:X:X:X3X3X3X%X%X:X4X4X4X4X4X].k.7.m d m C C C C ^ ^ 5   > N 6.N Z 7.0.'.=X:X%X%X,X,X,X%X,X,X:X:X,X,X,X4X3X4X4X4X4X",
":X:X9X:X9X:X9X9X9X:X:X9X,X%X%X3X4X5X4X4X3X}.k.r.N j N Z C C C C ^ 1   > N 6.N Z 7.r.'.-X%X%X%X3X4X,X4X,X,X%X%X,X4X4X4X3X4X4X4X4X",
":X9X%X9X:X:X:X:X:X9X9X:X3X%X:X3X4X:X4X:X:X}.g._ N j N C ^ ^ C C ^ q   > N 6.N C _ 9.`.8X3X%X%X3X,X4X4X,X,X%X%X,X4X4X4X3X4X4X4X,X",
"9X%X9X%X:X9X9X:X:X9X:X:X3X,X3X3X4X:X:X:X:X+X| ] ^ c C / / / / 6.6.q   , ^ 8.6./ T ] ^.2X3X%X%X%X%X4X4X4X4X6X$X3X4X,X,X3X4X3X,X,X",
"%X9X%X9X9X:X:X9X:X:X9X:X,X3X3X3X3X3X:X:X:X+X| { l f g N m N m m N 1   > j C c c ' { ^.2X%X%X%X%X%X4X,X,X,X:X%X>X4X,X,X3X4X>X,X4X",
"9X%X9X%X9X%X8X:X3X3X6X%X,X,X3X3X4X3X,X6X3X~.[ ' 2 # % % % % % % % o   X % = & % r ' T.2X3X%X%X%X%X:X:X%X%X,X,X4X4X,X%X,X>X4X3X4X",
"%X9X%X9X%X9X%X9X3X3X,X%X%X,X3X3X4X4X5X3X3X~.+.[ @                             X r | 7X2X:X%X%X%X%X%X%X%X%X:X:X,X,X:X%X,X3X3X3X4X",
"9X%X9X%X9X%X9X%X3X3X3X3X3X3X3X3X4X5X3X3X3X1X7X(.e                             X } (.+X;X%X%X%X%X%X%X%X,X,X%X%X%X%X%X%X:X,X,X,X,X",
"%X9X%X9X%X9X%X9X3X3X3X3X3X3X9X3X4X3X3X3X3X,X,X;Xy           . X X X .         . 3.:X3X;X%X%X%X%X%X:X%X,X,X%X%X%X%X%X%X,X,X,X,X3X",
"9X%X9X%X9X%X9X%X3X3X3X3X3X3X3X4X4X4X4X4X3X9X,X;X3.P 0   : P U U I I U u O @ y } 4.$X3X3X:X%X%X%X%X%X%X%X%X%X%X%X%X:X,X:X:X,X,X,X",
"%X9X%X9X;X9X%X9X3X3X3X3X3X3X3X4X4X4X4X4X3X3X3X3X;X+X .X U OXOXOXOXOXOX4.9 e E.OXOX%X:X3X3X%X%X%X,X%X%X%XXX%X%X%X%X:X,X:X%X:X,X,X",
"9X%X9X%X9X%X9X%X3X3X3X3X3X3X3X4X4X4X4X4X3X3X3X,X:X:X3.  } :X%X%X%X%X%XE.w r ~.3X:X%X:X3X3X3X3X3X:X%X%X%X%X%X%X%X%X%X6X>X:X,X,X,X",
"%X9X%X9X%X9X%X9X3X3X3X3X3X3X3X4X4X4X4X4X4X3X3X,X%X;Xo.  } $X%X%X%X%X%X4.- w W.3X:X%X:X3X3X3X3X3X,X%X%X%X%X%X%X%X%X%X%X:X,X,X,X,X",
"9X9X%X9X9X%X9X9X%X9X%X9X%X9X%X9X3X3X4X4X4X3X3X:X6X>Xo.  U ;X:X,X:X:X:XF.- e W.3X%X%X%X%X9X%X%X%X,X%X%X%X%X%X%X%X%X%X%X%X%X:X3X3X",
"8X%X8X%X%X9X8X%X9X%X9X%X9X%X9X%X3X3X4X3X3X3X3X3X,X:Xo.  P ;X1X4X1X,X1XR.: e W.2X9X9X9X%XOX%X%X9X4X%X%X%X%X%X%X%X%X%X%X%X%X%X,X3X",
"%X9X%X9X9X%X9X:X%X9X:X9X9X%X%X9X3X3X3X3X3X3X3X:X:X:Xo.  U ;X3X,X1X,X,XR.: e W.1X%X9X9X%X6X%X9X%X%X%X%X%X%X%X%X:X%X%X%X%X:X%X:X,X",
"9X%X9X%X%X9X%X9X9X%X9X%X%X9X%X8X3X3X:X3X:X3X3X:X%X$Xo.  U ;X,X,X,X,X,XF.- e W.1X9X;X%X9X%X9X6X%X$X%X%X%X%X%X%X:X:X%X%X:X3X,X%X%X",
"%X8X9X%X9X%X9X%X%X9X9X%X9X%X9X%X3X:X3X3X3X3X3X:X%X$X .  P ;X,X,X,X,X,X4.- w /.1X%X%X9X%X%X9X%XOX%X%X%X%X%X%X%X:X,X:X%X:X3X:X%X%X",
"%X%X:X9X%X9X%X8X9X9X%X9X%X9X6XOX%X3X3X4X3X3X3X3X%X$XO.X U $X,X,X3X4X1XR.w r W.:X%X%X%X9X%X%X%X%X%X%X%X%X%X%X%X:X3X:X%X:X,X%X%X%X",
"9X%X%X:X9X9X8X%X%X9X9X%X9X%X9X%X:X3X3X3X3X:X3X%X%X%XG.s a.>X3X3X4X4X1XQ.^ T (.%X;X%X%X9X9X%X%X%X%X%X%X%X%X%X%X%X,X:X:X:X:X%X%X%X",
"%X9X;X%X%X%X%X9X9X%X%X9X%X9X%X9X3X3X3X:X%X%X%X%X%X%X`./ K.>X3X,X4X4X1X}.X.+.+X%X9X%X9X%X%X%X%X%X$XXX%XXXXX%X%X%X%X:X,X:X%X%X%X%X",
"%X9X%XOX8X%X9X%X%X9X8X%X9X%X9X%X3X3X,X:X%X%X%X%X%X%XH.c s.>X,X,X1X1X1XQ._ ) Q.%X%X9X%X9X%X%X%X%X%X%X%X%X%X%X%XOX%X:X:X%X%X%X%X%X",
"%X%X9X8X%X9X%X9X9X%X9X%X%X9X%X9X3X3X3X,X3X3X,X:X%X>Xh.c s.>X,X,X,X,X1X]._ ) Q.%X%X8X9X%X8X9X6X%X%XOX%X9X:X%X%X%X%X%X%X%X%X%X%X%X",
"9X%X9X%X9X%X9X%X%X9X%X9X%X9X9X8X3X3X3X,X:X,X:X%X%X%X}.j.[.,X,X,X,X,X,X-XK.H.#X%X%X9X9X%X%X9X%X%X%X%X%X:X:X:X%X%X%X%X%X%X%X%X%X%X",
"%X%X%X8X%X9X%X9X9X%X8X%X9X%X9X%X3X3X3X,X%X%X%X,X,X,X1X>X>X,X,X,X,X,X,X1X<X>X:X%X%X9X%X9X9X%X8XOX%X%X%X:X%X%X%X%X:X%X%X%X%X%X%X%X",
"%X%X9X%X9X%X9X%X%X9X%X9X%X9X%X9X3X3X,X%X%X%X:X:X3X,X:X,X,X,X,X,X,X,X4X4X1X,X:X%X%X9X9X9X:X9X%X%X%X XOX%X%X%X%X%X6X%X%X%X%X%X%X%X",
"%X%X%X%X%X9X%X9X9X%X9X%X9X%X9X%X,X,X:X,X3X,X,X:X%X:X%X%X%X:X,X,X1X4X4X4X1X1X:X%X%X%X%X%X9X%X%X%X%XOX%X%X%X%X%X%X%X%X%X%X%X%X%X%X",
"%X%X%X%X9X%X%X9X%X%X9X9X%X9X%X9X3X%X%X,X3X,X4X:X%X%X%X%X%X%X,X,X,X1X4X4X4X,X:X%X%X%X%X9X%X%X%X%X%X%X%X%X%X%X%X%X%X%XOX%X%X%X%X%X",
"%X%X%X%X%X%X%XOX9X%X%X%X9X%X9XOX%X:X%X,X,X4X,X:X%X%X%X:X,X:X:X,X%X,X,X4X1X1X:X%X%X9X%X:X9X%X6X%XOX%X%X%X%X:X:X:X%X%X%X%X%X%X%X%X"
};
